<?xml version="1.0" encoding="UTF-8" standalone="no"?>
<svg
   xmlns:dc="http://purl.org/dc/elements/1.1/"
   xmlns:cc="http://creativecommons.org/ns#"
   xmlns:rdf="http://www.w3.org/1999/02/22-rdf-syntax-ns#"
   xmlns:svg="http://www.w3.org/2000/svg"
   xmlns="http://www.w3.org/2000/svg"
   viewBox="0 0 456.25 320"
   height="320"
   width="456.25"
   xml:space="preserve"
   version="1.1"
   id="svg2"><metadata
     id="metadata8"><rdf:RDF><cc:Work
         rdf:about=""><dc:format>image/svg+xml</dc:format><dc:type
           rdf:resource="http://purl.org/dc/dcmitype/StillImage" /></cc:Work></rdf:RDF></metadata><defs
     id="defs6"><clipPath
       id="clipPath16"
       clipPathUnits="userSpaceOnUse"><path
         id="path18"
         d="m 0,0 415.5,0 0,306 L 0,306 0,0 Z" /></clipPath></defs><g
     transform="matrix(1.25,0,0,-1.25,0,320)"
     id="g10"><g
       transform="translate(-28,-19)"
       id="g12"><g
         id="g14" /><g
         id="g20"><g
           id="g22"
           clip-path="url(#clipPath16)"><text
             id="text24"
             style="font-variant:normal;font-weight:normal;font-size:15.99990845px;font-family:Arial;-inkscape-font-specification:Arial;writing-mode:lr-tb;fill:#000000;fill-opacity:1;fill-rule:nonzero;stroke:none"
             transform="matrix(0.91913497,-0.39394277,-0.39394277,-0.91913497,145.23,175.53)"><tspan
               id="tspan26"
               y="0"
               x="0 5.3280945 14.226613">req</tspan></text>
<text
             id="text28"
             style="font-variant:normal;font-weight:normal;font-size:15.99993801px;font-family:Arial;-inkscape-font-specification:Arial;writing-mode:lr-tb;fill:#000000;fill-opacity:1;fill-rule:nonzero;stroke:none"
             transform="matrix(0.70710678,0.70710678,0.70710678,-0.70710678,32.314,199.9)"><tspan
               id="tspan30"
               y="0"
               x="0">~</tspan></text>
<text
             id="text32"
             style="font-variant:normal;font-weight:normal;font-size:15.99993801px;font-family:Arial;-inkscape-font-specification:Arial;writing-mode:lr-tb;fill:#000000;fill-opacity:1;fill-rule:nonzero;stroke:none"
             transform="matrix(0.70710678,0.70710678,0.70710678,-0.70710678,38.921,206.51)"><tspan
               id="tspan34"
               y="0"
               x="0 5.3281045 14.226639">req</tspan></text>
<path
             id="path36"
             style="fill:#ffffff;fill-opacity:1;fill-rule:evenodd;stroke:none"
             d="m 90.25,97.426 c 0,9.944 8.059,18.004 18,18.004 9.94,0 18,-8.06 18,-18.004 0,0 0,0 0,0 0,-9.941 -8.06,-18 -18,-18 -9.941,0 -18,8.059 -18,18 z" /><path
             id="path38"
             style="fill:none;stroke:#404040;stroke-width:2.25;stroke-linecap:round;stroke-linejoin:round;stroke-miterlimit:10;stroke-dasharray:none;stroke-opacity:1"
             d="m 90.25,97.426 c 0,9.944 8.059,18.004 18,18.004 9.94,0 18,-8.06 18,-18.004 0,0 0,0 0,0 0,-9.941 -8.06,-18 -18,-18 -9.941,0 -18,8.059 -18,18 z" /><path
             id="path40"
             style="fill:#ffffff;fill-opacity:1;fill-rule:evenodd;stroke:none"
             d="m 189.25,142.43 c 0,9.94 8.06,18 18,18 9.94,0 18,-8.06 18,-18 0,0 0,0 0,0 0,-9.95 -8.06,-18 -18,-18 -9.94,0 -18,8.05 -18,18 z" /><path
             id="path42"
             style="fill:none;stroke:#404040;stroke-width:2.25;stroke-linecap:round;stroke-linejoin:round;stroke-miterlimit:10;stroke-dasharray:none;stroke-opacity:1"
             d="m 189.25,142.43 c 0,9.94 8.06,18 18,18 9.94,0 18,-8.06 18,-18 0,0 0,0 0,0 0,-9.95 -8.06,-18 -18,-18 -9.94,0 -18,8.05 -18,18 z" /><path
             id="path44"
             style="fill:#ffffff;fill-opacity:1;fill-rule:evenodd;stroke:none"
             d="m 171.25,38.926 c 0,9.941 8.06,18 18,18 9.94,0 18,-8.059 18,-18 0,0 0,0 0,0 0,-9.941 -8.06,-18 -18,-18 -9.94,0 -18,8.059 -18,18 z" /><path
             id="path46"
             style="fill:none;stroke:#404040;stroke-width:2.25;stroke-linecap:round;stroke-linejoin:round;stroke-miterlimit:10;stroke-dasharray:none;stroke-opacity:1"
             d="m 171.25,38.926 c 0,9.941 8.06,18 18,18 9.94,0 18,-8.059 18,-18 0,0 0,0 0,0 0,-9.941 -8.06,-18 -18,-18 -9.94,0 -18,8.059 -18,18 z" /><path
             id="path48"
             style="fill:#ffffff;fill-opacity:1;fill-rule:evenodd;stroke:none"
             d="m 279.25,187.43 c 0,9.94 8.06,18 18,18 9.94,0 18,-8.06 18,-18 0,0 0,0 0,0 0,-9.95 -8.06,-18 -18,-18 -9.94,0 -18,8.05 -18,18 z" /><path
             id="path50"
             style="fill:none;stroke:#404040;stroke-width:2.25;stroke-linecap:round;stroke-linejoin:round;stroke-miterlimit:10;stroke-dasharray:none;stroke-opacity:1"
             d="m 279.25,187.43 c 0,9.94 8.06,18 18,18 9.94,0 18,-8.06 18,-18 0,0 0,0 0,0 0,-9.95 -8.06,-18 -18,-18 -9.94,0 -18,8.05 -18,18 z" /><path
             id="path52"
             style="fill:#ffffff;fill-opacity:1;fill-rule:evenodd;stroke:none"
             d="m 265.75,83.926 c 0,9.941 8.06,18.004 18,18.004 9.94,0 18,-8.063 18,-18.004 0,0 0,0 0,0 0,-9.941 -8.06,-18 -18,-18 -9.94,0 -18,8.059 -18,18 z" /><path
             id="path54"
             style="fill:none;stroke:#404040;stroke-width:2.25;stroke-linecap:round;stroke-linejoin:round;stroke-miterlimit:10;stroke-dasharray:none;stroke-opacity:1"
             d="m 265.75,83.926 c 0,9.941 8.06,18.004 18,18.004 9.94,0 18,-8.063 18,-18.004 0,0 0,0 0,0 0,-9.941 -8.06,-18 -18,-18 -9.94,0 -18,8.059 -18,18 z" /><path
             id="path56"
             style="fill:#ffffff;fill-opacity:1;fill-rule:evenodd;stroke:none"
             d="m 355.75,128.93 c 0,9.94 8.06,18 18,18 9.94,0 18,-8.06 18,-18 0,0 0,0 0,0 0,-9.95 -8.06,-18 -18,-18 -9.94,0 -18,8.05 -18,18 z" /><path
             id="path58"
             style="fill:none;stroke:#404040;stroke-width:2.25;stroke-linecap:round;stroke-linejoin:round;stroke-miterlimit:10;stroke-dasharray:none;stroke-opacity:1"
             d="m 355.75,128.93 c 0,9.94 8.06,18 18,18 9.94,0 18,-8.06 18,-18 0,0 0,0 0,0 0,-9.95 -8.06,-18 -18,-18 -9.94,0 -18,8.05 -18,18 z" /><path
             id="path60"
             style="fill:#ffffff;fill-opacity:1;fill-rule:evenodd;stroke:none"
             d="m 342.25,43.426 c 0,9.941 8.06,18 18,18 9.94,0 18,-8.059 18,-18 0,0 0,0 0,0 0,-9.941 -8.06,-18 -18,-18 -9.94,0 -18,8.059 -18,18 z" /><path
             id="path62"
             style="fill:none;stroke:#404040;stroke-width:2.25;stroke-linecap:round;stroke-linejoin:round;stroke-miterlimit:10;stroke-dasharray:none;stroke-opacity:1"
             d="m 342.25,43.426 c 0,9.941 8.06,18 18,18 9.94,0 18,-8.059 18,-18 0,0 0,0 0,0 0,-9.941 -8.06,-18 -18,-18 -9.94,0 -18,8.059 -18,18 z" /><path
             id="path64"
             style="fill:none;stroke:#404040;stroke-width:2.25;stroke-linecap:round;stroke-linejoin:round;stroke-miterlimit:10;stroke-dasharray:none;stroke-opacity:1"
             d="m 120,180 58.5,-25.5" /><path
             id="path66"
             style="fill:#404040;fill-opacity:1;fill-rule:evenodd;stroke:none"
             d="m 179.25,159.75 11.25,-10.5 -15,1.5 3.75,9 z" /><path
             id="path68"
             style="fill:none;stroke:#404040;stroke-width:2.25;stroke-linecap:round;stroke-linejoin:round;stroke-miterlimit:10;stroke-dasharray:none;stroke-opacity:1"
             d="m 190.5,135 -54,-24.75" /><path
             id="path70"
             style="fill:#404040;fill-opacity:1;fill-rule:evenodd;stroke:none"
             d="m 139.5,106.5 -15,-1.5 11.25,10.5 3.75,-9 z" /><path
             id="path72"
             style="fill:none;stroke:#404040;stroke-width:2.25;stroke-linecap:round;stroke-linejoin:round;stroke-miterlimit:10;stroke-dasharray:none;stroke-opacity:1"
             d="M 204,124.5 194.25,69.75" /><path
             id="path74"
             style="fill:#404040;fill-opacity:1;fill-rule:evenodd;stroke:none"
             d="M 199.5,69.75 192,57 l -2.25,14.25 9.75,-1.5 z" /><path
             id="path76"
             style="fill:none;stroke:#404040;stroke-width:2.25;stroke-linecap:round;stroke-linejoin:round;stroke-miterlimit:10;stroke-dasharray:none;stroke-opacity:1"
             d="M 123,87 164.25,57" /><path
             id="path78"
             style="fill:#404040;fill-opacity:1;fill-rule:evenodd;stroke:none"
             d="m 165.75,61.5 9,-12 -14.25,4.5 5.25,7.5 z" /><path
             id="path80"
             style="fill:none;stroke:#404040;stroke-width:2.25;stroke-linecap:round;stroke-linejoin:round;stroke-miterlimit:10;stroke-dasharray:none;stroke-opacity:1"
             d="m 223.5,150.75 45.75,22.5" /><path
             id="path82"
             style="fill:#404040;fill-opacity:1;fill-rule:evenodd;stroke:none"
             d="m 266.25,177 15,2.25 -10.5,-10.5 -4.5,8.25 z" /><path
             id="path84"
             style="fill:none;stroke:#404040;stroke-width:2.25;stroke-linecap:round;stroke-linejoin:round;stroke-miterlimit:10;stroke-dasharray:none;stroke-opacity:1"
             d="m 221.25,131.25 37.5,-28.5" /><path
             id="path86"
             style="fill:#404040;fill-opacity:1;fill-rule:evenodd;stroke:none"
             d="m 261,107.25 8.25,-12.75 -14.25,5.25 6,7.5 z" /><path
             id="path88"
             style="fill:none;stroke:#404040;stroke-width:2.25;stroke-linecap:round;stroke-linejoin:round;stroke-miterlimit:10;stroke-dasharray:none;stroke-opacity:1"
             d="m 311.25,176.25 37.5,-28.5" /><path
             id="path90"
             style="fill:#404040;fill-opacity:1;fill-rule:evenodd;stroke:none"
             d="m 351,152.25 8.25,-12.75 -14.25,5.25 6,7.5 z" /><path
             id="path92"
             style="fill:none;stroke:#404040;stroke-width:2.25;stroke-linecap:round;stroke-linejoin:round;stroke-miterlimit:10;stroke-dasharray:none;stroke-opacity:1"
             d="M 294.75,169.5 288,114.75" /><path
             id="path94"
             style="fill:#404040;fill-opacity:1;fill-rule:evenodd;stroke:none"
             d="m 292.5,115.5 -6.75,-13.5 -2.25,14.25 9,-0.75 z" /><path
             id="path96"
             style="fill:none;stroke:#404040;stroke-width:2.25;stroke-linecap:round;stroke-linejoin:round;stroke-miterlimit:10;stroke-dasharray:none;stroke-opacity:1"
             d="m 300,75.75 33,-18" /><path
             id="path98"
             style="fill:#404040;fill-opacity:1;fill-rule:evenodd;stroke:none"
             d="m 333.75,63 10.5,-11.25 -15,2.25 4.5,9 z" /><path
             id="path100"
             style="fill:none;stroke:#404040;stroke-width:2.25;stroke-linecap:round;stroke-linejoin:round;stroke-miterlimit:10;stroke-dasharray:none;stroke-opacity:1"
             d="m 205.5,46.5 50.25,24" /><path
             id="path102"
             style="fill:#404040;fill-opacity:1;fill-rule:evenodd;stroke:none"
             d="m 252.75,74.25 15,2.25 -11.25,-10.5 -3.75,8.25 z" /><path
             id="path104"
             style="fill:none;stroke:#404040;stroke-width:2.25;stroke-linecap:round;stroke-linejoin:round;stroke-miterlimit:10;stroke-dasharray:none;stroke-opacity:1"
             d="m 373.75,146.93 c 0,72 -68.62,126.89 -137.5,126.07 l 0.27,-0.08 C 182.69,272.2 128.86,237.15 110.25,216.75" /><path
             id="path106"
             style="fill:#404040;fill-opacity:1;fill-rule:evenodd;stroke:none"
             d="m 115.5,215.25 -12,-9.75 3.75,15 8.25,-5.25 z" /><path
             id="path108"
             style="fill:none;stroke:#404040;stroke-width:2.25;stroke-linecap:round;stroke-linejoin:round;stroke-miterlimit:10;stroke-dasharray:none;stroke-opacity:1"
             d="m 363,61.5 6,36.75" /><path
             id="path110"
             style="fill:#404040;fill-opacity:1;fill-rule:evenodd;stroke:none"
             d="m 363.75,97.5 7.5,13.5 2.25,-15 -9.75,1.5 z" /><path
             id="path112"
             style="fill:none;stroke:#3f3f3f;stroke-width:2.25;stroke-linecap:round;stroke-linejoin:round;stroke-miterlimit:10;stroke-dasharray:none;stroke-opacity:1"
             d="M 92.765,173.17 C 84.89,159.35 67.306,154.54 53.491,162.41 c -13.816,7.88 -18.631,25.46 -10.756,39.28 7.875,13.81 25.459,18.63 39.274,10.75 0.617,-0.35 1.221,-0.72 1.81,-1.12" /><path
             id="path114"
             style="fill:#3f3f3f;fill-opacity:1;fill-rule:evenodd;stroke:none"
             d="m 79.5,209.25 13.5,-7.5 -6.75,13.5 -6.75,-6 z" /><path
             id="path116"
             style="fill:#ffffff;fill-opacity:1;fill-rule:evenodd;stroke:none"
             d="m 85.75,187.43 c 0,9.94 8.059,18 18,18 9.94,0 18,-8.06 18,-18 0,0 0,0 0,0 0,-9.95 -8.06,-18 -18,-18 -9.941,0 -18,8.05 -18,18 z" /><path
             id="path118"
             style="fill:none;stroke:#00b0f0;stroke-width:2.25;stroke-linecap:round;stroke-linejoin:round;stroke-miterlimit:10;stroke-dasharray:none;stroke-opacity:1"
             d="m 85.75,187.43 c 0,9.94 8.059,18 18,18 9.94,0 18,-8.06 18,-18 0,0 0,0 0,0 0,-9.95 -8.06,-18 -18,-18 -9.941,0 -18,8.05 -18,18 z" /></g></g></g></g></svg>