<?xml version="1.0" encoding="UTF-8" standalone="no"?>
<svg
   xmlns:dc="http://purl.org/dc/elements/1.1/"
   xmlns:cc="http://creativecommons.org/ns#"
   xmlns:rdf="http://www.w3.org/1999/02/22-rdf-syntax-ns#"
   xmlns:svg="http://www.w3.org/2000/svg"
   xmlns="http://www.w3.org/2000/svg"
   viewBox="0 0 427.5 327.5"
   height="327.5"
   width="427.5"
   xml:space="preserve"
   version="1.1"
   id="svg2"><metadata
     id="metadata8"><rdf:RDF><cc:Work
         rdf:about=""><dc:format>image/svg+xml</dc:format><dc:type
           rdf:resource="http://purl.org/dc/dcmitype/StillImage" /></cc:Work></rdf:RDF></metadata><defs
     id="defs6"><clipPath
       id="clipPath16"
       clipPathUnits="userSpaceOnUse"><path
         id="path18"
         d="m 0,0 398.25,0 0,319.5 L 0,319.5 0,0 Z" /></clipPath></defs><g
     transform="matrix(1.25,0,0,-1.25,0,327.5)"
     id="g10"><g
       transform="translate(-28,-29)"
       id="g12"><g
         id="g14" /><g
         id="g20"><g
           id="g22"
           clip-path="url(#clipPath16)"><path
             id="path24"
             style="fill:#d9e7fb;fill-opacity:1;fill-rule:evenodd;stroke:none"
             d="m 28.5,131.25 170.25,0 0,159 -170.25,0 0,-159 z" /><path
             id="path26"
             style="fill:#fef1cc;fill-opacity:1;fill-rule:evenodd;stroke:none"
             d="m 198.75,131.25 170.25,0 0,159 -170.25,0 0,-159 z" /><text
             id="text28"
             style="font-variant:normal;font-weight:normal;font-size:7.99991989px;font-family:Arial;-inkscape-font-specification:Arial;writing-mode:lr-tb;fill:#000000;fill-opacity:1;fill-rule:nonzero;stroke:none"
             transform="matrix(1,0,0,-1,127.23,276.41)"><tspan
               id="tspan30"
               y="0"
               x="0 5.3357759 9.3358803 13.785048 17.785152 20.007721 25.785145 30.234312 34.234417 36.011738 40.460903 44.910072 47.132641 52.019352 53.796673 58.245838">Sync Design Flow</tspan></text>
<text
             id="text32"
             style="font-variant:normal;font-weight:normal;font-size:7.99991989px;font-family:Arial;-inkscape-font-specification:Arial;writing-mode:lr-tb;fill:#000000;fill-opacity:1;fill-rule:nonzero;stroke:none"
             transform="matrix(1,0,0,-1,206.59,276.73)"><tspan
               id="tspan34"
               y="0"
               x="0 5.3357759 9.3358803 13.335984 17.785152 21.785255 24.007824 29.785248 34.234417 38.23452 40.011841 44.461006 48.910175 51.132744 56.019455 57.796776 62.245945">Async Design Flow</tspan></text>
<text
             id="text36"
             style="font-variant:normal;font-weight:bold;font-size:7.99991989px;font-family:Arial;-inkscape-font-specification:'Arial Bold';writing-mode:lr-tb;fill:#000000;fill-opacity:1;fill-rule:nonzero;stroke:none"
             transform="matrix(1,0,0,-1,141.62,118.38)"><tspan
               id="tspan38"
               y="0"
               x="0">(</tspan></text>
<text
             id="text40"
             style="font-variant:normal;font-weight:bold;font-size:7.99991989px;font-family:Arial;-inkscape-font-specification:'Arial Bold';writing-mode:lr-tb;fill:#000000;fill-opacity:1;fill-rule:nonzero;stroke:none"
             transform="matrix(1,0,0,-1,144.29,118.38)"><tspan
               id="tspan42"
               y="0"
               x="0">A</tspan></text>
<text
             id="text44"
             style="font-variant:normal;font-weight:bold;font-size:7.99991989px;font-family:Arial;-inkscape-font-specification:'Arial Bold';writing-mode:lr-tb;fill:#000000;fill-opacity:1;fill-rule:nonzero;stroke:none"
             transform="matrix(1,0,0,-1,150.07,118.38)"><tspan
               id="tspan46"
               y="0"
               x="0">)</tspan></text>
<text
             id="text48"
             style="font-variant:normal;font-weight:normal;font-size:7.99991989px;font-family:Arial;-inkscape-font-specification:Arial;writing-mode:lr-tb;fill:#000000;fill-opacity:1;fill-rule:nonzero;stroke:none"
             transform="matrix(1,0,0,-1,154.95,118.38)"><tspan
               id="tspan50"
               y="0"
               x="0 5.7774239 10.226592 16.890623 21.339792 25.78896 30.238129 34.687298 39.136463">Component</tspan></text>
<text
             id="text52"
             style="font-variant:normal;font-weight:normal;font-size:7.99991989px;font-family:Arial;-inkscape-font-specification:Arial;writing-mode:lr-tb;fill:#000000;fill-opacity:1;fill-rule:nonzero;stroke:none"
             transform="matrix(1,0,0,-1,196.31,118.38)"><tspan
               id="tspan54"
               y="0"
               x="0">-</tspan></text>
<text
             id="text56"
             style="font-variant:normal;font-weight:normal;font-size:7.99991989px;font-family:Arial;-inkscape-font-specification:Arial;writing-mode:lr-tb;fill:#000000;fill-opacity:1;fill-rule:nonzero;stroke:none"
             transform="matrix(1,0,0,-1,198.98,118.38)"><tspan
               id="tspan58"
               y="0"
               x="0 1.77732 6.2264881 10.226592 14.67576 16.453079 18.675648 24.011423 28.460592 31.124807 32.902126 35.124695 36.902016 40.902119 45.351288 47.573856 49.351177 53.800343">level Verification</tspan></text>
<path
             id="path60"
             style="fill:#f2f2f2;fill-opacity:1;fill-rule:evenodd;stroke:none"
             d="m 28.5,46.5 340.5,0 0,60.75 -340.5,0 0,-60.75 z" /><text
             id="text62"
             style="font-variant:normal;font-weight:bold;font-size:7.99991989px;font-family:Arial;-inkscape-font-specification:'Arial Bold';writing-mode:lr-tb;fill:#000000;fill-opacity:1;fill-rule:nonzero;stroke:none"
             transform="matrix(1,0,0,-1,148.97,31.927)"><tspan
               id="tspan64"
               y="0"
               x="0">(</tspan></text>
<text
             id="text66"
             style="font-variant:normal;font-weight:bold;font-size:7.99991989px;font-family:Arial;-inkscape-font-specification:'Arial Bold';writing-mode:lr-tb;fill:#000000;fill-opacity:1;fill-rule:nonzero;stroke:none"
             transform="matrix(1,0,0,-1,151.63,31.927)"><tspan
               id="tspan68"
               y="0"
               x="0">B</tspan></text>
<text
             id="text70"
             style="font-variant:normal;font-weight:bold;font-size:7.99991989px;font-family:Arial;-inkscape-font-specification:'Arial Bold';writing-mode:lr-tb;fill:#000000;fill-opacity:1;fill-rule:nonzero;stroke:none"
             transform="matrix(1,0,0,-1,157.41,31.927)"><tspan
               id="tspan72"
               y="0"
               x="0 2.664216">) </tspan></text>
<text
             id="text74"
             style="font-variant:normal;font-weight:normal;font-size:7.99991989px;font-family:Arial;-inkscape-font-specification:Arial;writing-mode:lr-tb;fill:#000000;fill-opacity:1;fill-rule:nonzero;stroke:none"
             transform="matrix(1,0,0,-1,162.3,31.927)"><tspan
               id="tspan76"
               y="0"
               x="0 5.3357759 9.3358803 13.335984 15.558552 20.007721">System</tspan></text>
<text
             id="text78"
             style="font-variant:normal;font-weight:normal;font-size:7.99991989px;font-family:Arial;-inkscape-font-specification:Arial;writing-mode:lr-tb;fill:#000000;fill-opacity:1;fill-rule:nonzero;stroke:none"
             transform="matrix(1,0,0,-1,188.97,31.927)"><tspan
               id="tspan80"
               y="0"
               x="0">-</tspan></text>
<text
             id="text82"
             style="font-variant:normal;font-weight:normal;font-size:7.99991989px;font-family:Arial;-inkscape-font-specification:Arial;writing-mode:lr-tb;fill:#000000;fill-opacity:1;fill-rule:nonzero;stroke:none"
             transform="matrix(1,0,0,-1,191.63,31.927)"><tspan
               id="tspan84"
               y="0"
               x="0 1.77732 6.2264881 10.226592 14.67576 16.453079 18.675648 24.011423 28.460592 31.124807 32.902126 35.124695 36.902016 40.902119 45.351288 47.573856 49.351177 53.800343">level Verification</tspan></text>
<g
             id="g86"><path
               id="path88"
               style="fill:none;stroke:#b2b2b2;stroke-width:1;stroke-linecap:round;stroke-linejoin:round;stroke-miterlimit:10;stroke-dasharray:1, 2;stroke-dashoffset:0;stroke-opacity:1"
               d="m 198.75,131.25 0,159" /></g><path
             id="path90"
             style="fill:#ffffff;fill-opacity:1;fill-rule:evenodd;stroke:none"
             d="m 41.393,206.27 c 0,9 7.297,16.3 16.299,16.3 9.002,0 16.299,-7.3 16.299,-16.3 0,0 0,0 0,0 0,-9 -7.297,-16.3 -16.299,-16.3 -9.002,0 -16.299,7.3 -16.299,16.3 z" /><path
             id="path92"
             style="fill:none;stroke:#000000;stroke-width:1;stroke-linecap:round;stroke-linejoin:round;stroke-miterlimit:10;stroke-dasharray:none;stroke-opacity:1"
             d="m 41.393,206.27 c 0,9 7.297,16.3 16.299,16.3 9.002,0 16.299,-7.3 16.299,-16.3 0,0 0,0 0,0 0,-9 -7.297,-16.3 -16.299,-16.3 -9.002,0 -16.299,7.3 -16.299,16.3 z" /><text
             id="text94"
             style="font-variant:normal;font-weight:normal;font-size:7.99991989px;font-family:Arial;-inkscape-font-specification:Arial;writing-mode:lr-tb;fill:#000000;fill-opacity:1;fill-rule:nonzero;stroke:none"
             transform="matrix(1,0,0,-1,49.688,203.87)"><tspan
               id="tspan96"
               y="0"
               x="0 5.3357759 10.671552">SVA</tspan></text>
<path
             id="path98"
             style="fill:#ffffff;fill-opacity:1;fill-rule:evenodd;stroke:none"
             d="m 41.393,159.68 c 0,9 7.297,16.3 16.299,16.3 9.002,0 16.299,-7.3 16.299,-16.3 0,0 0,0 0,0 0,-9 -7.297,-16.3 -16.299,-16.3 -9.002,0 -16.299,7.3 -16.299,16.3 z" /><path
             id="path100"
             style="fill:none;stroke:#000000;stroke-width:1;stroke-linecap:round;stroke-linejoin:round;stroke-miterlimit:10;stroke-dasharray:none;stroke-opacity:1"
             d="m 41.393,159.68 c 0,9 7.297,16.3 16.299,16.3 9.002,0 16.299,-7.3 16.299,-16.3 0,0 0,0 0,0 0,-9 -7.297,-16.3 -16.299,-16.3 -9.002,0 -16.299,7.3 -16.299,16.3 z" /><text
             id="text102"
             style="font-variant:normal;font-weight:normal;font-size:7.99991989px;font-family:Arial;-inkscape-font-specification:Arial;writing-mode:lr-tb;fill:#000000;fill-opacity:1;fill-rule:nonzero;stroke:none"
             transform="matrix(1,0,0,-1,50.131,157.28)"><tspan
               id="tspan104"
               y="0"
               x="0 5.3357759 10.671552">PSL</tspan></text>
<path
             id="path106"
             style="fill:#ffffff;fill-opacity:1;fill-rule:evenodd;stroke:none"
             d="m 41.393,252.87 c 0,9 7.297,16.3 16.299,16.3 9.002,0 16.299,-7.3 16.299,-16.3 0,0 0,0 0,0 0,-9 -7.297,-16.3 -16.299,-16.3 -9.002,0 -16.299,7.3 -16.299,16.3 z" /><path
             id="path108"
             style="fill:none;stroke:#000000;stroke-width:1;stroke-linecap:round;stroke-linejoin:round;stroke-miterlimit:10;stroke-dasharray:none;stroke-opacity:1"
             d="m 41.393,252.87 c 0,9 7.297,16.3 16.299,16.3 9.002,0 16.299,-7.3 16.299,-16.3 0,0 0,0 0,0 0,-9 -7.297,-16.3 -16.299,-16.3 -9.002,0 -16.299,7.3 -16.299,16.3 z" /><text
             id="text110"
             style="font-variant:normal;font-weight:normal;font-size:7.99991989px;font-family:Arial;-inkscape-font-specification:Arial;writing-mode:lr-tb;fill:#000000;fill-opacity:1;fill-rule:nonzero;stroke:none"
             transform="matrix(1,0,0,-1,50.135,250.47)"><tspan
               id="tspan112"
               y="0"
               x="0 5.7774239 10.664136">RTL</tspan></text>
<path
             id="path114"
             style="fill:#ffffff;fill-opacity:1;fill-rule:evenodd;stroke:none"
             d="m 324.86,159.5 c 0,9 7.29,16.3 16.3,16.3 9,0 16.3,-7.3 16.3,-16.3 0,0 0,0 0,0 0,-9 -7.3,-16.3 -16.3,-16.3 -9.01,0 -16.3,7.3 -16.3,16.3 z" /><path
             id="path116"
             style="fill:none;stroke:#000000;stroke-width:1;stroke-linecap:round;stroke-linejoin:round;stroke-miterlimit:10;stroke-dasharray:none;stroke-opacity:1"
             d="m 324.86,159.5 c 0,9 7.29,16.3 16.3,16.3 9,0 16.3,-7.3 16.3,-16.3 0,0 0,0 0,0 0,-9 -7.3,-16.3 -16.3,-16.3 -9.01,0 -16.3,7.3 -16.3,16.3 z" /><text
             id="text118"
             style="font-variant:normal;font-weight:normal;font-size:7.99991989px;font-family:Arial;-inkscape-font-specification:Arial;writing-mode:lr-tb;fill:#000000;fill-opacity:1;fill-rule:nonzero;stroke:none"
             transform="matrix(1,0,0,-1,332.93,157.1)"><tspan
               id="tspan120"
               y="0"
               x="0 5.3357759 10.222488">STG</tspan></text>
<path
             id="path122"
             style="fill:#ffffff;fill-opacity:1;fill-rule:evenodd;stroke:none"
             d="m 324.86,205.92 c 0,9 7.29,16.3 16.3,16.3 9,0 16.3,-7.3 16.3,-16.3 0,0 0,0 0,0 0,-9 -7.3,-16.3 -16.3,-16.3 -9.01,0 -16.3,7.3 -16.3,16.3 z" /><path
             id="path124"
             style="fill:none;stroke:#000000;stroke-width:1;stroke-linecap:round;stroke-linejoin:round;stroke-miterlimit:10;stroke-dasharray:none;stroke-opacity:1"
             d="m 324.86,205.92 c 0,9 7.29,16.3 16.3,16.3 9,0 16.3,-7.3 16.3,-16.3 0,0 0,0 0,0 0,-9 -7.3,-16.3 -16.3,-16.3 -9.01,0 -16.3,7.3 -16.3,16.3 z" /><text
             id="text126"
             style="font-variant:normal;font-weight:normal;font-size:7.99991989px;font-family:Arial;-inkscape-font-specification:Arial;writing-mode:lr-tb;fill:#000000;fill-opacity:1;fill-rule:nonzero;stroke:none"
             transform="matrix(1,0,0,-1,332.71,203.52)"><tspan
               id="tspan128"
               y="0"
               x="0 5.7774239 11.554848">CHP</tspan></text>
<path
             id="path130"
             style="fill:#ffffff;fill-opacity:1;fill-rule:evenodd;stroke:none"
             d="m 324.5,252.69 c 0,9.2 7.46,16.65 16.66,16.65 9.19,0 16.65,-7.45 16.65,-16.65 0,0 0,0 0,0 0,-9.2 -7.46,-16.65 -16.65,-16.65 -9.2,0 -16.66,7.45 -16.66,16.65 z" /><path
             id="path132"
             style="fill:none;stroke:#000000;stroke-width:1;stroke-linecap:round;stroke-linejoin:round;stroke-miterlimit:10;stroke-dasharray:none;stroke-opacity:1"
             d="m 324.5,252.69 c 0,9.2 7.46,16.65 16.66,16.65 9.19,0 16.65,-7.45 16.65,-16.65 0,0 0,0 0,0 0,-9.2 -7.46,-16.65 -16.65,-16.65 -9.2,0 -16.66,7.45 -16.66,16.65 z" /><text
             id="text134"
             style="font-variant:normal;font-weight:normal;font-size:7.99991989px;font-family:Arial;-inkscape-font-specification:Arial;writing-mode:lr-tb;fill:#000000;fill-opacity:1;fill-rule:nonzero;stroke:none"
             transform="matrix(1,0,0,-1,330.05,250.29)"><tspan
               id="tspan136"
               y="0"
               x="0 5.3357759 10.222488 15.558264">AFSM</tspan></text>
<path
             id="path138"
             style="fill:none;stroke:#000000;stroke-width:1;stroke-linecap:round;stroke-linejoin:round;stroke-miterlimit:10;stroke-dasharray:none;stroke-opacity:1"
             d="m 114.75,215.25 0,-11.25" /><path
             id="path140"
             style="fill:#000000;fill-opacity:1;fill-rule:evenodd;stroke:none"
             d="m 117.75,204.75 -3,-7.5 -2.25,7.5 5.25,0 z" /><path
             id="path142"
             style="fill:none;stroke:#000000;stroke-width:1;stroke-linecap:round;stroke-linejoin:round;stroke-miterlimit:10;stroke-dasharray:none;stroke-opacity:1"
             d="m 153.75,197.25 0,11.25" /><path
             id="path144"
             style="fill:#000000;fill-opacity:1;fill-rule:evenodd;stroke:none"
             d="m 150.75,207.75 3,7.5 2.25,-7.5 -5.25,0 z" /><path
             id="path146"
             style="fill:#ffffff;fill-opacity:1;fill-rule:evenodd;stroke:none"
             d="m 87.75,215.25 93,0 0,28.5 -93,0 0,-28.5 z" /><path
             id="path148"
             style="fill:none;stroke:#000000;stroke-width:1;stroke-linecap:round;stroke-linejoin:round;stroke-miterlimit:10;stroke-dasharray:none;stroke-opacity:1"
             d="m 87.75,215.25 93,0 0,28.5 -93,0 0,-28.5 z" /><text
             id="text150"
             style="font-variant:normal;font-weight:normal;font-size:7.99991989px;font-family:Arial;-inkscape-font-specification:Arial;writing-mode:lr-tb;fill:#000000;fill-opacity:1;fill-rule:nonzero;stroke:none"
             transform="matrix(1,0,0,-1,98.213,227.26)"><tspan
               id="tspan152"
               y="0"
               x="0 5.7774239 10.226592 16.890623 21.339792 25.78896 30.238129 34.687298 39.136463 41.359032">Component </tspan></text>
<text
             id="text154"
             style="font-variant:normal;font-weight:normal;font-size:7.99991989px;font-family:Arial;-inkscape-font-specification:Arial;writing-mode:lr-tb;fill:#000000;fill-opacity:1;fill-rule:nonzero;stroke:none"
             transform="matrix(1,0,0,-1,141.79,227.26)"><tspan
               id="tspan156"
               y="0"
               x="0 4.4491682">1 </tspan></text>
<text
             id="text158"
             style="font-variant:normal;font-weight:normal;font-size:7.99991989px;font-family:Arial;-inkscape-font-specification:Arial;writing-mode:lr-tb;fill:#000000;fill-opacity:1;fill-rule:nonzero;stroke:none"
             transform="matrix(1,0,0,-1,148.47,227.26)"><tspan
               id="tspan160"
               y="0"
               x="0">(</tspan></text>
<text
             id="text162"
             style="font-variant:normal;font-weight:normal;font-size:7.99991989px;font-family:Arial;-inkscape-font-specification:Arial;writing-mode:lr-tb;fill:#000000;fill-opacity:1;fill-rule:nonzero;stroke:none"
             transform="matrix(1,0,0,-1,151.13,227.26)"><tspan
               id="tspan164"
               y="0"
               x="0 4.000104 8.0002079 12.449376">sync</tspan></text>
<text
             id="text166"
             style="font-variant:normal;font-weight:normal;font-size:7.99991989px;font-family:Arial;-inkscape-font-specification:Arial;writing-mode:lr-tb;fill:#000000;fill-opacity:1;fill-rule:nonzero;stroke:none"
             transform="matrix(1,0,0,-1,167.58,227.26)"><tspan
               id="tspan168"
               y="0"
               x="0">)</tspan></text>
<path
             id="path170"
             style="fill:#ffffff;fill-opacity:1;fill-rule:evenodd;stroke:none"
             d="m 87.75,168.75 93,0 0,28.5 -93,0 0,-28.5 z" /><path
             id="path172"
             style="fill:none;stroke:#000000;stroke-width:1;stroke-linecap:round;stroke-linejoin:round;stroke-miterlimit:10;stroke-dasharray:none;stroke-opacity:1"
             d="m 87.75,168.75 93,0 0,28.5 -93,0 0,-28.5 z" /><text
             id="text174"
             style="font-variant:normal;font-weight:normal;font-size:7.99991989px;font-family:Arial;-inkscape-font-specification:Arial;writing-mode:lr-tb;fill:#000000;fill-opacity:1;fill-rule:nonzero;stroke:none"
             transform="matrix(1,0,0,-1,93.76,180.49)"><tspan
               id="tspan176"
               y="0"
               x="0 6.664032 11.1132 15.562368 20.011536 21.788857 24.011423 28.460592 30.683161 32.905727 38.683151 43.13232 49.796352 54.245522 58.694687 63.143856 67.593025 72.042191 74.264763">Model of Component </tspan></text>
<text
             id="text178"
             style="font-variant:normal;font-weight:normal;font-size:7.99991989px;font-family:Arial;-inkscape-font-specification:Arial;writing-mode:lr-tb;fill:#000000;fill-opacity:1;fill-rule:nonzero;stroke:none"
             transform="matrix(1,0,0,-1,170.25,180.49)"><tspan
               id="tspan180"
               y="0"
               x="0">2</tspan></text>
<path
             id="path182"
             style="fill:none;stroke:#000000;stroke-width:1;stroke-linecap:round;stroke-linejoin:round;stroke-miterlimit:10;stroke-dasharray:none;stroke-opacity:1"
             d="m 245.25,215.25 0,-11.25" /><path
             id="path184"
             style="fill:#000000;fill-opacity:1;fill-rule:evenodd;stroke:none"
             d="m 247.5,204.75 -2.25,-7.5 -2.25,7.5 4.5,0 z" /><path
             id="path186"
             style="fill:none;stroke:#000000;stroke-width:1;stroke-linecap:round;stroke-linejoin:round;stroke-miterlimit:10;stroke-dasharray:none;stroke-opacity:1"
             d="m 283.5,197.25 0,11.25" /><path
             id="path188"
             style="fill:#000000;fill-opacity:1;fill-rule:evenodd;stroke:none"
             d="m 281.25,207.75 2.25,7.5 3,-7.5 -5.25,0 z" /><path
             id="path190"
             style="fill:#ffffff;fill-opacity:1;fill-rule:evenodd;stroke:none"
             d="m 218.25,215.25 93,0 0,28.5 -93,0 0,-28.5 z" /><path
             id="path192"
             style="fill:none;stroke:#000000;stroke-width:1;stroke-linecap:round;stroke-linejoin:round;stroke-miterlimit:10;stroke-dasharray:none;stroke-opacity:1"
             d="m 218.25,215.25 93,0 0,28.5 -93,0 0,-28.5 z" /><text
             id="text194"
             style="font-variant:normal;font-weight:normal;font-size:7.99991989px;font-family:Arial;-inkscape-font-specification:Arial;writing-mode:lr-tb;fill:#000000;fill-opacity:1;fill-rule:nonzero;stroke:none"
             transform="matrix(1,0,0,-1,226.38,227.09)"><tspan
               id="tspan196"
               y="0"
               x="0 5.7774239 10.226592 16.890623 21.339792 25.78896 30.238129 34.687298 39.136463 41.359032">Component </tspan></text>
<text
             id="text198"
             style="font-variant:normal;font-weight:normal;font-size:7.99991989px;font-family:Arial;-inkscape-font-specification:Arial;writing-mode:lr-tb;fill:#000000;fill-opacity:1;fill-rule:nonzero;stroke:none"
             transform="matrix(1,0,0,-1,269.96,227.09)"><tspan
               id="tspan200"
               y="0"
               x="0 4.4491682">2 </tspan></text>
<text
             id="text202"
             style="font-variant:normal;font-weight:normal;font-size:7.99991989px;font-family:Arial;-inkscape-font-specification:Arial;writing-mode:lr-tb;fill:#000000;fill-opacity:1;fill-rule:nonzero;stroke:none"
             transform="matrix(1,0,0,-1,276.64,227.09)"><tspan
               id="tspan204"
               y="0"
               x="0">(</tspan></text>
<text
             id="text206"
             style="font-variant:normal;font-weight:normal;font-size:7.99991989px;font-family:Arial;-inkscape-font-specification:Arial;writing-mode:lr-tb;fill:#000000;fill-opacity:1;fill-rule:nonzero;stroke:none"
             transform="matrix(1,0,0,-1,279.3,227.09)"><tspan
               id="tspan208"
               y="0"
               x="0 4.4491682 8.4492722 12.449376 16.898544">async</tspan></text>
<text
             id="text210"
             style="font-variant:normal;font-weight:normal;font-size:7.99991989px;font-family:Arial;-inkscape-font-specification:Arial;writing-mode:lr-tb;fill:#000000;fill-opacity:1;fill-rule:nonzero;stroke:none"
             transform="matrix(1,0,0,-1,300.2,227.09)"><tspan
               id="tspan212"
               y="0"
               x="0">)</tspan></text>
<path
             id="path214"
             style="fill:#ffffff;fill-opacity:1;fill-rule:evenodd;stroke:none"
             d="m 218.25,168.75 93,0 0,28.5 -93,0 0,-28.5 z" /><path
             id="path216"
             style="fill:none;stroke:#000000;stroke-width:1;stroke-linecap:round;stroke-linejoin:round;stroke-miterlimit:10;stroke-dasharray:none;stroke-opacity:1"
             d="m 218.25,168.75 93,0 0,28.5 -93,0 0,-28.5 z" /><text
             id="text218"
             style="font-variant:normal;font-weight:normal;font-size:7.99991989px;font-family:Arial;-inkscape-font-specification:Arial;writing-mode:lr-tb;fill:#000000;fill-opacity:1;fill-rule:nonzero;stroke:none"
             transform="matrix(1,0,0,-1,224.15,180.32)"><tspan
               id="tspan220"
               y="0"
               x="0 6.664032 11.1132 15.562368 20.011536 21.788857 24.011423 28.460592 30.683161 32.905727 38.683151 43.13232 49.796352 54.245522 58.694687 63.143856 67.593025 72.042191 74.264763">Model of Component </tspan></text>
<text
             id="text222"
             style="font-variant:normal;font-weight:normal;font-size:7.99991989px;font-family:Arial;-inkscape-font-specification:Arial;writing-mode:lr-tb;fill:#000000;fill-opacity:1;fill-rule:nonzero;stroke:none"
             transform="matrix(1,0,0,-1,300.64,180.32)"><tspan
               id="tspan224"
               y="0"
               x="0">1</tspan></text>
<path
             id="path226"
             style="fill:none;stroke:#000000;stroke-width:1;stroke-linecap:round;stroke-linejoin:round;stroke-miterlimit:10;stroke-dasharray:none;stroke-opacity:1"
             d="m 180.75,84 30.75,0" /><path
             id="path228"
             style="fill:#000000;fill-opacity:1;fill-rule:evenodd;stroke:none"
             d="m 210.75,86.25 7.5,-2.25 -7.5,-2.25 0,4.5 z" /><path
             id="path230"
             style="fill:#ffffff;fill-opacity:1;fill-rule:evenodd;stroke:none"
             d="m 87.75,63 93,0 0,28.5 -93,0 0,-28.5 z" /><path
             id="path232"
             style="fill:none;stroke:#000000;stroke-width:1;stroke-linecap:round;stroke-linejoin:round;stroke-miterlimit:10;stroke-dasharray:none;stroke-opacity:1"
             d="m 87.75,63 93,0 0,28.5 -93,0 0,-28.5 z" /><text
             id="text234"
             style="font-variant:normal;font-weight:normal;font-size:7.99991989px;font-family:Arial;-inkscape-font-specification:Arial;writing-mode:lr-tb;fill:#000000;fill-opacity:1;fill-rule:nonzero;stroke:none"
             transform="matrix(1,0,0,-1,98.213,74.588)"><tspan
               id="tspan236"
               y="0"
               x="0 5.7774239 10.226592 16.890623 21.339792 25.78896 30.238129 34.687298 39.136463 41.359032">Component </tspan></text>
<text
             id="text238"
             style="font-variant:normal;font-weight:normal;font-size:7.99991989px;font-family:Arial;-inkscape-font-specification:Arial;writing-mode:lr-tb;fill:#000000;fill-opacity:1;fill-rule:nonzero;stroke:none"
             transform="matrix(1,0,0,-1,141.79,74.588)"><tspan
               id="tspan240"
               y="0"
               x="0 4.4491682">1 </tspan></text>
<text
             id="text242"
             style="font-variant:normal;font-weight:normal;font-size:7.99991989px;font-family:Arial;-inkscape-font-specification:Arial;writing-mode:lr-tb;fill:#000000;fill-opacity:1;fill-rule:nonzero;stroke:none"
             transform="matrix(1,0,0,-1,148.47,74.588)"><tspan
               id="tspan244"
               y="0"
               x="0">(</tspan></text>
<text
             id="text246"
             style="font-variant:normal;font-weight:normal;font-size:7.99991989px;font-family:Arial;-inkscape-font-specification:Arial;writing-mode:lr-tb;fill:#000000;fill-opacity:1;fill-rule:nonzero;stroke:none"
             transform="matrix(1,0,0,-1,151.13,74.588)"><tspan
               id="tspan248"
               y="0"
               x="0 4.000104 8.0002079 12.449376">sync</tspan></text>
<text
             id="text250"
             style="font-variant:normal;font-weight:normal;font-size:7.99991989px;font-family:Arial;-inkscape-font-specification:Arial;writing-mode:lr-tb;fill:#000000;fill-opacity:1;fill-rule:nonzero;stroke:none"
             transform="matrix(1,0,0,-1,167.58,74.588)"><tspan
               id="tspan252"
               y="0"
               x="0">)</tspan></text>
<path
             id="path254"
             style="fill:#ffffff;fill-opacity:1;fill-rule:evenodd;stroke:none"
             d="m 218.25,63 93,0 0,28.5 -93,0 0,-28.5 z" /><path
             id="path256"
             style="fill:none;stroke:#000000;stroke-width:1;stroke-linecap:round;stroke-linejoin:round;stroke-miterlimit:10;stroke-dasharray:none;stroke-opacity:1"
             d="m 218.25,63 93,0 0,28.5 -93,0 0,-28.5 z" /><text
             id="text258"
             style="font-variant:normal;font-weight:normal;font-size:7.99991989px;font-family:Arial;-inkscape-font-specification:Arial;writing-mode:lr-tb;fill:#000000;fill-opacity:1;fill-rule:nonzero;stroke:none"
             transform="matrix(1,0,0,-1,226.38,74.588)"><tspan
               id="tspan260"
               y="0"
               x="0 5.7774239 10.226592 16.890623 21.339792 25.78896 30.238129 34.687298 39.136463 41.359032">Component </tspan></text>
<text
             id="text262"
             style="font-variant:normal;font-weight:normal;font-size:7.99991989px;font-family:Arial;-inkscape-font-specification:Arial;writing-mode:lr-tb;fill:#000000;fill-opacity:1;fill-rule:nonzero;stroke:none"
             transform="matrix(1,0,0,-1,269.96,74.588)"><tspan
               id="tspan264"
               y="0"
               x="0 4.4491682">2 </tspan></text>
<text
             id="text266"
             style="font-variant:normal;font-weight:normal;font-size:7.99991989px;font-family:Arial;-inkscape-font-specification:Arial;writing-mode:lr-tb;fill:#000000;fill-opacity:1;fill-rule:nonzero;stroke:none"
             transform="matrix(1,0,0,-1,276.64,74.588)"><tspan
               id="tspan268"
               y="0"
               x="0">(</tspan></text>
<text
             id="text270"
             style="font-variant:normal;font-weight:normal;font-size:7.99991989px;font-family:Arial;-inkscape-font-specification:Arial;writing-mode:lr-tb;fill:#000000;fill-opacity:1;fill-rule:nonzero;stroke:none"
             transform="matrix(1,0,0,-1,279.3,74.588)"><tspan
               id="tspan272"
               y="0"
               x="0 4.4491682 8.4492722 12.449376 16.898544">async</tspan></text>
<text
             id="text274"
             style="font-variant:normal;font-weight:normal;font-size:7.99991989px;font-family:Arial;-inkscape-font-specification:Arial;writing-mode:lr-tb;fill:#000000;fill-opacity:1;fill-rule:nonzero;stroke:none"
             transform="matrix(1,0,0,-1,300.2,74.588)"><tspan
               id="tspan276"
               y="0"
               x="0">)</tspan></text>
<path
             id="path278"
             style="fill:none;stroke:#000000;stroke-width:1;stroke-linecap:round;stroke-linejoin:round;stroke-miterlimit:10;stroke-dasharray:none;stroke-opacity:1"
             d="m 218.25,69.75 -30.75,0" /><path
             id="path280"
             style="fill:#000000;fill-opacity:1;fill-rule:evenodd;stroke:none"
             d="m 187.5,67.5 -6.75,2.25 6.75,2.25 0,-4.5 z" /></g></g></g></g></svg>