<?xml version="1.0" encoding="UTF-8" standalone="no"?>
<svg
   xmlns:dc="http://purl.org/dc/elements/1.1/"
   xmlns:cc="http://creativecommons.org/ns#"
   xmlns:rdf="http://www.w3.org/1999/02/22-rdf-syntax-ns#"
   xmlns:svg="http://www.w3.org/2000/svg"
   xmlns="http://www.w3.org/2000/svg"
   viewBox="0 0 313.75 302.5"
   height="302.5"
   width="313.75"
   xml:space="preserve"
   version="1.1"
   id="svg2"><metadata
     id="metadata8"><rdf:RDF><cc:Work
         rdf:about=""><dc:format>image/svg+xml</dc:format><dc:type
           rdf:resource="http://purl.org/dc/dcmitype/StillImage" /></cc:Work></rdf:RDF></metadata><defs
     id="defs6"><clipPath
       id="clipPath18"
       clipPathUnits="userSpaceOnUse"><path
         id="path20"
         d="M 0,0 595,0 595,842 0,842 0,0 Z" /></clipPath></defs><g
     transform="matrix(1.25,0,0,-1.25,0,302.5)"
     id="g10"><g
       transform="translate(-28,-28)"
       id="g12"><g
         transform="matrix(0,-1,1,0,0,595)"
         id="g14"><g
           clip-path="url(#clipPath18)"
           id="g16"><g
             transform="scale(0.12,0.12)"
             id="g22"><path
               id="path24"
               style="fill:#f2f2f2;fill-opacity:1;fill-rule:evenodd;stroke:none"
               d="m 2712,239.922 2008,0 0,2079 -2008,0 0,-2079 z" /><path
               id="path26"
               style="fill:none;stroke:#000000;stroke-width:8.33240032;stroke-linecap:round;stroke-linejoin:round;stroke-miterlimit:10;stroke-dasharray:8.3324, 16.6648;stroke-dashoffset:0;stroke-opacity:1"
               d="m 2879,1251.92 1259,0" /><path
               id="path28"
               style="fill:#000000;fill-opacity:1;fill-rule:evenodd;stroke:none"
               d="m 4133,1271.92 61,-20 -61,-20 0,40" /><path
               id="path30"
               style="fill:none;stroke:#000000;stroke-width:8.33240032;stroke-linecap:round;stroke-linejoin:round;stroke-miterlimit:10;stroke-dasharray:8.3324, 16.6648;stroke-dashoffset:0;stroke-opacity:1"
               d="m 2849,1305.92 719,0" /><path
               id="path32"
               style="fill:#000000;fill-opacity:1;fill-rule:evenodd;stroke:none"
               d="m 3563,1326.92 61,-21 -61,-20 0,41" /><path
               id="path34"
               style="fill:none;stroke:#000000;stroke-width:8.33240032;stroke-linecap:round;stroke-linejoin:round;stroke-miterlimit:10;stroke-dasharray:8.3324, 16.6648;stroke-dashoffset:0;stroke-opacity:1"
               d="m 2828,1360.92 169,0" /><path
               id="path36"
               style="fill:#000000;fill-opacity:1;fill-rule:evenodd;stroke:none"
               d="m 2992,1380.92 61,-20 -61,-21 0,41" /><path
               id="path38"
               style="fill:#ffffff;fill-opacity:1;fill-rule:evenodd;stroke:none"
               d="m 2763,310.922 178,0 0,1937 -178,0 0,-1937 z" /><path
               id="path40"
               style="fill:none;stroke:#000000;stroke-width:8.33240032;stroke-linecap:round;stroke-linejoin:round;stroke-miterlimit:10;stroke-dasharray:none;stroke-opacity:1"
               d="m 2763,310.922 178,0 0,1937 -178,0 0,-1937 z" /><g
               transform="scale(8.33333,8.33333)"
               id="g42"><text
                 id="text44"
                 style="font-variant:normal;font-weight:normal;font-size:8.04418087px;font-family:Arial;-inkscape-font-specification:Arial;writing-mode:lr-tb;fill:#000000;fill-opacity:1;fill-rule:nonzero;stroke:none"
                 transform="matrix(0,1,0.99948027,0,344.64,109.551)"><tspan
                   id="tspan46"
                   y="0"
                   x="0 5.2800541 9.7188168 15.477453 20.036222 22.676161 24.837502 31.557421 35.996193 40.434963 44.873734 49.312504 53.751274 60.471191 64.909966 69.348732 71.510078 73.79142 79.550049 83.988823 85.78746">Power Management Unit</tspan></text>
</g><path
               id="path48"
               style="fill:#ffffff;fill-opacity:1;fill-rule:evenodd;stroke:none"
               d="m 3624,1747.92 452,0 0,500 -452,0 0,-500 z" /><path
               id="path50"
               style="fill:none;stroke:#000000;stroke-width:8.33240032;stroke-linecap:round;stroke-linejoin:round;stroke-miterlimit:10;stroke-dasharray:none;stroke-opacity:1"
               d="m 3624,1747.92 452,0 0,500 -452,0 0,-500 z" /><g
               transform="scale(8.33333,8.33333)"
               id="g52"><text
                 id="text54"
                 style="font-variant:normal;font-weight:normal;font-size:8.04418087px;font-family:Arial;-inkscape-font-specification:Arial;writing-mode:lr-tb;fill:#000000;fill-opacity:1;fill-rule:nonzero;stroke:none"
                 transform="matrix(0,1,0.99948027,0,459.6,216.231)"><tspan
                   id="tspan56"
                   y="0"
                   x="0 4.4387708 7.0787086 12.837344 17.276115 21.356112 23.513527 28.917505 31.557428 35.996185 37.794827 39.956165 44.39492">3-way Arbiter</tspan><tspan
                   id="tspan58"
                   y="9.6049919"
                   x="10.439926 13.079864 17.518635 21.598631 25.558626 29.997381 33.957363">(async)</tspan></text>
</g><path
               id="path60"
               style="fill:none;stroke:#000000;stroke-width:8.33240032;stroke-linecap:round;stroke-linejoin:round;stroke-miterlimit:10;stroke-dasharray:none;stroke-opacity:1"
               d="m 3230,1555.92 0,497 338,0" /><path
               id="path62"
               style="fill:#000000;fill-opacity:1;fill-rule:evenodd;stroke:none"
               d="m 3563,2072.92 61,-20 -61,-21 0,41" /><path
               id="path64"
               style="fill:none;stroke:#000000;stroke-width:8.33240032;stroke-linecap:round;stroke-linejoin:round;stroke-miterlimit:10;stroke-dasharray:none;stroke-opacity:1"
               d="m 3624,1943.92 -296,0 0,-332" /><path
               id="path66"
               style="fill:#000000;fill-opacity:1;fill-rule:evenodd;stroke:none"
               d="m 3349,1616.92 -21,-61 -20,61 41,0" /><path
               id="path68"
               style="fill:none;stroke:#000000;stroke-width:8.33240032;stroke-linecap:round;stroke-linejoin:round;stroke-miterlimit:10;stroke-dasharray:none;stroke-opacity:1"
               d="m 3801,1555.92 0,137" /><path
               id="path70"
               style="fill:#000000;fill-opacity:1;fill-rule:evenodd;stroke:none"
               d="m 3780,1686.92 21,61 20,-61 -41,0" /><path
               id="path72"
               style="fill:none;stroke:#000000;stroke-width:8.33240032;stroke-linecap:round;stroke-linejoin:round;stroke-miterlimit:10;stroke-dasharray:none;stroke-opacity:1"
               d="m 3899,1747.92 0,-136" /><path
               id="path74"
               style="fill:#000000;fill-opacity:1;fill-rule:evenodd;stroke:none"
               d="m 3919,1616.92 -20,-61 -20,61 40,0" /><path
               id="path76"
               style="fill:none;stroke:#000000;stroke-width:8.33240032;stroke-linecap:round;stroke-linejoin:round;stroke-miterlimit:10;stroke-dasharray:none;stroke-opacity:1"
               d="m 4470,1555.92 0,497 -338,0" /><path
               id="path78"
               style="fill:#000000;fill-opacity:1;fill-rule:evenodd;stroke:none"
               d="m 4137,2032.92 -61,20 61,21 0,-41" /><path
               id="path80"
               style="fill:none;stroke:#000000;stroke-width:8.33240032;stroke-linecap:round;stroke-linejoin:round;stroke-miterlimit:10;stroke-dasharray:none;stroke-opacity:1"
               d="m 4076,1943.92 295,0 0,-332" /><path
               id="path82"
               style="fill:#000000;fill-opacity:1;fill-rule:evenodd;stroke:none"
               d="m 4392,1616.92 -21,-61 -20,61 41,0" /><path
               id="path84"
               style="fill:#ffffff;fill-opacity:1;fill-rule:evenodd;stroke:none"
               d="m 3053,310.922 1594,0 0,500 -1594,0 0,-500 z" /><path
               id="path86"
               style="fill:none;stroke:#000000;stroke-width:8.33240032;stroke-linecap:round;stroke-linejoin:round;stroke-miterlimit:10;stroke-dasharray:none;stroke-opacity:1"
               d="m 3053,310.922 1594,0 0,500 -1594,0 0,-500 z" /><g
               transform="scale(8.33333,8.33333)"
               id="g88"><text
                 id="text90"
                 style="font-variant:normal;font-weight:normal;font-size:8.04418087px;font-family:Arial;-inkscape-font-specification:Arial;writing-mode:lr-tb;fill:#000000;fill-opacity:1;fill-rule:nonzero;stroke:none"
                 transform="matrix(0,1,0.99948027,0,459.6,52.9106)"><tspan
                   id="tspan92"
                   y="0"
                   x="0 6.5999231 11.038687 17.758606 22.197369 24.837299">Memory</tspan><tspan
                   id="tspan94"
                   y="9.6049919"
                   x="-5.8799858 -3.1200557 0.83993644 4.7999287 9.2386923 13.318683 15.480031 17.761379 21.721367 23.520014 27.480005 31.918768">(sync, clk4)</tspan></text>
</g><path
               id="path96"
               style="fill:none;stroke:#404040;stroke-width:24.99729919;stroke-linecap:butt;stroke-linejoin:miter;stroke-miterlimit:2;stroke-dasharray:none;stroke-opacity:1"
               d="m 3850,810.922 0,244.998" /><path
               id="path98"
               style="fill:none;stroke:#404040;stroke-width:24.99729919;stroke-linecap:butt;stroke-linejoin:miter;stroke-miterlimit:2;stroke-dasharray:none;stroke-opacity:1"
               d="m 3850,810.922 0,88 -571,0 0,156.998" /><path
               id="path100"
               style="fill:none;stroke:#404040;stroke-width:24.99729919;stroke-linecap:butt;stroke-linejoin:miter;stroke-miterlimit:2;stroke-dasharray:none;stroke-opacity:1"
               d="m 3850,810.922 0,88 571,0 0,156.998" /><g
               transform="scale(8.33333,8.33333)"
               id="g102"><text
                 id="text104"
                 style="font-variant:normal;font-weight:normal;font-size:8.04418087px;font-family:Arial;-inkscape-font-specification:Arial;writing-mode:lr-tb;fill:#000000;fill-opacity:1;fill-rule:nonzero;stroke:none"
                 transform="matrix(0,1,0.99948027,0,384.24,210.591)"><tspan
                   id="tspan106"
                   y="0"
                   x="0 2.6399379">r1</tspan><tspan
                   id="tspan108"
                   y="23.892418"
                   x="-0.95999795 3.4787726">g1</tspan><tspan
                   id="tspan110"
                   y="161.00368"
                   x="0 2.6399379">r3</tspan><tspan
                   id="tspan112"
                   y="136.9912"
                   x="-0.95999795 3.4787726">g3</tspan><tspan
                   id="tspan114"
                   y="67.355003"
                   x="-15.719969 -12.960032">r2</tspan><tspan
                   id="tspan116"
                   y="93.288483"
                   x="-16.559967 -12.121196">g2</tspan></text>
<text
                 id="text118"
                 style="font-variant:normal;font-weight:normal;font-size:8.04418087px;font-family:Arial;-inkscape-font-specification:Arial;writing-mode:lr-tb;fill:#000000;fill-opacity:1;fill-rule:nonzero;stroke:none"
                 transform="matrix(-1,0,0,0.99948027,457.08,119.991)"><tspan
                   id="tspan120"
                   y="0"
                   x="0 5.2800393 9.7187958 14.157552 16.797474 21.236231 25.794987 27.956327 33.236366 37.795124">Shared Bus</tspan></text>
</g><path
               id="path122"
               style="fill:#ffffff;fill-opacity:1;fill-rule:evenodd;stroke:none"
               d="m 3053,1055.92 452,0 0,500 -452,0 0,-500 z" /><path
               id="path124"
               style="fill:none;stroke:#000000;stroke-width:8.33240032;stroke-linecap:round;stroke-linejoin:round;stroke-miterlimit:10;stroke-dasharray:none;stroke-opacity:1"
               d="m 3053,1055.92 452,0 0,500 -452,0 0,-500 z" /><g
               transform="scale(8.33333,8.33333)"
               id="g126"><text
                 id="text128"
                 style="font-variant:normal;font-weight:normal;font-size:8.04418087px;font-family:Arial;-inkscape-font-specification:Arial;writing-mode:lr-tb;fill:#000000;fill-opacity:1;fill-rule:nonzero;stroke:none"
                 transform="matrix(0,1,0.99948027,0,391.08,148.311)"><tspan
                   id="tspan130"
                   y="0"
                   x="0 5.758636 11.158689">CPU</tspan><tspan
                   id="tspan132"
                   y="9.6049919"
                   x="-11.760012 -9.1200743 -5.1600785 -1.0800828 3.3586879 7.3186784 9.6000195 11.76136 15.721356 17.519997 21.599987 26.038757">(sync, clk1)</tspan></text>
</g><path
               id="path134"
               style="fill:#ffffff;fill-opacity:1;fill-rule:evenodd;stroke:none"
               d="m 3624,1055.92 452,0 0,500 -452,0 0,-500 z" /><path
               id="path136"
               style="fill:none;stroke:#000000;stroke-width:8.33240032;stroke-linecap:round;stroke-linejoin:round;stroke-miterlimit:10;stroke-dasharray:none;stroke-opacity:1"
               d="m 3624,1055.92 452,0 0,500 -452,0 0,-500 z" /><g
               transform="scale(8.33333,8.33333)"
               id="g138"><text
                 id="text140"
                 style="font-variant:normal;font-weight:normal;font-size:8.04418087px;font-family:Arial;-inkscape-font-specification:Arial;writing-mode:lr-tb;fill:#000000;fill-opacity:1;fill-rule:nonzero;stroke:none"
                 transform="matrix(0,1,0.99948027,0,459.6,148.311)"><tspan
                   id="tspan142"
                   y="0"
                   x="0 5.758636 11.158689">CPU</tspan><tspan
                   id="tspan144"
                   y="9.6049919"
                   x="-11.760012 -9.1200743 -5.1600785 -1.0800828 3.3586879 7.3186784 9.6000195 11.76136 15.721356 17.519997 21.599987 26.038757">(sync, clk2)</tspan></text>
</g><path
               id="path146"
               style="fill:#ffffff;fill-opacity:1;fill-rule:evenodd;stroke:none"
               d="m 4194,1055.92 453,0 0,500 -453,0 0,-500 z" /><path
               id="path148"
               style="fill:none;stroke:#000000;stroke-width:8.33240032;stroke-linecap:round;stroke-linejoin:round;stroke-miterlimit:10;stroke-dasharray:none;stroke-opacity:1"
               d="m 4194,1055.92 453,0 0,500 -453,0 0,-500 z" /><g
               transform="scale(8.33333,8.33333)"
               id="g150"><text
                 id="text152"
                 style="font-variant:normal;font-weight:normal;font-size:8.04418087px;font-family:Arial;-inkscape-font-specification:Arial;writing-mode:lr-tb;fill:#000000;fill-opacity:1;fill-rule:nonzero;stroke:none"
                 transform="matrix(0,1,0.99948027,0,528.12,148.311)"><tspan
                   id="tspan154"
                   y="0"
                   x="0 5.758636 11.158689">CPU</tspan><tspan
                   id="tspan156"
                   y="9.6049919"
                   x="-11.760012 -9.1200743 -5.1600785 -1.0800828 3.3586879 7.3186784 9.6000195 11.76136 15.721356 17.519997 21.599987 26.038757">(sync, clk3)</tspan></text>
</g></g></g></g></g></g></svg>