<?xml version="1.0" encoding="UTF-8" standalone="no"?>
<svg
   xmlns:dc="http://purl.org/dc/elements/1.1/"
   xmlns:cc="http://creativecommons.org/ns#"
   xmlns:rdf="http://www.w3.org/1999/02/22-rdf-syntax-ns#"
   xmlns:svg="http://www.w3.org/2000/svg"
   xmlns="http://www.w3.org/2000/svg"
   viewBox="0 0 313.75 302.5"
   height="302.5"
   width="313.75"
   xml:space="preserve"
   version="1.1"
   id="svg2"><metadata
     id="metadata8"><rdf:RDF><cc:Work
         rdf:about=""><dc:format>image/svg+xml</dc:format><dc:type
           rdf:resource="http://purl.org/dc/dcmitype/StillImage" /></cc:Work></rdf:RDF></metadata><defs
     id="defs6"><clipPath
       id="clipPath18"
       clipPathUnits="userSpaceOnUse"><path
         id="path20"
         d="M 0,0 595,0 595,842 0,842 0,0 Z" /></clipPath></defs><g
     transform="matrix(1.25,0,0,-1.25,0,302.5)"
     id="g10"><g
       transform="translate(-28,-28)"
       id="g12"><g
         transform="matrix(0,-1,1,0,0,595)"
         id="g14"><g
           clip-path="url(#clipPath18)"
           id="g16"><g
             transform="scale(0.06,0.06)"
             id="g22"><path
               id="path24"
               style="fill:#f2f2f2;fill-opacity:1;fill-rule:evenodd;stroke:none"
               d="m 5425,480.844 4015,0 0,4157 -4015,0 0,-4157 z" /><path
               id="path26"
               style="fill:#ffffff;fill-opacity:1;fill-rule:evenodd;stroke:none"
               d="m 6897,834.844 0,803.996 c 0,104 -85,189 -189,189 l 0,0 0,-1 -142,0 0,1 c -104,0 -189,-85 -189,-189 l 0,-803.996 0,1 c 0,-105 85,-189 189,-189 l 0,-1 142,0 0,1 c 104,0 189,84 189,189" /><path
               id="path28"
               style="fill:none;stroke:#000000;stroke-width:16.66600037;stroke-linecap:round;stroke-linejoin:round;stroke-miterlimit:10;stroke-dasharray:none;stroke-opacity:1"
               d="m 6897,834.844 0,803.996 c 0,104 -85,189 -189,189 l 0,0 0,-1 -142,0 0,1 c -104,0 -189,-85 -189,-189 l 0,-803.996 0,1 c 0,-105 85,-189 189,-189 l 0,-1 142,0 0,1 c 104,0 189,84 189,189 l 0,-1 z" /><g
               transform="scale(16.6667,16.6667)"
               id="g30"><text
                 id="text32"
                 style="font-variant:normal;font-weight:normal;font-size:7.98303223px;font-family:Arial;-inkscape-font-specification:Arial;writing-mode:lr-tb;fill:#000000;fill-opacity:1;fill-rule:nonzero;stroke:none"
                 transform="matrix(0,1,0.99962014,0,395.82,56.2106)"><tspan
                   id="tspan34"
                   y="0"
                   x="0 4.8612633 7.5011926 11.999964 16.43853 20.398516 22.197166 26.635733 28.857067 33.295631">Translator</tspan><tspan
                   id="tspan36"
                   y="9.6036482"
                   x="2.8799939 5.5199232 10.859965 14.879951 17.101284 21.53985 25.978416 30.417187">(Python)</tspan></text>
</g><path
               id="path38"
               style="fill:none;stroke:#000000;stroke-width:16.66600037;stroke-linecap:round;stroke-linejoin:round;stroke-miterlimit:10;stroke-dasharray:none;stroke-opacity:1"
               d="m 6101,1236.84 164,0" /><path
               id="path40"
               style="fill:#000000;fill-opacity:1;fill-rule:evenodd;stroke:none"
               d="m 6255,1276.84 122,-40 -122,-41 0,81" /><path
               id="path42"
               style="fill:none;stroke:#000000;stroke-width:16.66600037;stroke-linecap:round;stroke-linejoin:round;stroke-miterlimit:10;stroke-dasharray:none;stroke-opacity:1"
               d="m 6101,2558.84 959,0" /><path
               id="path44"
               style="fill:#000000;fill-opacity:1;fill-rule:evenodd;stroke:none"
               d="m 7050,2599.84 122,-41 -122,-40 0,81" /><path
               id="path46"
               style="fill:none;stroke:#000000;stroke-width:16.66600037;stroke-linecap:round;stroke-linejoin:round;stroke-miterlimit:10;stroke-dasharray:none;stroke-opacity:1"
               d="m 6897,1236.84 163,0" /><path
               id="path48"
               style="fill:#000000;fill-opacity:1;fill-rule:evenodd;stroke:none"
               d="m 7050,1276.84 122,-40 -122,-41 0,81" /><path
               id="path50"
               style="fill:none;stroke:#000000;stroke-width:16.66600037;stroke-linecap:round;stroke-linejoin:round;stroke-miterlimit:10;stroke-dasharray:none;stroke-opacity:1"
               d="m 8488,1565.84 164,0" /><path
               id="path52"
               style="fill:#000000;fill-opacity:1;fill-rule:evenodd;stroke:none"
               d="m 8642,1606.84 122,-41 -122,-41 0,82" /><path
               id="path54"
               style="fill:none;stroke:#000000;stroke-width:16.66600037;stroke-linecap:round;stroke-linejoin:round;stroke-miterlimit:10;stroke-dasharray:none;stroke-opacity:1"
               d="m 8490,3552.84 162,0" /><path
               id="path56"
               style="fill:#000000;fill-opacity:1;fill-rule:evenodd;stroke:none"
               d="m 8642,3593.84 122,-41 -122,-41 0,82" /><path
               id="path58"
               style="fill:#ffffff;fill-opacity:1;fill-rule:evenodd;stroke:none"
               d="m 7173,645.844 519,0 0,2504 -519,0 0,-2504 z" /><path
               id="path60"
               style="fill:none;stroke:#000000;stroke-width:16.66600037;stroke-linecap:round;stroke-linejoin:round;stroke-miterlimit:10;stroke-dasharray:none;stroke-opacity:1"
               d="m 7173,645.844 519,0 0,2504 -519,0 0,-2504 z" /><g
               transform="scale(16.6667,16.6667)"
               id="g62"><text
                 id="text64"
                 style="font-variant:normal;font-weight:normal;font-size:7.98303223px;font-family:Arial;-inkscape-font-specification:Arial;writing-mode:lr-tb;fill:#000000;fill-opacity:1;fill-rule:nonzero;stroke:none"
                 transform="matrix(0,1,0.99962014,0,448.32,59.8706)"><tspan
                   id="tspan66"
                   y="0"
                   x="0 5.3400416 9.3000269 13.738593 17.758579 22.197144 24.897074 29.33564 33.774204 38.212772 42.651337 46.671322 48.892658 54.232697 58.252686 62.212662 64.433998 68.872559 75.532478 77.813812 80.453735 85.793777 90.232346 92.872269 94.670929 96.469589 100.90815 105.34692">Synchronous System (Verilog)</tspan></text>
</g><path
               id="path68"
               style="fill:none;stroke:#000000;stroke-width:16.66600037;stroke-linecap:round;stroke-linejoin:round;stroke-miterlimit:10;stroke-dasharray:none;stroke-opacity:1"
               d="m 7692,1897.84 160,0" /><path
               id="path70"
               style="fill:#000000;fill-opacity:1;fill-rule:evenodd;stroke:none"
               d="m 7841,1938.84 122,-41 -122,-41 0,82" /><path
               id="path72"
               style="fill:none;stroke:#000000;stroke-width:16.66600037;stroke-linecap:round;stroke-linejoin:round;stroke-miterlimit:10;stroke-dasharray:none;stroke-opacity:1"
               d="m 6101,3881.84 1768,0" /><path
               id="path74"
               style="fill:#000000;fill-opacity:1;fill-rule:evenodd;stroke:none"
               d="m 7859,3922.84 122,-41 -122,-40 0,81" /><path
               id="path76"
               style="fill:#ffffff;fill-opacity:1;fill-rule:evenodd;stroke:none"
               d="m 8488,834.844 0,3448.996 c 0,105 -84,189 -189,189 l 0,0 -142,0 1,0 c -105,0 -189,-84 -189,-189 l -1,0 0,-3448.996 1,1 c 0,-105 84,-189 189,-189 l -1,-1 142,0 0,1 c 105,0 189,84 189,189" /><path
               id="path78"
               style="fill:none;stroke:#000000;stroke-width:16.66600037;stroke-linecap:round;stroke-linejoin:round;stroke-miterlimit:10;stroke-dasharray:none;stroke-opacity:1"
               d="m 8488,834.844 0,3448.996 c 0,105 -84,189 -189,189 l 0,0 -142,0 1,0 c -105,0 -189,-84 -189,-189 l -1,0 0,-3448.996 1,1 c 0,-105 84,-189 189,-189 l -1,-1 142,0 0,1 c 105,0 189,84 189,189 l 0,-1 z" /><g
               transform="scale(16.6667,16.6667)"
               id="g80"><text
                 id="text82"
                 style="font-variant:normal;font-weight:normal;font-size:7.98303223px;font-family:Arial;-inkscape-font-specification:Arial;writing-mode:lr-tb;fill:#000000;fill-opacity:1;fill-rule:nonzero;stroke:none"
                 transform="matrix(0,1,0.99962014,0,496.08,111.351)"><tspan
                   id="tspan84"
                   y="0"
                   x="0 4.8612633 9.2998295 11.999751 18.659666 23.098232 24.836891 27.058226 32.398273 36.836838 39.536762 41.275421 43.556755 45.295414 49.315407 53.753971 55.975307 57.773964 62.212532 66.6511 68.872429 73.733688 78.23246 82.671021">Formal Verification Tool</tspan></text>
</g><path
               id="path86"
               style="fill:#ffffff;fill-opacity:1;fill-rule:evenodd;stroke:none"
               d="m 8764,645.844 520,0 0,1840 -520,0 0,-1840 z" /><path
               id="path88"
               style="fill:none;stroke:#000000;stroke-width:16.66600037;stroke-linecap:round;stroke-linejoin:round;stroke-miterlimit:10;stroke-dasharray:none;stroke-opacity:1"
               d="m 8764,645.844 520,0 0,1840 -520,0 0,-1840 z" /><g
               transform="scale(16.6667,16.6667)"
               id="g90"><text
                 id="text92"
                 style="font-variant:normal;font-weight:normal;font-size:7.98303223px;font-family:Arial;-inkscape-font-specification:Arial;writing-mode:lr-tb;fill:#000000;fill-opacity:1;fill-rule:nonzero;stroke:none"
                 transform="matrix(0,1,0.99962014,0,543.84,59.6906)"><tspan
                   id="tspan94"
                   y="0"
                   x="0 5.3400416 9.7786074 12.478537 14.217189 16.498522 18.237173 22.25716 26.695724 28.917059 30.71571 35.154278 39.592842 41.814175 47.572815 52.011379 56.031364 60.469933 62.268574 64.489906">Verification Results</tspan></text>
</g><path
               id="path96"
               style="fill:#ffffff;fill-opacity:1;fill-rule:evenodd;stroke:none"
               d="m 8764,2632.84 520,0 0,1840 -520,0 0,-1840 z" /><path
               id="path98"
               style="fill:none;stroke:#000000;stroke-width:16.66600037;stroke-linecap:round;stroke-linejoin:round;stroke-miterlimit:10;stroke-dasharray:none;stroke-opacity:1"
               d="m 8764,2632.84 520,0 0,1840 -520,0 0,-1840 z" /><g
               transform="scale(16.6667,16.6667)"
               id="g100"><text
                 id="text102"
                 style="font-variant:normal;font-weight:normal;font-size:7.98303223px;font-family:Arial;-inkscape-font-specification:Arial;writing-mode:lr-tb;fill:#000000;fill-opacity:1;fill-rule:nonzero;stroke:none"
                 transform="matrix(0,1,0.99962014,0,543.84,180.471)"><tspan
                   id="tspan104"
                   y="0"
                   x="0 5.758637 10.257408 14.695974 19.134541 21.355873 25.794439 28.494362 31.134283 35.572849 39.592842 44.03141 50.691322 55.12989 56.928547 61.367115">Counter-examples</tspan></text>
</g><path
               id="path106"
               style="fill:#ffffff;fill-opacity:1;fill-rule:evenodd;stroke:none"
               d="m 5581,3291.84 520,0 0,1181 -520,0 0,-1181 z" /><path
               id="path108"
               style="fill:none;stroke:#000000;stroke-width:16.66600037;stroke-linecap:round;stroke-linejoin:round;stroke-miterlimit:10;stroke-dasharray:none;stroke-opacity:1"
               d="m 5581,3291.84 520,0 0,1181 -520,0 0,-1181 z" /><g
               transform="scale(16.6667,16.6667)"
               id="g110"><text
                 id="text112"
                 style="font-variant:normal;font-weight:normal;font-size:7.98303223px;font-family:Arial;-inkscape-font-specification:Arial;writing-mode:lr-tb;fill:#000000;fill-opacity:1;fill-rule:nonzero;stroke:none"
                 transform="matrix(0,1,0.99962014,0,348.06,210.051)"><tspan
                   id="tspan114"
                   y="0"
                   x="0 5.3400488 9.3000412 13.320034 15.541368 19.979935 26.639849 29.339771 31.07843 35.516994 39.536987 43.975555">System-level</tspan><tspan
                   id="tspan116"
                   y="9.6036482"
                   x="-7.1399722 -1.7999234 0.83999866 5.3387694 9.7773352 14.215901 16.855824 19.077158 20.875816 25.314383 29.334375 31.555708 34.195629 39.535664 44.871803 50.215733">Properties (SVA)</tspan></text>
</g><path
               id="path118"
               style="fill:#ffffff;fill-opacity:1;fill-rule:evenodd;stroke:none"
               d="m 5581,1968.84 520,0 0,1181 -520,0 0,-1181 z" /><path
               id="path120"
               style="fill:none;stroke:#000000;stroke-width:16.66600037;stroke-linecap:round;stroke-linejoin:round;stroke-miterlimit:10;stroke-dasharray:none;stroke-opacity:1"
               d="m 5581,1968.84 520,0 0,1181 -520,0 0,-1181 z" /><g
               transform="scale(16.6667,16.6667)"
               id="g122"><text
                 id="text124"
                 style="font-variant:normal;font-weight:normal;font-size:7.98303223px;font-family:Arial;-inkscape-font-specification:Arial;writing-mode:lr-tb;fill:#000000;fill-opacity:1;fill-rule:nonzero;stroke:none"
                 transform="matrix(0,1,0.99962014,0,348.06,132.231)"><tspan
                   id="tspan126"
                   y="0"
                   x="0 5.3400488 9.3000412 13.798813 17.758806 19.980139 25.798777 27.537436 30.237356 34.19735 38.635918 40.434574 42.65591">Sync Circuit </tspan><tspan
                   id="tspan128"
                   y="9.6036482"
                   x="6.2399802 8.8799028 14.219951 18.658518 21.298439 23.097097 24.895758 29.334324 33.773094">(Verilog)</tspan></text>
</g><path
               id="path130"
               style="fill:#ffffff;fill-opacity:1;fill-rule:evenodd;stroke:none"
               d="m 5581,645.844 520,0 0,1181 -520,0 0,-1181 z" /><path
               id="path132"
               style="fill:none;stroke:#000000;stroke-width:16.66600037;stroke-linecap:round;stroke-linejoin:round;stroke-miterlimit:10;stroke-dasharray:none;stroke-opacity:1"
               d="m 5581,645.844 520,0 0,1181 -520,0 0,-1181 z" /><g
               transform="scale(16.6667,16.6667)"
               id="g134"><text
                 id="text136"
                 style="font-variant:normal;font-weight:normal;font-size:7.98303223px;font-family:Arial;-inkscape-font-specification:Arial;writing-mode:lr-tb;fill:#000000;fill-opacity:1;fill-rule:nonzero;stroke:none"
                 transform="matrix(0,1,0.99962014,0,348.06,50.8667)"><tspan
                   id="tspan138"
                   y="0"
                   x="0 5.3439417 9.3039274 13.323913 17.762478 21.782463 24.003798 29.762434 31.561087 34.201015 38.221001 42.659569 44.458218 46.679554">Async Circuit </tspan><tspan
                   id="tspan140"
                   y="9.6036482"
                   x="8.2238636 10.863793 16.203835 20.642401 23.342331 25.080982 26.879633 31.318199 35.756969">(Verilog)</tspan></text>
</g></g></g></g></g></g></svg>