<?xml version="1.0" encoding="UTF-8" standalone="no"?>
<svg
   xmlns:dc="http://purl.org/dc/elements/1.1/"
   xmlns:cc="http://creativecommons.org/ns#"
   xmlns:rdf="http://www.w3.org/1999/02/22-rdf-syntax-ns#"
   xmlns:svg="http://www.w3.org/2000/svg"
   xmlns="http://www.w3.org/2000/svg"
   xmlns:sodipodi="http://sodipodi.sourceforge.net/DTD/sodipodi-0.dtd"
   xmlns:inkscape="http://www.inkscape.org/namespaces/inkscape"
   version="1.1"
   x="0px"
   y="0px"
   viewBox="0 0 145.45855 61.058659"
   enable-background="new 0 0 50 50"
   xml:space="preserve"
   id="svg2"
   inkscape:version="0.91 r13725"
   sodipodi:docname="POETS-logo.svg"
   width="145.45856"
   height="61.058659"><metadata
     id="metadata18"><rdf:RDF><cc:Work
         rdf:about=""><dc:format>image/svg+xml</dc:format><dc:type
           rdf:resource="http://purl.org/dc/dcmitype/StillImage" /><dc:title></dc:title></cc:Work></rdf:RDF></metadata><defs
     id="defs16" /><sodipodi:namedview
     pagecolor="#ffffff"
     bordercolor="#666666"
     borderopacity="1"
     objecttolerance="10"
     gridtolerance="10"
     guidetolerance="10"
     inkscape:pageopacity="0"
     inkscape:pageshadow="2"
     inkscape:window-width="1858"
     inkscape:window-height="1177"
     id="namedview14"
     showgrid="false"
     fit-margin-top="5"
     fit-margin-left="5"
     fit-margin-right="5"
     fit-margin-bottom="5"
     inkscape:zoom="8"
     inkscape:cx="70.802708"
     inkscape:cy="32.907342"
     inkscape:window-x="1974"
     inkscape:window-y="-8"
     inkscape:window-maximized="1"
     inkscape:current-layer="svg2" /><g
     id="g4"
     transform="matrix(0.88946891,-0.23148865,0.23148865,0.88946891,101.56493,13.910344)"
     style="fill:#2f65b0;fill-opacity:1"><path
       d="m 11.166,42.715 1.965,-1.512 15.896,-24.488 c -3.761,2.984 -17.861,26 -17.861,26 z"
       id="path6"
       inkscape:connector-curvature="0"
       style="fill:#2f65b0;fill-opacity:1" /><path
       d="M 33.132,4.071 C 32.792,4.309 32.464,4.547 32.2,4.858 29.893,7.57 28.811,12.39 28.811,12.39 28.44,11.227 29.153,8.793 29.836,6.911 c -4.781,4.31 -9.017,8.217 -11.189,12.563 -1.464,2.929 -1.776,6.33 -1.776,6.33 l -0.135,-3.39 C 9.536,34.259 9.923,43.17 9.923,43.17 l -2.822,6.064 2.067,-2.133 1.375,-2.382 1.291,-1.929 C 23.346,36.862 31.22,24.41 31.22,24.41 l -4.421,0.156 C 34.417,21.795 40.855,8.288 40.855,8.288 47.812,-4.706 34.933,2.808 33.132,4.071 Z m -20.269,37.108 -0.736,-0.49 c 0,0 13.139,-20.989 16.899,-23.974 L 12.863,41.179 Z"
       id="path8"
       inkscape:connector-curvature="0"
       style="fill:#2f65b0;fill-opacity:1" /></g><path
     inkscape:connector-curvature="0"
     id="path4155"
     style="font-style:normal;font-variant:normal;font-weight:normal;font-stretch:normal;font-size:35px;line-height:125%;font-family:Arial;-inkscape-font-specification:Arial;letter-spacing:0px;word-spacing:0px;fill:#2f65b0;fill-opacity:1;stroke:none;stroke-width:1px;stroke-linecap:butt;stroke-linejoin:miter;stroke-opacity:1"
     d="m 5,55.631411 0,-25.053707 9.450684,0 q 2.495118,0 3.811036,0.23925 1.845703,0.30762 3.093262,1.1792 1.247558,0.854496 1.999512,2.409671 0.769043,1.555176 0.769043,3.417969 0,3.195801 -2.033692,5.417481 -2.033691,2.204589 -7.348634,2.204589 l -6.4257811,0 0,10.185547 -3.3154299,0 z m 3.3154299,-13.14209 6.4770511,0 q 3.212891,0 4.562989,-1.196289 1.350098,-1.196289 1.350098,-3.366699 0,-1.572265 -0.803223,-2.683105 -0.786133,-1.12793 -2.084961,-1.486817 -0.837402,-0.222168 -3.093263,-0.222168 l -6.4086911,0 0,8.955078 z" /><path
     inkscape:connector-curvature="0"
     id="path4157"
     style="font-style:normal;font-variant:normal;font-weight:normal;font-stretch:normal;font-size:35px;line-height:125%;font-family:Arial;-inkscape-font-specification:Arial;letter-spacing:0px;word-spacing:0px;fill:#2f65b0;fill-opacity:1;stroke:none;stroke-width:1px;stroke-linecap:butt;stroke-linejoin:miter;stroke-opacity:1"
     d="m 25.982197,43.429263 q 0,-6.237793 3.349609,-9.758301 3.34961,-3.537598 8.647461,-3.537598 3.469238,0 6.254883,1.65772 2.785644,1.65771 4.238281,4.631343 1.469727,2.956543 1.469727,6.716308 0,3.811036 -1.538086,6.818848 -1.538086,3.007813 -4.35791,4.562988 -2.819825,1.538086 -6.083985,1.538086 -3.537597,0 -6.323242,-1.708984 -2.785644,-1.708984 -4.221191,-4.665527 -1.435547,-2.956543 -1.435547,-6.254883 z m 3.417969,0.05127 q 0,4.528809 2.426757,7.143555 2.443848,2.597656 6.118164,2.597656 3.742676,0 6.152344,-2.631836 2.426758,-2.631836 2.426758,-7.468261 0,-3.059082 -1.04248,-5.332032 -1.025391,-2.290039 -3.024903,-3.537597 -1.982422,-1.264649 -4.460449,-1.264649 -3.520508,0 -6.066895,2.426758 -2.529296,2.409668 -2.529296,8.066406 z" /><path
     inkscape:connector-curvature="0"
     id="path4159"
     style="font-style:normal;font-variant:normal;font-weight:normal;font-stretch:normal;font-size:35px;line-height:125%;font-family:Arial;-inkscape-font-specification:Arial;letter-spacing:0px;word-spacing:0px;fill:#2f65b0;fill-opacity:1;stroke:none;stroke-width:1px;stroke-linecap:butt;stroke-linejoin:miter;stroke-opacity:1"
     d="m 52.491935,55.631411 0,-25.053707 18.115241,0 0,2.956539 -14.799811,0 0,7.67334 13.85987,0 0,2.939453 -13.85987,0 0,8.527832 15.380866,0 0,2.956543 -18.696296,0 z" /><path
     inkscape:connector-curvature="0"
     id="path4161"
     style="font-style:normal;font-variant:normal;font-weight:normal;font-stretch:normal;font-size:35px;line-height:125%;font-family:Arial;-inkscape-font-specification:Arial;letter-spacing:0px;word-spacing:0px;fill:#2f65b0;fill-opacity:1;stroke:none;stroke-width:1px;stroke-linecap:butt;stroke-linejoin:miter;stroke-opacity:1"
     d="m 81.373099,55.631411 0,-22.097168 -8.254394,0 0,-2.956539 19.858393,0 0,2.956539 -8.288574,0 0,22.097168 -3.315425,0 z" /><path
     inkscape:connector-curvature="0"
     id="path4163"
     style="font-style:normal;font-variant:normal;font-weight:normal;font-stretch:normal;font-size:35px;line-height:125%;font-family:Arial;-inkscape-font-specification:Arial;letter-spacing:0px;word-spacing:0px;fill:#2f65b0;fill-opacity:1;stroke:none;stroke-width:1px;stroke-linecap:butt;stroke-linejoin:miter;stroke-opacity:1"
     d="m 93.586074,47.582095 3.127441,-0.273438 q 0.222168,1.879883 1.025391,3.093262 0.820312,1.196289 2.529294,1.948242 1.70899,0.734864 3.84522,0.734864 1.89697,0 3.3496,-0.563965 1.45264,-0.563965 2.15332,-1.538086 0.71778,-0.991211 0.71778,-2.153321 0,-1.179199 -0.6836,-2.050781 -0.68359,-0.888672 -2.25586,-1.486816 -1.0083,-0.393067 -4.46044,-1.213379 -3.45215,-0.837402 -4.836428,-1.572266 -1.794433,-0.939941 -2.683105,-2.324218 -0.871582,-1.401368 -0.871582,-3.127442 0,-1.896973 1.07666,-3.537598 1.07666,-1.657719 3.144531,-2.512209 2.067874,-0.85449 4.597164,-0.85449 2.78565,0 4.90478,0.90576 2.13624,0.88867 3.28125,2.631838 1.14502,1.743164 1.23047,3.947754 l -3.17871,0.239258 q -0.25634,-2.375489 -1.74316,-3.588868 -1.46973,-1.213378 -4.35791,-1.213378 -3.00781,0 -4.392087,1.110839 -1.367187,1.09375 -1.367187,2.648926 0,1.350098 0.974121,2.22168 0.957031,0.871582 4.990233,1.794433 4.05029,0.905762 5.5542,1.589356 2.1875,1.008301 3.22998,2.563476 1.04248,1.538086 1.04248,3.554688 0,1.999512 -1.14502,3.776855 -1.14502,1.760254 -3.29834,2.751465 -2.13623,0.974121 -4.81933,0.974121 -3.40088,0 -5.708012,-0.991211 -2.290039,-0.991211 -3.605957,-2.973632 -1.298828,-1.999512 -1.367187,-4.511719 z" /></svg>