<?xml version="1.0" encoding="UTF-8" standalone="no"?>
<svg
   xmlns:dc="http://purl.org/dc/elements/1.1/"
   xmlns:cc="http://creativecommons.org/ns#"
   xmlns:rdf="http://www.w3.org/1999/02/22-rdf-syntax-ns#"
   xmlns:svg="http://www.w3.org/2000/svg"
   xmlns="http://www.w3.org/2000/svg"
   xmlns:sodipodi="http://sodipodi.sourceforge.net/DTD/sodipodi-0.dtd"
   xmlns:inkscape="http://www.inkscape.org/namespaces/inkscape"
   version="1.1"
   x="0px"
   y="0px"
   viewBox="0 0 144.44174 58.949334"
   enable-background="new 0 0 50 50"
   xml:space="preserve"
   id="svg2"
   inkscape:version="0.91 r13725"
   sodipodi:docname="POETS-logo-underlined.svg"
   width="144.44174"
   height="58.949333"><metadata
     id="metadata18"><rdf:RDF><cc:Work
         rdf:about=""><dc:format>image/svg+xml</dc:format><dc:type
           rdf:resource="http://purl.org/dc/dcmitype/StillImage" /><dc:title></dc:title></cc:Work></rdf:RDF></metadata><defs
     id="defs16" /><sodipodi:namedview
     pagecolor="#ffffff"
     bordercolor="#666666"
     borderopacity="1"
     objecttolerance="10"
     gridtolerance="10"
     guidetolerance="10"
     inkscape:pageopacity="0"
     inkscape:pageshadow="2"
     inkscape:window-width="1858"
     inkscape:window-height="1177"
     id="namedview14"
     showgrid="false"
     fit-margin-top="5"
     fit-margin-left="5"
     fit-margin-right="5"
     fit-margin-bottom="5"
     inkscape:zoom="8"
     inkscape:cx="77.138924"
     inkscape:cy="27.782346"
     inkscape:window-x="1974"
     inkscape:window-y="-8"
     inkscape:window-maximized="1"
     inkscape:current-layer="svg2" /><g
     id="g4"
     transform="matrix(0.85272337,-0.22192544,0.22192544,0.85272337,102.1152,13.550176)"
     style="fill:#2f65b0;fill-opacity:1"><path
       d="m 11.166,42.715 1.965,-1.512 15.896,-24.488 c -3.761,2.984 -17.861,26 -17.861,26 z"
       id="path6"
       inkscape:connector-curvature="0"
       style="fill:#2f65b0;fill-opacity:1" /><path
       d="m 33.177838,4.0736254 c -0.34,0.238 -0.668,0.476 -0.932,0.787 -2.307,2.712 -3.389,7.5320006 -3.389,7.5320006 -0.371,-1.163 0.342,-3.5970006 1.025,-5.4790006 -4.781,4.3100006 -9.017,8.2170006 -11.189,12.5630006 -1.464,2.929 -1.776,6.33 -1.776,6.33 l -0.135,-3.39 c -7.1999996,11.845 -6.8129996,20.756 -6.8129996,20.756 l -2.822,6.064 2.067,-2.133 1.3749996,-2.382 1.291,-1.929 c 11.512,-5.928 19.386,-18.38 19.386,-18.38 l -4.421,0.156 c 7.618,-2.771 14.056,-16.2780006 14.056,-16.2780006 6.957,-12.994 -5.922,-5.48 -7.723,-4.217 z m -20.269,37.1080006 -0.736,-0.49 c 0,0 13.139,-20.989 16.899,-23.974 l -16.163,24.464 z"
       id="path8"
       inkscape:connector-curvature="0"
       style="fill:#2f65b0;fill-opacity:1" /></g><path
     inkscape:connector-curvature="0"
     id="path4155"
     style="font-style:normal;font-variant:normal;font-weight:normal;font-stretch:normal;font-size:35px;line-height:125%;font-family:Arial;-inkscape-font-specification:Arial;letter-spacing:0px;word-spacing:0px;fill:#2f65b0;fill-opacity:1;stroke:none;stroke-width:1px;stroke-linecap:butt;stroke-linejoin:miter;stroke-opacity:1"
     d="m 6.0606602,50.646115 0,-25.053707 9.4506838,0 q 2.495118,0 3.811036,0.23925 1.845703,0.30762 3.093262,1.1792 1.247558,0.854496 1.999512,2.409671 0.769043,1.555176 0.769043,3.417969 0,3.195801 -2.033692,5.417481 -2.033691,2.204589 -7.348634,2.204589 l -6.4257808,0 0,10.185547 -3.31543,0 z m 3.31543,-13.14209 6.4770508,0 q 3.212891,0 4.562989,-1.196289 1.350098,-1.196289 1.350098,-3.366699 0,-1.572265 -0.803223,-2.683105 -0.786133,-1.12793 -2.084961,-1.486817 -0.837402,-0.222168 -3.093263,-0.222168 l -6.4086908,0 0,8.955078 z" /><path
     inkscape:connector-curvature="0"
     id="path4157"
     style="font-style:normal;font-variant:normal;font-weight:normal;font-stretch:normal;font-size:35px;line-height:125%;font-family:Arial;-inkscape-font-specification:Arial;letter-spacing:0px;word-spacing:0px;fill:#2f65b0;fill-opacity:1;stroke:none;stroke-width:1px;stroke-linecap:butt;stroke-linejoin:miter;stroke-opacity:1"
     d="m 27.042857,38.443967 q 0,-6.237793 3.349609,-9.758301 3.34961,-3.537598 8.647461,-3.537598 3.469238,0 6.254883,1.65772 2.785644,1.65771 4.238281,4.631343 1.469727,2.956543 1.469727,6.716308 0,3.811036 -1.538086,6.818848 -1.538086,3.007813 -4.35791,4.562988 -2.819825,1.538086 -6.083985,1.538086 -3.537597,0 -6.323242,-1.708984 -2.785644,-1.708984 -4.221191,-4.665527 -1.435547,-2.956543 -1.435547,-6.254883 z m 3.417969,0.05127 q 0,4.528809 2.426757,7.143555 2.443848,2.597656 6.118164,2.597656 3.742676,0 6.152344,-2.631836 2.426758,-2.631836 2.426758,-7.468261 0,-3.059082 -1.04248,-5.332032 -1.025391,-2.290039 -3.024903,-3.537597 -1.982422,-1.264649 -4.460449,-1.264649 -3.520508,0 -6.066895,2.426758 -2.529296,2.409668 -2.529296,8.066406 z" /><path
     inkscape:connector-curvature="0"
     id="path4159"
     style="font-style:normal;font-variant:normal;font-weight:normal;font-stretch:normal;font-size:35px;line-height:125%;font-family:Arial;-inkscape-font-specification:Arial;letter-spacing:0px;word-spacing:0px;fill:#2f65b0;fill-opacity:1;stroke:none;stroke-width:1px;stroke-linecap:butt;stroke-linejoin:miter;stroke-opacity:1"
     d="m 53.552595,50.646115 0,-25.053707 18.115241,0 0,2.956539 -14.799811,0 0,7.67334 13.85987,0 0,2.939453 -13.85987,0 0,8.527832 15.380866,0 0,2.956543 -18.696296,0 z" /><path
     inkscape:connector-curvature="0"
     id="path4161"
     style="font-style:normal;font-variant:normal;font-weight:normal;font-stretch:normal;font-size:35px;line-height:125%;font-family:Arial;-inkscape-font-specification:Arial;letter-spacing:0px;word-spacing:0px;fill:#2f65b0;fill-opacity:1;stroke:none;stroke-width:1px;stroke-linecap:butt;stroke-linejoin:miter;stroke-opacity:1"
     d="m 82.433759,50.646115 0,-22.097168 -8.254394,0 0,-2.956539 19.858395,0 0,2.956539 -8.288576,0 0,22.097168 -3.315425,0 z" /><path
     inkscape:connector-curvature="0"
     id="path4163"
     style="font-style:normal;font-variant:normal;font-weight:normal;font-stretch:normal;font-size:35px;line-height:125%;font-family:Arial;-inkscape-font-specification:Arial;letter-spacing:0px;word-spacing:0px;fill:#2f65b0;fill-opacity:1;stroke:none;stroke-width:1px;stroke-linecap:butt;stroke-linejoin:miter;stroke-opacity:1"
     d="m 94.64673,42.596799 3.12745,-0.273438 q 0.22216,1.879883 1.02539,3.093262 0.82031,1.196289 2.52929,1.948242 1.70899,0.734864 3.84522,0.734864 1.89697,0 3.3496,-0.563965 1.45264,-0.563965 2.15332,-1.538086 0.71778,-0.991211 0.71778,-2.153321 0,-1.179199 -0.6836,-2.050781 -0.68359,-0.888672 -2.25586,-1.486816 -1.0083,-0.393067 -4.46044,-1.213379 -3.45215,-0.837402 -4.83643,-1.572266 -1.79443,-0.939941 -2.6831,-2.324218 -0.87159,-1.401368 -0.87159,-3.127442 0,-1.896973 1.07667,-3.537598 1.07666,-1.657719 3.14453,-2.512209 2.06787,-0.85449 4.59716,-0.85449 2.78565,0 4.90478,0.90576 2.13624,0.88867 3.28125,2.631838 1.14502,1.743164 1.23047,3.947754 l -3.17871,0.239258 q -0.25634,-2.375489 -1.74316,-3.588868 -1.46973,-1.213378 -4.35791,-1.213378 -3.00781,0 -4.39209,1.110839 -1.36718,1.09375 -1.36718,2.648926 0,1.350098 0.97412,2.22168 0.95703,0.871582 4.99023,1.794433 4.05029,0.905762 5.5542,1.589356 2.1875,1.008301 3.22998,2.563476 1.04248,1.538086 1.04248,3.554688 0,1.999512 -1.14502,3.776855 -1.14502,1.760254 -3.29834,2.751465 -2.13623,0.974121 -4.81933,0.974121 -3.40088,0 -5.70801,-0.991211 -2.29004,-0.991211 -3.60596,-2.973632 -1.29883,-1.999512 -1.36719,-4.511719 z" /><path
     style="color:#000000;font-style:normal;font-variant:normal;font-weight:normal;font-stretch:normal;font-size:medium;line-height:normal;font-family:sans-serif;text-indent:0;text-align:start;text-decoration:none;text-decoration-line:none;text-decoration-style:solid;text-decoration-color:#000000;letter-spacing:normal;word-spacing:normal;text-transform:none;direction:ltr;block-progression:tb;writing-mode:lr-tb;baseline-shift:baseline;text-anchor:start;white-space:normal;clip-rule:nonzero;display:inline;overflow:visible;visibility:visible;opacity:1;isolation:auto;mix-blend-mode:normal;color-interpolation:sRGB;color-interpolation-filters:linearRGB;solid-color:#000000;solid-opacity:1;fill:#2f65b0;fill-opacity:1;fill-rule:evenodd;stroke:none;stroke-width:1px;stroke-linecap:butt;stroke-linejoin:miter;stroke-miterlimit:4;stroke-dasharray:none;stroke-dashoffset:0;stroke-opacity:1;color-rendering:auto;image-rendering:auto;shape-rendering:auto;text-rendering:auto;enable-background:accumulate"
     d="m 5,52.949332 0,1 114.1406,0 0.18749,-1 z"
     id="path4140"
     inkscape:connector-curvature="0"
     sodipodi:nodetypes="ccccc" /></svg>