<?xml version="1.0" encoding="UTF-8" standalone="no"?>
<!-- Created with Inkscape (http://www.inkscape.org/) -->

<svg
   xmlns:dc="http://purl.org/dc/elements/1.1/"
   xmlns:cc="http://creativecommons.org/ns#"
   xmlns:rdf="http://www.w3.org/1999/02/22-rdf-syntax-ns#"
   xmlns:svg="http://www.w3.org/2000/svg"
   xmlns="http://www.w3.org/2000/svg"
   version="1.1"
   width="447.819"
   height="178.972"
   viewBox="0 0 447.81899 178.972"
   id="Layer_1"
   xml:space="preserve"><metadata
   id="metadata3205"><rdf:RDF><cc:Work
       rdf:about=""><dc:format>image/svg+xml</dc:format><dc:type
         rdf:resource="http://purl.org/dc/dcmitype/StillImage" /><dc:title></dc:title></cc:Work></rdf:RDF></metadata><defs
   id="defs3203" />
<g
   transform="translate(-382.677,-311.812)"
   id="g3097">
	<path
   d="M 580.855,389.84"
   id="path3099"
   style="fill-rule:evenodd;stroke:#d1d3d4;stroke-width:0.1005;stroke-miterlimit:3.86369991" />
	<g
   id="g3101">
		<path
   d="m 385.794,414.324 h 317.823 c 1.721,0 3.113,1.385 3.113,3.087 0,1.706 -1.393,3.087 -3.113,3.087 H 385.794 c -1.721,0 -3.117,-1.381 -3.117,-3.087 0,-1.702 1.397,-3.087 3.117,-3.087 l 0,0 z"
   id="path3103"
   style="fill:#00a99d" />
		<path
   d="m 385.794,311.812 h 317.823 c 1.721,0 3.113,1.382 3.113,3.085 0,1.706 -1.393,3.088 -3.113,3.088 H 385.794 c -1.721,0 -3.117,-1.382 -3.117,-3.088 0,-1.703 1.397,-3.085 3.117,-3.085 l 0,0 z"
   id="path3105"
   style="fill:#00a99d" />
	</g>
	<path
   d="m 383.892,338.102 c 1.398,-7.928 8.429,-7.928 8.429,-7.928 h 41.802 v 10.12 h -32.898 v 21.22 h 30.442 v 9.169 h -30.442 v 21.218 h 32.898 v 10.12 c 0,0 -32.449,0 -41.009,0 -8.564,0 -9.233,-8.269 -9.233,-8.269 l 0.011,-55.65 z m 65.745,-7.925 v 71.859 h 17.227 v -31.372 h 13.173 c 0.614,0 25.717,1.08 25.303,-19.789 0,0 1.883,-20.277 -25.435,-20.698 h -30.268 z m 29.702,10.108 c 9.1,0.786 8.777,10.776 8.777,10.776 -0.391,9.992 -8.313,10.42 -8.313,10.42 h -12.919 v -21.196 h 12.455 z m 85.859,-5.345 c -1.586,-0.905 -13.48,-6.014 -22.661,-6.014 -17.118,0 -28.465,9.005 -28.14,22.11 0.6,24.214 39.54,20.577 37.594,35.84 -1.384,10.847 -27.956,8.45 -37.062,-0.55 l -2.45,10.597 c 14.858,9.629 51.777,10.567 54.154,-13.847 2.406,-24.673 -38.232,-24.814 -38.232,-36.952 0,-5.859 5.427,-8.502 14.646,-8.257 12.034,0.32 15.922,5.486 18.424,6.87 l 3.727,-9.797 z m 14.99,-4.795 v 71.866 h 17.228 v -29.853 l 20.926,30.275 h 22.035 l -23.832,-32.178 c 0,0 18.092,-0.78 19.238,-17.267 1.141,-16.487 -10.852,-22.83 -25.912,-22.83 l -29.683,-0.013 z m 30.052,10.17 c -1.58,-0.092 8.418,-0.17 8.418,10.197 0,10.879 -8.574,10.923 -8.574,10.923 h -12.656 v -21.131 l 12.812,0.011 z m 94.543,-5.052 c -6.945,-4.847 -14.35,-6.647 -22.041,-6.514 -21.744,0.38 -37.297,17.463 -37.5,37.382 -0.205,20.193 15.027,36.286 37.477,37.317 7.684,0.352 16.684,-1.791 23.586,-6.997 l -5.326,-8.564 c -6.904,5.911 -12.68,7.439 -18.668,6.129 -11.908,-2.604 -20.053,-14.944 -19.598,-27.885 0.189,-5.3 0.957,-10.432 3.014,-14.795 3.742,-7.927 8.973,-12.033 16.35,-13.189 6.418,-1.006 11.797,-0.092 17.57,5.111 l 5.136,-7.995 z"
   id="path3107"
   style="fill:#842e62" />
	<g
   id="g3109">
		<path
   d="m 384.172,457.604 v -21.36 h 13.26 v 2.04 h -10.98 v 7.53 h 9.36 v 2.04 h -9.36 v 7.71 h 10.98 v 2.04 h -13.26 z"
   id="path3111"
   style="fill:#842e62" />
		<path
   d="m 410.932,457.604 v -9.09 c 0,-2.61 -1.41,-3.931 -3.63,-3.931 -2.22,0 -3.66,1.351 -3.66,3.931 v 9.09 h -2.16 v -14.76 h 2.16 v 1.62 c 1.05,-1.2 2.49,-1.801 4.14,-1.801 1.59,0 2.88,0.48 3.78,1.38 1.05,1.021 1.53,2.4 1.53,4.11 v 9.45 h -2.16 z"
   id="path3113"
   style="fill:#842e62" />
		<path
   d="m 422.782,464.384 c -2.22,0 -3.45,-0.57 -5.01,-1.98 l 1.41,-1.38 c 1.08,0.96 1.83,1.47 3.54,1.47 2.85,0 4.05,-2.01 4.05,-4.529 v -2.311 c -1.2,1.53 -2.55,1.92 -4.14,1.92 -1.5,0 -2.79,-0.54 -3.57,-1.319 -1.47,-1.471 -1.8,-3.75 -1.8,-6.15 0,-2.4 0.33,-4.68 1.8,-6.15 0.78,-0.779 2.1,-1.29 3.6,-1.29 1.62,0 2.94,0.36 4.14,1.92 v -1.739 h 2.13 v 15.21 c 0,3.658 -2.28,6.328 -6.15,6.328 z m 0.33,-19.801 c -3.21,0 -3.69,2.761 -3.69,5.521 0,2.76 0.48,5.52 3.69,5.52 3.21,0 3.66,-2.76 3.66,-5.52 0,-2.76 -0.45,-5.521 -3.66,-5.521 z"
   id="path3115"
   style="fill:#842e62" />
		<path
   d="m 433.912,438.644 v -2.431 h 2.43 v 2.431 h -2.43 z m 0.12,18.96 v -14.76 h 2.16 v 14.76 h -2.16 z"
   id="path3117"
   style="fill:#842e62" />
		<path
   d="m 450.772,457.604 v -9.09 c 0,-2.61 -1.41,-3.931 -3.63,-3.931 -2.22,0 -3.66,1.351 -3.66,3.931 v 9.09 h -2.16 v -14.76 h 2.16 v 1.62 c 1.05,-1.2 2.49,-1.801 4.14,-1.801 1.59,0 2.88,0.48 3.78,1.38 1.05,1.021 1.53,2.4 1.53,4.11 v 9.45 h -2.16 z"
   id="path3119"
   style="fill:#842e62" />
		<path
   d="m 459.232,450.793 c 0,3.24 1.529,5.101 4.35,5.101 1.71,0 2.7,-0.51 3.87,-1.68 l 1.47,1.29 c -1.5,1.5 -2.88,2.279 -5.399,2.279 -3.9,0 -6.45,-2.34 -6.45,-7.56 0,-4.771 2.31,-7.561 6.06,-7.561 3.811,0 6.061,2.761 6.061,7.141 v 0.989 h -9.962 z m 7.35,-4.079 c -0.57,-1.351 -1.89,-2.221 -3.45,-2.221 -1.56,0 -2.88,0.87 -3.449,2.221 -0.33,0.81 -0.391,1.26 -0.45,2.46 h 7.8 c -0.061,-1.2 -0.121,-1.651 -0.451,-2.46 z"
   id="path3121"
   style="fill:#842e62" />
		<path
   d="m 474.832,450.793 c 0,3.24 1.53,5.101 4.351,5.101 1.71,0 2.699,-0.51 3.87,-1.68 l 1.47,1.29 c -1.5,1.5 -2.88,2.279 -5.4,2.279 -3.899,0 -6.45,-2.34 -6.45,-7.56 0,-4.771 2.311,-7.561 6.061,-7.561 3.81,0 6.06,2.761 6.06,7.141 v 0.989 h -9.962 z m 7.35,-4.079 c -0.57,-1.351 -1.891,-2.221 -3.45,-2.221 -1.561,0 -2.88,0.87 -3.45,2.221 -0.33,0.81 -0.39,1.26 -0.45,2.46 h 7.8 c -0.06,-1.2 -0.12,-1.651 -0.45,-2.46 z"
   id="path3123"
   style="fill:#842e62" />
		<path
   d="m 497.332,445.663 c -0.811,-0.81 -1.41,-1.08 -2.55,-1.08 -2.16,0 -3.54,1.71 -3.54,3.96 v 9.061 h -2.16 v -14.76 h 2.16 v 1.8 c 0.81,-1.23 2.43,-1.98 4.14,-1.98 1.41,0 2.49,0.33 3.54,1.38 l -1.59,1.619 z"
   id="path3125"
   style="fill:#842e62" />
		<path
   d="m 501.292,438.644 v -2.431 h 2.43 v 2.431 h -2.43 z m 0.12,18.96 v -14.76 h 2.16 v 14.76 h -2.16 z"
   id="path3127"
   style="fill:#842e62" />
		<path
   d="m 518.152,457.604 v -9.09 c 0,-2.61 -1.41,-3.931 -3.63,-3.931 -2.221,0 -3.66,1.351 -3.66,3.931 v 9.09 h -2.16 v -14.76 h 2.16 v 1.62 c 1.05,-1.2 2.489,-1.801 4.14,-1.801 1.59,0 2.88,0.48 3.78,1.38 1.05,1.021 1.53,2.4 1.53,4.11 v 9.45 h -2.16 z"
   id="path3129"
   style="fill:#842e62" />
		<path
   d="m 530.001,464.384 c -2.221,0 -3.45,-0.57 -5.011,-1.98 l 1.41,-1.38 c 1.08,0.96 1.83,1.47 3.54,1.47 2.851,0 4.05,-2.01 4.05,-4.529 v -2.311 c -1.199,1.53 -2.55,1.92 -4.14,1.92 -1.5,0 -2.79,-0.54 -3.57,-1.319 -1.47,-1.471 -1.8,-3.75 -1.8,-6.15 0,-2.4 0.33,-4.68 1.8,-6.15 0.78,-0.779 2.101,-1.29 3.601,-1.29 1.62,0 2.939,0.36 4.14,1.92 v -1.739 h 2.13 v 15.21 c 0,3.658 -2.279,6.328 -6.15,6.328 z m 0.331,-19.801 c -3.211,0 -3.69,2.761 -3.69,5.521 0,2.76 0.479,5.52 3.69,5.52 3.21,0 3.659,-2.76 3.659,-5.52 0,-2.76 -0.449,-5.521 -3.659,-5.521 z"
   id="path3131"
   style="fill:#842e62" />
		<path
   d="m 556.792,457.604 v -1.41 c -1.2,1.2 -2.28,1.59 -4.261,1.59 -2.04,0 -3.239,-0.39 -4.17,-1.35 -0.72,-0.72 -1.109,-1.83 -1.109,-3 0,-2.58 1.8,-4.26 5.1,-4.26 h 4.44 v -1.41 c 0,-2.16 -1.08,-3.24 -3.78,-3.24 -1.89,0 -2.85,0.45 -3.72,1.68 l -1.471,-1.35 c 1.32,-1.71 2.82,-2.19 5.221,-2.19 3.96,0 5.91,1.71 5.91,4.92 v 10.021 h -2.16 z m 0,-6.811 h -4.141 c -2.22,0 -3.3,0.9 -3.3,2.61 0,1.71 1.05,2.521 3.391,2.521 1.26,0 2.369,-0.09 3.3,-0.99 0.51,-0.48 0.75,-1.32 0.75,-2.55 v -1.591 z"
   id="path3133"
   style="fill:#842e62" />
		<path
   d="m 573.351,457.604 v -9.09 c 0,-2.61 -1.41,-3.931 -3.63,-3.931 -2.221,0 -3.66,1.351 -3.66,3.931 v 9.09 h -2.16 v -14.76 h 2.16 v 1.62 c 1.05,-1.2 2.489,-1.801 4.14,-1.801 1.59,0 2.88,0.48 3.78,1.38 1.05,1.021 1.53,2.4 1.53,4.11 v 9.45 h -2.16 z"
   id="path3135"
   style="fill:#842e62" />
		<path
   d="m 589.281,457.604 v -1.77 c -1.2,1.56 -2.58,1.949 -4.2,1.949 -1.5,0 -2.82,-0.51 -3.601,-1.29 -1.5,-1.5 -1.8,-3.96 -1.8,-6.27 0,-2.311 0.3,-4.771 1.8,-6.271 0.78,-0.779 2.101,-1.29 3.601,-1.29 1.62,0 2.97,0.36 4.17,1.891 v -8.311 h 2.16 v 21.36 h -2.13 z m -3.721,-13.021 c -3.21,0 -3.72,2.761 -3.72,5.641 0,2.88 0.51,5.64 3.72,5.64 3.21,0 3.69,-2.76 3.69,-5.64 0,-2.88 -0.48,-5.641 -3.69,-5.641 z"
   id="path3137"
   style="fill:#842e62" />
		<path
   d="m 612.02,448.813 h -5.67 v 8.79 h -2.279 v -21.36 h 7.949 c 3.9,0 6.6,2.431 6.6,6.271 0,3.84 -2.7,6.299 -6.6,6.299 z m -0.209,-10.53 h -5.461 v 8.49 h 5.461 c 2.67,0 4.529,-1.44 4.529,-4.26 0,-2.82 -1.86,-4.23 -4.529,-4.23 z"
   id="path3139"
   style="fill:#842e62" />
		<path
   d="m 631.73,457.604 v -9.12 c 0,-2.58 -1.381,-3.9 -3.602,-3.9 -2.219,0 -3.689,1.351 -3.689,3.9 v 9.12 h -2.16 v -21.36 h 2.16 v 8.221 c 1.08,-1.23 2.49,-1.801 4.141,-1.801 3.33,0 5.311,2.13 5.311,5.46 v 9.48 h -2.161 z"
   id="path3141"
   style="fill:#842e62" />
		<path
   d="m 642.5,461.174 c -0.301,0.81 -0.631,1.35 -1.051,1.739 -0.779,0.75 -1.83,1.021 -2.881,1.021 h -0.93 v -1.92 h 0.66 c 1.5,0 1.951,-0.48 2.43,-1.83 l 1.051,-2.88 -5.311,-14.46 h 2.34 l 4.051,11.85 4.02,-11.85 h 2.34 l -6.719,18.33 z"
   id="path3143"
   style="fill:#842e62" />
		<path
   d="m 656.6,457.783 c -2.49,0 -4.439,-0.569 -6.061,-2.13 l 1.441,-1.439 c 1.17,1.229 2.76,1.71 4.59,1.71 2.43,0 3.93,-0.87 3.93,-2.61 0,-1.29 -0.75,-2.01 -2.461,-2.16 l -2.43,-0.21 c -2.879,-0.24 -4.41,-1.53 -4.41,-3.96 0,-2.7 2.281,-4.32 5.43,-4.32 2.102,0 3.99,0.511 5.311,1.591 l -1.41,1.409 c -1.049,-0.81 -2.4,-1.17 -3.93,-1.17 -2.16,0 -3.301,0.931 -3.301,2.431 0,1.26 0.721,2.01 2.58,2.159 l 2.371,0.21 c 2.58,0.24 4.35,1.23 4.35,3.99 0,2.85 -2.43,4.499 -6,4.499 z"
   id="path3145"
   style="fill:#842e62" />
		<path
   d="m 666.408,438.644 v -2.431 h 2.43 v 2.431 h -2.43 z m 0.121,18.96 v -14.76 h 2.16 v 14.76 h -2.16 z"
   id="path3147"
   style="fill:#842e62" />
		<path
   d="m 679.549,457.783 c -3.721,0 -6.541,-2.52 -6.541,-7.56 0,-5.04 2.82,-7.561 6.541,-7.561 2.039,0 3.33,0.54 4.859,2.19 l -1.469,1.38 c -1.111,-1.229 -1.98,-1.65 -3.391,-1.65 -1.439,0 -2.641,0.57 -3.42,1.681 -0.689,0.96 -0.961,2.1 -0.961,3.96 0,1.859 0.271,3 0.961,3.96 0.779,1.11 1.98,1.68 3.42,1.68 1.41,0 2.279,-0.45 3.391,-1.68 l 1.469,1.41 c -1.529,1.65 -2.82,2.19 -4.859,2.19 z"
   id="path3149"
   style="fill:#842e62" />
		<path
   d="m 696.223,457.604 v -1.41 c -1.201,1.2 -2.281,1.59 -4.262,1.59 -2.039,0 -3.238,-0.39 -4.17,-1.35 -0.719,-0.72 -1.109,-1.83 -1.109,-3 0,-2.58 1.801,-4.26 5.1,-4.26 h 4.441 v -1.41 c 0,-2.16 -1.08,-3.24 -3.781,-3.24 -1.889,0 -2.85,0.45 -3.719,1.68 l -1.471,-1.35 c 1.32,-1.71 2.82,-2.19 5.221,-2.19 3.959,0 5.91,1.71 5.91,4.92 v 10.021 h -2.16 z m 0,-6.811 h -4.141 c -2.221,0 -3.301,0.9 -3.301,2.61 0,1.71 1.051,2.521 3.391,2.521 1.26,0 2.369,-0.09 3.301,-0.99 0.51,-0.48 0.75,-1.32 0.75,-2.55 v -1.591 z"
   id="path3151"
   style="fill:#842e62" />
		<path
   d="m 707.021,457.604 c -2.58,0 -3.75,-1.68 -3.75,-3.93 v -17.431 h 2.16 v 17.34 c 0,1.44 0.48,2.16 1.98,2.16 h 1.17 v 1.86 h -1.56 z"
   id="path3153"
   style="fill:#842e62" />
		<path
   d="m 724.992,457.783 c -3.211,0 -5.311,-0.81 -7.32,-2.819 l 1.561,-1.561 c 1.77,1.771 3.42,2.34 5.818,2.34 3.121,0 5.041,-1.47 5.041,-3.96 0,-1.109 -0.33,-2.069 -1.02,-2.67 -0.691,-0.6 -1.23,-0.78 -2.791,-1.02 l -2.49,-0.391 c -1.68,-0.27 -3,-0.81 -3.93,-1.62 -1.08,-0.96 -1.619,-2.279 -1.619,-3.989 0,-3.631 2.609,-6.03 6.84,-6.03 2.73,0 4.529,0.689 6.359,2.34 l -1.469,1.47 c -1.32,-1.199 -2.73,-1.83 -4.98,-1.83 -2.85,0 -4.5,1.591 -4.5,3.96 0,1.051 0.299,1.891 0.959,2.461 0.66,0.569 1.77,0.989 2.881,1.17 l 2.34,0.359 c 2.01,0.3 3,0.721 3.9,1.5 1.17,0.99 1.799,2.46 1.799,4.23 0,3.751 -2.939,6.06 -7.379,6.06 z"
   id="path3155"
   style="fill:#842e62" />
		<path
   d="m 742.182,457.783 c -3.721,0 -6.541,-2.52 -6.541,-7.56 0,-5.04 2.82,-7.561 6.541,-7.561 2.039,0 3.33,0.54 4.859,2.19 l -1.469,1.38 c -1.111,-1.229 -1.98,-1.65 -3.391,-1.65 -1.439,0 -2.641,0.57 -3.42,1.681 -0.689,0.96 -0.961,2.1 -0.961,3.96 0,1.859 0.271,3 0.961,3.96 0.779,1.11 1.98,1.68 3.42,1.68 1.41,0 2.279,-0.45 3.391,-1.68 l 1.469,1.41 c -1.529,1.65 -2.82,2.19 -4.859,2.19 z"
   id="path3157"
   style="fill:#842e62" />
		<path
   d="m 750.73,438.644 v -2.431 h 2.43 v 2.431 h -2.43 z m 0.122,18.96 v -14.76 h 2.16 v 14.76 h -2.16 z"
   id="path3159"
   style="fill:#842e62" />
		<path
   d="m 759.49,450.793 c 0,3.24 1.531,5.101 4.352,5.101 1.709,0 2.699,-0.51 3.869,-1.68 l 1.471,1.29 c -1.5,1.5 -2.881,2.279 -5.4,2.279 -3.9,0 -6.451,-2.34 -6.451,-7.56 0,-4.771 2.311,-7.561 6.061,-7.561 3.811,0 6.061,2.761 6.061,7.141 v 0.989 h -9.963 z m 7.352,-4.079 c -0.57,-1.351 -1.891,-2.221 -3.451,-2.221 -1.56,0 -2.879,0.87 -3.449,2.221 -0.33,0.81 -0.391,1.26 -0.451,2.46 h 7.801 c -0.062,-1.2 -0.12,-1.651 -0.45,-2.46 z"
   id="path3161"
   style="fill:#842e62" />
		<path
   d="m 783.191,457.604 v -9.09 c 0,-2.61 -1.41,-3.931 -3.631,-3.931 -2.221,0 -3.66,1.351 -3.66,3.931 v 9.09 h -2.16 v -14.76 h 2.16 v 1.62 c 1.051,-1.2 2.49,-1.801 4.141,-1.801 1.59,0 2.879,0.48 3.779,1.38 1.051,1.021 1.531,2.4 1.531,4.11 v 9.45 h -2.16 z"
   id="path3163"
   style="fill:#842e62" />
		<path
   d="m 796.029,457.783 c -3.719,0 -6.539,-2.52 -6.539,-7.56 0,-5.04 2.82,-7.561 6.539,-7.561 2.041,0 3.33,0.54 4.861,2.19 l -1.471,1.38 c -1.109,-1.229 -1.98,-1.65 -3.391,-1.65 -1.439,0 -2.639,0.57 -3.42,1.681 -0.689,0.96 -0.959,2.1 -0.959,3.96 0,1.859 0.27,3 0.959,3.96 0.781,1.11 1.98,1.68 3.42,1.68 1.41,0 2.281,-0.45 3.391,-1.68 l 1.471,1.41 c -1.531,1.65 -2.82,2.19 -4.861,2.19 z"
   id="path3165"
   style="fill:#842e62" />
		<path
   d="m 805.596,450.793 c 0,3.24 1.531,5.101 4.352,5.101 1.709,0 2.699,-0.51 3.869,-1.68 l 1.471,1.29 c -1.5,1.5 -2.881,2.279 -5.4,2.279 -3.9,0 -6.451,-2.34 -6.451,-7.56 0,-4.771 2.311,-7.561 6.061,-7.561 3.811,0 6.061,2.761 6.061,7.141 v 0.989 h -9.963 z m 7.351,-4.079 c -0.57,-1.351 -1.891,-2.221 -3.451,-2.221 -1.56,0 -2.879,0.87 -3.449,2.221 -0.33,0.81 -0.391,1.26 -0.451,2.46 h 7.801 c -0.061,-1.2 -0.12,-1.651 -0.45,-2.46 z"
   id="path3167"
   style="fill:#842e62" />
		<path
   d="m 824.496,457.783 c -2.49,0 -4.439,-0.569 -6.061,-2.13 l 1.441,-1.439 c 1.17,1.229 2.76,1.71 4.59,1.71 2.43,0 3.93,-0.87 3.93,-2.61 0,-1.29 -0.75,-2.01 -2.461,-2.16 l -2.43,-0.21 c -2.879,-0.24 -4.41,-1.53 -4.41,-3.96 0,-2.7 2.281,-4.32 5.43,-4.32 2.102,0 3.99,0.511 5.311,1.591 l -1.41,1.409 c -1.049,-0.81 -2.4,-1.17 -3.93,-1.17 -2.16,0 -3.301,0.931 -3.301,2.431 0,1.26 0.721,2.01 2.58,2.159 l 2.371,0.21 c 2.58,0.24 4.35,1.23 4.35,3.99 0,2.85 -2.43,4.499 -6,4.499 z"
   id="path3169"
   style="fill:#842e62" />
		<path
   d="m 396.443,490.604 -4.86,-9.48 h -5.13 v 9.48 h -2.28 v -21.36 h 8.19 c 3.72,0 6.33,2.25 6.33,5.94 0,3.12 -1.89,5.16 -4.65,5.729 l 5.07,9.69 h -2.67 z m -4.29,-19.321 h -5.7 v 7.83 h 5.7 c 2.49,0 4.26,-1.29 4.26,-3.899 0,-2.61 -1.77,-3.931 -4.26,-3.931 z"
   id="path3171"
   style="fill:#842e62" />
		<path
   d="m 404.512,483.793 c 0,3.24 1.53,5.101 4.35,5.101 1.71,0 2.7,-0.51 3.87,-1.68 l 1.47,1.29 c -1.5,1.5 -2.88,2.279 -5.4,2.279 -3.9,0 -6.45,-2.34 -6.45,-7.56 0,-4.771 2.31,-7.561 6.06,-7.561 3.81,0 6.06,2.761 6.06,7.141 v 0.989 h -9.96 z m 7.35,-4.079 c -0.57,-1.351 -1.89,-2.221 -3.45,-2.221 -1.56,0 -2.88,0.87 -3.45,2.221 -0.33,0.81 -0.39,1.26 -0.45,2.46 h 7.8 c -0.06,-1.2 -0.12,-1.651 -0.45,-2.46 z"
   id="path3173"
   style="fill:#842e62" />
		<path
   d="m 423.412,490.783 c -2.49,0 -4.44,-0.569 -6.06,-2.13 l 1.44,-1.439 c 1.17,1.229 2.76,1.71 4.59,1.71 2.43,0 3.93,-0.87 3.93,-2.61 0,-1.29 -0.75,-2.01 -2.46,-2.16 l -2.43,-0.21 c -2.88,-0.24 -4.41,-1.53 -4.41,-3.96 0,-2.7 2.28,-4.32 5.43,-4.32 2.1,0 3.99,0.511 5.31,1.591 l -1.41,1.409 c -1.05,-0.81 -2.4,-1.17 -3.93,-1.17 -2.16,0 -3.3,0.931 -3.3,2.431 0,1.26 0.72,2.01 2.58,2.159 l 2.37,0.21 c 2.58,0.24 4.35,1.23 4.35,3.99 0,2.85 -2.43,4.499 -6,4.499 z"
   id="path3175"
   style="fill:#842e62" />
		<path
   d="m 434.691,483.793 c 0,3.24 1.53,5.101 4.35,5.101 1.71,0 2.7,-0.51 3.87,-1.68 l 1.47,1.29 c -1.5,1.5 -2.88,2.279 -5.4,2.279 -3.9,0 -6.45,-2.34 -6.45,-7.56 0,-4.771 2.31,-7.561 6.06,-7.561 3.81,0 6.06,2.761 6.06,7.141 v 0.989 h -9.96 z m 7.351,-4.079 c -0.57,-1.351 -1.89,-2.221 -3.45,-2.221 -1.56,0 -2.88,0.87 -3.45,2.221 -0.33,0.81 -0.39,1.26 -0.45,2.46 h 7.8 c -0.06,-1.2 -0.12,-1.651 -0.45,-2.46 z"
   id="path3177"
   style="fill:#842e62" />
		<path
   d="m 457.312,490.604 v -1.41 c -1.2,1.2 -2.28,1.59 -4.26,1.59 -2.04,0 -3.24,-0.39 -4.17,-1.35 -0.72,-0.72 -1.11,-1.83 -1.11,-3 0,-2.58 1.8,-4.26 5.1,-4.26 h 4.44 v -1.41 c 0,-2.16 -1.08,-3.24 -3.78,-3.24 -1.89,0 -2.85,0.45 -3.72,1.68 l -1.47,-1.35 c 1.32,-1.71 2.82,-2.19 5.22,-2.19 3.96,0 5.911,1.71 5.911,4.92 v 10.021 h -2.161 z m 0,-6.811 h -4.14 c -2.22,0 -3.3,0.9 -3.3,2.61 0,1.71 1.05,2.521 3.39,2.521 1.26,0 2.37,-0.09 3.3,-0.99 0.51,-0.48 0.75,-1.32 0.75,-2.55 v -1.591 z"
   id="path3179"
   style="fill:#842e62" />
		<path
   d="m 472.671,478.663 c -0.811,-0.81 -1.41,-1.08 -2.55,-1.08 -2.16,0 -3.54,1.71 -3.54,3.96 v 9.061 h -2.16 v -14.76 h 2.16 v 1.8 c 0.81,-1.23 2.43,-1.98 4.14,-1.98 1.41,0 2.49,0.33 3.54,1.38 l -1.59,1.619 z"
   id="path3181"
   style="fill:#842e62" />
		<path
   d="m 481.456,490.783 c -3.72,0 -6.54,-2.52 -6.54,-7.56 0,-5.04 2.82,-7.561 6.54,-7.561 2.04,0 3.33,0.54 4.86,2.19 l -1.47,1.38 c -1.11,-1.229 -1.98,-1.65 -3.391,-1.65 -1.439,0 -2.64,0.57 -3.42,1.681 -0.689,0.96 -0.96,2.1 -0.96,3.96 0,1.859 0.271,3 0.96,3.96 0.78,1.11 1.98,1.68 3.42,1.68 1.41,0 2.28,-0.45 3.391,-1.68 l 1.47,1.41 c -1.53,1.65 -2.82,2.19 -4.86,2.19 z"
   id="path3183"
   style="fill:#842e62" />
		<path
   d="m 499.576,490.604 v -9.12 c 0,-2.58 -1.38,-3.9 -3.601,-3.9 -2.22,0 -3.689,1.351 -3.689,3.9 v 9.12 h -2.16 v -21.36 h 2.16 v 8.221 c 1.08,-1.23 2.489,-1.801 4.14,-1.801 3.33,0 5.311,2.13 5.311,5.46 v 9.48 h -2.161 z"
   id="path3185"
   style="fill:#842e62" />
		<path
   d="m 520.905,490.783 c -2.1,0 -4.02,-0.779 -5.46,-2.22 -2.01,-2.01 -2.01,-4.11 -2.01,-8.64 0,-4.53 0,-6.631 2.01,-8.641 1.44,-1.439 3.36,-2.22 5.46,-2.22 3.84,0 6.69,2.34 7.41,6.36 h -2.34 c -0.57,-2.61 -2.4,-4.32 -5.07,-4.32 -1.41,0 -2.76,0.54 -3.69,1.5 -1.35,1.38 -1.5,2.85 -1.5,7.32 0,4.47 0.15,5.939 1.5,7.319 0.931,0.96 2.28,1.5 3.69,1.5 2.67,0 4.561,-1.71 5.13,-4.319 h 2.28 c -0.69,4.021 -3.6,6.361 -7.41,6.361 z"
   id="path3187"
   style="fill:#842e62" />
		<path
   d="m 542.145,489.104 c -1.02,1.02 -2.43,1.68 -4.229,1.68 -1.799,0 -3.21,-0.66 -4.23,-1.68 -1.5,-1.53 -1.8,-3.6 -1.8,-5.88 0,-2.28 0.3,-4.351 1.8,-5.88 1.021,-1.021 2.431,-1.681 4.23,-1.681 1.799,0 3.21,0.66 4.229,1.681 1.5,1.529 1.801,3.6 1.801,5.88 0,2.28 -0.301,4.349 -1.801,5.88 z m -1.529,-10.441 c -0.69,-0.689 -1.65,-1.08 -2.7,-1.08 -1.05,0 -1.98,0.391 -2.67,1.08 -1.08,1.08 -1.2,2.91 -1.2,4.561 0,1.649 0.12,3.479 1.2,4.56 0.689,0.69 1.62,1.08 2.67,1.08 1.05,0 2.01,-0.39 2.7,-1.08 1.08,-1.08 1.17,-2.91 1.17,-4.56 0,-1.651 -0.09,-3.481 -1.17,-4.561 z"
   id="path3189"
   style="fill:#842e62" />
		<path
   d="m 557.595,490.604 v -1.65 c -1.05,1.2 -2.521,1.83 -4.17,1.83 -1.59,0 -2.91,-0.479 -3.811,-1.38 -1.05,-1.02 -1.5,-2.43 -1.5,-4.14 v -9.42 h 2.16 v 9.09 c 0,2.61 1.38,3.93 3.6,3.93 2.221,0 3.69,-1.35 3.69,-3.93 v -9.09 h 2.16 v 14.76 h -2.129 z"
   id="path3191"
   style="fill:#842e62" />
		<path
   d="m 574.275,490.604 v -9.09 c 0,-2.61 -1.41,-3.931 -3.63,-3.931 -2.221,0 -3.66,1.351 -3.66,3.931 v 9.09 h -2.16 v -14.76 h 2.16 v 1.62 c 1.05,-1.2 2.489,-1.801 4.14,-1.801 1.59,0 2.88,0.48 3.78,1.38 1.05,1.021 1.53,2.4 1.53,4.11 v 9.45 h -2.16 z"
   id="path3193"
   style="fill:#842e62" />
		<path
   d="m 587.115,490.783 c -3.72,0 -6.54,-2.52 -6.54,-7.56 0,-5.04 2.82,-7.561 6.54,-7.561 2.04,0 3.33,0.54 4.86,2.19 l -1.47,1.38 c -1.11,-1.229 -1.98,-1.65 -3.391,-1.65 -1.439,0 -2.64,0.57 -3.42,1.681 -0.689,0.96 -0.96,2.1 -0.96,3.96 0,1.859 0.271,3 0.96,3.96 0.78,1.11 1.98,1.68 3.42,1.68 1.41,0 2.28,-0.45 3.391,-1.68 l 1.47,1.41 c -1.53,1.65 -2.82,2.19 -4.86,2.19 z"
   id="path3195"
   style="fill:#842e62" />
		<path
   d="m 595.665,471.644 v -2.431 h 2.429 v 2.431 h -2.429 z m 0.12,18.96 v -14.76 h 2.161 v 14.76 h -2.161 z"
   id="path3197"
   style="fill:#842e62" />
		<path
   d="m 606.764,490.604 c -2.58,0 -3.75,-1.68 -3.75,-3.93 v -17.431 h 2.16 v 17.34 c 0,1.44 0.48,2.16 1.98,2.16 h 1.17 v 1.86 h -1.56 z"
   id="path3199"
   style="fill:#842e62" />
	</g>
</g>
</svg>