<?xml version="1.0" encoding="UTF-8" standalone="no"?>
<!-- Created with Inkscape (http://www.inkscape.org/) -->

<svg
   xmlns:dc="http://purl.org/dc/elements/1.1/"
   xmlns:cc="http://creativecommons.org/ns#"
   xmlns:rdf="http://www.w3.org/1999/02/22-rdf-syntax-ns#"
   xmlns:svg="http://www.w3.org/2000/svg"
   xmlns="http://www.w3.org/2000/svg"
   xmlns:sodipodi="http://sodipodi.sourceforge.net/DTD/sodipodi-0.dtd"
   xmlns:inkscape="http://www.inkscape.org/namespaces/inkscape"
   id="svg4136"
   version="1.1"
   inkscape:version="0.91 r13725"
   xml:space="preserve"
   width="1247.025"
   height="409.78751"
   viewBox="0 0 1247.025 409.78751"
   sodipodi:docname="Newcastle_University_Logo.svg"><metadata
     id="metadata4142"><rdf:RDF><cc:Work
         rdf:about=""><dc:format>image/svg+xml</dc:format><dc:type
           rdf:resource="http://purl.org/dc/dcmitype/StillImage" /><dc:title></dc:title></cc:Work></rdf:RDF></metadata><defs
     id="defs4140" /><sodipodi:namedview
     pagecolor="#ffffff"
     bordercolor="#666666"
     borderopacity="1"
     objecttolerance="10"
     gridtolerance="10"
     guidetolerance="10"
     inkscape:pageopacity="0"
     inkscape:pageshadow="2"
     inkscape:window-width="1445"
     inkscape:window-height="841"
     id="namedview4138"
     showgrid="false"
     inkscape:zoom="0.47007198"
     inkscape:cx="598.66225"
     inkscape:cy="435.45849"
     inkscape:window-x="83"
     inkscape:window-y="-8"
     inkscape:window-maximized="1"
     inkscape:current-layer="g4144" /><g
     id="g4144"
     inkscape:groupmode="layer"
     inkscape:label="ink_ext_XXXXXX"
     transform="matrix(1.25,0,0,-1.25,0,409.7875)"><g
       id="g4229"><path
         d="m 457.474,269.741 c -0.149,11.486 -5.534,17.613 -14.849,17.613 -8.588,0 -14.263,-6.283 -14.842,-17.613 l 29.691,0 z m -14.559,-50.409 c -23.432,0 -38.713,16.703 -38.713,41.367 0,24.209 16.3,41.674 39.735,41.674 22.269,0 36.239,-15.782 36.239,-42.287 0,-1.068 0,-2.144 0,-3.216 l -52.685,0 c 0,-13.791 5.967,-21.299 16.298,-21.299 7.279,0 12.806,4.291 14.849,11.802 l 21.102,-1.841 c -4.952,-16.7 -18.339,-26.2 -36.825,-26.2"
         style="fill:#10427a;fill-opacity:1;fill-rule:nonzero;stroke:none"
         id="path4148"
         inkscape:connector-curvature="0" /><path
         d="m 974.924,269.741 c -0.151,11.486 -5.535,17.613 -14.85,17.613 -8.588,0 -14.263,-6.283 -14.842,-17.613 l 29.692,0 z m -14.561,-50.409 c -23.431,0 -38.713,16.703 -38.713,41.367 0,24.209 16.301,41.674 39.735,41.674 22.269,0 36.24,-15.782 36.24,-42.287 0,-1.068 0,-2.144 0,-3.216 l -52.686,0 c 0,-13.791 5.967,-21.299 16.299,-21.299 7.28,0 12.807,4.291 14.848,11.802 l 21.103,-1.841 c -4.953,-16.7 -18.339,-26.2 -36.826,-26.2"
         style="fill:#10427a;fill-opacity:1;fill-rule:nonzero;stroke:none"
         id="path4150"
         inkscape:connector-curvature="0" /><path
         d="m 482.344,300.225 24.691,0 11.471,-46.258 10.963,46.258 20.416,0 11.48,-47.02 13.668,47.02 18.43,0 -22.697,-78.75 -20.7,0 -13.023,51.176 -13.023,-51.176 -18.881,0 -22.795,78.75"
         style="fill:#10427a;fill-opacity:1;fill-rule:nonzero;stroke:none"
         id="path4152"
         inkscape:connector-curvature="0" /><path
         d="m 635.113,286.436 c -9.968,0 -16.84,-8.58 -17.127,-25.429 -0.287,-16.856 6.608,-25.588 16.26,-25.588 7.563,0 14.705,5.82 16.002,16.088 l 19.625,-2.295 c -2.564,-18.233 -17.076,-29.88 -37.191,-29.88 -23.326,0 -39.45,16.703 -39.03,41.367 0.428,25.124 17.284,41.674 42.217,41.674 18.977,0 31.983,-11.032 34.237,-29.878 l -20.334,-2.14 c -1.27,10.413 -7.741,16.081 -14.659,16.081"
         style="fill:#10427a;fill-opacity:1;fill-rule:nonzero;stroke:none"
         id="path4154"
         inkscape:connector-curvature="0" /><path
         d="m 699.844,244.92 c 0,-6.433 4.086,-10.262 11.361,-10.262 9.164,0 16.152,7.657 16.152,18.382 l 0,7.046 c -18.195,-0.307 -27.513,-5.823 -27.513,-15.166 z m 27.953,-10.726 c -5.094,-9.498 -13.684,-14.707 -24.75,-14.707 -16.293,0 -26.19,9.502 -26.19,24.057 0,18.532 16.879,28.339 50.5,28.642 l 0,3.375 c 0,7.963 -4.216,12.1 -12.517,12.1 -9.164,0 -14.41,-3.828 -15.57,-11.023 l -20.377,2.294 c 3.492,15.474 16.011,23.441 37.111,23.441 23.578,0 32.746,-9.193 32.746,-30.791 l 0,-34.935 c 0,-6.437 0.584,-11.493 2.184,-15.172 l -21.682,0 c -0.879,3.679 -1.314,7.97 -1.455,12.719"
         style="fill:#10427a;fill-opacity:1;fill-rule:nonzero;stroke:none"
         id="path4156"
         inkscape:connector-curvature="0" /><path
         d="m 775.758,246.145 c 1.89,-7.203 8.433,-11.338 18.191,-11.338 8.295,0 12.957,3.68 12.957,8.581 0,6.896 -6.556,6.585 -18.195,9.041 -18.629,3.828 -27.951,10.11 -27.951,24.358 0,14.71 11.937,25.735 31.73,25.735 16.158,0 27.072,-7.195 31.733,-20.529 l -17.61,-3.367 c -2.627,6.282 -7.427,8.885 -14.994,8.885 -7.277,0 -11.207,-2.758 -11.207,-7.815 0,-6.887 7.57,-6.586 21.684,-9.648 17.029,-3.679 25.332,-9.806 25.332,-23.596 0,-15.473 -13.104,-26.656 -35.369,-26.656 -18.047,0 -30.856,9.036 -34.495,23.748 l 18.194,2.601"
         style="fill:#10427a;fill-opacity:1;fill-rule:nonzero;stroke:none"
         id="path4158"
         inkscape:connector-curvature="0" /><path
         d="m 889.189,221.475 22.5961,0 0,106.354 -22.5961,0 0,-106.354 z"
         style="fill:#10427a;fill-opacity:1;fill-rule:nonzero;stroke:none"
         id="path4160"
         inkscape:connector-curvature="0" /><path
         d="m 428.733,157.337 c 3.252,5.432 7.089,9.509 11.508,12.223 4.415,2.716 9.408,4.078 14.991,4.078 4.794,0 8.82,-0.959 12.077,-2.865 3.255,-1.91 5.861,-4.931 7.825,-9.051 1.964,-4.129 2.946,-8.752 2.946,-13.873 l 0,-35.736 c 0,-2.665 0.583,-4.562 1.772,-5.679 1.181,-1.125 3.157,-1.688 5.945,-1.688 l 5.096,0 0,-5.7628 -38.445,0 0,5.7628 3.648,0 c 3.415,0 5.797,0.545 7.141,1.641 1.348,1.087 2.024,2.719 2.024,4.901 l 0,31.252 c 0,6.802 -1.028,11.836 -3.085,15.106 -2.877,4.678 -7.245,7.015 -13.096,7.015 -5.809,0 -10.653,-2.363 -14.527,-7.084 -3.88,-4.728 -5.82,-10.886 -5.82,-18.472 l 0,-27.038 c 0,-2.65 0.601,-4.53 1.815,-5.649 1.212,-1.117 3.203,-1.672 5.985,-1.672 l 5.017,0 0,-5.7628 -39.087,0 0,5.7628 5.045,0 c 2.538,0 4.466,0.526 5.788,1.565 1.32,1.043 1.981,2.345 1.981,3.919 l 0,47.435 c 0,3.135 -0.839,5.503 -2.511,7.129 -1.679,1.617 -4.086,2.435 -7.229,2.435 l -3.719,0 0,5.126 25.956,1.303 0.959,-16.321"
         style="fill:#10427a;fill-opacity:1;fill-rule:nonzero;stroke:none"
         id="path4162"
         inkscape:connector-curvature="0" /><path
         d="m 513.033,202.794 c 2.346,0 4.41,-0.891 6.19,-2.668 1.769,-1.772 2.66,-3.866 2.66,-6.265 0,-2.351 -0.867,-4.382 -2.584,-6.107 -1.729,-1.724 -3.791,-2.584 -6.192,-2.584 -2.396,0 -4.474,0.867 -6.216,2.621 -1.762,1.75 -2.631,3.793 -2.631,6.153 0,2.34 0.885,4.41 2.664,6.182 1.771,1.777 3.81,2.668 6.109,2.668 z m -20.621,-30.76 29.471,0.961 0,-63.011 c 0,-1.725 0.418,-2.944 1.254,-3.673 1.199,-1.039 2.711,-1.565 4.547,-1.565 l 8.294,0 0,-5.7628 -41.97,0 0,5.7628 7.762,0 c 2.294,0 3.978,0.555 5.052,1.678 1.065,1.121 1.602,2.752 1.602,4.888 l 0,46.122 c 0,2.916 -0.84,5.118 -2.51,6.603 -1.678,1.483 -4.164,2.226 -7.459,2.226 l -6.043,0 0,5.771"
         style="fill:#10427a;fill-opacity:1;fill-rule:nonzero;stroke:none"
         id="path4164"
         inkscape:connector-curvature="0" /><path
         d="m 837.469,202.794 c 2.345,0 4.41,-0.891 6.185,-2.668 1.77,-1.772 2.662,-3.866 2.662,-6.265 0,-2.351 -0.869,-4.382 -2.582,-6.107 -1.734,-1.724 -3.795,-2.584 -6.191,-2.584 -2.398,0 -4.479,0.867 -6.221,2.621 -1.761,1.75 -2.631,3.793 -2.631,6.153 0,2.34 0.883,4.41 2.665,6.182 1.773,1.777 3.812,2.668 6.113,2.668 z m -20.625,-30.76 29.472,0.961 0,-63.011 c 0,-1.725 0.418,-2.944 1.252,-3.673 1.207,-1.039 2.713,-1.565 4.551,-1.565 l 8.297,0 0,-5.7628 -41.977,0 0,5.7628 7.762,0 c 2.295,0 3.981,0.555 5.053,1.678 1.066,1.121 1.607,2.752 1.607,4.888 l 0,46.122 c 0,2.916 -0.841,5.118 -2.513,6.603 -1.678,1.483 -4.166,2.226 -7.461,2.226 l -6.043,0 0,5.771"
         style="fill:#10427a;fill-opacity:1;fill-rule:nonzero;stroke:none"
         id="path4166"
         inkscape:connector-curvature="0" /><path
         d="m 530.881,172.355 36.211,0 0,-5.448 c -4.819,-0.107 -7.901,-0.531 -9.229,-1.281 -1.336,-0.755 -2.004,-1.828 -2.004,-3.228 0,-1.15 0.233,-2.282 0.696,-3.42 l 19.341,-43.337 17.831,41.995 c 0.259,0.727 0.39,1.449 0.39,2.183 0,3.79 -3.785,6.151 -11.33,7.088 l 0,5.448 30.441,0 0,-5.448 c -3.087,-0.312 -5.546,-1.139 -7.372,-2.48 -1.833,-1.344 -3.25,-3.139 -4.241,-5.412 l -26.963,-62.2798 -4.349,0 -28.578,64.0098 c -1.055,2.256 -2.325,3.833 -3.813,4.731 -1.494,0.908 -3.838,1.377 -7.031,1.431 l 0,5.448"
         style="fill:#10427a;fill-opacity:1;fill-rule:nonzero;stroke:none"
         id="path4168"
         inkscape:connector-curvature="0" /><path
         d="m 625.033,140.634 32.389,0 c 1.914,0 3.4,0.637 4.461,1.92 1.062,1.279 1.599,3.461 1.599,6.549 0,5.74 -1.818,10.625 -5.466,14.647 -3.645,4.031 -7.93,6.037 -12.883,6.037 -5.533,0 -10.225,-2.426 -14.076,-7.286 -3.854,-4.865 -5.862,-12.154 -6.024,-21.867 z m 52.869,-5.449 -52.869,0 c 0.264,-11.173 2.365,-19.057 6.324,-23.65 4.532,-5.162 10.307,-7.749 17.309,-7.749 10.336,0 18.637,5.764 24.91,17.305 l 4.971,-2.175 c -7.639,-14.795 -18.652,-22.1808 -33.063,-22.1808 -9.832,0 -18.091,3.5608 -24.802,10.6618 -6.713,7.116 -10.069,16.202 -10.069,27.289 0,11.912 3.305,21.55 9.907,28.895 6.609,7.342 14.738,11.014 24.408,11.014 7.095,0 13.236,-1.837 18.406,-5.486 5.164,-3.656 9.049,-8.91 11.666,-15.746 1.832,-4.803 2.801,-10.869 2.902,-18.178"
         style="fill:#10427a;fill-opacity:1;fill-rule:nonzero;stroke:none"
         id="path4170"
         inkscape:connector-curvature="0" /><path
         d="m 756.014,126.215 c 3.242,-9.064 6.98,-15.33 11.201,-18.808 4.205,-3.487 9.404,-5.223 15.588,-5.223 5.703,0 10.086,1.25 13.148,3.754 3.065,2.504 4.594,5.673 4.594,9.532 0,2.211 -0.561,4.137 -1.688,5.799 -1.123,1.668 -2.679,2.9 -4.666,3.719 -1.994,0.814 -7.156,2.014 -15.474,3.609 -7.959,1.576 -13.504,3.232 -16.631,4.953 -3.121,1.724 -5.564,4.106 -7.301,7.137 -1.744,3.035 -2.611,6.333 -2.611,9.892 0,5.385 1.781,10.27 5.381,14.665 4.633,5.594 11.111,8.394 19.445,8.394 6.35,0 12.23,-2.055 17.646,-6.156 l 5.159,5.513 3.199,0 2.031,-26.277 -5.127,0 c -2.299,7.614 -5.408,13.09 -9.328,16.445 -3.92,3.346 -8.754,5.022 -14.494,5.022 -4.961,0 -8.852,-1.234 -11.672,-3.707 -2.83,-2.473 -4.234,-5.483 -4.234,-9.05 0,-3.141 1.298,-5.743 3.908,-7.817 2.557,-2.129 7.576,-3.785 15.068,-4.992 8.69,-1.459 14.354,-2.692 16.975,-3.679 4.25,-1.568 7.545,-3.972 9.887,-7.222 2.332,-3.252 3.502,-7.221 3.502,-11.896 0,-6.442 -2.543,-11.909 -7.629,-16.373 -5.092,-4.474 -11.551,-6.7138 -19.377,-6.7138 -7.256,0 -13.987,2.3847 -20.192,7.1358 l -5.72,-6.4909 -4.151,0 -1.566,28.8349 5.129,0"
         style="fill:#10427a;fill-opacity:1;fill-rule:nonzero;stroke:none"
         id="path4172"
         inkscape:connector-curvature="0" /><path
         d="m 914.475,172.355 35.24,0 0,-5.448 -3.297,0 c -3.094,0 -5.213,-0.398 -6.33,-1.185 -1.127,-0.793 -1.688,-1.932 -1.688,-3.41 0,-0.658 0.157,-1.323 0.479,-1.983 l 20.539,-43.9 15.352,36.397 c 1.091,2.58 1.644,5.11 1.644,7.58 0,1.906 -0.764,3.392 -2.262,4.446 -1.511,1.059 -4.533,1.743 -9.052,2.055 l 0,5.448 30.431,0 0,-5.448 c -5.777,-0.568 -9.66,-3.148 -11.644,-7.747 L 956.32,96.0059 c -4.685,-10.7379 -9.355,-18.093 -14.011,-22.0668 -4.702,-4.0282 -9.754,-6.036 -15.141,-6.036 -3.92,0 -7.076,1.077 -9.453,3.2129 -2.373,2.1461 -3.57,4.7891 -3.57,7.927 0,2.3519 0.742,4.2929 2.197,5.7968 1.465,1.5262 3.293,2.2872 5.486,2.2872 1.988,0 3.66,-0.652 5.024,-1.945 1.347,-1.2851 2.035,-2.8441 2.035,-4.655 0,-0.5719 -0.106,-1.3438 -0.313,-2.3329 -0.209,-0.764 -0.314,-1.3339 -0.314,-1.7043 0,-1.2449 0.808,-1.8628 2.437,-1.8628 1.729,0 3.686,0.616 5.873,1.848 2.182,1.2352 4.221,3.207 6.108,5.9301 1.896,2.723 5.187,8.882 9.892,18.4979 l -27.8,59.426 c -1.006,2.036 -2.241,3.553 -3.735,4.545 -1.5,0.997 -3.685,1.672 -6.56,2.033 l 0,5.448"
         style="fill:#10427a;fill-opacity:1;fill-rule:nonzero;stroke:none"
         id="path4174"
         inkscape:connector-curvature="0" /><path
         d="m 303.098,327.826 28.868,0 40.266,-65.631 -0.027,65.631 22.519,0 0,-106.331 -24.041,0 -45.051,73.832 -0.05,-73.832 -22.484,0 0,106.331"
         style="fill:#10427a;fill-opacity:1;fill-rule:nonzero;stroke:none"
         id="path4176"
         inkscape:connector-curvature="0" /><path
         d="m 289.718,205.489 48.109,0 0,-5.762 -8.055,0 c -2.844,0 -4.84,-0.474 -5.973,-1.409 -1.137,-0.945 -1.703,-2.376 -1.703,-4.304 l 0,-58.144 c 0,-6.833 0.599,-11.994 1.794,-15.487 1.766,-5.165 5.009,-9.289 9.717,-12.359 4.704,-3.081 10.859,-4.613 18.457,-4.613 10.508,0 18.519,2.718 24.038,8.171 5.507,5.449 8.269,12.734 8.269,21.861 l 0,45.938 c 0,4.705 -0.334,8.258 -0.988,10.684 -0.66,2.421 -1.609,4.315 -2.842,5.672 -1.229,1.348 -2.798,2.353 -4.684,3.011 -1.898,0.649 -5.052,0.979 -9.461,0.979 l 0,5.762 43.975,0 0,-5.762 -3.124,0 c -4.896,0 -8.541,-1.32 -10.941,-3.953 -2.398,-2.643 -3.59,-6.466 -3.59,-11.479 l 0,-49.758 c 0,-12.42 -3.55,-21.955 -10.649,-28.58 -7.989,-7.4718 -18.611,-11.2011 -31.873,-11.2011 -11.482,0 -20.515,1.6312 -27.095,4.8832 -6.579,3.2699 -11.356,7.9589 -14.329,14.0689 -2.248,4.637 -3.362,10.489 -3.362,17.543 l 0,62.759 c 0,1.769 -0.618,3.168 -1.833,4.188 -1.224,1.019 -3.05,1.529 -5.487,1.529 l -8.37,0 0,5.762"
         style="fill:#10427a;fill-opacity:1;fill-rule:nonzero;stroke:none"
         id="path4178"
         inkscape:connector-curvature="0" /><path
         d="m 878.998,237.818 c -2.527,-0.493 -4.844,-0.714 -6.846,-0.714 -7.818,0 -9.498,3.522 -9.498,12.414 l 0,35.39 16.344,0 0,15.317 -16.344,0 0,22.844 -22.828,-4.18 0,-18.664 -10.164,0 0,-15.317 10.164,0 0,-37.843 c 0,-19.307 7.356,-27.733 25.885,-27.733 4.227,0 8.687,0.487 13.287,1.347 l 0,17.139"
         style="fill:#10427a;fill-opacity:1;fill-rule:nonzero;stroke:none"
         id="path4180"
         inkscape:connector-curvature="0" /><path
         d="m 909.611,126.843 c -0.418,-7.722 -1.884,-13.259 -4.383,-16.613 -2.509,-3.355 -5.533,-5.03 -9.082,-5.03 -2.976,0 -5.435,1.101 -7.359,3.307 -1.933,2.205 -2.898,5.383 -2.898,9.533 l 0,47.938 23.015,0 0,6.365 -23.015,0 0,30.476 -5.385,0 c -0.481,-10.241 -2.982,-18.256 -7.529,-24.004 -3.151,-3.937 -7.743,-6.411 -13.768,-7.421 l 0,-5.416 13.047,0 0,-50.151 c 0,-5.476 1.73,-9.901 5.205,-13.272 3.469,-3.378 8.279,-5.064 14.432,-5.064 6.671,0 12.107,2.4039 16.297,7.216 4.187,4.81 6.439,12.19 6.755,22.136 l -5.332,0"
         style="fill:#10427a;fill-opacity:1;fill-rule:nonzero;stroke:none"
         id="path4182"
         inkscape:connector-curvature="0" /><path
         d="m 736.615,174.991 c -12.814,0 -23.609,-14.973 -28.045,-31.715 l 0,30.362 -26.586,-1.283 0,-5.772 6.354,0 c 2.797,0 4.943,-0.815 6.441,-2.461 1.506,-1.644 2.254,-4.229 2.254,-7.781 l 0,-46.672 c 0,-1.356 -0.629,-2.517 -1.879,-3.478 -1.254,-0.966 -3.111,-1.445 -5.562,-1.445 l -7.293,0 0,-5.7628 45.82,0 0,5.7628 -9.326,0 c -3.027,0 -5.17,0.465 -6.42,1.411 -1.25,0.941 -1.881,2.298 -1.881,4.066 l 0,13.606 c 0,14.09 5.959,38.153 17.883,38.153 3.254,0 2.602,-5.202 9.105,-5.202 5.204,0 8.889,3.903 8.889,8.888 0,5.636 -4.553,9.323 -9.754,9.323"
         style="fill:#10427a;fill-opacity:1;fill-rule:nonzero;stroke:none"
         id="path4184"
         inkscape:connector-curvature="0" /><path
         d="m 0,327.825 c 0,0 0.00546875,-63.295 0.00546875,-106.285 C 0.00546875,65.1531 140.027,0 140.027,0 c 0,0 140.022,65.1531 140.022,221.54 0,42.99 0.005,106.285 0.005,106.285 L 0,327.825"
         style="fill:#10427a;fill-opacity:1;fill-rule:nonzero;stroke:none"
         id="path4186"
         inkscape:connector-curvature="0" /><path
         d="m 4.59727,221.495 270.73,0 0,101.668 -270.73,0 0,-101.668 z"
         style="fill:#ffffff;fill-opacity:1;fill-rule:nonzero;stroke:none"
         id="path4188"
         inkscape:connector-curvature="0" /><path
         d="m 229.584,118.27 c 0,8.84 -1.32,17.568 -3.856,25.962 -24.349,-15.956 -48.536,-20.218 -62.871,-11.481 0.791,1.011 1.268,2.281 1.268,3.663 0,3.288 -2.666,5.953 -5.953,5.953 -1.382,0 -2.65,-0.476 -3.661,-1.266 -8.74,14.334 -4.479,38.524 11.478,62.874 -8.394,2.537 -17.122,3.856 -25.962,3.856 l 0,0.001 c -8.839,0 -17.568,-1.32 -25.962,-3.856 15.957,-24.348 20.218,-48.536 11.48,-62.871 -1.01,0.792 -2.279,1.267 -3.663,1.267 -3.287,0 -5.952,-2.665 -5.952,-5.952 0,-1.382 0.475,-2.65 1.265,-3.661 -14.334,-8.74 -38.5235,-4.478 -62.8735,11.479 -2.5367,-8.394 -3.8563,-17.122 -3.8563,-25.962 l 0.0055,0 c 0,-8.84 1.3195,-17.569 3.8559,-25.9619 24.3496,15.9569 48.5394,20.2189 62.8734,11.4779 -0.793,-1.01 -1.27,-2.282 -1.27,-3.667 0,-3.2871 2.665,-5.9531 5.952,-5.9531 1.384,0 2.653,0.4773 3.664,1.2679 8.737,-14.3339 4.476,-38.5218 -11.481,-62.8687 8.394,-2.5371 17.123,-3.857 25.962,-3.857 l 0,-0.0012 c 8.84,0 17.568,1.3211 25.962,3.857 -15.956,24.3473 -20.217,48.5352 -11.48,62.8699 1.011,-0.7906 2.28,-1.2679 3.663,-1.2679 3.287,0 5.953,2.666 5.953,5.9531 0,1.382 -0.476,2.651 -1.266,3.661 14.334,8.741 38.524,4.479 62.874,-11.4778 2.537,8.3938 3.856,17.1218 3.856,25.9618 l -0.005,0"
         style="fill:#ffffff;fill-opacity:1;fill-rule:nonzero;stroke:none"
         id="path4190"
         inkscape:connector-curvature="0" /><path
         d="m 156.225,118.276 c 0,-8.946 -7.252,-16.197 -16.198,-16.197 -8.945,0 -16.196,7.251 -16.196,16.197 0,8.945 7.251,16.197 16.196,16.197 8.946,0 16.198,-7.252 16.198,-16.197"
         style="fill:#10427a;fill-opacity:1;fill-rule:nonzero;stroke:none"
         id="path4192"
         inkscape:connector-curvature="0" /><path
         d="m 54.2465,260.945 c -6.8996,5.116 -15.5988,5.099 -17.1082,5.099 1.7097,3.155 2.8894,3.9 5.8894,5.608 -10.8429,0 -12.0832,2.938 -12.4574,5.441 2.9172,-0.413 6.2848,0.411 7.632,1.757 -7.8671,0.409 -10.4527,5.719 -11.3683,7.588 6.1187,0.451 6.048,3.547 5.2305,5.438 -0.625,1.445 -2.704,2.657 -4.786,2.008 -1.7949,-0.552 -3.6152,-3.129 -5.5019,-3.28 -1.7547,-0.14 -1.9844,1.631 -1.9844,2.709 -1.9859,0 -3.6965,-0.978 -4.957,-2.24 0.4734,7.088 8.0261,9.912 12.8,9.066 0,0 -0.2219,2.995 -1.1825,3.956 -1.455,1.455 -3.3109,1.294 -4.6679,2.296 -0.9082,0.672 -0.9184,2.214 0.5961,2.948 -1.5004,1.97 -5.5934,2.159 -5.5934,2.159 8.4684,6.283 14.032,-1.721 15.8145,-7.857 2.2644,2.807 2.4953,4.382 2.2011,5.933 -0.323,1.706 -1.6879,2.933 -1.5398,3.916 0.2183,1.451 1.7992,1.157 1.7992,1.157 -0.1902,2.263 -2.0211,4.028 -3.5641,4.844 0,0 6.836,0.605 9.5911,-6.398 2.5644,-6.514 -0.7653,-10.565 -0.7653,-10.565 0,0 2.5488,-0.31 3.6203,1.062 1.1547,1.458 0.4914,3.288 1.6649,4.288 1.1801,1.008 2.4926,-0.901 2.4926,-0.901 1.2769,1.278 0.4179,4.411 0.1648,5.281 0,0 3.5727,-2.246 3.1258,-6.419 -0.2996,-2.799 -3.1063,-5.129 -4.2887,-6.66 -1.182,-1.53 -4.6184,-4.855 0.9234,-14.441 3.3899,-5.864 6.7262,-8.2 8.5489,-9.048 -1.1114,-2.205 -3.1918,-8.324 -2.3297,-14.745"
         style="fill:#e51636;fill-opacity:1;fill-rule:nonzero;stroke:none"
         id="path4194"
         inkscape:connector-curvature="0" /><path
         d="m 27.2891,248.072 c -6.6258,-0.482 -18.46957,-3.17 -12.4168,-15.425 0,2.693 0.8847,5.082 2.4597,5.854 0.55,-1.883 1.9496,-2.214 2.9985,-1.481 0.9734,0.679 2.1558,2.762 3.3113,3.553 1.1074,0.759 2.618,1.193 4.6008,0.636 -5.3918,-9.057 0.898,-17.826 5.8,-17.332 -2.7949,1.934 -2.6828,4.497 -2.6,5.421 0,0 1.7332,-0.393 2.3976,0.984 0.5344,1.107 -0.3332,3.316 0.2434,5.376 0.4086,1.458 1.7234,2.108 2.8016,1.942 1.6843,-0.259 2.275,-1.787 2.2121,-3.146 -0.0785,-1.734 -0.9918,-3.244 -0.9918,-3.244 2.9199,-2.099 11.0039,0.435 15.8121,4.605 0,-1.254 -0.1258,-3.508 -1.3692,-5.834 4.3231,-0.745 11.8153,3.921 14.0137,7.852 0.2899,-1.891 -0.107,-5.947 -2.2945,-8.54 3.275,-0.763 12.1722,1.938 19.0758,8.841 0.4136,-3.877 6.2105,-9.497 12.6195,-6.475 0,0 -2.9438,1.648 -2.9438,3.963 0,3.78 4.1524,6.66 9.3109,8.914 5.99,2.616 15.802,3.804 25.738,8.519 18.3,8.684 21.577,17.081 36.627,17.081 6.562,0 13.003,-1.518 16.296,-6.926 3.286,-5.403 2.458,-11.789 6.15,-15.309 3.696,-3.525 10.135,-0.932 13.63,0.139 8.756,2.689 21.612,8.078 29.444,8.621 7.818,0.543 9.9,-5.313 10.067,-5.785 0.606,-1.708 -0.115,-2.776 -1.242,-2.701 -2.611,0.162 -7.355,1.363 -10.101,-0.196 -3.942,-2.234 -2.834,-7.638 -2.834,-7.638 1.004,1.499 3.42,4.022 5.993,3.929 0.083,-0.237 0.532,-3.14 2.935,-2.066 1.625,0.726 3.439,2.947 6.613,2.386 -3.045,-2.625 -8.732,-12.906 -0.622,-17.294 -1.201,1.802 -1.37,5.131 -0.399,6.693 0,0 2.344,-1.545 3.873,0.693 0.632,0.927 -0.235,3.491 0.289,5.508 0.454,1.762 2.184,2.781 2.184,2.781 0.661,-2.194 4.715,-9.048 15.28,-8.437 -2.431,0.959 -3.94,2.65 -4.345,3.864 1.247,0.879 1.824,2.965 0.553,3.482 -1.181,0.479 -3.61,0.062 -4.751,1.64 -1.34,1.832 -1.033,4.715 -1.033,4.715 3.627,-1.592 12.782,-5.187 16.473,3.005 -1.112,-0.804 -4.291,-1.765 -6.103,-1.608 -0.221,0.941 -1.225,3.531 -3.158,3.677 -2.543,0.19 -4.379,-0.596 -6.783,-0.918 -1.693,-0.228 -2.664,0.686 -3.072,1.586 -0.353,0.764 -0.014,1.836 0.385,2.397 0.862,1.238 2.819,2.028 2.819,2.028 -1.354,2.688 -5.906,1.534 -6.896,1.358 0.199,1.541 1.751,4.289 4.73,5.517 -1.113,1.918 -4.556,3.632 -10.184,2.687 0.653,2.328 2.62,4.828 4.3,5.414 -3.033,1.754 -10.158,1.024 -16.575,-3.662 0.251,1.416 0.063,5.582 -1.875,7.336 0,0 -8.366,-10.531 -16.578,-9.135 -8.204,1.4 -6.917,11.261 -6.917,11.261 0,0 16.205,-2.57 24.047,1.057 7.847,3.627 7.787,9.229 14.358,12.647 5.283,2.75 11.585,0.478 11.585,0.478 -0.967,5.416 -11.236,9.666 -19.13,1.367 0,0 -0.19,12.514 -19.531,11.53 -7.037,-0.362 -20.174,-4.307 -32.192,-6.504 -11.725,-2.143 -29.142,-3.182 -36.557,-3.182 -7.415,0 -14.695,1.622 -14.695,6.469 0,4.847 5.36,5.527 8.901,5.527 5.627,0 13.508,-3.316 19.858,-5.514 4.534,-1.57 8.998,-1.595 11.45,-1.595 6.651,0 15.018,3.326 19.21,4.969 4.192,1.642 7.497,2.675 15.532,1.992 -2.507,3.275 -11.772,7.142 -22.493,1.437 -0.972,1.713 1.071,4.944 5.235,6.276 -1.9,1.207 -7.982,2.882 -15.322,2.693 -11.611,-0.298 -15.284,-5.764 -26.57,-5.281 -11.293,0.476 -21.63,-1.392 -21.63,-9.925 0,-6.759 8.273,-11.967 21.648,-12.501 -0.34,-1.066 -2.151,-2.371 -2.728,-2.723 4.612,-0.748 11.407,-0.185 20.178,5.502 0.236,-0.948 -0.553,-3.369 -1.505,-4.002 3.157,0 9.024,1.606 16.105,6.03 0,-0.948 -0.134,-2.646 -1.84,-4.352 8.259,0.579 12.77,4.766 18.385,6.541 7.467,2.361 31.586,7.964 31.586,-5.389 0,-3.198 -1.56,-7.762 -9.871,-7.762 -8.31,0 -22.55,3.816 -25.314,4.294 -2.764,0.476 -5.846,1.152 -13.12,0.134 -6.78,-0.95 -57.693,-8.225 -66.023,-9.41 0,-2.735 0.1,-11.301 4.592,-15.19 -3.539,-1.639 -7.287,-2.76 -13.866,0.223 -0.517,-2.205 0.005,-8.576 3.15,-12 -2.635,-0.862 -8.0802,-2.244 -13.2799,1.135 -2.0937,-3.742 -7.6371,-13.778 -22.6554,-10.687 0.9558,0.722 3.5918,5.959 3.5918,6.902 -2.9793,-2.205 -10.8672,-6.51 -25.5332,-4.805 -4.4477,0.51 -9.1223,1.911 -10.4004,4.768 -1.3563,3.004 0.5574,7.278 -0.3801,9.66 -1.9688,5.001 -7.3137,4.503 -7.3137,4.503 0.5871,-0.496 2.6106,-1.732 3.0192,-3.515 0,0 -2.1426,0.136 -2.2551,-2.314 -0.1516,-3.316 0.9773,-6.967 0.9773,-6.967 -6.1738,6.174 -16.3457,12.807 -19.625,1.916 1.3399,1.518 2.9981,2.391 4.8743,2.141 0,0 -1.2129,-1.893 1.1871,-3.543 1.1246,-0.774 3.9289,0.074 5.355,-0.58 1.6485,-0.751 3.1446,-3.551 3.1446,-3.551"
         style="fill:#e51636;fill-opacity:1;fill-rule:nonzero;stroke:none"
         id="path4196"
         inkscape:connector-curvature="0" /><path
         d="m 162.487,251.305 c 1.293,-0.917 0.686,-1.934 0.065,-2.519 -0.626,-0.579 -7.325,-4.97 -11.667,-3.621 -3.315,1.029 -3.305,6.971 -7.888,8.896 -3.686,1.549 -7.802,-1.242 -7.802,-1.242 1.63,-0.149 3.543,-0.721 4.203,-1.127 0,0 -0.748,-1.34 0.624,-2.088 1.378,-0.756 2.382,-0.394 3.377,-1.498 1.27,-1.41 0.228,-4.304 0.228,-4.304 -9.904,7.765 -19.102,2.488 -19.754,-2.538 0.864,0.582 3.377,1.924 4.833,1.609 0,0 0.034,-1.506 1.271,-1.831 1.441,-0.379 3.185,0.951 5.286,0.626 2.226,-0.353 4.114,-2.365 4.114,-2.365 -3.127,-0.444 -9.884,-5.432 -4.81,-13.391 -0.109,1.434 0.053,3.309 0.995,3.946 0,0 1.73,-0.849 2.888,0.125 1.152,0.979 1.525,3.346 2.99,5.048 1.471,1.702 3.331,1.823 3.331,1.823 -0.803,-4.379 3.13,-12.973 10.365,-11.187 -1.504,0.876 -2.953,2.726 -2.953,3.747 0,0 2.049,0.733 1.831,1.837 -0.363,1.829 -3.117,1.426 -3.117,3.67 0,1.402 1.208,2.429 3.095,2.429 4.382,0 3.766,-5.586 3.766,-5.586 2.811,0.28 7.138,3.506 7.993,7.131 1.596,-1.009 2.286,-4.707 2.089,-6.801 3.61,1.491 6.487,4.153 6.487,14.225 2.883,-4.301 10.446,-6.678 15.923,-2.906 -7.04,1.137 -8.459,8.417 -8.832,9.74 -0.372,1.324 -1.112,7.229 -4.35,10.467 -4.594,4.593 -14.964,4.268 -20.976,2.371 -1.571,-0.496 -3.444,-1.478 -3.444,-4.49 0,-2.755 0.587,-5.783 4.849,-7.712 2.924,-1.323 4.31,-2.001 4.99,-2.484"
         style="fill:#e51636;fill-opacity:1;fill-rule:nonzero;stroke:none"
         id="path4198"
         inkscape:connector-curvature="0" /><path
         d="m 100.949,288.544 c -0.266,-1.381 -1.9533,-2.03 -4.0646,-1.625 -4.1086,0.787 -4.1348,3.72 -2.8137,4.271 0.5051,-0.383 1.7754,-1.217 2.9211,-1.447 1.7312,-0.35 2.4703,-0.023 3.5822,0.016 0.525,0.017 0.486,-0.661 0.375,-1.215 z m -12.9674,-16.66 c -1.2078,-2.426 -6.2457,-6 -9.1492,-4.44 1.3055,0.43 4.7809,2.977 6.6082,6.115 -0.5582,0.282 -1.625,0.973 -1.8972,1.346 -1.0704,-0.469 -3.0051,-2.4 -4.5743,-4.476 -0.3836,1.166 0.5301,4.294 1.5957,5.941 -0.8617,0.199 -2.2578,0.787 -2.8164,1.068 -1.4363,-3.334 -1.5281,-7.588 -1.0984,-8.894 -2.9797,1.408 -3.1016,7.584 -1.8684,9.998 -3.7558,2.631 -2.5226,5.789 -1.3769,6.42 0.0301,-1.028 0.9609,-3.221 4.1984,-4.852 3.2364,-1.633 4.5555,-0.51 4.9227,0.217 0.6621,1.312 -0.9559,2.535 -2.102,3.785 -1.1156,1.219 -1.3718,3.154 -0.6,4.096 0.9789,1.191 2.6539,0.943 3.4649,0.344 -3.9699,-0.707 0.8265,-4.864 2.0551,-5.483 1.2289,-0.619 7.421,-2.006 5.6308,1.608 0.9633,-0.297 2.1598,-1.495 1.7817,-2.993 -0.2973,-1.179 -2.0063,-2.123 -3.6485,-1.951 -1.6879,0.178 -3.6312,0.752 -4.2933,-0.56 -0.3668,-0.727 -0.4852,-2.455 2.7515,-4.088 3.2363,-1.631 5.5535,-1.076 6.3973,-0.49 0.173,-1.297 -1.6336,-4.166 -5.9817,-2.711 z m -7.5144,26.988 c 0.3816,0.418 0.9043,0.853 1.2004,0.42 0.6308,-0.916 0.8066,-1.705 2.1179,-2.889 0.8668,-0.783 2.293,-1.31 2.9,-1.488 0.3422,-1.391 -2.0312,-3.113 -5.1074,-0.277 -1.5804,1.457 -2.0621,3.199 -1.1109,4.234 z m 38.3898,2.825 c 0.225,0.407 0.668,2.078 -0.9,2.555 -2.278,0.693 -7.01,-0.066 -7.01,-0.066 2.207,2.537 1.275,8.846 -1.405,10.576 -0.345,-2.853 -3.076,-4.467 -5.714,-3.782 -3.291,0.854 -2.028,5.5 -1.041,7.454 -2.536,0.16 -6.8679,-0.477 -10.5007,-5.748 -0.959,6.578 -7.6945,7.853 -9.3164,8.043 1.3465,-2.809 -0.2863,-7.152 -2.7363,-6.243 -0.4863,4.417 -5.0988,6.284 -5.4297,3.203 -0.5508,-5.115 -5.3086,-11.351 -9.2258,-11.682 -0.3593,-2.84 2.9699,-4.393 4.8625,-4.435 -4.759,-6.959 -11.5957,-5.578 -15.3379,-4.3 -0.1211,-2.656 2.7664,-8.245 8.3028,-8.245 -2.9016,-4.394 -9.0149,-4.725 -10.8489,-3.802 -0.8125,-4.222 6.0372,-7.985 7.8985,-8.309 -5.618,-8.978 -3.7051,-19.873 -0.5801,-24.211 0,0 1.1934,3.072 2.8789,4.658 1.4258,1.358 2.4902,1.639 3.4121,1.174 1.3047,-0.658 0.9199,-2.668 0.1758,-4.144 -1.3613,-2.698 -4.366,-5.395 -4.366,-5.395 5.0984,-1.205 14.4336,4.25 15.5976,6.559 0.9219,-2.797 -0.9308,-7.532 -2.2343,-9.791 9.9168,-1.063 14.8601,7.568 17.0019,12.826 3.3906,-3.791 7.696,-4.221 10.049,-3.688 -3.2248,6.028 -1.789,12.26 -0.351,14.473 3.369,-3.268 8.326,-3.957 10.753,-3.156 -3.201,4.435 -3.259,15.402 -2.347,19.228 2.246,-1.504 5.193,-1.914 6.416,-1.072 0,0 -2.049,3.769 -1.469,9.203 0.361,3.402 2.504,6.316 3.465,8.117"
         style="fill:#e51636;fill-opacity:1;fill-rule:nonzero;stroke:none"
         id="path4200"
         inkscape:connector-curvature="0" /></g></g></svg>