<?xml version="1.0" encoding="UTF-8" standalone="no"?>
<!-- Created with Inkscape (http://www.inkscape.org/) -->

<svg
   xmlns:dc="http://purl.org/dc/elements/1.1/"
   xmlns:cc="http://creativecommons.org/ns#"
   xmlns:rdf="http://www.w3.org/1999/02/22-rdf-syntax-ns#"
   xmlns:svg="http://www.w3.org/2000/svg"
   xmlns="http://www.w3.org/2000/svg"
   xmlns:sodipodi="http://sodipodi.sourceforge.net/DTD/sodipodi-0.dtd"
   xmlns:inkscape="http://www.inkscape.org/namespaces/inkscape"
   width="61.460175mm"
   height="27.98914mm"
   viewBox="0 0 217.77227 99.174116"
   id="svg3407"
   version="1.1"
   inkscape:version="0.91 r13725"
   sodipodi:docname="Maxeler_Logo.svg">
  <defs
     id="defs3409" />
  <sodipodi:namedview
     id="base"
     pagecolor="#ffffff"
     bordercolor="#666666"
     borderopacity="1.0"
     inkscape:pageopacity="0.0"
     inkscape:pageshadow="2"
     inkscape:zoom="3.959798"
     inkscape:cx="108.91593"
     inkscape:cy="86.979937"
     inkscape:document-units="px"
     inkscape:current-layer="layer1"
     showgrid="false"
     fit-margin-top="0"
     fit-margin-left="0"
     fit-margin-right="0"
     fit-margin-bottom="0"
     inkscape:window-width="1920"
     inkscape:window-height="1178"
     inkscape:window-x="-8"
     inkscape:window-y="-8"
     inkscape:window-maximized="1" />
  <metadata
     id="metadata3412">
    <rdf:RDF>
      <cc:Work
         rdf:about="">
        <dc:format>image/svg+xml</dc:format>
        <dc:type
           rdf:resource="http://purl.org/dc/dcmitype/StillImage" />
        <dc:title></dc:title>
      </cc:Work>
    </rdf:RDF>
  </metadata>
  <g
     inkscape:label="Layer 1"
     inkscape:groupmode="layer"
     id="layer1"
     transform="translate(-298.56694,-476.80196)">
    <path
       inkscape:connector-curvature="0"
       id="path3453"
       d="m 298.57832,530.34967 c 0.0369,-0.10312 1.17478,-7.76434 2.52855,-17.02492 l 2.46139,-16.83742 2.85,4.5e-4 2.85,4.5e-4 4.16207,12.48704 c 2.28914,6.86787 4.34131,13.21587 4.56038,14.10666 0.21907,0.89079 0.44468,1.56579 0.50136,1.5 0.0567,-0.0658 0.25238,-0.76087 0.43491,-1.54462 0.32426,-1.39232 2.56819,-8.17873 6.74528,-20.4 l 2.07636,-6.075 2.86865,-0.0407 2.86865,-0.0407 0.0781,0.34073 c 0.12482,0.54424 5.02922,33.17109 5.02922,33.45703 0,0.23396 -0.22825,0.25855 -2.4,0.25855 -1.32,0 -2.4,-0.0277 -2.4,-0.0616 0,-0.0339 -0.70795,-4.91076 -1.57323,-10.8375 -1.4239,-9.75303 -2.32677,-16.32609 -2.32677,-16.93928 0,-0.4477 -0.26209,-0.0589 -0.35594,0.52799 -0.22007,1.37626 -1.66725,5.96774 -5.14588,16.32642 l -3.69099,10.99103 -2.47809,-0.041 -2.47809,-0.041 -0.7112,-2.1 c -5.45031,-16.09323 -7.53275,-22.40623 -7.88804,-23.91295 -0.23472,-0.99542 -0.46744,-1.81035 -0.51714,-1.81095 -0.0497,-6e-4 -0.13522,0.58953 -0.19003,1.3114 -0.0548,0.72188 -0.77352,6.88941 -1.59713,13.70562 -0.82361,6.81622 -1.49747,12.5031 -1.49747,12.6375 0,0.21573 -0.28331,0.24438 -2.41605,0.24438 -1.86865,0 -2.40083,-0.0425 -2.34889,-0.1875 z m 42.88994,0.0521 c 0.0275,-0.0745 2.8175,-7.73598 6.2,-17.02552 l 6.15,-16.89007 2.60567,0.038 2.60567,0.038 6.20337,16.875 c 3.41186,9.28125 6.20493,16.92722 6.20684,16.99104 0.002,0.0638 -1.15197,0.0976 -2.56415,0.075 l -2.56759,-0.041 -1.37707,-3.9 -1.37706,-3.9 -7.29403,-0.0389 -7.29403,-0.0389 -0.29043,0.78892 c -0.15973,0.43391 -0.7892,2.22242 -1.39881,3.97448 l -1.10838,3.18556 -2.375,0.002 c -1.351,10e-4 -2.35344,-0.0564 -2.325,-0.1335 z m 20.675,-11.61975 c 0,-0.11285 -1.0845,-3.16722 -2.41,-6.7875 -2.10339,-5.74489 -2.98532,-8.37536 -3.35695,-10.01251 -0.0537,-0.23661 -0.12575,-0.4021 -0.16009,-0.36775 -0.0344,0.0343 -0.2949,0.86918 -0.57901,1.8552 -0.2841,0.98601 -1.62677,4.84558 -2.9837,8.57681 -1.35692,3.73123 -2.43184,6.81935 -2.38869,6.8625 0.0431,0.0431 2.73344,0.0784 5.97844,0.0784 4.89123,0 5.9,-0.0351 5.9,-0.20519 z m 11.34271,10.89269 c 6.50699,-10.16849 10.55729,-16.56905 10.55729,-16.68335 0,-0.079 -2.33186,-3.80787 -5.18192,-8.28639 l -5.18191,-8.14276 2.51391,-0.0413 c 1.38265,-0.0227 2.58989,-0.0121 2.68277,0.0235 0.0929,0.0356 1.95061,2.94016 4.12831,6.4545 2.1777,3.51434 4.01021,6.3725 4.07225,6.35147 0.062,-0.021 1.85686,-2.90698 3.98851,-6.41323 l 3.87573,-6.375 2.64729,-0.0409 2.64729,-0.0409 -1.31918,2.06595 c -0.72555,1.13626 -3.05854,4.81767 -5.18441,8.1809 l -3.86524,6.11495 5.77916,8.84755 5.77917,8.84754 -2.8974,0 -2.8974,0 -4.27524,-6.9375 c -2.35138,-3.81562 -4.33406,-6.93239 -4.40596,-6.92614 -0.0719,0.006 -2.04387,3.12812 -4.38215,6.9375 l -4.25142,6.92614 -2.69069,0 -2.69069,0 0.55193,-0.8625 z m 33.05729,-16.1625 0,-17.025 9.675,0 9.675,0 0,1.875 0,1.875 -7.35,0 -7.35,0 0,5.475 0,5.475 7.05,0 7.05,0 0,1.79852 0,1.79851 -7.0125,0.039 -7.0125,0.039 0,5.925 0,5.925 7.3125,0.0389 7.3125,0.0389 0,1.87357 0,1.87357 -9.675,0 -9.675,0 0,-17.025 z m 26.25,0 0,-17.025 2.325,0 2.325,0 0,15.075 0,15.075 7.875,0 7.875,0 0,1.95 0,1.95 -10.2,0 -10.2,0 0,-17.025 z m 35.85,0 0,-17.025 9.6,0 9.6,0 0,1.87357 0,1.87358 -7.27897,0.0389 -7.27896,0.0389 0,5.4 0,5.4 6.97896,0.039 6.97897,0.039 0,1.79703 0,1.79703 -6.97863,0.039 -6.97865,0.039 0,5.925 0,5.925 7.27865,0.0389 7.27863,0.0389 0,1.87357 0,1.87357 -9.6,0 -9.6,0 0,-17.025 z m 25.35,0.0108 0,-17.01421 0.7875,-0.0806 c 1.77897,-0.18214 7.80127,-0.24365 9.5389,-0.0974 3.62337,0.30492 5.83151,1.13832 7.53498,2.84387 1.5287,1.53056 2.23342,3.38039 2.23342,5.8626 0,4.60046 -2.81347,8.02221 -7.59296,9.23463 -0.79217,0.20095 -1.65102,0.3664 -1.90857,0.36766 -0.9094,0.004 -0.87606,0.16544 0.34201,1.65067 1.43126,1.74517 11.00935,13.80518 11.16804,14.06196 0.0892,0.14434 -0.5262,0.18508 -2.79598,0.18508 l -2.91036,0 -5.76099,-7.64301 c -3.16854,-4.20365 -5.81162,-7.64615 -5.87349,-7.65 -0.0619,-0.004 -0.1125,3.4355 -0.1125,7.643 l 0,7.65 -2.325,0 -2.325,0 0,-17.0142 z m 10.41683,-1.96878 c 2.03681,-0.55197 3.63294,-1.79538 4.37557,-3.40866 0.38589,-0.83829 0.42978,-1.09377 0.43101,-2.50835 10e-4,-1.38375 -0.0458,-1.67518 -0.38706,-2.4 -0.21362,-0.45375 -0.56447,-1.03313 -0.77967,-1.2875 -0.52992,-0.62638 -1.94369,-1.35583 -3.18635,-1.64402 -1.04932,-0.24335 -3.61333,-0.36704 -5.28283,-0.25484 l -0.9375,0.063 0,5.82763 0,5.82762 0.5625,0.0693 c 1.08669,0.13391 4.31127,-0.0422 5.20432,-0.28419 z"
       style="fill:#323232" />
    <path
       inkscape:connector-curvature="0"
       id="path3457"
       d="m 392.71513,575.88471 c 0.10829,-0.0433 0.23766,-0.038 0.28751,0.0118 0.0498,0.0498 -0.0388,0.0853 -0.19688,0.0788 -0.17474,-0.007 -0.21028,-0.0427 -0.0906,-0.0906 z m 40.95,0 c 0.10829,-0.0433 0.23766,-0.038 0.28751,0.0118 0.0498,0.0498 -0.0388,0.0853 -0.19688,0.0788 -0.17474,-0.007 -0.21028,-0.0427 -0.0906,-0.0906 z m 1.79063,0.003 c 0.10312,-0.0416 0.27187,-0.0416 0.375,0 0.10312,0.0416 0.0188,0.0756 -0.1875,0.0756 -0.20625,0 -0.29063,-0.034 -0.1875,-0.0756 z m 17.25937,-0.003 c 0.10829,-0.0433 0.23767,-0.038 0.28751,0.0118 0.0498,0.0498 -0.0388,0.0853 -0.19687,0.0788 -0.17475,-0.007 -0.21029,-0.0427 -0.0906,-0.0906 z m 1.95,0 c 0.10829,-0.0433 0.23766,-0.038 0.28751,0.0118 0.0498,0.0498 -0.0388,0.0853 -0.19688,0.0788 -0.17474,-0.007 -0.21028,-0.0427 -0.0906,-0.0906 z m 4.95,0 c 0.10829,-0.0433 0.23766,-0.038 0.28751,0.0118 0.0498,0.0498 -0.0388,0.0853 -0.19687,0.0788 -0.17476,-0.007 -0.21029,-0.0427 -0.0906,-0.0906 z m 25.65,0 c 0.10829,-0.0433 0.23766,-0.038 0.28751,0.0118 0.0498,0.0498 -0.0388,0.0853 -0.19688,0.0788 -0.17475,-0.007 -0.21028,-0.0427 -0.0906,-0.0906 z m 1.5,0 c 0.10829,-0.0433 0.23766,-0.038 0.28751,0.0118 0.0498,0.0498 -0.0388,0.0853 -0.19688,0.0788 -0.17475,-0.007 -0.21028,-0.0427 -0.0906,-0.0906 z m 25.79063,-0.006 c 0.26812,-0.0333 0.70688,-0.0333 0.975,0 0.26813,0.0333 0.0488,0.0605 -0.4875,0.0605 -0.53625,0 -0.75563,-0.0272 -0.4875,-0.0605 z M 299.4725,575.46222 c 0.003,-0.2475 0.0367,-0.33059 0.0747,-0.18464 0.038,0.14594 0.0355,0.34844 -0.006,0.45 -0.0411,0.10155 -0.0722,-0.0179 -0.0691,-0.26536 z m 3.87076,0.31641 c 0,-0.0322 0.23152,-0.0856 0.51448,-0.11865 0.28296,-0.033 0.48148,-0.007 0.44115,0.0586 -0.0726,0.11745 -0.95563,0.17295 -0.95563,0.0601 z m 3.79085,-0.54141 c 0,-0.37125 0.0293,-0.52312 0.065,-0.3375 0.0357,0.18563 0.0357,0.48938 0,0.675 -0.0358,0.18563 -0.065,0.0338 -0.065,-0.3375 z m 21.89698,0.075 c 0.002,-0.33 0.0324,-0.44733 0.0683,-0.26075 0.0359,0.18659 0.0345,0.45659 -0.003,0.6 -0.0375,0.14342 -0.0669,-0.009 -0.0652,-0.33925 z m 2.75654,0.40635 c -0.0403,-0.0653 0.15819,-0.0916 0.44115,-0.0586 0.28297,0.033 0.51448,0.0864 0.51448,0.11865 0,0.11289 -0.88304,0.0574 -0.95563,-0.0601 z m 18.76988,0.0126 c 0.18659,-0.0359 0.45659,-0.0345 0.6,0.003 0.14341,0.0375 -0.009,0.0669 -0.33925,0.0652 -0.33,-0.002 -0.44734,-0.0324 -0.26075,-0.0683 z m 4.71499,-0.26892 c 0.003,-0.2475 0.0367,-0.33059 0.0747,-0.18464 0.038,0.14594 0.0355,0.34844 -0.006,0.45 -0.0411,0.10155 -0.0722,-0.0179 -0.0691,-0.26536 z m 8.25262,-1.2375 -0.0319,-1.6875 0.8625,0.0278 0.8625,0.0278 -0.7825,0.0549 -0.78251,0.0549 -0.0481,1.60484 -0.0481,1.60483 -0.0319,-1.6875 z m 33.93946,-2.47294 c 0.003,-3.79761 0.0224,-4.08728 0.26912,-4.1098 0.18096,-0.0165 0.19366,-0.002 0.0399,0.0461 -0.19196,0.0598 -0.23204,0.67176 -0.26912,4.10979 l -0.0436,4.03953 0.004,-4.08557 z m 10.69293,3.97935 c 0.18659,-0.0359 0.45659,-0.0345 0.6,0.003 0.14341,0.0376 -0.009,0.0669 -0.33925,0.0652 -0.33,-0.002 -0.44734,-0.0324 -0.26075,-0.0683 z m 4.72055,-0.34391 c 0,-0.28875 0.0309,-0.40687 0.0686,-0.2625 0.0377,0.14438 0.0377,0.38063 0,0.525 -0.0377,0.14438 -0.0686,0.0263 -0.0686,-0.2625 z m 16.081,-3.6 c 0,-2.26875 0.0208,-3.19687 0.0463,-2.0625 0.0255,1.13438 0.0255,2.99063 0,4.125 -0.0255,1.13438 -0.0463,0.20625 -0.0463,-2.0625 z m 9.30014,-0.075 c 8e-5,-2.31 0.0209,-3.23404 0.0463,-2.05342 0.0254,1.18061 0.0253,3.07061 -1.3e-4,4.2 -0.0254,1.12938 -0.0462,0.16342 -0.0461,-2.14658 z m 27.42189,3.6 c 0.002,-0.33 0.0324,-0.44733 0.0683,-0.26075 0.0359,0.18659 0.0345,0.45659 -0.003,0.6 -0.0375,0.14342 -0.0669,-0.009 -0.0652,-0.33925 z m 1.024,0.2875 c 0.007,-0.17474 0.0427,-0.21028 0.0906,-0.0906 0.0433,0.10828 0.038,0.23765 -0.0119,0.2875 -0.0498,0.0498 -0.0853,-0.0388 -0.0788,-0.19688 z m 2.757,0.0775 c -0.0544,-0.088 -0.0584,-0.20049 -0.009,-0.25 0.0495,-0.0495 0.09,-0.004 0.09,0.10139 0,0.12969 0.16592,0.17204 0.51449,0.13135 0.28296,-0.033 0.48147,-0.007 0.44113,0.0586 -0.10887,0.17616 -0.92241,0.14373 -1.03678,-0.0413 z m 3.86597,-0.29002 c 0,-0.28875 0.0309,-0.40687 0.0686,-0.2625 0.0377,0.14438 0.0377,0.38063 0,0.525 -0.0377,0.14438 -0.0686,0.0263 -0.0686,-0.2625 z m 2.88651,-3.63544 c 0.003,-3.79761 0.0224,-4.08728 0.26913,-4.1098 0.18096,-0.0165 0.19365,-0.002 0.0399,0.0461 -0.19195,0.0598 -0.23203,0.67176 -0.26911,4.10979 l -0.0436,4.03953 0.004,-4.08557 z m 17.8134,0.44794 -0.0347,-3.7125 1.3875,0.0308 1.3875,0.0308 -1.30984,0.05 -1.30985,0.05 -0.043,3.63169 -0.043,3.6317 -0.0347,-3.7125 z m 6.63123,-0.4875 c 8e-5,-2.31 0.0209,-3.23404 0.0463,-2.05342 0.0254,1.18061 0.0253,3.07061 -1.4e-4,4.2 -0.0255,1.12938 -0.0462,0.16342 -0.0461,-2.14658 z m -163.97509,3.225 c 0,-0.37125 0.0293,-0.52312 0.065,-0.3375 0.0358,0.18563 0.0358,0.48938 0,0.675 -0.0358,0.18563 -0.065,0.0337 -0.065,-0.3375 z m 147.1699,0.2625 -0.28575,-0.3375 0.3375,0.28575 c 0.31716,0.26853 0.40578,0.38925 0.28575,0.38925 -0.0285,0 -0.18035,-0.15187 -0.3375,-0.3375 z m -155.87595,-0.4125 c 0,-0.28875 0.0309,-0.40687 0.0686,-0.2625 0.0377,0.14438 0.0377,0.38063 0,0.525 -0.0377,0.14438 -0.0686,0.0263 -0.0686,-0.2625 z m 19.65303,-0.075 c 0.002,-0.33 0.0324,-0.44733 0.0683,-0.26075 0.0359,0.18659 0.0345,0.45659 -0.003,0.6 -0.0375,0.14342 -0.0669,-0.009 -0.0652,-0.33925 z m 57.6,0 c 0.002,-0.33 0.0324,-0.44733 0.0683,-0.26075 0.0359,0.18659 0.0345,0.45659 -0.003,0.6 -0.0375,0.14342 -0.0669,-0.009 -0.0652,-0.33925 z m 58.01217,0.15 c 0.19375,-0.20625 0.38604,-0.375 0.42729,-0.375 0.0412,0 -0.0835,0.16875 -0.27729,0.375 -0.19375,0.20625 -0.38604,0.375 -0.42729,0.375 -0.0412,0 0.0835,-0.16875 0.27729,-0.375 z m -109.1571,-0.45 c 10e-4,-0.4125 0.0303,-0.56344 0.0647,-0.33543 0.0345,0.228 0.0335,0.5655 -0.002,0.75 -0.0356,0.18449 -0.0638,-0.002 -0.0627,-0.41457 z m 57.6,0 c 0.001,-0.4125 0.0303,-0.56344 0.0647,-0.33543 0.0345,0.228 0.0336,0.5655 -0.002,0.75 -0.0356,0.18449 -0.0638,-0.002 -0.0627,-0.41457 z m 19.66785,0.3375 -0.28575,-0.3375 0.3375,0.28575 c 0.18563,0.15716 0.3375,0.30904 0.3375,0.3375 0,0.12004 -0.12072,0.0314 -0.38925,-0.28575 z m 3.05444,0.22879 c 0.2696,-0.0334 0.6746,-0.0327 0.9,0.002 0.22539,0.0342 0.005,0.0615 -0.49019,0.0607 -0.495,-9e-4 -0.67942,-0.0288 -0.40981,-0.0622 z m 19.2,0 c 0.2696,-0.0334 0.6746,-0.0327 0.9,0.002 0.2254,0.0342 0.005,0.0615 -0.49019,0.0607 -0.495,-9e-4 -0.67941,-0.0288 -0.40981,-0.0622 z m 56.04556,-0.22879 -0.28575,-0.3375 0.3375,0.28575 c 0.31716,0.26853 0.40578,0.38925 0.28575,0.38925 -0.0285,0 -0.18034,-0.15187 -0.3375,-0.3375 z m 3.12675,0.23007 c 0.22688,-0.0344 0.59812,-0.0344 0.825,0 0.22688,0.0344 0.0412,0.0625 -0.4125,0.0625 -0.45375,0 -0.63937,-0.0281 -0.4125,-0.0625 z m -38.39664,-0.64257 c 0,-0.37125 0.0292,-0.52312 0.065,-0.3375 0.0358,0.18563 0.0358,0.48938 0,0.675 -0.0357,0.18563 -0.065,0.0337 -0.065,-0.3375 z m -131.59086,0.39331 c 0,-0.0311 0.11813,-0.14927 0.2625,-0.2625 0.23791,-0.18658 0.24321,-0.18128 0.0566,0.0566 -0.19595,0.24987 -0.31913,0.32932 -0.31913,0.20587 z m -34.60915,-0.69337 c 0,-0.37125 0.0293,-0.52312 0.065,-0.3375 0.0358,0.18563 0.0358,0.48938 0,0.675 -0.0358,0.18563 -0.065,0.0337 -0.065,-0.3375 z m 38.39395,0.15 c 0,-0.28875 0.0309,-0.40687 0.0686,-0.2625 0.0377,0.14438 0.0377,0.38063 0,0.525 -0.0377,0.14438 -0.0686,0.0263 -0.0686,-0.2625 z m 57.6,0 c 0,-0.28875 0.0309,-0.40687 0.0686,-0.2625 0.0377,0.14438 0.0377,0.38063 0,0.525 -0.0377,0.14438 -0.0686,0.0263 -0.0686,-0.2625 z m 54.47595,0.1125 -0.28575,-0.3375 0.3375,0.28575 c 0.31716,0.26853 0.40578,0.38925 0.28575,0.38925 -0.0285,0 -0.18034,-0.15187 -0.3375,-0.3375 z m 3.61425,0.0375 c 0.14932,-0.165 0.30525,-0.3 0.3465,-0.3 0.0412,0 -0.0472,0.135 -0.1965,0.3 -0.14932,0.165 -0.30525,0.3 -0.3465,0.3 -0.0412,0 0.0472,-0.135 0.1965,-0.3 z m -161.58717,-0.375 c 0.002,-0.33 0.0324,-0.44733 0.0683,-0.26075 0.0359,0.18659 0.0345,0.45659 -0.003,0.6 -0.0375,0.14342 -0.0669,-0.009 -0.0652,-0.33925 z m 131.65082,0.1125 -0.36365,-0.4125 0.4125,0.36365 c 0.22688,0.20001 0.4125,0.38563 0.4125,0.4125 0,0.11764 -0.12147,0.0219 -0.46135,-0.36365 z m -96.84575,-0.4125 c 0.001,-0.4125 0.0303,-0.56344 0.0647,-0.33543 0.0345,0.228 0.0335,0.5655 -0.002,0.75 -0.0356,0.18449 -0.0638,-0.002 -0.0627,-0.41457 z m 170.60085,0.55534 c -0.0407,-0.0658 -0.012,-0.21769 0.0639,-0.3375 0.10759,-0.17008 0.13829,-0.14384 0.14009,0.11966 0.002,0.34696 -0.0738,0.42835 -0.20395,0.21784 z M 303.8779,573.9932 c 0.0563,-0.14793 0.14021,-0.23118 0.18639,-0.185 0.0462,0.0462 10e-5,0.16722 -0.10242,0.26897 -0.14814,0.14704 -0.16537,0.12981 -0.084,-0.084 z m 28.33419,0.034 c -0.0544,-0.088 -0.0667,-0.19215 -0.0274,-0.23147 0.0393,-0.0393 0.11146,0.0327 0.16031,0.15998 0.10143,0.26432 0.015,0.31081 -0.13293,0.0715 z m 134.669,-0.36502 c 0.002,-0.33 0.0324,-0.44733 0.0683,-0.26075 0.0359,0.18659 0.0345,0.45659 -0.003,0.6 -0.0376,0.14342 -0.0669,-0.009 -0.0652,-0.33925 z m -167.25,-0.15 c 0.002,-0.33 0.0324,-0.44733 0.0683,-0.26075 0.0359,0.18659 0.0345,0.45659 -0.003,0.6 -0.0375,0.14342 -0.0669,-0.009 -0.0652,-0.33925 z m 128.20943,-0.26974 0.0723,-0.78026 0.0499,0.65788 c 0.0274,0.36184 -0.005,0.71295 -0.0723,0.78026 -0.0672,0.0673 -0.0896,-0.22875 -0.0499,-0.65788 z m -72.70641,0.0447 c 0,-0.37125 0.0293,-0.52312 0.065,-0.3375 0.0357,0.18563 0.0357,0.48938 0,0.675 -0.0358,0.18563 -0.065,0.0337 -0.065,-0.3375 z m 57.59698,-0.075 c 0.002,-0.33 0.0324,-0.44733 0.0683,-0.26075 0.0359,0.18659 0.0345,0.45659 -0.003,0.6 -0.0375,0.14342 -0.0669,-0.009 -0.0652,-0.33925 z m 53.09697,0.075 c 0,-0.28875 0.0309,-0.40687 0.0686,-0.2625 0.0377,0.14438 0.0377,0.38063 0,0.525 -0.0377,0.14438 -0.0686,0.0263 -0.0686,-0.2625 z m 23.37703,0.2125 c 0.007,-0.17474 0.0427,-0.21028 0.0906,-0.0906 0.0433,0.10828 0.038,0.23765 -0.0119,0.2875 -0.0498,0.0498 -0.0853,-0.0387 -0.0788,-0.19688 z m -160.024,-0.4375 c 0.002,-0.33 0.0324,-0.44733 0.0683,-0.26075 0.0359,0.18659 0.0345,0.45659 -0.003,0.6 -0.0375,0.14342 -0.0669,-0.009 -0.0652,-0.33925 z m 9.27401,0.2875 c 0.007,-0.17474 0.0427,-0.21028 0.0906,-0.0906 0.0433,0.10828 0.038,0.23765 -0.0118,0.2875 -0.0498,0.0498 -0.0853,-0.0387 -0.0788,-0.19688 z m 134.72902,-0.3625 c 0,-0.37125 0.0293,-0.52312 0.065,-0.3375 0.0358,0.18563 0.0358,0.48938 0,0.675 -0.0357,0.18563 -0.065,0.0337 -0.065,-0.3375 z m -129.62902,0.2125 c 0.007,-0.17474 0.0427,-0.21028 0.0906,-0.0906 0.0433,0.10828 0.038,0.23765 -0.0118,0.2875 -0.0498,0.0498 -0.0853,-0.0387 -0.0788,-0.19688 z m -36.56894,-0.5875 c 0.001,-0.4125 0.0303,-0.56344 0.0647,-0.33543 0.0345,0.228 0.0335,0.5655 -0.002,0.75 -0.0356,0.18449 -0.0638,-0.002 -0.0627,-0.41457 z m 21.14493,0.15 c 0.002,-0.33 0.0324,-0.44733 0.0683,-0.26075 0.0359,0.18659 0.0345,0.45659 -0.003,0.6 -0.0375,0.14342 -0.0669,-0.009 -0.0652,-0.33925 z m 156.02469,-2.25 c 1.5e-4,-1.5675 0.0224,-2.18837 0.0494,-1.37971 0.027,0.80866 0.0269,2.09116 0,2.85 -0.0272,0.75884 -0.0493,0.0972 -0.0491,-1.47029 z m -147.62469,2.1 c 0.002,-0.33 0.0324,-0.44733 0.0683,-0.26075 0.0359,0.18659 0.0345,0.45659 -0.003,0.6 -0.0375,0.14342 -0.0669,-0.009 -0.0652,-0.33925 z m 8.27469,-2.25 c 1.5e-4,-1.5675 0.0224,-2.18837 0.0494,-1.37971 0.027,0.80866 0.0269,2.09116 -3e-4,2.85 -0.0272,0.75884 -0.0493,0.0972 -0.0491,-1.47029 z m 143.4,0 c 1.5e-4,-1.5675 0.0224,-2.18837 0.0494,-1.37971 0.027,0.80866 0.0269,2.09116 0,2.85 -0.0272,0.75884 -0.0493,0.0972 -0.0491,-1.47029 z m -140.42167,2.025 c 0,-0.37125 0.0293,-0.52312 0.065,-0.3375 0.0358,0.18563 0.0358,0.48938 0,0.675 -0.0358,0.18563 -0.065,0.0337 -0.065,-0.3375 z m 57.59698,0.075 c 0.002,-0.33 0.0324,-0.44733 0.0683,-0.26075 0.0359,0.18659 0.0345,0.45659 -0.003,0.6 -0.0375,0.14342 -0.0669,-0.009 -0.0652,-0.33925 z m 77.57443,-2.175 c 0,-1.52625 0.0223,-2.15062 0.0495,-1.3875 0.0272,0.76313 0.0272,2.01188 0,2.775 -0.0272,0.76313 -0.0495,0.13875 -0.0495,-1.3875 z m -87.05042,2.3125 c 0.007,-0.17474 0.0427,-0.21028 0.0906,-0.0906 0.0433,0.10828 0.038,0.23765 -0.0118,0.2875 -0.0498,0.0498 -0.0853,-0.0387 -0.0788,-0.19688 z m -56.35015,-2.4625 c 0,-1.44375 0.0225,-2.03437 0.05,-1.3125 0.0275,0.72188 0.0275,1.90313 0,2.625 -0.0275,0.72188 -0.05,0.13125 -0.05,-1.3125 z m 7.17614,2.025 c 0.002,-0.33 0.0324,-0.44733 0.0683,-0.26075 0.0359,0.18659 0.0345,0.45659 -0.003,0.6 -0.0375,0.14342 -0.0669,-0.009 -0.0652,-0.33925 z m 41.39141,0.15 c 0.003,-0.2475 0.0367,-0.33059 0.0747,-0.18464 0.038,0.14594 0.0355,0.34844 -0.006,0.45 -0.0411,0.10155 -0.0722,-0.0179 -0.0691,-0.26536 z m 16.20859,-0.15 c 0.002,-0.33 0.0324,-0.44733 0.0683,-0.26075 0.0359,0.18659 0.0345,0.45659 -0.003,0.6 -0.0375,0.14342 -0.0669,-0.009 -0.0652,-0.33925 z m 45.13585,0.225 c 0,-0.20625 0.034,-0.29062 0.0757,-0.1875 0.0416,0.10313 0.0416,0.27188 0,0.375 -0.0416,0.10313 -0.0757,0.0188 -0.0757,-0.1875 z m 24.76718,-0.3 c 0,-0.37125 0.0292,-0.52312 0.065,-0.3375 0.0358,0.18563 0.0358,0.48938 0,0.675 -0.0357,0.18563 -0.065,0.0337 -0.065,-0.3375 z m 3.52433,0.49129 c 0.2696,-0.0334 0.67461,-0.0327 0.89999,0.002 0.22541,0.0342 0.005,0.0615 -0.49018,0.0607 -0.495,-9e-4 -0.67941,-0.0288 -0.40981,-0.0622 z m -88.44151,-0.34129 c 0,-0.20625 0.034,-0.29062 0.0757,-0.1875 0.0416,0.10313 0.0416,0.27188 0,0.375 -0.0416,0.10313 -0.0757,0.0187 -0.0757,-0.1875 z m 5.38816,0.0625 c 0.007,-0.17474 0.0427,-0.21028 0.0906,-0.0906 0.0433,0.10828 0.038,0.23765 -0.0118,0.2875 -0.0498,0.0498 -0.0853,-0.0387 -0.0788,-0.19688 z m 7.01903,-0.025 c -0.18658,-0.23791 -0.18128,-0.24321 0.0566,-0.0566 0.14437,0.11323 0.2625,0.23135 0.2625,0.2625 0,0.12345 -0.12318,0.044 -0.31913,-0.20587 z m 48.96408,-0.4875 c 0,-0.45375 0.0281,-0.63937 0.0625,-0.4125 0.0344,0.22688 0.0344,0.59813 0,0.825 -0.0344,0.22688 -0.0625,0.0412 -0.0625,-0.4125 z m 57.9,0 c 0,-0.45375 0.0281,-0.63937 0.0625,-0.4125 0.0344,0.22688 0.0344,0.59813 0,0.825 -0.0344,0.22688 -0.0625,0.0412 -0.0625,-0.4125 z m -154.65205,-0.075 c 0.001,-0.4125 0.0303,-0.56344 0.0647,-0.33543 0.0345,0.228 0.0336,0.5655 -0.002,0.75 -0.0356,0.18449 -0.0638,-0.002 -0.0627,-0.41457 z m 23.0946,0.56757 c 0.22688,-0.0344 0.59812,-0.0344 0.825,0 0.22688,0.0344 0.0412,0.0625 -0.4125,0.0625 -0.45375,0 -0.63937,-0.0281 -0.4125,-0.0625 z m 21.9,0 c 0.22687,-0.0344 0.59812,-0.0344 0.825,0 0.22687,0.0344 0.0412,0.0625 -0.4125,0.0625 -0.45375,0 -0.63938,-0.0281 -0.4125,-0.0625 z m 12.6054,-0.56757 c 10e-4,-0.4125 0.0303,-0.56344 0.0647,-0.33543 0.0345,0.228 0.0335,0.5655 -0.002,0.75 -0.0356,0.18449 -0.0638,-0.002 -0.0627,-0.41457 z m 98.25,0 c 0.002,-0.4125 0.0303,-0.56344 0.0647,-0.33543 0.0345,0.228 0.0335,0.5655 -0.002,0.75 -0.0356,0.18449 -0.0638,-0.002 -0.0627,-0.41457 z m 2.9919,0.225 c 0,-0.28875 0.0309,-0.40687 0.0686,-0.2625 0.0377,0.14438 0.0377,0.38063 0,0.525 -0.0377,0.14438 -0.0686,0.0263 -0.0686,-0.2625 z m -211.9419,-0.375 c 10e-4,-0.4125 0.0303,-0.56344 0.0647,-0.33543 0.0345,0.228 0.0335,0.5655 -0.002,0.75 -0.0356,0.18449 -0.0638,-0.002 -0.0627,-0.41457 z m 7.19493,0.15 c 0.002,-0.33 0.0324,-0.44733 0.0683,-0.26075 0.0359,0.18659 0.0345,0.45659 -0.003,0.6 -0.0375,0.14342 -0.0669,-0.009 -0.0652,-0.33925 z m 77.09054,0.41589 1.60337,-0.0508 0.0662,-0.48252 c 0.065,-0.47349 0.0658,-0.4727 0.0466,0.0425 l -0.0196,0.525 -1.65,0.008 -1.65,0.008 1.60337,-0.0509 z m 71.40643,-0.34089 c 0,-0.28875 0.0309,-0.40687 0.0686,-0.2625 0.0377,0.14438 0.0377,0.38063 0,0.525 -0.0377,0.14438 -0.0686,0.0263 -0.0686,-0.2625 z m -85.3473,0.18915 c 0.47437,-0.0298 1.25062,-0.0298 1.725,0 0.47438,0.0298 0.0863,0.0541 -0.8625,0.0541 -0.94875,0 -1.33688,-0.0244 -0.8625,-0.0541 z m 59.08618,-0.18915 c 0,-0.20625 0.034,-0.29062 0.0757,-0.1875 0.0416,0.10313 0.0416,0.27188 0,0.375 -0.0416,0.10313 -0.0757,0.0188 -0.0757,-0.1875 z m 10.81382,0.18996 c 1.5946,-0.0492 1.6125,-0.0538 1.6125,-0.4148 0,-0.36088 -0.0182,-0.36558 -1.6125,-0.41595 l -1.6125,-0.0509 1.65,0.008 1.65,0.008 0,0.45 0,0.45 -1.65,0.007 -1.65,0.007 1.6125,-0.0498 z m 16.64173,-0.26496 c 0.003,-0.2475 0.0367,-0.33059 0.0747,-0.18464 0.038,0.14594 0.0355,0.34844 -0.006,0.45 -0.0411,0.10155 -0.0722,-0.0179 -0.0692,-0.26536 z m 6.75557,-0.075 c 0,-0.28875 0.0309,-0.40687 0.0686,-0.2625 0.0377,0.14438 0.0377,0.38063 0,0.525 -0.0377,0.14438 -0.0686,0.0263 -0.0686,-0.2625 z m -164.7,-0.15 c 0,-0.28875 0.0309,-0.40687 0.0686,-0.2625 0.0377,0.14438 0.0377,0.38063 0,0.525 -0.0377,0.14438 -0.0686,0.0263 -0.0686,-0.2625 z m 167.2581,-0.225 c 0.002,-0.4125 0.0303,-0.56344 0.0647,-0.33543 0.0345,0.228 0.0335,0.5655 -0.002,0.75 -0.0356,0.18449 -0.0638,-0.002 -0.0627,-0.41457 z m 13.6071,0.61837 c 0,-0.0312 0.11812,-0.14927 0.2625,-0.2625 0.23791,-0.18658 0.24321,-0.18128 0.0566,0.0566 -0.19596,0.24987 -0.31914,0.32932 -0.31914,0.20587 z M 363.5578,571.58897 c -0.0418,-0.109 -0.0538,-0.86838 -0.0267,-1.6875 l 0.0494,-1.48933 0.0314,1.60466 0.0314,1.60466 0.7875,0.0551 0.7875,0.0551 -0.79221,0.0277 c -0.53911,0.0189 -0.8165,-0.0356 -0.86825,-0.17043 z m 114.27296,0.0907 c 0.22687,-0.0344 0.59813,-0.0344 0.825,0 0.22688,0.0344 0.0412,0.0625 -0.4125,0.0625 -0.45375,0 -0.63938,-0.0281 -0.4125,-0.0625 z M 335.33821,570.8871 c 0,-0.45375 0.0281,-0.63937 0.0625,-0.4125 0.0344,0.22688 0.0344,0.59813 0,0.825 -0.0344,0.22688 -0.0625,0.0412 -0.0625,-0.4125 z m 52.78429,0.375 c 0.003,-0.2475 0.0367,-0.33059 0.0747,-0.18464 0.038,0.14594 0.0355,0.34844 -0.006,0.45 -0.0411,0.10155 -0.0722,-0.0179 -0.0691,-0.26536 z m 77.85556,-0.075 c 0,-0.28875 0.0309,-0.40687 0.0686,-0.2625 0.0377,0.14438 0.0377,0.38063 0,0.525 -0.0377,0.14438 -0.0686,0.0263 -0.0686,-0.2625 z m 40.07395,-1.5 c 0,-1.11375 0.0236,-1.56937 0.0525,-1.0125 0.0289,0.55688 0.0289,1.46813 0,2.025 -0.0289,0.55688 -0.0525,0.10125 -0.0525,-1.0125 z m -151.07092,1.275 c 0.002,-0.33 0.0324,-0.44733 0.0683,-0.26075 0.0359,0.18659 0.0345,0.45659 -0.003,0.6 -0.0375,0.14342 -0.0669,-0.009 -0.0652,-0.33925 z m 22.12467,0.41649 c 0.26812,-0.0333 0.70687,-0.0333 0.975,0 0.26813,0.0333 0.0488,0.0605 -0.4875,0.0605 -0.53625,0 -0.75563,-0.0272 -0.4875,-0.0605 z m 12.21118,-0.19149 c 0,-0.20625 0.034,-0.29062 0.0757,-0.1875 0.0416,0.10313 0.0416,0.27188 0,0.375 -0.0416,0.10313 -0.0757,0.0188 -0.0757,-0.1875 z m 9.68882,0.19149 c 0.26813,-0.0333 0.70687,-0.0333 0.975,0 0.26812,0.0333 0.0487,0.0605 -0.4875,0.0605 -0.53625,0 -0.75563,-0.0272 -0.4875,-0.0605 z m 13.57533,-0.41649 c 0.002,-0.33 0.0324,-0.44733 0.0683,-0.26075 0.0359,0.18659 0.0345,0.45659 -0.003,0.6 -0.0375,0.14342 -0.0669,-0.009 -0.0652,-0.33925 z m 36.88585,0.225 c 0,-0.20625 0.034,-0.29062 0.0757,-0.1875 0.0416,0.10313 0.0416,0.27188 0,0.375 -0.0416,0.10313 -0.0757,0.0188 -0.0757,-0.1875 z m 30.35132,0 c 0.14932,-0.165 0.30525,-0.3 0.3465,-0.3 0.0412,0 -0.0472,0.135 -0.1965,0.3 -0.14933,0.165 -0.30525,0.3 -0.3465,0.3 -0.0412,0 0.0472,-0.135 0.1965,-0.3 z m -85.11316,-0.0875 c 0.007,-0.17474 0.0427,-0.21028 0.0906,-0.0906 0.0433,0.10828 0.038,0.23765 -0.0118,0.2875 -0.0498,0.0498 -0.0853,-0.0387 -0.0788,-0.19688 z m -66.42401,-0.4375 c 0.002,-0.33 0.0324,-0.44733 0.0683,-0.26075 0.0359,0.18659 0.0345,0.45659 -0.003,0.6 -0.0375,0.14342 -0.0669,-0.009 -0.0652,-0.33925 z m 1.05712,-0.225 c 0,-0.45375 0.0281,-0.63937 0.0625,-0.4125 0.0344,0.22688 0.0344,0.59813 0,0.825 -0.0344,0.22688 -0.0625,0.0413 -0.0625,-0.4125 z m 41.84255,0.63915 c 0.47437,-0.0298 1.25062,-0.0298 1.725,0 0.47438,0.0298 0.0863,0.0541 -0.8625,0.0541 -0.94875,0 -1.33688,-0.0244 -0.8625,-0.0541 z m 24.72434,-0.27665 c 0.007,-0.17474 0.0427,-0.21028 0.0906,-0.0906 0.0433,0.10828 0.038,0.23765 -0.0118,0.2875 -0.0498,0.0498 -0.0853,-0.0387 -0.0788,-0.19688 z m -75.52139,-0.0375 c -0.0425,-0.0688 0.0181,-0.125 0.13455,-0.125 0.11649,0 0.17704,0.0562 0.13455,0.125 -0.0425,0.0688 -0.10304,0.125 -0.13455,0.125 -0.0315,0 -0.0921,-0.0562 -0.13455,-0.125 z m 16.0004,-0.475 c 0,-0.37125 0.0293,-0.52312 0.065,-0.3375 0.0357,0.18563 0.0357,0.48938 0,0.675 -0.0358,0.18563 -0.065,0.0337 -0.065,-0.3375 z m 136.58445,-0.38965 c -0.0277,-0.54434 0,-1.02083 0.0622,-1.05885 0.0619,-0.038 0.1125,0.40735 0.1125,0.98972 0,0.58237 -0.028,1.05885 -0.0622,1.05885 -0.0342,0 -0.0848,-0.44537 -0.11249,-0.98972 z m -126.0905,0.23972 c 0,-0.28875 0.0309,-0.40687 0.0686,-0.2625 0.0377,0.14438 0.0377,0.38063 0,0.525 -0.0377,0.14438 -0.0686,0.0263 -0.0686,-0.2625 z m 20.85605,-0.15 c 0,-0.37125 0.0293,-0.52312 0.065,-0.3375 0.0358,0.18563 0.0358,0.48938 0,0.675 -0.0358,0.18563 -0.065,0.0337 -0.065,-0.3375 z m 36.74395,0.15 c 0,-0.28875 0.0309,-0.40687 0.0686,-0.2625 0.0377,0.14438 0.0377,0.38063 0,0.525 -0.0377,0.14438 -0.0686,0.0263 -0.0686,-0.2625 z m -97.71994,-0.4125 c -0.0359,-0.39187 -0.009,-0.77662 0.0599,-0.855 0.069,-0.0785 0.12525,0.24139 0.12525,0.7125 0,1.03969 -0.0961,1.11364 -0.18514,0.1425 z m 41.13514,-0.0375 c 0,-0.44 0.0479,-0.75212 0.10639,-0.69361 0.10718,0.10718 0.0692,1.31483 -0.045,1.43111 -0.0338,0.0344 -0.0614,-0.2975 -0.0614,-0.7375 z m 57.6,0 c 0,-0.44 0.0479,-0.75212 0.10639,-0.69361 0.10718,0.10718 0.0692,1.31483 -0.045,1.43111 -0.0338,0.0344 -0.0614,-0.2975 -0.0614,-0.7375 z m 96.15,0.075 c 0,-0.39875 0.0486,-0.67638 0.10804,-0.61695 0.10767,0.10767 0.069,1.16064 -0.047,1.27945 -0.0335,0.0344 -0.061,-0.26375 -0.061,-0.6625 z m -27.56217,0 c 0.002,-0.33 0.0324,-0.44733 0.0683,-0.26075 0.0359,0.18659 0.0345,0.45659 -0.003,0.6 -0.0375,0.14342 -0.0669,-0.009 -0.0652,-0.33925 z m -72.47599,0.1375 c 0.007,-0.17474 0.0427,-0.21028 0.0906,-0.0906 0.0433,0.10828 0.038,0.23765 -0.0118,0.2875 -0.0498,0.0498 -0.0853,-0.0387 -0.0788,-0.19688 z m -93.72401,-0.4375 c 0.002,-0.33 0.0324,-0.44733 0.0683,-0.26075 0.0359,0.18659 0.0345,0.45659 -0.003,0.6 -0.0375,0.14342 -0.0669,-0.009 -0.0652,-0.33925 z m -7.95303,-0.075 c 0,-0.28875 0.0309,-0.40687 0.0686,-0.2625 0.0377,0.14438 0.0377,0.38063 0,0.525 -0.0377,0.14438 -0.0686,0.0263 -0.0686,-0.2625 z m 166.20303,-0.225 c 0.002,-0.33 0.0324,-0.44733 0.0683,-0.26075 0.0359,0.18659 0.0345,0.45659 -0.003,0.6 -0.0376,0.14342 -0.0669,-0.009 -0.0652,-0.33925 z m -33.93783,0.31837 c 0,-0.0311 0.11812,-0.14927 0.2625,-0.2625 0.23791,-0.18658 0.24321,-0.18128 0.0566,0.0566 -0.19595,0.24987 -0.31913,0.32932 -0.31913,0.20587 z m 78.3,0 c 0,-0.0311 0.11813,-0.14927 0.2625,-0.2625 0.23792,-0.18658 0.24321,-0.18128 0.0566,0.0566 -0.19596,0.24987 -0.31914,0.32932 -0.31914,0.20587 z m -156.9,-0.23451 c 0,-0.0776 0.0667,-0.18239 0.14828,-0.2328 0.085,-0.0525 0.11018,0.008 0.0589,0.14115 -0.0997,0.25986 -0.20723,0.30741 -0.20723,0.0917 z m 105.075,-0.15886 c 0.14932,-0.165 0.30525,-0.3 0.3465,-0.3 0.0412,0 -0.0472,0.135 -0.1965,0.3 -0.14933,0.165 -0.30525,0.3 -0.3465,0.3 -0.0412,0 0.0472,-0.135 0.1965,-0.3 z m -103.83717,-0.375 c 0.002,-0.33 0.0324,-0.44733 0.0683,-0.26075 0.0359,0.18659 0.0345,0.45659 -0.003,0.6 -0.0375,0.14342 -0.0669,-0.009 -0.0652,-0.33925 z m 11.27292,0.1875 -0.28575,-0.3375 0.3375,0.28575 c 0.31717,0.26853 0.40579,0.38925 0.28575,0.38925 -0.0285,0 -0.18034,-0.15187 -0.3375,-0.3375 z m 46.32708,-0.1875 c 0.002,-0.33 0.0324,-0.44733 0.0683,-0.26075 0.0359,0.18659 0.0345,0.45659 -0.003,0.6 -0.0375,0.14342 -0.0669,-0.009 -0.0652,-0.33925 z m 49.74303,0.2625 c -0.18657,-0.23791 -0.18128,-0.24321 0.0566,-0.0566 0.14437,0.11323 0.2625,0.23135 0.2625,0.2625 0,0.12345 -0.12318,0.044 -0.31914,-0.20587 z m -133.74606,-0.3375 c 0,-0.28875 0.0309,-0.40687 0.0686,-0.2625 0.0377,0.14438 0.0377,0.38063 0,0.525 -0.0377,0.14438 -0.0686,0.0263 -0.0686,-0.2625 z m 72.69607,0.1875 c -0.18658,-0.23791 -0.18128,-0.24321 0.0566,-0.0566 0.14438,0.11323 0.2625,0.23135 0.2625,0.2625 0,0.12345 -0.12318,0.044 -0.31913,-0.20587 z m -88.33087,-0.0375 c 0,-0.0825 0.0675,-0.15 0.15,-0.15 0.0825,0 0.15,0.0675 0.15,0.15 0,0.0825 -0.0675,0.15 -0.15,0.15 -0.0825,0 -0.15,-0.0675 -0.15,-0.15 z m 76.5,-0.225 c 0.19376,-0.20625 0.38604,-0.375 0.42729,-0.375 0.0412,0 -0.0835,0.16875 -0.27729,0.375 -0.19376,0.20625 -0.38604,0.375 -0.42729,0.375 -0.0412,0 0.0835,-0.16875 0.27729,-0.375 z m 42,0.31837 c 0,-0.0312 0.11812,-0.14927 0.2625,-0.2625 0.23791,-0.18658 0.24321,-0.18128 0.0566,0.0566 -0.19595,0.24987 -0.31913,0.32932 -0.31913,0.20587 z m -36.53925,-0.43087 -0.28575,-0.3375 0.3375,0.28575 c 0.31717,0.26853 0.40579,0.38925 0.28575,0.38925 -0.0285,0 -0.18034,-0.15187 -0.3375,-0.3375 z m -14.55,-0.15 -0.28575,-0.3375 0.3375,0.28575 c 0.31717,0.26853 0.40579,0.38925 0.28575,0.38925 -0.0285,0 -0.18034,-0.15187 -0.3375,-0.3375 z m 70.58925,0.28087 c 0,-0.0312 0.11812,-0.14927 0.2625,-0.2625 0.23791,-0.18658 0.24321,-0.18128 0.0566,0.0566 -0.19596,0.24987 -0.31914,0.32932 -0.31914,0.20587 z m 39.50842,-0.15746 c -0.0452,-0.11775 -0.0523,-0.37087 -0.0157,-0.5625 0.0512,-0.26849 0.0711,-0.23792 0.0869,0.13325 l 0.0204,0.48166 1.3125,0.05 1.3125,0.05 -1.31721,0.0308 c -1.02363,0.024 -1.33551,-0.0169 -1.39937,-0.18325 z m -154.07362,-0.38591 c 0,-0.28875 0.0309,-0.40687 0.0686,-0.2625 0.0377,0.14438 0.0377,0.38063 0,0.525 -0.0377,0.14438 -0.0686,0.0263 -0.0686,-0.2625 z m 10.79444,0.075 c 0.003,-0.2475 0.0367,-0.33059 0.0747,-0.18464 0.038,0.14594 0.0355,0.34844 -0.006,0.45 -0.0411,0.10155 -0.0722,-0.0179 -0.0691,-0.26536 z m 17.11032,0.26737 c 0.22801,-0.0345 0.56551,-0.0336 0.75,0.002 0.18449,0.0356 -0.002,0.0638 -0.41456,0.0627 -0.4125,-0.001 -0.56345,-0.0303 -0.33544,-0.0647 z m 9.74524,-0.34237 c 0,-0.28875 0.0309,-0.40687 0.0686,-0.2625 0.0377,0.14438 0.0377,0.38063 0,0.525 -0.0377,0.14438 -0.0686,0.0263 -0.0686,-0.2625 z m 3.3027,0.34257 c 0.22687,-0.0344 0.59812,-0.0344 0.825,0 0.22687,0.0344 0.0412,0.0625 -0.4125,0.0625 -0.45375,0 -0.63938,-0.0281 -0.4125,-0.0625 z m 22.05,0 c 0.22688,-0.0344 0.59812,-0.0344 0.825,0 0.22687,0.0344 0.0412,0.0625 -0.4125,0.0625 -0.45375,0 -0.63938,-0.0281 -0.4125,-0.0625 z m 5.39174,-0.26757 c 0.003,-0.2475 0.0367,-0.33059 0.0747,-0.18464 0.038,0.14594 0.0355,0.34844 -0.006,0.45 -0.0411,0.10155 -0.0722,-0.0179 -0.0691,-0.26536 z m 29.85826,0.26757 c 0.22688,-0.0344 0.59812,-0.0344 0.825,0 0.22687,0.0344 0.0412,0.0625 -0.4125,0.0625 -0.45375,0 -0.63938,-0.0281 -0.4125,-0.0625 z m 19.12769,-10e-4 c 0.2696,-0.0334 0.6746,-0.0327 0.9,0.002 0.2254,0.0342 0.005,0.0615 -0.49019,0.0607 -0.495,-9e-4 -0.67941,-0.0288 -0.40981,-0.0622 z m 6.30668,0.006 c 0.10829,-0.0433 0.23766,-0.038 0.28751,0.0118 0.0498,0.0498 -0.0388,0.0853 -0.19688,0.0788 -0.17474,-0.007 -0.21028,-0.0427 -0.0906,-0.0906 z m 1.05,0 c 0.10829,-0.0433 0.23767,-0.038 0.28751,0.0118 0.0498,0.0498 -0.0388,0.0853 -0.19687,0.0788 -0.17475,-0.007 -0.21029,-0.0427 -0.0906,-0.0906 z m 17.01768,-0.005 c 0.22802,-0.0345 0.56552,-0.0336 0.75,0.002 0.1845,0.0356 -0.002,0.0638 -0.41455,0.0627 -0.4125,-10e-4 -0.56345,-0.0303 -0.33545,-0.0647 z m 35.09795,0.004 c 0.14437,-0.0377 0.38062,-0.0377 0.525,0 0.14437,0.0377 0.0263,0.0686 -0.2625,0.0686 -0.28875,0 -0.40688,-0.0309 -0.2625,-0.0686 z m -39.17567,-0.5841 c 0.007,-0.17474 0.0428,-0.21028 0.0906,-0.0906 0.0433,0.10829 0.038,0.23766 -0.0118,0.28751 -0.0498,0.0498 -0.0853,-0.0388 -0.0788,-0.19688 z m -111.33995,-0.16497 c 0.10828,-0.0433 0.23765,-0.038 0.2875,0.0118 0.0498,0.0498 -0.0388,0.0853 -0.19688,0.0788 -0.17474,-0.007 -0.21028,-0.0427 -0.0906,-0.0906 z m 13.2,0 c 0.10828,-0.0433 0.23765,-0.038 0.2875,0.0118 0.0498,0.0498 -0.0388,0.0853 -0.19688,0.0788 -0.17474,-0.007 -0.21028,-0.0427 -0.0906,-0.0906 z m -11.63232,-0.15517 c 0.22801,-0.0345 0.56551,-0.0335 0.75,0.002 0.18449,0.0356 -0.002,0.0638 -0.41456,0.0627 -0.4125,-0.001 -0.56345,-0.0303 -0.33544,-0.0647 z m 13.12294,0.002 c 0.18562,-0.0358 0.48937,-0.0358 0.675,0 0.18563,0.0358 0.0337,0.065 -0.3375,0.065 -0.37125,0 -0.52312,-0.0292 -0.3375,-0.065 z m 14.10937,0.003 c 0.10829,-0.0433 0.23766,-0.038 0.28751,0.0118 0.0498,0.0498 -0.0388,0.0853 -0.19688,0.0788 -0.17474,-0.007 -0.21028,-0.0427 -0.0906,-0.0906 z m 1.35,0 c 0.10829,-0.0433 0.23766,-0.038 0.28751,0.0118 0.0498,0.0498 -0.0388,0.0853 -0.19688,0.0788 -0.17474,-0.007 -0.21028,-0.0427 -0.0906,-0.0906 z m 6.44063,-0.003 c 0.18562,-0.0358 0.48938,-0.0358 0.675,0 0.18562,0.0358 0.0337,0.065 -0.3375,0.065 -0.37125,0 -0.52313,-0.0292 -0.3375,-0.065 z m 34.80937,0.003 c 0.10829,-0.0433 0.23766,-0.038 0.28751,0.0118 0.0498,0.0498 -0.0388,0.0853 -0.19688,0.0788 -0.17474,-0.007 -0.21028,-0.0427 -0.0906,-0.0906 z m 1.65,0 c 0.10829,-0.0433 0.23766,-0.038 0.28751,0.0118 0.0498,0.0498 -0.0388,0.0853 -0.19688,0.0788 -0.17474,-0.007 -0.21028,-0.0427 -0.0906,-0.0906 z m 17.39063,0.003 c 0.10312,-0.0416 0.27187,-0.0416 0.375,0 0.10312,0.0416 0.0188,0.0757 -0.1875,0.0757 -0.20625,0 -0.29063,-0.034 -0.1875,-0.0757 z m 1.65,0 c 0.10312,-0.0416 0.27187,-0.0416 0.375,0 0.10312,0.0416 0.0187,0.0757 -0.1875,0.0757 -0.20625,0 -0.29063,-0.034 -0.1875,-0.0757 z m 5.10937,-0.003 c 0.10829,-0.0433 0.23766,-0.038 0.28751,0.0118 0.0498,0.0498 -0.0388,0.0853 -0.19688,0.0788 -0.17475,-0.007 -0.21028,-0.0427 -0.0906,-0.0906 z m 1.35,0 c 0.10829,-0.0433 0.23766,-0.038 0.28751,0.0118 0.0498,0.0498 -0.0388,0.0853 -0.19687,0.0788 -0.17476,-0.007 -0.21029,-0.0427 -0.0906,-0.0906 z m 16.79063,-0.003 c 0.18563,-0.0358 0.48938,-0.0358 0.675,0 0.18562,0.0358 0.0337,0.065 -0.3375,0.065 -0.37125,0 -0.52313,-0.0292 -0.3375,-0.065 z m 35.025,-0.002 c 0.22687,-0.0344 0.59813,-0.0344 0.825,0 0.22688,0.0344 0.0412,0.0625 -0.4125,0.0625 -0.45375,0 -0.63938,-0.0281 -0.4125,-0.0625 z m -55.87752,-4.97462 c -2.45351,-0.63984 -3.59606,-2.52724 -2.49904,-4.12821 0.28147,-0.4108 0.53828,-0.6273 1.46866,-1.23814 0.03,-0.0197 -0.0881,-0.21726 -0.2625,-0.43898 -0.55209,-0.70186 -0.39741,-1.49758 0.4692,-2.41369 l 0.4503,-0.47601 -0.56832,-0.49899 c -1.67298,-1.46887 -1.52307,-4.34878 0.29601,-5.68654 1.11751,-0.82184 3.16924,-1.13716 4.43571,-0.6817 0.47502,0.17083 0.58675,0.15376 1.17372,-0.1793 0.6789,-0.38522 2.72628,-0.66557 2.72628,-0.37331 0,0.0789 -0.10701,0.45749 -0.23781,0.84135 -0.23699,0.69551 -0.24006,0.69782 -0.8927,0.66941 -0.82039,-0.0357 -0.95746,0.0949 -0.55224,0.52625 0.49979,0.532 0.78304,1.37419 0.77945,2.31754 -0.006,1.5186 -0.79974,2.67177 -2.3217,3.37204 -0.61571,0.28329 -1.01367,0.34641 -2.22251,0.35252 -1.59483,0.008 -1.74586,0.0814 -1.75019,0.84999 -0.003,0.57227 0.28638,0.68236 2.66576,1.01333 2.32847,0.32389 3.32333,0.60925 4.06035,1.16464 1.20434,0.90753 1.20371,2.78825 -0.002,3.88538 -1.36933,1.24673 -4.73395,1.77001 -7.21711,1.12242 z m 4.80987,-1.68971 c 1.06564,-0.51587 1.30134,-1.46454 0.51712,-2.0814 -0.4885,-0.38425 -1.13674,-0.55148 -3.18517,-0.82165 -1.8407,-0.24277 -1.98227,-0.21388 -2.61062,0.53289 -0.92488,1.09915 -0.1488,2.28887 1.75778,2.69468 0.97713,0.20798 2.76043,0.0436 3.52089,-0.32452 z m -1.15454,-8.26878 c 1.43582,-0.95918 1.3091,-3.18921 -0.22252,-3.91601 -0.66981,-0.31785 -1.68606,-0.30948 -2.33769,0.0192 -1.48442,0.74883 -1.4635,3.25266 0.0333,3.99057 0.73329,0.3615 1.91079,0.31779 2.52688,-0.0938 z m -136.66531,5.00937 c -1.40185,-0.46217 -2.46066,-1.41498 -3.10466,-2.79388 -0.38391,-0.822 -0.42034,-1.04949 -0.42034,-2.625 0,-1.54468 0.0408,-1.81195 0.39017,-2.55684 0.51601,-1.10016 1.14059,-1.78808 2.112,-2.3262 0.71829,-0.3979 0.93242,-0.44182 2.14783,-0.44058 1.17386,10e-4 1.4502,0.0541 2.11796,0.40513 1.47456,0.77523 2.29324,2.21519 2.42067,4.25766 l 0.0787,1.26083 -3.6174,0 -3.61739,0 0.0936,0.4875 c 0.21952,1.14384 0.93235,2.08287 1.92265,2.53276 0.81522,0.37034 2.25081,0.36163 3.33734,-0.0203 0.46945,-0.165 0.89919,-0.3 0.95496,-0.3 0.0829,0 0.58399,1.07901 0.58399,1.25755 0,0.0283 -0.42188,0.24144 -0.9375,0.47362 -0.80172,0.361 -1.16562,0.4286 -2.5125,0.46674 -0.86625,0.0245 -1.74375,-0.011 -1.95,-0.079 z m 3.40574,-7.09339 c -0.21208,-1.58116 -2.01786,-2.56819 -3.39532,-1.85588 -0.75432,0.39008 -1.50362,1.56541 -1.50958,2.36789 -4.5e-4,0.0619 1.1218,0.1125 2.49391,0.1125 l 2.49475,0 -0.0838,-0.62451 z m 15.79507,6.97431 c -2.23181,-0.78083 -3.4043,-2.7281 -3.27256,-5.43506 0.13074,-2.68652 1.62632,-4.52804 4.15545,-5.11663 0.97128,-0.22604 2.64548,-0.11988 3.6538,0.23168 l 0.7125,0.24841 0,0.90195 c 0,0.80245 -0.029,0.88937 -0.2625,0.7879 -1.20639,-0.52417 -1.97324,-0.69541 -2.81691,-0.62905 -2.10744,0.16577 -3.34788,1.5658 -3.36401,3.79678 -0.0126,1.74729 0.79068,3.07103 2.18733,3.60442 0.8718,0.33294 2.59227,0.22966 3.44345,-0.20671 l 0.61236,-0.31393 0.3206,0.65989 0.32061,0.6599 -0.33297,0.23475 c -1.07776,0.75987 -3.94887,1.06841 -5.35715,0.5757 z m 59.18766,-0.11298 c -1.65728,-0.69703 -2.65189,-2.07921 -2.93132,-4.07359 -0.54354,-3.87935 1.95518,-6.74845 5.63491,-6.47016 0.70405,0.0532 1.39592,0.21678 1.90692,0.45072 3.83339,1.75499 3.91954,8.10625 0.13507,9.95782 -0.73162,0.35795 -1.07245,0.42493 -2.35717,0.46326 -1.32222,0.0395 -1.60793,1.5e-4 -2.38841,-0.32805 z m 3.62577,-1.54887 c 1.15395,-0.52782 1.74703,-1.89631 1.66176,-3.83439 -0.0679,-1.54429 -0.49109,-2.49385 -1.37072,-3.07595 -0.51753,-0.34249 -0.76842,-0.40261 -1.68028,-0.40261 -1.35483,0 -2.10776,0.43535 -2.64198,1.52761 -0.42032,0.85937 -0.56707,2.74849 -0.28801,3.70767 0.59554,2.04705 2.44315,2.93579 4.31923,2.07767 z m 15.45015,1.67724 c -0.86846,-0.47122 -0.86439,-0.43172 -0.86439,-8.38274 l 0,-7.28245 1.05,0 1.05,0 0,6.88164 c 0,7.62593 -0.046,7.28562 0.98015,7.24704 0.43567,-0.0164 0.52846,0.0385 0.59315,0.35095 0.0422,0.20371 0.11011,0.53264 0.15094,0.73096 0.0614,0.29831 -0.007,0.38899 -0.39738,0.525 -0.66605,0.23219 -2.07621,0.19344 -2.56247,-0.0704 z m 15.56061,-0.12935 c -1.14244,-0.47455 -2.17426,-1.55006 -2.63464,-2.74622 -0.46835,-1.21687 -0.46999,-3.3582 -0.004,-4.56986 0.43425,-1.1279 1.4577,-2.24772 2.53279,-2.77127 0.75925,-0.36975 1.02389,-0.41685 2.35536,-0.41921 1.30804,-0.002 1.60557,0.0473 2.325,0.38793 1.59683,0.75603 2.55012,2.09249 2.86875,4.02181 0.42224,2.55681 -0.66609,4.97497 -2.68323,5.96187 -0.73327,0.35875 -1.07325,0.42563 -2.35864,0.46398 -1.32097,0.0394 -1.6103,-1.5e-4 -2.40188,-0.32903 z m 3.64597,-1.55108 c 1.02234,-0.46787 1.67903,-1.82751 1.67903,-3.47639 0,-1.38137 -0.32649,-2.38485 -0.99266,-3.05102 -0.67747,-0.67747 -1.35457,-0.91131 -2.39012,-0.82544 -1.70441,0.14135 -2.64135,1.32892 -2.74429,3.47837 -0.0631,1.31698 0.11951,2.13528 0.66335,2.97304 0.75489,1.16286 2.37187,1.54799 3.78469,0.90144 z m 50.8842,1.58489 c -1.12772,-0.43293 -2.25268,-1.57713 -2.70304,-2.7493 -1.09946,-2.8616 -0.10545,-6.23724 2.16353,-7.34735 2.36638,-1.15776 5.09156,-0.29136 6.15516,1.95688 0.38003,0.80334 0.7848,3.07789 0.60071,3.37574 -0.0531,0.0859 -1.51431,0.14438 -3.60538,0.14438 l -3.51615,0 0.003,0.4125 c 0.009,1.0657 1.10556,2.42314 2.2051,2.72848 0.8636,0.23983 2.1253,0.18135 3.0416,-0.14098 0.45375,-0.15961 0.86538,-0.29241 0.91471,-0.2951 0.0494,-0.003 0.21213,0.26656 0.36175,0.59834 0.2648,0.58725 0.26442,0.60885 -0.0147,0.81482 -1.12477,0.82998 -4.06576,1.09309 -5.60656,0.50159 z m 3.94792,-6.75715 c -0.14634,-0.79785 -0.74721,-1.7018 -1.30814,-1.96798 -1.5139,-0.71839 -3.28284,0.20682 -3.50069,1.83097 l -0.0838,0.62451 2.49099,0 2.49101,0 -0.0894,-0.4875 z m 13.08948,6.7895 c -0.48535,-0.15503 -0.94479,-0.34422 -1.02101,-0.42043 -0.16708,-0.16709 0.45951,-1.53157 0.70334,-1.53157 0.0908,0 0.22923,0.0614 0.3076,0.13638 0.0784,0.075 0.50913,0.24376 0.95722,0.375 2.00318,0.5867 3.61028,0.0552 3.61028,-1.19403 0,-0.75764 -0.55041,-1.22972 -2.25996,-1.93831 -1.99195,-0.82566 -2.84529,-1.79729 -2.83591,-3.22904 0.004,-0.58277 0.50394,-1.54597 1.0345,-1.99241 1.00713,-0.84744 3.40158,-1.10045 5.22387,-0.55198 l 0.6375,0.19188 0,0.86053 0,0.86052 -0.9375,-0.29543 c -1.32279,-0.41685 -2.93854,-0.33882 -3.478,0.16797 -0.85193,0.80034 -0.19868,1.70119 1.84329,2.54194 1.59889,0.65832 2.37484,1.2306 2.7304,2.01374 0.77456,1.70606 -0.0671,3.41505 -2.00092,4.06282 -1.01517,0.34005 -3.36363,0.31009 -4.5147,-0.0576 z m -204.69257,-6.302 0,-6.45 -2.25,0 -2.25,0 0,-0.9 0,-0.9 5.775,0 c 4.14952,0 5.775,0.0471 5.775,0.16737 0,0.0921 -0.11709,0.49705 -0.26021,0.9 l -0.26021,0.73263 -2.21479,0 -2.21479,0 0,6.45 0,6.45 -1.05,0 -1.05,0 0,-6.45 z m 55.05,-1.425 0,-7.875 1.05,0 1.05,0 0,3.13389 0,3.13388 1.18504,-0.60545 c 0.98247,-0.50196 1.37349,-0.61704 2.2875,-0.67326 0.99704,-0.0613 1.18124,-0.0263 1.92631,0.36631 0.69622,0.36686 0.89375,0.57074 1.275,1.31596 l 0.45115,0.88183 0.0517,4.09842 0.0517,4.09842 -1.1392,0 -1.1392,0 0,-3.75482 c 0,-4.19767 -0.0717,-4.59187 -0.915,-5.02793 -0.84867,-0.43887 -2.3162,-0.0816 -3.6179,0.88079 l -0.4171,0.30838 0,3.79679 0,3.79679 -1.05,0 -1.05,0 0,-7.875 z m 20.4,2.61784 0,-5.25715 0.9375,0.0446 c 0.87229,0.0416 0.94099,0.0707 0.9877,0.41966 0.0811,0.60584 0.26071,0.6545 0.87266,0.2364 0.76713,-0.52411 2.30052,-0.98718 3.25544,-0.9831 1.34446,0.006 2.50873,0.77041 3.01374,1.97938 0.19147,0.45836 0.23296,1.29325 0.23296,4.6875 l 0,4.12982 -1.05,0 -1.05,0 0,-3.75482 c 0,-4.19767 -0.0717,-4.59187 -0.915,-5.02793 -0.86741,-0.44856 -2.35626,-0.0731 -3.6975,0.93252 l -0.4875,0.3655 0,3.74237 0,3.74236 -1.05,0 -1.05,0 0,-5.25716 z m 96,0.007 0,-5.25 0.975,0 0.975,0 0,5.25 0,5.25 -0.975,0 -0.975,0 0,-5.25 z m 0.18435,-7.45039 c -0.25364,-0.10205 -0.63435,-0.85449 -0.63435,-1.2537 0,-0.53204 0.79104,-1.19591 1.425,-1.19591 0.40577,0 0.66192,0.11384 0.98654,0.43846 0.54379,0.54379 0.55901,1.04525 0.0501,1.65003 -0.32376,0.38477 -0.49212,0.45954 -1.01251,0.44967 -0.34329,-0.007 -0.70996,-0.0464 -0.81481,-0.0885 z m -20.91634,-1.15895 c -0.47135,-0.10131 -1.00209,-0.31502 -1.17944,-0.47493 -0.37887,-0.34161 -0.36033,-0.90205 0.14115,-4.26573 0.16605,-1.11375 0.33626,-2.53125 0.37822,-3.15 0.0518,-0.76264 0.24947,-1.60262 0.61387,-2.60784 0.6152,-1.69714 0.86821,-3.6065 0.7973,-6.01716 l -0.0441,-1.5 -2.4,0.0336 c -1.32,0.0184 -3.34682,0.0522 -4.50405,0.075 -1.9974,0.0394 -2.13975,0.0224 -2.80856,-0.33355 -1.38063,-0.73489 -4.91059,-3.94583 -5.44846,-4.95605 -0.23997,-0.45071 -0.29003,-1.05152 -0.38073,-4.56895 -0.0574,-2.2275 -0.21195,-5.09625 -0.34337,-6.375 -0.48352,-4.70481 -0.22194,-8.44944 0.72105,-10.32197 0.2858,-0.56753 0.69741,-1.24314 0.91469,-1.50136 0.26202,-0.31138 0.37895,-0.60571 0.34724,-0.87401 -0.0422,-0.35723 -0.17453,-0.44666 -1.13173,-0.7649 -0.96705,-0.32152 -1.18811,-0.4729 -2.05004,-1.40387 -1.08344,-1.17022 -1.34203,-1.75855 -1.62102,-3.68811 -0.15651,-1.08249 -0.14516,-1.46609 0.0825,-2.78799 0.30654,-1.77972 0.71985,-2.60335 1.64499,-3.27806 1.56168,-1.13893 2.91017,-1.5791 5.2699,-1.72018 1.55704,-0.0931 1.75606,-0.0743 2.3542,0.22169 0.35935,0.17785 0.95448,0.58458 1.32249,0.90384 0.66567,0.57749 0.66938,0.58618 0.71898,1.6852 0.0748,1.65717 0.10854,1.73331 1.02981,2.32265 0.70367,0.45012 0.8191,0.5851 0.73393,0.8581 -0.24555,0.78711 -0.23201,0.94947 0.12261,1.47206 0.4783,0.7048 0.61346,1.14537 0.42212,1.37592 -0.1071,0.12905 -0.0657,0.38009 0.13761,0.83418 0.37791,0.84409 0.36697,1.16708 -0.0467,1.37986 -0.18562,0.0955 -0.51256,0.33662 -0.72654,0.53587 -0.21397,0.19925 -0.72023,0.48637 -1.125,0.63805 -0.91517,0.34294 -1.47668,1.06711 -1.34401,1.73334 0.0488,0.24492 0.14127,0.49791 0.20555,0.56219 0.0643,0.0643 0.99114,-0.17616 2.05969,-0.5343 1.06855,-0.35814 2.29024,-0.73431 2.71488,-0.83594 0.74326,-0.17789 0.78597,-0.21654 1.1447,-1.03602 0.83611,-1.90993 0.89704,-2.18344 0.83126,-3.73179 -0.0543,-1.27802 -0.11502,-1.5518 -0.46618,-2.10154 -0.22208,-0.34765 -0.5784,-1.0683 -0.79184,-1.60144 l -0.38805,-0.96935 -0.98095,0.36923 c -0.53954,0.20307 -1.22131,0.46965 -1.51505,0.59238 -0.29375,0.12273 -0.58041,0.17098 -0.63705,0.10721 -0.17579,-0.19793 -0.44439,-1.1188 -0.3642,-1.24857 0.0419,-0.0677 0.69918,-0.47835 1.4607,-0.91246 0.80838,-0.46081 1.67066,-1.09673 2.072,-1.52805 0.57607,-0.61913 0.78321,-0.74417 1.27906,-0.77215 0.78231,-0.0441 1.16339,-0.26535 1.55853,-0.90471 0.39527,-0.63955 0.71225,-0.825 1.41011,-0.825 0.41527,0 1.43709,-0.5345 4.72573,-2.47196 2.30775,-1.35958 4.26891,-2.4902 4.35815,-2.5125 0.1714,-0.0428 1.99673,3.8873 1.9168,4.12709 -0.0257,0.077 -1.93421,0.86155 -4.24122,1.74347 -3.86479,1.47744 -4.19651,1.63242 -4.21927,1.9712 -0.0137,0.20223 -0.0711,0.8402 -0.12786,1.4177 -0.0749,0.76211 -0.0349,1.33788 0.14572,2.1 0.13689,0.5775 0.31628,2.28927 0.39866,3.80393 0.127,2.33547 0.11431,2.90978 -0.0835,3.77961 -0.12829,0.56412 -0.23328,1.36121 -0.23328,1.7713 0,0.41009 -0.0424,0.85619 -0.0943,0.99133 -0.0519,0.13515 -0.59185,0.58147 -1.2,0.99184 -0.60814,0.41037 -1.10571,0.81446 -1.10571,0.89798 0,0.32117 -1.41564,1.64403 -2.37271,2.21721 -0.55126,0.33015 -1.23567,0.79781 -1.52091,1.03926 l -0.51861,0.439 0.17842,1.78427 c 0.0981,0.98135 0.27616,2.22302 0.39564,2.75927 0.11948,0.53625 0.3286,1.96908 0.46475,3.18406 0.32979,2.94322 0.3391,2.97169 1.05586,3.22683 1.46913,0.52294 3.84086,0.9719 5.69256,1.07757 1.53243,0.0875 2.11898,0.18501 2.73908,0.45556 1.01376,0.44231 2.37924,1.87631 2.52463,2.65133 0.15804,0.84241 -0.0295,2.59854 -0.36932,3.45789 -0.57664,1.45835 -0.77668,4.52155 -0.46346,7.09676 0.0853,0.70125 0.21121,2.085 0.27985,3.075 0.10113,1.45899 0.21197,2.02312 0.58502,2.97772 0.65382,1.67305 0.76804,1.77214 1.90794,1.65536 1.19415,-0.12234 1.8561,0.0984 2.42547,0.80897 0.84895,1.05943 0.86392,1.15482 0.27394,1.7448 -0.28887,0.28888 -0.79695,0.60664 -1.12903,0.70614 -0.46805,0.14023 -0.5852,0.23955 -0.52103,0.44176 0.25608,0.80681 -2.30667,1.85127 -5.17809,2.11037 -0.86625,0.0782 -2.62287,0.24062 -3.90362,0.361 -2.74218,0.25775 -3.81397,0.25981 -4.97838,0.01 z M 299.70576,530.57557 c 0.68062,-0.0278 1.79438,-0.0278 2.475,0 0.68063,0.0278 0.12375,0.0505 -1.2375,0.0505 -1.36125,0 -1.91813,-0.0227 -1.2375,-0.0505 z m 16.03761,0.003 c -0.0396,-0.0638 1.0463,-0.096 2.41313,-0.0714 1.90752,0.0343 2.51704,-6e-4 2.62237,-0.15 0.10602,-0.15043 0.12329,-0.14354 0.076,0.0303 -0.0507,0.18633 -0.48897,0.23206 -2.55036,0.26607 -1.36899,0.0226 -2.52149,-0.0112 -2.5611,-0.075 z m 17.95603,-0.11112 c -0.0464,-0.12103 -0.0496,-0.30666 -0.007,-0.4125 0.0425,-0.10585 0.0826,-0.0406 0.0891,0.14505 0.0118,0.33538 0.0269,0.3375 2.40141,0.3375 2.35881,0 2.39041,-0.004 2.45458,-0.3375 0.0557,-0.28938 0.0679,-0.27868 0.0854,0.075 l 0.0204,0.4125 -2.47971,0 c -2.04103,0 -2.49464,-0.0389 -2.56415,-0.22005 z m 7.59355,0.10755 c -1.5e-4,-0.0619 0.75921,-0.0948 1.6875,-0.0732 3.07192,0.0716 3.37079,0.12856 0.82531,0.1573 -1.38187,0.0156 -2.51264,-0.0223 -2.51281,-0.0841 z m 24.99849,0 c -0.0382,-0.0619 1.13902,-0.1125 2.61614,-0.1125 1.47713,0 2.68568,0.0506 2.68568,0.1125 0,0.0619 -1.17727,0.1125 -2.61615,0.1125 -1.43888,0 -2.64743,-0.0506 -2.68567,-0.1125 z m 7.40182,0.01 c 2.38604,-0.10782 4.76624,-0.11272 4.70221,-0.01 -0.0385,0.0619 -1.33156,0.0993 -2.87356,0.0831 -1.54201,-0.0162 -2.3649,-0.0492 -1.82865,-0.0734 z m 21.84781,-0.01 c -0.0384,-0.0619 0.8182,-0.0949 1.90365,-0.0735 3.69655,0.0731 4.07833,0.12632 1.11989,0.15618 -1.6245,0.0164 -2.9851,-0.0208 -3.02354,-0.0827 z m 20.63969,6e-4 9.7125,-0.0403 0,-1.87248 0,-1.87248 -7.3125,-0.0389 -7.3125,-0.0389 0,-5.925 0,-5.925 7.01252,-0.002 7.01252,-0.002 -6.97502,0.0412 -6.97502,0.0412 0,5.84709 0,5.84709 7.3125,0.0389 7.3125,0.0389 0,1.95 0,1.95 -9.75,0.002 -9.75,0.002 9.7125,-0.0403 z m 26.775,-6e-4 10.2375,-0.0396 0,-1.94896 0,-1.94896 -7.875,0 -7.875,0 0,-15.07119 0,-15.07119 -2.3625,-0.0474 -2.3625,-0.0474 2.4,0.006 2.4,0.006 0.0382,15.03616 0.0382,15.03616 7.83678,0.0388 7.83678,0.0388 0.0417,2.0625 0.0417,2.0625 -10.31673,-0.0364 -10.31673,-0.0365 10.2375,-0.0396 z m 25.57437,-17.025 0.0381,-17.1375 9.7125,-0.0386 9.7125,-0.0386 0,2.02333 0,2.02334 -7.41072,0.0403 c -4.0759,0.0221 -7.37942,-0.0104 -7.34115,-0.0722 0.0383,-0.0619 3.33934,-0.1125 7.33572,-0.1125 l 7.26615,0 0,-1.875 0,-1.875 -9.6,0 -9.6,0 0,17.025 0,17.025 9.6,0 9.6,0 0,-1.875 0,-1.875 -7.26615,0 c -3.99638,0 -7.29745,-0.0506 -7.33572,-0.1125 -0.0383,-0.0619 3.26525,-0.0944 7.34115,-0.0722 l 7.41072,0.0403 0,2.02224 0,2.02224 -9.75063,0 -9.75065,0 0.0381,-17.1375 z m 25.38231,16.95 c -0.0393,-0.10312 -0.0541,-7.815 -0.0328,-17.1375 l 0.0386,-16.95 0.45,-0.0217 c 0.42756,-0.0206 0.42944,-0.0183 0.0375,0.0475 l -0.4125,0.0692 0,17.01123 0,17.01122 2.3625,0.0454 2.3625,0.0454 -2.36721,0.0334 c -1.78089,0.0251 -2.3849,-0.013 -2.43861,-0.1541 z m 16.37879,0.075 c -0.0384,-0.0619 1.27959,-0.0929 2.92876,-0.0689 2.2963,0.0334 2.97256,0.002 2.88771,-0.13567 -0.07,-0.11326 -0.047,-0.13986 0.0624,-0.0722 0.50726,0.31351 -0.0414,0.38932 -2.81798,0.38932 -1.64513,0 -3.02253,-0.0506 -3.06088,-0.1125 z m -211.72429,-0.6375 c 0,-0.20625 0.034,-0.29062 0.0757,-0.1875 0.0416,0.10313 0.0416,0.27188 0,0.375 -0.0416,0.10313 -0.0757,0.0188 -0.0757,-0.1875 z m 4.8,-0.15 c 0,-0.20625 0.0341,-0.29062 0.0757,-0.1875 0.0416,0.10313 0.0416,0.27188 0,0.375 -0.0416,0.10313 -0.0757,0.0188 -0.0757,-0.1875 z m 212.20718,-0.1125 c -0.18657,-0.23791 -0.18128,-0.24321 0.0566,-0.0566 0.24985,0.19595 0.32933,0.31913 0.20586,0.31913 -0.0311,0 -0.14927,-0.11812 -0.2625,-0.2625 z m -182.05718,-0.4875 c 0,-0.20625 0.034,-0.29062 0.0757,-0.1875 0.0416,0.10313 0.0416,0.27188 0,0.375 -0.0416,0.10313 -0.0757,0.0188 -0.0757,-0.1875 z m 4.93816,0.0625 c 0.007,-0.17474 0.0427,-0.21028 0.0906,-0.0906 0.0433,0.10828 0.038,0.23765 -0.0118,0.2875 -0.0498,0.0498 -0.0853,-0.0387 -0.0788,-0.19688 z m -39.75,-0.3 c 0.007,-0.17474 0.0427,-0.21028 0.0906,-0.0906 0.0433,0.10828 0.038,0.23765 -0.0118,0.2875 -0.0498,0.0498 -0.0853,-0.0387 -0.0788,-0.19688 z m 216.26902,-0.025 c -0.18657,-0.23791 -0.18127,-0.24321 0.0566,-0.0566 0.24985,0.19595 0.32932,0.31913 0.20586,0.31913 -0.0311,0 -0.14927,-0.11812 -0.2625,-0.2625 z M 303.5225,528.5125 c 0.003,-0.2475 0.0367,-0.33059 0.0747,-0.18464 0.038,0.14594 0.0355,0.34844 -0.006,0.45 -0.0411,0.10155 -0.0722,-0.0179 -0.0691,-0.26536 z m 34.79444,-0.225 c 0,-0.20625 0.034,-0.29062 0.0757,-0.1875 0.0416,0.10313 0.0416,0.27188 0,0.375 -0.0416,0.10313 -0.0757,0.0188 -0.0757,-0.1875 z m -4.95,-0.15 c 0,-0.20625 0.0341,-0.29062 0.0757,-0.1875 0.0416,0.10313 0.0416,0.27188 0,0.375 -0.0416,0.10313 -0.0757,0.0188 -0.0757,-0.1875 z m 181.00718,0.0375 c -0.18657,-0.23791 -0.18128,-0.24321 0.0566,-0.0566 0.24985,0.19595 0.32932,0.31913 0.20586,0.31913 -0.0311,0 -0.14927,-0.11812 -0.2625,-0.2625 z m -215.50718,-0.1875 c 0,-0.20625 0.0341,-0.29062 0.0757,-0.1875 0.0416,0.10313 0.0416,0.27188 0,0.375 -0.0416,0.10313 -0.0757,0.0187 -0.0757,-0.1875 z m 209.50718,0.0375 c -0.18657,-0.23791 -0.18128,-0.24321 0.0566,-0.0566 0.14438,0.11323 0.2625,0.23135 0.2625,0.2625 0,0.12345 -0.12318,0.044 -0.31914,-0.20587 z M 303.6725,527.3125 c 0.003,-0.2475 0.0367,-0.33059 0.0747,-0.18464 0.038,0.14594 0.0355,0.34844 -0.006,0.45 -0.0411,0.10155 -0.0722,-0.0179 -0.0692,-0.26536 z m 204.25162,0.1125 c -0.18657,-0.23791 -0.18128,-0.24321 0.0566,-0.0566 0.24986,0.19595 0.32933,0.31913 0.20586,0.31913 -0.0311,0 -0.14926,-0.11812 -0.2625,-0.2625 z m 5.85,0 c -0.18657,-0.23791 -0.18128,-0.24321 0.0566,-0.0566 0.24985,0.19595 0.32933,0.31913 0.20586,0.31913 -0.0311,0 -0.14927,-0.11812 -0.2625,-0.2625 z m -175.60718,-0.1875 c 0,-0.20625 0.0341,-0.29062 0.0757,-0.1875 0.0416,0.10313 0.0416,0.27188 0,0.375 -0.0416,0.10313 -0.0757,0.0187 -0.0757,-0.1875 z m -4.95,-0.15 c 0,-0.20625 0.034,-0.29062 0.0757,-0.1875 0.0416,0.10313 0.0416,0.27188 0,0.375 -0.0416,0.10313 -0.0757,0.0188 -0.0757,-0.1875 z m -34.2,-0.15 c 0,-0.20625 0.034,-0.29062 0.0757,-0.1875 0.0416,0.10313 0.0416,0.27188 0,0.375 -0.0416,0.10313 -0.0757,0.0188 -0.0757,-0.1875 z m 208.45718,-0.1125 c -0.18657,-0.23791 -0.18127,-0.24321 0.0566,-0.0566 0.24985,0.19595 0.32932,0.31913 0.20586,0.31913 -0.0311,0 -0.14927,-0.11812 -0.2625,-0.2625 z m 5.7,-0.15 c -0.18657,-0.23791 -0.18128,-0.24321 0.0566,-0.0566 0.24986,0.19595 0.32933,0.31913 0.20586,0.31913 -0.0311,0 -0.14926,-0.11812 -0.2625,-0.2625 z M 303.8225,526.1125 c 0.003,-0.2475 0.0367,-0.33059 0.0747,-0.18464 0.038,0.14594 0.0355,0.34844 -0.006,0.45 -0.0411,0.10155 -0.0722,-0.0179 -0.0691,-0.26536 z m 34.1826,0.1375 c 0.007,-0.17474 0.0427,-0.21028 0.0906,-0.0906 0.0433,0.10828 0.038,0.23765 -0.0118,0.2875 -0.0498,0.0498 -0.0853,-0.0387 -0.0788,-0.19688 z m 169.01902,-0.025 c -0.18657,-0.23791 -0.18128,-0.24321 0.0566,-0.0566 0.24985,0.19595 0.32933,0.31913 0.20586,0.31913 -0.0311,0 -0.14927,-0.11812 -0.2625,-0.2625 z m -173.95718,-0.1875 c 0,-0.20625 0.034,-0.29062 0.0757,-0.1875 0.0416,0.10313 0.0416,0.27188 0,0.375 -0.0416,0.10313 -0.0757,0.0188 -0.0757,-0.1875 z m 179.65718,0.0375 c -0.18657,-0.23791 -0.18127,-0.24321 0.0566,-0.0566 0.14438,0.11322 0.2625,0.23135 0.2625,0.2625 0,0.12345 -0.12318,0.044 -0.31914,-0.20587 z m -213.55718,-0.1875 c 0,-0.20625 0.0341,-0.29062 0.0757,-0.1875 0.0416,0.10313 0.0416,0.27188 0,0.375 -0.0416,0.10313 -0.0757,0.0188 -0.0757,-0.1875 z m 207.40718,-0.2625 c -0.18657,-0.23791 -0.18128,-0.24321 0.0566,-0.0566 0.24985,0.19595 0.32933,0.31913 0.20586,0.31913 -0.0311,0 -0.14927,-0.11812 -0.2625,-0.2625 z m -168.70718,-0.3375 c 0,-0.20625 0.0341,-0.29062 0.0757,-0.1875 0.0416,0.10313 0.0416,0.27188 0,0.375 -0.0416,0.10313 -0.0757,0.0188 -0.0757,-0.1875 z m 174.25718,0.0375 c -0.18657,-0.23791 -0.18128,-0.24321 0.0566,-0.0566 0.24985,0.19595 0.32932,0.31913 0.20586,0.31913 -0.0311,0 -0.14927,-0.11812 -0.2625,-0.2625 z m -179.20718,-0.1875 c 0,-0.20625 0.0341,-0.29062 0.0757,-0.1875 0.0416,0.10313 0.0416,0.27188 0,0.375 -0.0416,0.10313 -0.0757,0.0188 -0.0757,-0.1875 z m -33.6,-0.3 c 0,-0.20625 0.034,-0.29062 0.0757,-0.1875 0.0416,0.10313 0.0416,0.27188 0,0.375 -0.0416,0.10313 -0.0757,0.0188 -0.0757,-0.1875 z m 4.65,0 c 0,-0.20625 0.034,-0.29062 0.0757,-0.1875 0.0416,0.10313 0.0416,0.27188 0,0.375 -0.0416,0.10313 -0.0757,0.0188 -0.0757,-0.1875 z m 207.55718,-0.2625 c -0.18657,-0.23791 -0.18128,-0.24321 0.0566,-0.0566 0.24985,0.19595 0.32933,0.31913 0.20586,0.31913 -0.0311,0 -0.14927,-0.11812 -0.2625,-0.2625 z M 318.4279,524.4935 c 0.0563,-0.14793 0.14021,-0.23118 0.18639,-0.185 0.0462,0.0462 1e-4,0.16722 -0.10242,0.26897 -0.14814,0.14704 -0.16537,0.12981 -0.084,-0.084 z m 19.28904,-0.25603 c 0,-0.20625 0.034,-0.29062 0.0757,-0.1875 0.0416,0.10313 0.0416,0.27188 0,0.375 -0.0416,0.10313 -0.0757,0.0187 -0.0757,-0.1875 z m -4.95,-0.15 c 0,-0.20625 0.034,-0.29062 0.0757,-0.1875 0.0416,0.10313 0.0416,0.27188 0,0.375 -0.0416,0.10313 -0.0757,0.0188 -0.0757,-0.1875 z m -33.3,-0.3 c 0,-0.20625 0.034,-0.29062 0.0757,-0.1875 0.0416,0.10313 0.0416,0.27188 0,0.375 -0.0416,0.10313 -0.0757,0.0188 -0.0757,-0.1875 z m 211.45718,0.0375 c -0.18657,-0.23791 -0.18128,-0.24321 0.0566,-0.0566 0.24986,0.19595 0.32933,0.31913 0.20586,0.31913 -0.0311,0 -0.14926,-0.11812 -0.2625,-0.2625 z m -206.80162,-0.2625 c 0.003,-0.2475 0.0367,-0.33059 0.0747,-0.18464 0.038,0.14594 0.0355,0.34844 -0.006,0.45 -0.0411,0.10155 -0.0722,-0.0179 -0.0692,-0.26536 z m 14.5326,0.1375 c 0.007,-0.17474 0.0427,-0.21028 0.0906,-0.0906 0.0433,0.10828 0.038,0.23765 -0.0118,0.2875 -0.0498,0.0498 -0.0853,-0.0387 -0.0788,-0.19688 z m -0.6,-0.3 c 0.007,-0.17474 0.0427,-0.21028 0.0906,-0.0906 0.0433,0.10828 0.038,0.23765 -0.0118,0.2875 -0.0498,0.0498 -0.0853,-0.0387 -0.0788,-0.19688 z m 19.51184,-0.0625 c 0,-0.20625 0.034,-0.29062 0.0757,-0.1875 0.0416,0.10313 0.0416,0.27188 0,0.375 -0.0416,0.10313 -0.0757,0.0188 -0.0757,-0.1875 z m -4.95,-0.3 c 0,-0.20625 0.0341,-0.29062 0.0757,-0.1875 0.0416,0.10313 0.0416,0.27188 0,0.375 -0.0416,0.10313 -0.0757,0.0188 -0.0757,-0.1875 z m 177.70718,0.0375 c -0.18657,-0.23791 -0.18128,-0.24321 0.0566,-0.0566 0.24985,0.19595 0.32933,0.31913 0.20586,0.31913 -0.0311,0 -0.14927,-0.11812 -0.2625,-0.2625 z m -210.70718,-0.1875 c 0,-0.20625 0.0341,-0.29062 0.0757,-0.1875 0.0416,0.10313 0.0416,0.27188 0,0.375 -0.0416,0.10313 -0.0757,0.0188 -0.0757,-0.1875 z m 56.60132,-0.15 -7.35,-0.0793 7.30365,-0.0353 c 4.7458,-0.023 7.33611,0.0172 7.39635,0.11464 0.051,0.0825 0.0719,0.13409 0.0464,0.11464 -0.0255,-0.0194 -3.35385,-0.071 -7.39635,-0.11464 z m -51.94576,-0.375 c 0.003,-0.2475 0.0367,-0.33059 0.0747,-0.18464 0.038,0.14594 0.0355,0.34844 -0.006,0.45 -0.0411,0.10155 -0.0722,-0.0179 -0.0691,-0.26536 z m 33.14444,-0.075 c 0,-0.20625 0.0341,-0.29062 0.0757,-0.1875 0.0416,0.10313 0.0416,0.27188 0,0.375 -0.0416,0.10313 -0.0757,0.0188 -0.0757,-0.1875 z m -4.95,-0.3 c 0,-0.20625 0.034,-0.29062 0.0757,-0.1875 0.0416,0.10313 0.0416,0.27188 0,0.375 -0.0416,0.10313 -0.0757,0.0187 -0.0757,-0.1875 z m -32.7,-0.15 c 0,-0.20625 0.034,-0.29062 0.0757,-0.1875 0.0416,0.10313 0.0416,0.27188 0,0.375 -0.0416,0.10313 -0.0757,0.0188 -0.0757,-0.1875 z m 209.50718,-0.1125 c -0.18657,-0.23791 -0.18128,-0.24321 0.0566,-0.0566 0.24985,0.19595 0.32933,0.31913 0.20586,0.31913 -0.0311,0 -0.14927,-0.11812 -0.2625,-0.2625 z m -172.01902,-0.425 c 0.007,-0.17474 0.0427,-0.21028 0.0906,-0.0906 0.0433,0.10828 0.038,0.23765 -0.0118,0.2875 -0.0498,0.0498 -0.0853,-0.0387 -0.0788,-0.19688 z m 166.01902,-0.025 c -0.18657,-0.23791 -0.18128,-0.24321 0.0566,-0.0566 0.24985,0.19595 0.32933,0.31913 0.20586,0.31913 -0.0311,0 -0.14927,-0.11812 -0.2625,-0.2625 z m -198.85718,-0.1875 c 0,-0.20625 0.0341,-0.29062 0.0757,-0.1875 0.0416,0.10313 0.0416,0.27188 0,0.375 -0.0416,0.10313 -0.0757,0.0188 -0.0757,-0.1875 z m 27.9,-0.15 c 0,-0.20625 0.034,-0.29062 0.0757,-0.1875 0.0416,0.10313 0.0416,0.27188 0,0.375 -0.0416,0.10313 -0.0757,0.0188 -0.0757,-0.1875 z m 176.35718,0.0375 c -0.18657,-0.23791 -0.18128,-0.24321 0.0566,-0.0566 0.24986,0.19595 0.32933,0.31913 0.20586,0.31913 -0.0311,0 -0.14926,-0.11812 -0.2625,-0.2625 z m -208.75718,-0.1875 c 0,-0.20625 0.0341,-0.29062 0.0757,-0.1875 0.0416,0.10313 0.0416,0.27188 0,0.375 -0.0416,0.10313 -0.0757,0.0188 -0.0757,-0.1875 z m 202.90718,-0.1125 c -0.18657,-0.23791 -0.18128,-0.24321 0.0566,-0.0566 0.24985,0.19595 0.32933,0.31913 0.20586,0.31913 -0.0311,0 -0.14927,-0.11812 -0.2625,-0.2625 z m -165.70718,-0.3375 c 0,-0.20625 0.0341,-0.29062 0.0757,-0.1875 0.0416,0.10313 0.0416,0.27188 0,0.375 -0.0416,0.10313 -0.0757,0.0188 -0.0757,-0.1875 z m 170.95718,-0.1125 c -0.18657,-0.23791 -0.18128,-0.24321 0.0566,-0.0566 0.24985,0.19595 0.32933,0.31913 0.20586,0.31913 -0.0311,0 -0.14927,-0.11812 -0.2625,-0.2625 z m -5.7,-0.15 c -0.18657,-0.23791 -0.18128,-0.24321 0.0566,-0.0566 0.24985,0.19595 0.32932,0.31913 0.20586,0.31913 -0.0311,0 -0.14927,-0.11812 -0.2625,-0.2625 z m -197.80162,-0.2625 c 0.003,-0.2475 0.0367,-0.33059 0.0747,-0.18464 0.038,0.14594 0.0355,0.34844 -0.006,0.45 -0.0411,0.10155 -0.0722,-0.0179 -0.0691,-0.26536 z m 27.59444,0.075 c 0,-0.20625 0.0341,-0.29062 0.0757,-0.1875 0.0416,0.10313 0.0416,0.27188 0,0.375 -0.0416,0.10313 -0.0757,0.0188 -0.0757,-0.1875 z m -32.1,-0.15 c 0,-0.20625 0.034,-0.29062 0.0757,-0.1875 0.0416,0.10313 0.0416,0.27188 0,0.375 -0.0416,0.10313 -0.0757,0.0187 -0.0757,-0.1875 z m 201.85718,-0.2625 c -0.18657,-0.23791 -0.18128,-0.24321 0.0566,-0.0566 0.24986,0.19595 0.32933,0.31913 0.20586,0.31913 -0.0311,0 -0.14926,-0.11812 -0.2625,-0.2625 z m 5.55,0 c -0.18657,-0.23791 -0.18127,-0.24321 0.0566,-0.0566 0.24985,0.19595 0.32932,0.31913 0.20586,0.31913 -0.0311,0 -0.14927,-0.11812 -0.2625,-0.2625 z m -170.50718,-0.1875 c 0,-0.20625 0.034,-0.29062 0.0757,-0.1875 0.0416,0.10313 0.0416,0.27188 0,0.375 -0.0416,0.10313 -0.0757,0.0188 -0.0757,-0.1875 z m -4.95,-0.45 c 0,-0.20625 0.034,-0.29062 0.0757,-0.1875 0.0416,0.10313 0.0416,0.27188 0,0.375 -0.0416,0.10313 -0.0757,0.0188 -0.0757,-0.1875 z m 169.45718,0.0375 c -0.18657,-0.23791 -0.18127,-0.24321 0.0566,-0.0566 0.24985,0.19595 0.32932,0.31913 0.20586,0.31913 -0.0311,0 -0.14927,-0.11812 -0.2625,-0.2625 z m -201.25718,-0.1875 c 0,-0.20625 0.034,-0.29062 0.0757,-0.1875 0.0416,0.10313 0.0416,0.27188 0,0.375 -0.0416,0.10313 -0.0757,0.0188 -0.0757,-0.1875 z m 4.50556,-0.075 c 0.003,-0.2475 0.0367,-0.33059 0.0747,-0.18464 0.038,0.14594 0.0355,0.34844 -0.006,0.45 -0.0411,0.10155 -0.0722,-0.0179 -0.0691,-0.26536 z m 45.51879,0.2625 c -0.0634,-0.10237 4.54909,-0.10003 9.87697,0.005 1.155,0.0228 -0.57914,0.0563 -3.85365,0.0744 -3.2745,0.0182 -5.985,-0.0176 -6.02332,-0.0795 z m 156.63283,-0.15 c -0.18657,-0.23791 -0.18128,-0.24321 0.0566,-0.0566 0.24985,0.19595 0.32932,0.31913 0.20586,0.31913 -0.0311,0 -0.14927,-0.11812 -0.2625,-0.2625 z m -170.06902,-0.425 c 0.007,-0.17474 0.0427,-0.21028 0.0906,-0.0906 0.0433,0.10828 0.038,0.23765 -0.0118,0.2875 -0.0498,0.0498 -0.0853,-0.0387 -0.0788,-0.19688 z m -4.93816,-0.3625 c 0,-0.20625 0.0341,-0.29062 0.0757,-0.1875 0.0416,0.10313 0.0416,0.27188 0,0.375 -0.0416,0.10313 -0.0757,0.0188 -0.0757,-0.1875 z m 174.40718,0.0375 c -0.18657,-0.23791 -0.18128,-0.24321 0.0566,-0.0566 0.24985,0.19595 0.32933,0.31913 0.20586,0.31913 -0.0311,0 -0.14927,-0.11812 -0.2625,-0.2625 z m -205.91902,-0.275 c 0.007,-0.17474 0.0427,-0.21028 0.0906,-0.0906 0.0433,0.10828 0.038,0.23765 -0.0118,0.2875 -0.0498,0.0498 -0.0853,-0.0387 -0.0788,-0.19688 z m 4.5174,-0.2875 c 0.003,-0.2475 0.0367,-0.33059 0.0747,-0.18464 0.038,0.14594 0.0355,0.34844 -0.006,0.45 -0.0411,0.10155 -0.0722,-0.0179 -0.0692,-0.26536 z m 31.79444,-0.075 c 0,-0.20625 0.0341,-0.29062 0.0757,-0.1875 0.0416,0.10313 0.0416,0.27188 0,0.375 -0.0416,0.10313 -0.0757,0.0188 -0.0757,-0.1875 z m 169.00718,-0.1125 c -0.18657,-0.23791 -0.18128,-0.24321 0.0566,-0.0566 0.24986,0.19595 0.32933,0.31913 0.20586,0.31913 -0.0311,0 -0.14926,-0.11812 -0.2625,-0.2625 z m -173.95718,-0.3375 c 0,-0.20625 0.034,-0.29062 0.0757,-0.1875 0.0416,0.10313 0.0416,0.27188 0,0.375 -0.0416,0.10313 -0.0757,0.0188 -0.0757,-0.1875 z m -31.2,-0.15 c 0,-0.20625 0.034,-0.29062 0.0757,-0.1875 0.0416,0.10313 0.0416,0.27188 0,0.375 -0.0416,0.10313 -0.0757,0.0187 -0.0757,-0.1875 z m 204.48707,-0.3375 -0.28575,-0.3375 0.3375,0.28575 c 0.31716,0.26853 0.40578,0.38925 0.28575,0.38925 -0.0285,0 -0.18034,-0.15187 -0.3375,-0.3375 z m -168.48707,-0.1125 c 0,-0.20625 0.034,-0.29062 0.0757,-0.1875 0.0416,0.10313 0.0416,0.27188 0,0.375 -0.0416,0.10313 -0.0757,0.0188 -0.0757,-0.1875 z m -31.5,-0.15 c 0,-0.20625 0.034,-0.29062 0.0757,-0.1875 0.0416,0.10313 0.0416,0.27188 0,0.375 -0.0416,0.10313 -0.0757,0.0188 -0.0757,-0.1875 z m 26.55,-0.3 c 0,-0.20625 0.034,-0.29062 0.0757,-0.1875 0.0416,0.10313 0.0416,0.27188 0,0.375 -0.0416,0.10313 -0.0757,0.0188 -0.0757,-0.1875 z m -30.9,-0.15 c 0,-0.20625 0.0341,-0.29062 0.0757,-0.1875 0.0416,0.10313 0.0416,0.27188 0,0.375 -0.0416,0.10313 -0.0757,0.0188 -0.0757,-0.1875 z m 203.65718,-0.1125 c -0.18657,-0.23791 -0.18128,-0.24321 0.0566,-0.0566 0.24985,0.19595 0.32933,0.31913 0.20586,0.31913 -0.0311,0 -0.14927,-0.11812 -0.2625,-0.2625 z m -167.95718,-0.1875 c 0,-0.20625 0.0341,-0.29062 0.0757,-0.1875 0.0416,0.10313 0.0416,0.27188 0,0.375 -0.0416,0.10313 -0.0757,0.0188 -0.0757,-0.1875 z m -31.19444,-0.525 c 0.003,-0.2475 0.0367,-0.33059 0.0747,-0.18464 0.038,0.14594 0.0355,0.34844 -0.006,0.45 -0.0411,0.10155 -0.0722,-0.0179 -0.0692,-0.26536 z m 26.24444,-0.075 c 0,-0.20625 0.0341,-0.29062 0.0757,-0.1875 0.0416,0.10313 0.0416,0.27188 0,0.375 -0.0416,0.10313 -0.0757,0.0188 -0.0757,-0.1875 z m 141.82445,0.1125 c 0.0383,-0.0619 3.20434,-0.1125 7.03572,-0.1125 l 6.96615,0 0,-1.8 0,-1.8 -6.96615,0 c -3.83138,0 -6.99745,-0.0506 -7.03572,-0.1125 -0.0383,-0.0619 3.13025,-0.0943 7.04113,-0.0721 l 7.11074,0.0404 0,1.94426 0,1.94427 -7.11074,0.0404 c -3.91088,0.0222 -7.07941,-0.0103 -7.04113,-0.0721 z m -172.42445,-0.2625 c 0,-0.20625 0.034,-0.29062 0.0757,-0.1875 0.0416,0.10313 0.0416,0.27188 0,0.375 -0.0416,0.10313 -0.0757,0.0188 -0.0757,-0.1875 z m 203.41667,0.046 c 0.14595,-0.038 0.34845,-0.0355 0.45,0.006 0.10157,0.0411 -0.0179,0.0722 -0.26535,0.0691 -0.2475,-0.003 -0.33059,-0.0367 -0.18465,-0.0747 z m -168.01667,-0.34605 c 0,-0.20625 0.034,-0.29062 0.0757,-0.1875 0.0416,0.10313 0.0416,0.27188 0,0.375 -0.0416,0.10313 -0.0757,0.0188 -0.0757,-0.1875 z m 169.14819,0.19753 c 0.10829,-0.0433 0.23766,-0.038 0.28751,0.0118 0.0498,0.0498 -0.0388,0.0853 -0.19687,0.0788 -0.17476,-0.007 -0.21029,-0.0427 -0.0906,-0.0906 z M 305.3225,513.66242 c 0.003,-0.2475 0.0367,-0.33059 0.0747,-0.18464 0.038,0.14594 0.0355,0.34844 -0.006,0.45 -0.0411,0.10155 -0.0722,-0.0179 -0.0691,-0.26536 z m 25.94444,0.075 c 0,-0.20625 0.034,-0.29062 0.0757,-0.1875 0.0416,0.10313 0.0416,0.27188 0,0.375 -0.0416,0.10313 -0.0757,0.0187 -0.0757,-0.1875 z m -30.3,-0.15 c 0,-0.20625 0.034,-0.29062 0.0757,-0.1875 0.0416,0.10313 0.0416,0.27188 0,0.375 -0.0416,0.10313 -0.0757,0.0188 -0.0757,-0.1875 z m 35.08816,-0.2375 c 0.007,-0.17474 0.0427,-0.21028 0.0906,-0.0906 0.0433,0.10828 0.038,0.23765 -0.0118,0.2875 -0.0498,0.0498 -0.0853,-0.0387 -0.0788,-0.19688 z m -4.93816,-0.6625 c 0,-0.20625 0.0341,-0.29062 0.0757,-0.1875 0.0416,0.10313 0.0416,0.27188 0,0.375 -0.0416,0.10313 -0.0757,0.0188 -0.0757,-0.1875 z m -30,-0.15 c 0,-0.20625 0.0341,-0.29062 0.0757,-0.1875 0.0416,0.10313 0.0416,0.27188 0,0.375 -0.0416,0.10313 -0.0757,0.0188 -0.0757,-0.1875 z m 4.35,-0.15 c 0,-0.20625 0.034,-0.29062 0.0757,-0.1875 0.0416,0.10313 0.0416,0.27188 0,0.375 -0.0416,0.10313 -0.0757,0.0188 -0.0757,-0.1875 z m 30.45,0 c 0,-0.20625 0.0341,-0.29062 0.0757,-0.1875 0.0416,0.10313 0.0416,0.27188 0,0.375 -0.0416,0.10313 -0.0757,0.0188 -0.0757,-0.1875 z m 174.42632,0.24337 c 0,-0.0312 0.11812,-0.14928 0.2625,-0.2625 0.23791,-0.18658 0.24321,-0.18128 0.0566,0.0566 -0.19596,0.24986 -0.31914,0.32932 -0.31914,0.20587 z m 1.2,-1.06837 c 0.27987,-0.28875 0.5426,-0.525 0.58384,-0.525 0.0412,0 -0.15397,0.23625 -0.43384,0.525 -0.27987,0.28875 -0.5426,0.525 -0.58385,0.525 -0.0412,0 0.15398,-0.23625 0.43385,-0.525 z m -180.57632,0.075 c 0,-0.20625 0.034,-0.29062 0.0757,-0.1875 0.0416,0.10313 0.0416,0.27188 0,0.375 -0.0416,0.10313 -0.0757,0.0188 -0.0757,-0.1875 z m 169.44384,0.18924 c 0.4359,-0.0304 1.11091,-0.0301 1.5,7.5e-4 0.38912,0.0308 0.0325,0.0557 -0.79252,0.0553 -0.825,-4.5e-4 -1.14336,-0.0256 -0.70748,-0.056 z M 301.2551,511.54992 c 0.007,-0.17474 0.0427,-0.21028 0.0906,-0.0906 0.0433,0.10828 0.038,0.23765 -0.0118,0.2875 -0.0498,0.0498 -0.0853,-0.0387 -0.0788,-0.19688 z m 202.00066,0.13816 c 0.10312,-0.0416 0.27187,-0.0416 0.375,0 0.10312,0.0416 0.0188,0.0757 -0.1875,0.0757 -0.20625,0 -0.29063,-0.0341 -0.1875,-0.0757 z m -167.48882,-0.35066 c 0,-0.20625 0.034,-0.29062 0.0757,-0.1875 0.0416,0.10313 0.0416,0.27188 0,0.375 -0.0416,0.10313 -0.0757,0.0188 -0.0757,-0.1875 z m -30.15,-0.15 c 0,-0.20625 0.0341,-0.29062 0.0757,-0.1875 0.0416,0.10313 0.0416,0.27188 0,0.375 -0.0416,0.10313 -0.0757,0.0188 -0.0757,-0.1875 z m 105.57632,-5.475 0,-5.475 7.35,0 7.35,0 0,-1.87391 0,-1.8739 -9.67501,-0.0403 -9.67501,-0.0403 9.71251,0.002 9.71251,0.002 0,1.95 0,1.95 -7.3125,0.0389 -7.3125,0.0389 0,5.32209 0,5.32209 7.0125,0.0405 7.0125,0.0405 -7.0875,0.036 -7.0875,0.036 0,-5.475 z m -80.37632,5.025 c 0,-0.20625 0.034,-0.29062 0.0757,-0.1875 0.0416,0.10313 0.0416,0.27188 0,0.375 -0.0416,0.10313 -0.0757,0.0187 -0.0757,-0.1875 z m -29.4,-0.15 c 0,-0.20625 0.0341,-0.29062 0.0757,-0.1875 0.0416,0.10313 0.0416,0.27188 0,0.375 -0.0416,0.10313 -0.0757,0.0188 -0.0757,-0.1875 z m 34.2,-0.15 c 0,-0.20625 0.0341,-0.29062 0.0757,-0.1875 0.0416,0.10313 0.0416,0.27188 0,0.375 -0.0416,0.10313 -0.0757,0.0188 -0.0757,-0.1875 z m -29.84444,-0.525 c 0.003,-0.2475 0.0367,-0.33059 0.0747,-0.18464 0.038,0.14594 0.0355,0.34844 -0.006,0.45 -0.0411,0.10155 -0.0722,-0.0179 -0.0691,-0.26536 z m 24.89444,-0.225 c 0,-0.20625 0.0341,-0.29062 0.0757,-0.1875 0.0416,0.10313 0.0416,0.27188 0,0.375 -0.0416,0.10313 -0.0757,0.0188 -0.0757,-0.1875 z m -29.1,-0.15 c 0,-0.20625 0.034,-0.29062 0.0757,-0.1875 0.0416,0.10313 0.0416,0.27188 0,0.375 -0.0416,0.10313 -0.0757,0.0188 -0.0757,-0.1875 z m 33.9,-0.15 c 0,-0.20625 0.034,-0.29062 0.0757,-0.1875 0.0416,0.10313 0.0416,0.27188 0,0.375 -0.0416,0.10313 -0.0757,0.0188 -0.0757,-0.1875 z m 51.42632,-0.0589 c 0,-0.0324 0.10476,-0.0992 0.23279,-0.14828 0.13349,-0.0512 0.1937,-0.0261 0.14115,0.0589 -0.0881,0.14253 -0.37394,0.21082 -0.37394,0.0893 z m 121.05,0.002 c 0,-0.0311 0.11812,-0.14927 0.2625,-0.2625 0.23791,-0.18658 0.24321,-0.18127 0.0566,0.0566 -0.19596,0.24986 -0.31914,0.32932 -0.31914,0.20586 z M 305.9225,508.71215 c 0.003,-0.2475 0.0367,-0.33059 0.0747,-0.18464 0.038,0.14594 0.0355,0.34844 -0.006,0.45 -0.0411,0.10155 -0.0722,-0.0179 -0.0692,-0.26536 z m -4.20556,-0.225 c 0,-0.20625 0.034,-0.29062 0.0757,-0.1875 0.0416,0.10313 0.0416,0.27188 0,0.375 -0.0416,0.10313 -0.0757,0.0187 -0.0757,-0.1875 z m 28.8,0 c 0,-0.20625 0.034,-0.29062 0.0757,-0.1875 0.0416,0.10313 0.0416,0.27188 0,0.375 -0.0416,0.10313 -0.0757,0.0187 -0.0757,-0.1875 z m 4.78816,-0.0875 c 0.007,-0.17474 0.0427,-0.21028 0.0906,-0.0906 0.0433,0.10828 0.038,0.23765 -0.0118,0.2875 -0.0498,0.0498 -0.0853,-0.0387 -0.0788,-0.19688 z m -29.2326,-0.8875 c 0.003,-0.2475 0.0367,-0.33059 0.0747,-0.18464 0.038,0.14594 0.0355,0.34844 -0.006,0.45 -0.0411,0.10155 -0.0722,-0.0179 -0.0691,-0.26536 z m -4.20556,-0.075 c 0,-0.20625 0.0341,-0.29062 0.0757,-0.1875 0.0416,0.10313 0.0416,0.27188 0,0.375 -0.0416,0.10313 -0.0757,0.0188 -0.0757,-0.1875 z m 28.5,0 c 0,-0.20625 0.0341,-0.29062 0.0757,-0.1875 0.0416,0.10313 0.0416,0.27188 0,0.375 -0.0416,0.10313 -0.0757,0.0188 -0.0757,-0.1875 z m 4.8,0 c 0,-0.20625 0.0341,-0.29062 0.0757,-0.1875 0.0416,0.10313 0.0416,0.27188 0,0.375 -0.0416,0.10313 -0.0757,0.0188 -0.0757,-0.1875 z m 178.63816,0.0625 c 0.007,-0.17474 0.0427,-0.21028 0.0906,-0.0906 0.0433,0.10828 0.038,0.23765 -0.0118,0.2875 -0.0498,0.0498 -0.0853,-0.0387 -0.0788,-0.19688 z m 0.16184,-0.8125 c 0,-0.20625 0.034,-0.29062 0.0757,-0.1875 0.0416,0.10313 0.0416,0.27188 0,0.375 -0.0416,0.10313 -0.0757,0.0188 -0.0757,-0.1875 z m -211.95,-0.3 c 0,-0.20625 0.034,-0.29062 0.0757,-0.1875 0.0416,0.10313 0.0416,0.27188 0,0.375 -0.0416,0.10313 -0.0757,0.0188 -0.0757,-0.1875 z m 33,0 c 0,-0.20625 0.034,-0.29062 0.0757,-0.1875 0.0416,0.10313 0.0416,0.27188 0,0.375 -0.0416,0.10313 -0.0757,0.0188 -0.0757,-0.1875 z m 174.17675,-0.75 c 0,-0.61875 0.0265,-0.87187 0.0588,-0.5625 0.0324,0.30938 0.0324,0.81563 0,1.125 -0.0324,0.30938 -0.0588,0.0562 -0.0588,-0.5625 z m -202.97119,0.525 c 0.003,-0.2475 0.0367,-0.33059 0.0747,-0.18464 0.038,0.14594 0.0355,0.34844 -0.006,0.45 -0.0411,0.10155 -0.0722,-0.0179 -0.0691,-0.26536 z m 23.99444,0.075 c 0,-0.20625 0.034,-0.29062 0.0757,-0.1875 0.0416,0.10313 0.0416,0.27188 0,0.375 -0.0416,0.10313 -0.0757,0.0187 -0.0757,-0.1875 z m -28.05,-0.75 c 0,-0.20625 0.0341,-0.29062 0.0757,-0.1875 0.0416,0.10313 0.0416,0.27188 0,0.375 -0.0416,0.10313 -0.0757,0.0187 -0.0757,-0.1875 z m 32.68816,-0.0875 c 0.007,-0.17474 0.0427,-0.21028 0.0906,-0.0906 0.0433,0.10828 0.038,0.23765 -0.0118,0.2875 -0.0498,0.0498 -0.0853,-0.0387 -0.0788,-0.19688 z m 179.27599,-0.2875 c 0.002,-0.33 0.0324,-0.44734 0.0683,-0.26075 0.0359,0.18659 0.0345,0.45659 -0.003,0.6 -0.0376,0.14341 -0.0669,-0.009 -0.0652,-0.33925 z m -184.05859,0 c 0.003,-0.2475 0.0367,-0.33059 0.0747,-0.18464 0.038,0.14594 0.0355,0.34844 -0.006,0.45 -0.0411,0.10155 -0.0722,-0.0179 -0.0691,-0.26536 z m -23.69444,-0.375 c 0,-0.28875 0.0309,-0.40687 0.0686,-0.2625 0.0377,0.14438 0.0377,0.38063 0,0.525 -0.0377,0.14438 -0.0686,0.0263 -0.0686,-0.2625 z m -4.06112,-0.3 c 0,-0.20625 0.034,-0.29062 0.0757,-0.1875 0.0416,0.10313 0.0416,0.27188 0,0.375 -0.0416,0.10313 -0.0757,0.0188 -0.0757,-0.1875 z m 32.4,0 c 0,-0.20625 0.034,-0.29062 0.0757,-0.1875 0.0416,0.10313 0.0416,0.27188 0,0.375 -0.0416,0.10313 -0.0757,0.0188 -0.0757,-0.1875 z m -27.76184,-0.2375 c 0.007,-0.17474 0.0427,-0.21028 0.0906,-0.0906 0.0433,0.10828 0.038,0.23765 -0.0119,0.2875 -0.0498,0.0498 -0.0853,-0.0387 -0.0788,-0.19688 z m 202.04999,-0.15 c 0.007,-0.17474 0.0428,-0.21028 0.0906,-0.0906 0.0433,0.10828 0.038,0.23765 -0.0118,0.2875 -0.0498,0.0498 -0.0853,-0.0387 -0.0788,-0.19688 z m -179.08259,-0.2875 c 0.003,-0.2475 0.0367,-0.33059 0.0747,-0.18464 0.038,0.14594 0.0355,0.34844 -0.006,0.45 -0.0411,0.10155 -0.0722,-0.0179 -0.0691,-0.26536 z m -27.45556,-0.375 c 0,-0.20625 0.034,-0.29062 0.0757,-0.1875 0.0416,0.10313 0.0416,0.27188 0,0.375 -0.0416,0.10313 -0.0757,0.0188 -0.0757,-0.1875 z m 32.1,0 c 0,-0.20625 0.034,-0.29062 0.0757,-0.1875 0.0416,0.10313 0.0416,0.27188 0,0.375 -0.0416,0.10313 -0.0757,0.0188 -0.0757,-0.1875 z m 179.38815,0.0625 c 0.007,-0.17474 0.0427,-0.21028 0.0906,-0.0906 0.0433,0.10828 0.038,0.23765 -0.0119,0.2875 -0.0498,0.0498 -0.0853,-0.0387 -0.0788,-0.19688 z m -207.45129,-0.325 c -0.006,-0.26812 0.057,-0.4875 0.13946,-0.4875 0.17808,0 0.17808,0.2606 0,0.675 -0.10803,0.2514 -0.13062,0.22103 -0.13946,-0.1875 z m 23.08946,-0.25365 c 0,-0.11888 0.0612,-0.25397 0.13601,-0.3002 0.0748,-0.0462 0.10068,0.051 0.0575,0.21614 -0.0916,0.35025 -0.19352,0.39453 -0.19352,0.0841 z m 4.82368,-0.38385 c 0,-0.20625 0.0341,-0.29062 0.0757,-0.1875 0.0416,0.10313 0.0416,0.27188 0,0.375 -0.0416,0.10313 -0.0757,0.0187 -0.0757,-0.1875 z m -31.8,-0.15 c 0,-0.20625 0.0341,-0.29062 0.0757,-0.1875 0.0416,0.10313 0.0416,0.27188 0,0.375 -0.0416,0.10313 -0.0757,0.0188 -0.0757,-0.1875 z m 53.68816,-0.2375 c 0.007,-0.17474 0.0427,-0.21028 0.0906,-0.0906 0.0433,0.10828 0.038,0.23765 -0.0118,0.2875 -0.0498,0.0498 -0.0853,-0.0387 -0.0788,-0.19688 z m 151.47681,-0.325 -0.36365,-0.4125 0.4125,0.36365 c 0.22687,0.2 0.4125,0.38563 0.4125,0.4125 0,0.11764 -0.12147,0.0219 -0.46135,-0.36365 z m -173.51497,-0.3375 c 0,-0.20625 0.034,-0.29062 0.0757,-0.1875 0.0416,0.10313 0.0416,0.27188 0,0.375 -0.0416,0.10313 -0.0757,0.0188 -0.0757,-0.1875 z m -31.5,-0.15 c 0,-0.20625 0.034,-0.29062 0.0757,-0.1875 0.0416,0.10313 0.0416,0.27188 0,0.375 -0.0416,0.10313 -0.0757,0.0188 -0.0757,-0.1875 z m 31.33816,-0.8375 c 0.007,-0.17474 0.0427,-0.21028 0.0906,-0.0906 0.0433,0.10828 0.038,0.23765 -0.0118,0.2875 -0.0498,0.0498 -0.0853,-0.0387 -0.0788,-0.19688 z m -31.2,-0.15 c 0.007,-0.17474 0.0427,-0.21028 0.0906,-0.0906 0.0433,0.10828 0.038,0.23765 -0.0119,0.2875 -0.0498,0.0498 -0.0853,-0.0387 -0.0788,-0.19688 z m 200.80066,-0.16184 c 0.10312,-0.0416 0.27188,-0.0416 0.375,0 0.10312,0.0416 0.0187,0.0757 -0.1875,0.0757 -0.20625,0 -0.29062,-0.0341 -0.1875,-0.0757 z m -2.54732,-0.15937 c 0.26961,-0.0334 0.67462,-0.0327 0.9,0.002 0.22541,0.0342 0.005,0.0615 -0.49018,0.0607 -0.495,-9e-4 -0.67941,-0.0288 -0.40982,-0.0622 z m -167.1915,-0.49129 c 0,-0.20625 0.034,-0.29062 0.0757,-0.1875 0.0416,0.10313 0.0416,0.27188 0,0.375 -0.0416,0.10313 -0.0757,0.0187 -0.0757,-0.1875 z m -30.9,-0.15 c 0,-0.20625 0.034,-0.29062 0.0757,-0.1875 0.0416,0.10313 0.0416,0.27188 0,0.375 -0.0416,0.10313 -0.0757,0.0188 -0.0757,-0.1875 z m 208.76825,-0.2625 -0.51693,-0.5625 0.5625,0.51693 c 0.52356,0.48114 0.63147,0.60807 0.51693,0.60807 -0.0251,0 -0.27819,-0.25312 -0.5625,-0.5625 z m -178.01825,-0.6375 c 0,-0.20625 0.034,-0.29062 0.0757,-0.1875 0.0416,0.10313 0.0416,0.27188 0,0.375 -0.0416,0.10313 -0.0757,0.0188 -0.0757,-0.1875 z m -30.6,-0.15 c 0,-0.20625 0.034,-0.29062 0.0757,-0.1875 0.0416,0.10313 0.0416,0.27188 0,0.375 -0.0416,0.10313 -0.0757,0.0188 -0.0757,-0.1875 z m 30.43816,-0.8375 c 0.007,-0.17474 0.0427,-0.21028 0.0906,-0.0906 0.0433,0.10828 0.038,0.23765 -0.0118,0.2875 -0.0498,0.0498 -0.0853,-0.0387 -0.0788,-0.19688 z m -30.28816,-0.2125 c 0,-0.20625 0.0341,-0.29062 0.0757,-0.1875 0.0416,0.10313 0.0416,0.27188 0,0.375 -0.0416,0.10313 -0.0757,0.0187 -0.0757,-0.1875 z m 30.12632,-0.58114 c 0,-0.13681 -0.71255,-0.17047 -2.9109,-0.1375 -1.60099,0.024 -2.87951,-0.007 -2.84115,-0.0689 0.11319,-0.18256 5.71925,-0.13693 5.83322,0.0475 0.0544,0.088 0.0584,0.20049 0.009,0.25 -0.0495,0.0495 -0.09,0.009 -0.09,-0.0911 z m 40.15,0.0311 c -0.29239,-0.29239 0.13251,-0.35 2.58163,-0.35 2.37827,0 2.70411,0.0297 2.88027,0.2625 0.16898,0.22332 0.16725,0.23451 -0.0116,0.075 -0.26577,-0.237 -5.47122,-0.27365 -5.32527,-0.0375 0.10493,0.16977 0.0262,0.20124 -0.125,0.05 z m 21.18087,-0.0875 c 0.18407,-0.23471 0.48574,-0.25893 2.85,-0.22878 l 2.64413,0.0337 -2.61404,0.0449 c -1.77292,0.0305 -2.68996,0.1041 -2.84999,0.22879 -0.20811,0.16214 -0.21167,0.15285 -0.0301,-0.0787 z m 112.34101,0.085 c 0.10828,-0.0433 0.23766,-0.038 0.2875,0.0118 0.0498,0.0498 -0.0388,0.0853 -0.19688,0.0788 -0.17474,-0.007 -0.21028,-0.0427 -0.0906,-0.0906 z m -150.79688,-0.19753 -2.7,-0.0855 2.65365,-0.0323 c 1.64302,-0.02 2.68895,0.0249 2.74635,0.11776 0.051,0.0825 0.0719,0.13549 0.0464,0.11776 -0.0255,-0.0177 -1.26135,-0.0707 -2.74635,-0.11776 z m -51.40452,-0.11197 c 0.85001,-0.0268 2.20001,-0.0267 3,3e-4 0.79999,0.0269 0.10452,0.0488 -1.54548,0.0487 -1.65,-1.3e-4 -2.30453,-0.0222 -1.45452,-0.0489 z m 200.54202,0.0126 c 0.10312,-0.0416 0.27187,-0.0416 0.375,0 0.10312,0.0416 0.0188,0.0757 -0.1875,0.0757 -0.20625,0 -0.29063,-0.0341 -0.1875,-0.0757 z m -8.54412,-0.16187 c 0.51885,-0.0294 1.32885,-0.0291 1.8,6e-4 0.47114,0.0297 0.0466,0.0537 -0.94338,0.0534 -0.99,-3e-4 -1.37549,-0.0246 -0.85662,-0.054 z m 6.67118,0.004 c 0.22801,-0.0345 0.56551,-0.0336 0.75,0.002 0.18449,0.0356 -0.002,0.0638 -0.41456,0.0627 -0.4125,-10e-4 -0.56345,-0.0303 -0.33544,-0.0647 z"
       style="fill:#a4a4a4" />
    <path
       inkscape:connector-curvature="0"
       id="path3455"
       d="m 340.54874,575.81106 c -0.80599,-0.23125 -1.36415,-0.70785 -1.70995,-1.46006 -0.28207,-0.6136 -0.32242,-1.02057 -0.36943,-3.72633 l -0.0528,-3.0375 0.52243,0 0.52242,0 0.0618,2.8875 c 0.0654,3.05385 0.18058,3.62746 0.84776,4.22188 0.45049,0.40136 1.64073,0.49218 2.25917,0.17237 0.90336,-0.46714 1.056,-1.10005 1.05976,-4.39425 l 0.003,-2.8875 0.525,0 0.525,0 -9e-4,2.8875 c -4.5e-4,1.6432 -0.0723,3.14606 -0.16659,3.4875 -0.40993,1.48384 -2.29038,2.34718 -4.02709,1.84889 z m 50.23993,-0.0453 c -1.64167,-0.52774 -2.56909,-1.96399 -2.56909,-3.97858 0,-1.45064 0.39353,-2.44965 1.29079,-3.27671 1.5457,-1.42477 4.10723,-1.32552 5.46022,0.21156 1.36015,1.54521 1.34708,4.38452 -0.0277,6.01069 -0.83798,0.99125 -2.78115,1.47446 -4.15425,1.03304 z m 2.30813,-0.88494 c 1.00172,-0.41855 1.74646,-1.76975 1.74646,-3.16864 0,-2.34423 -1.82309,-3.92718 -3.70274,-3.21501 -1.84924,0.70066 -2.45795,3.91683 -1.06187,5.61052 0.76689,0.93038 1.92921,1.22811 3.01815,0.77313 z m 40.14646,0.87514 c -1.79632,-0.50066 -2.847,-1.94036 -2.84916,-3.90405 -0.003,-2.51824 1.72418,-4.27846 4.2396,-4.32127 0.59651,-0.0102 1.34394,0.0364 1.66096,0.10345 0.53278,0.11268 0.56875,0.15239 0.47531,0.52469 -0.0556,0.22153 -0.11711,0.41881 -0.13669,0.43838 -0.0196,0.0196 -0.40222,-0.0412 -0.85031,-0.13506 -1.65714,-0.34714 -3.25888,0.29695 -3.86809,1.55543 -0.421,0.86966 -0.43754,2.47488 -0.0346,3.36207 0.61974,1.36472 2.27986,1.99213 4.13382,1.56229 0.32768,-0.076 0.60617,-0.12498 0.61886,-0.10892 0.0127,0.0161 0.0697,0.18104 0.12679,0.3666 0.084,0.27321 0.0287,0.3659 -0.29065,0.48731 -0.73043,0.27771 -2.35261,0.31245 -3.22579,0.0691 z m 19.15084,0.026 c -1.76793,-0.49875 -2.81661,-1.89648 -2.84146,-3.78726 -0.0262,-1.99397 0.76097,-3.31614 2.43063,-4.08255 0.68223,-0.31316 1.05452,-0.38177 2.03499,-0.37503 0.66,0.005 1.38426,0.083 1.60947,0.1743 0.34663,0.14058 0.38948,0.21859 0.27923,0.50843 -0.0816,0.21457 -0.23447,0.32752 -0.40948,0.30261 -2.15869,-0.30731 -2.95094,-0.14642 -3.88665,0.78929 -0.8851,0.8851 -1.18201,2.22202 -0.79947,3.59997 0.22879,0.82412 1.2274,1.79518 2.08448,2.02699 0.63438,0.17158 1.92097,0.13172 2.64008,-0.0818 0.25774,-0.0765 0.33202,-0.0192 0.39378,0.30382 0.0616,0.32219 0.005,0.42536 -0.2992,0.54083 -0.66543,0.25299 -2.46602,0.29772 -3.2364,0.0804 z m 7.22858,0.0994 c -0.82613,-0.12709 -1.95419,-0.97953 -2.44046,-1.8442 -0.42816,-0.76134 -0.46396,-0.93494 -0.46396,-2.25 0,-1.30118 0.0391,-1.49622 0.45,-2.24466 1.10481,-2.0124 3.52101,-2.64859 5.50042,-1.44826 1.07685,0.65301 1.64678,1.68679 1.74122,3.15841 0.20058,3.12544 -1.82541,5.08435 -4.78722,4.62871 z m 2.19558,-1.13416 c 1.91679,-1.07032 1.91191,-4.98233 -0.008,-6.06954 -0.74285,-0.42076 -1.68897,-0.43764 -2.46077,-0.0439 -2.10394,1.07335 -2.10975,5.05792 -0.009,6.17537 0.71305,0.3793 1.73278,0.3538 2.47733,-0.0619 z m 23.4,1.10878 c -1.00665,-0.26111 -1.75172,-0.97576 -2.0184,-1.93597 -0.0852,-0.30682 -0.15531,-1.85722 -0.15576,-3.44535 l -8.4e-4,-2.8875 0.51395,0 0.51394,0 0.0486,3.0375 c 0.0429,2.68249 0.0824,3.09342 0.33802,3.51591 0.6585,1.08831 2.29301,1.28249 3.1089,0.36934 0.61267,-0.6857 0.72487,-1.34432 0.72579,-4.26025 l 8.4e-4,-2.6625 0.53811,0 0.53811,0 -0.0506,3.1125 c -0.0487,2.9954 -0.0647,3.13704 -0.42401,3.76471 -0.21535,0.37619 -0.62979,0.80248 -0.97927,1.00729 -0.66159,0.38771 -1.96712,0.57373 -2.69733,0.38432 z m -185.62543,-0.42181 c -7e-4,-0.69211 0.45965,-7.14398 0.53582,-7.50951 0.06,-0.28787 0.16685,-0.3375 0.72672,-0.3375 l 0.6564,0 0.90237,2.4375 c 0.4963,1.34063 1.01639,2.83238 1.15575,3.315 0.13936,0.48262 0.30437,0.82012 0.36669,0.75 0.0623,-0.0701 0.23064,-0.49875 0.37403,-0.9525 0.14339,-0.45375 0.66973,-1.8914 1.16963,-3.19478 l 0.90892,-2.36978 0.68955,0.0448 0.68955,0.0448 0.17392,2.7 c 0.0957,1.485 0.21785,3.32438 0.27155,4.0875 l 0.0976,1.3875 -0.52058,0 -0.52059,0 -0.0965,-1.2375 c -0.0531,-0.68062 -0.14774,-2.28375 -0.21029,-3.5625 -0.0626,-1.27875 -0.15202,-2.22375 -0.19881,-2.1 -0.0468,0.12375 -0.62144,1.67625 -1.277,3.45 -1.1778,3.18681 -1.19735,3.22554 -1.65094,3.27073 -0.45009,0.0448 -0.4684,0.02 -0.94158,-1.275 -0.26541,-0.7264 -0.79626,-2.2634 -1.17966,-3.41556 -0.62357,-1.87387 -0.70196,-2.03209 -0.74319,-1.5 -0.0253,0.32716 -0.12659,1.87733 -0.225,3.44483 l -0.17891,2.85 -0.4875,0.047 c -0.44554,0.043 -0.48754,0.0107 -0.48793,-0.375 z m 9.9076,0.21549 c 0.004,-0.10312 0.63604,-1.9425 1.40466,-4.0875 l 1.39749,-3.9 0.66166,-0.0443 0.66166,-0.0443 1.40553,3.94434 c 0.77304,2.16939 1.43667,4.02872 1.47473,4.13184 0.0479,0.12977 -0.11085,0.1875 -0.51557,0.1875 l -0.58476,0 -0.44359,-1.27969 -0.44359,-1.2797 -1.5752,0.0422 -1.57519,0.0422 -0.42949,1.2375 c -0.42407,1.22186 -0.43592,1.2375 -0.9375,1.2375 -0.31023,0 -0.50522,-0.073 -0.50084,-0.1875 z m 4.3387,-4.39856 c -0.2331,-0.62484 -0.50904,-1.46859 -0.6132,-1.875 -0.18612,-0.7262 -0.42953,-0.99223 -0.43593,-0.47644 -0.002,0.14438 -0.23804,0.93191 -0.525,1.75007 -0.28695,0.81816 -0.52174,1.54379 -0.52174,1.6125 0,0.0687 0.56693,0.12493 1.25985,0.12493 l 1.25984,0 -0.42382,-1.13606 z m 3.45413,4.50942 c 0,-0.0729 0.82122,-1.4073 1.99559,-3.24254 l 0.5402,-0.84419 -1.16165,-1.85581 c -0.63891,-1.0207 -1.21345,-1.94019 -1.27675,-2.04332 -0.0852,-0.13887 0.0525,-0.18713 0.53126,-0.18607 l 0.64635,0.001 0.96198,1.6541 c 0.52908,0.90975 1.00614,1.60098 1.06012,1.53607 0.054,-0.0649 0.48737,-0.78044 0.9631,-1.59006 0.47573,-0.80962 0.95413,-1.50625 1.0631,-1.54807 0.10898,-0.0418 0.40741,-0.0544 0.66319,-0.028 l 0.46505,0.0481 -1.05873,1.575 c -1.74196,2.59138 -1.71669,2.09675 -0.22692,4.44069 0.70626,1.11119 1.28411,2.05162 1.28411,2.08983 0,0.0382 -0.26461,0.0695 -0.58803,0.0695 -0.58744,0 -0.58901,-0.002 -1.59368,-1.65 -0.55311,-0.9075 -1.05858,-1.65 -1.12326,-1.65 -0.0647,0 -0.53495,0.7425 -1.04503,1.65 l -0.92741,1.65 -0.5863,0 c -0.32246,-8e-5 -0.58629,-0.0346 -0.58629,-0.0767 z m 7.8,-4.05741 0,-4.13406 0.5625,0.0466 0.5625,0.0465 0.0399,4.0875 0.0399,4.0875 -0.60241,0 -0.60241,0 0,-4.13405 z m 2.92268,3.42155 c 0.0927,-0.79557 0.52732,-6.75726 0.52732,-7.23311 0,-0.26318 0.0966,-0.30439 0.71334,-0.30439 l 0.71334,0 0.43152,1.1625 c 0.23734,0.63938 0.75194,2.09373 1.14356,3.2319 0.39162,1.13817 0.74769,2.10505 0.79126,2.14862 0.0436,0.0436 0.18477,-0.28015 0.31376,-0.71939 0.12899,-0.43925 0.66553,-1.91238 1.1923,-3.27363 l 0.95776,-2.475 0.68097,-0.0451 0.68097,-0.0451 0.0873,0.87008 c 0.048,0.47855 0.15805,2.11883 0.24453,3.64508 0.0865,1.52625 0.1856,2.99824 0.22027,3.27108 0.0623,0.48983 0.0561,0.49549 -0.49141,0.45 l -0.55446,-0.0461 -0.17414,-3.075 c -0.0958,-1.69125 -0.18523,-3.2775 -0.19879,-3.525 -0.019,-0.34729 -0.12526,-0.15898 -0.46544,0.825 -0.24244,0.70125 -0.82115,2.27063 -1.28604,3.4875 -0.818,2.14118 -0.85915,2.2125 -1.27663,2.2125 -0.51031,0 -0.40357,0.22764 -1.78159,-3.79938 l -1.01781,-2.97439 -0.0821,0.79939 c -0.0452,0.43966 -0.12044,1.60938 -0.16728,2.59938 -0.0468,0.99 -0.12538,2.18813 -0.17453,2.6625 l -0.0894,0.8625 -0.51079,0 -0.51079,0 0.083,-0.7125 z m 18.52975,0.525 c 0.001,-0.10312 0.13589,-1.9425 0.29901,-4.0875 0.16311,-2.145 0.29702,-3.92057 0.29756,-3.94572 6e-4,-0.0251 0.31682,-0.0251 0.70283,0 l 0.70182,0.0457 0.86182,2.325 c 0.474,1.27875 0.9782,2.74688 1.12044,3.2625 0.14224,0.51563 0.31074,0.9375 0.37444,0.9375 0.0637,0 0.16384,-0.21937 0.22254,-0.4875 0.1102,-0.50341 1.92434,-5.35889 2.18235,-5.84096 0.10693,-0.19981 0.32224,-0.27154 0.81504,-0.27154 0.62984,0 0.66991,0.0246 0.67288,0.4125 0.002,0.22688 0.10197,1.83 0.22273,3.5625 0.31438,4.5104 0.33002,4.275 -0.28402,4.275 l -0.50814,0 -0.10995,-2.1375 c -0.16601,-3.22725 -0.30946,-4.86273 -0.40458,-4.6125 -0.047,0.12375 -0.61527,1.65938 -1.26275,3.4125 l -1.17724,3.1875 -0.46444,0 c -0.39043,0 -0.4905,-0.0777 -0.62799,-0.4875 -0.74507,-2.22084 -2.12279,-6.14851 -2.17508,-6.2008 -0.0357,-0.0357 -0.11018,0.9314 -0.16545,2.14917 -0.0553,1.21777 -0.14325,2.77101 -0.1955,3.45163 l -0.095,1.2375 -0.50287,0 c -0.30359,0 -0.50191,-0.0743 -0.50044,-0.1875 z m 15.89757,-3.8557 0,-4.0432 0.51931,-0.0974 c 0.28562,-0.0536 1.07875,-0.0715 1.7625,-0.0397 2.11553,0.0982 2.96819,0.78949 2.96819,2.40659 0,1.57609 -1.00183,2.39874 -3.0375,2.49421 l -1.1625,0.0545 0,1.63412 0,1.63411 -0.525,0 -0.525,0 0,-4.0432 z m 3.15273,-0.25039 c 0.68911,-0.27573 1.04727,-0.8242 1.04727,-1.60373 0,-0.95807 -0.88107,-1.59952 -2.20023,-1.60184 -0.92933,-0.002 -0.94977,0.0353 -0.94977,1.71521 0,0.84367 0.045,1.57895 0.1,1.63395 0.18718,0.18718 1.39193,0.1008 2.00273,-0.14359 z m 3.63236,0.20609 0.0399,-4.0875 2.2875,-0.0414 2.2875,-0.0414 0,0.45391 0,0.4539 -1.725,0 -1.725,0 0,1.35 0,1.35 1.65,0 1.65,0 0,0.375 0,0.375 -1.65,0 -1.65,0 0,1.5 0,1.5 1.875,0 1.875,0 0,0.45 0,0.45 -2.47741,0 -2.47741,0 0.0399,-4.0875 z m 6.26491,0.0562 0,-4.03125 0.46875,-0.0937 c 0.76475,-0.15295 2.74731,-0.10684 3.29637,0.0767 0.67658,0.22613 1.28972,0.81324 1.49322,1.42985 0.30626,0.92798 -0.1744,2.05211 -1.06106,2.48153 l -0.46227,0.22389 0.37722,0.24716 c 0.20747,0.13594 0.45386,0.39038 0.54754,0.56543 0.15742,0.29413 0.88414,2.76399 0.88837,3.01923 10e-4,0.0619 -0.22916,0.1125 -0.51151,0.1125 -0.56474,0 -0.54182,0.0408 -1.06888,-1.90221 -0.33788,-1.24563 -0.71883,-1.58564 -1.86981,-1.66889 l -0.89794,-0.065 0,1.81802 0,1.81803 -0.6,0 -0.6,0 0,-4.03125 z m 3.19736,-0.48749 c 0.73671,-0.37943 1.00264,-0.76124 1.00264,-1.43957 0,-0.5135 -0.0846,-0.73439 -0.3893,-1.0168 -0.4013,-0.37192 -1.31155,-0.58926 -2.09452,-0.50012 l -0.44118,0.0502 -0.0427,1.5375 -0.0428,1.5375 0.84011,0 c 0.46206,0 0.98755,-0.0759 1.16775,-0.16874 z m 3.70264,0.39374 0,-4.125 2.325,0 2.325,0 0,0.45 0,0.45 -1.725,0 -1.725,0 0,1.35 0,1.35 1.575,0 1.575,0 0,0.45 0,0.45 -1.575,0 -1.575,0 0,1.875 0,1.875 -0.6,0 -0.6,0 0,-4.125 z m 15.15,0.0925 0,-4.03251 0.3375,-0.0904 c 0.58244,-0.15609 2.67604,-0.10253 3.30002,0.0844 1.2218,0.36606 1.83646,1.48196 1.47705,2.68156 -0.15419,0.51465 -0.37381,0.74947 -1.35552,1.44936 -0.0363,0.0259 0.0813,0.15017 0.26134,0.27626 0.44844,0.3141 0.61642,0.66722 1.08288,2.27635 l 0.40221,1.3875 -0.57355,0 c -0.6331,0 -0.52328,0.20953 -1.18397,-2.25898 -0.22858,-0.85407 -0.75307,-1.23639 -1.80001,-1.31212 l -0.89795,-0.065 0,1.81802 0,1.81803 -0.525,0 -0.525,0 0,-4.0325 z m 3.22824,-0.55409 c 0.2951,-0.14003 0.60102,-0.45248 0.7496,-0.76557 0.51723,-1.08998 -0.38258,-2.14706 -1.82807,-2.1476 -1.09498,-4.5e-4 -1.09977,0.007 -1.09977,1.66581 l 0,1.48395 0.83983,0 c 0.46191,0 1.06419,-0.10646 1.33841,-0.23659 z m 3.37419,4.39909 c 10e-4,-0.10312 0.13589,-1.9425 0.29901,-4.0875 0.16311,-2.145 0.29702,-3.92057 0.29756,-3.94572 6e-4,-0.0251 0.3177,-0.0251 0.70477,0 l 0.70376,0.0457 0.93788,2.55 c 0.51584,1.4025 1.0219,2.87063 1.12459,3.2625 0.21888,0.83526 0.36523,0.89946 0.51289,0.225 0.1102,-0.50341 1.92434,-5.35889 2.18235,-5.84096 0.10693,-0.19981 0.32224,-0.27154 0.81504,-0.27154 0.63008,0 0.66985,0.0244 0.6719,0.4125 10e-4,0.22688 0.10147,1.79625 0.22282,3.4875 0.12135,1.69125 0.22162,3.36188 0.22282,3.7125 0.002,0.62369 -0.009,0.6375 -0.50081,0.6375 l -0.50298,0 -0.0958,-1.6875 c -0.0527,-0.92812 -0.14064,-2.52196 -0.19548,-3.54186 l -0.0997,-1.85436 -0.3504,0.95436 c -2.2139,6.02985 -2.19119,5.97936 -2.68934,5.97936 -0.38882,0 -0.48921,-0.0781 -0.62656,-0.4875 -0.74439,-2.21883 -2.12277,-6.14849 -2.17497,-6.20069 -0.0357,-0.0357 -0.10896,0.93147 -0.16289,2.14918 -0.0539,1.21771 -0.14201,2.77089 -0.19572,3.45151 l -0.0977,1.2375 -0.50277,0 c -0.30351,0 -0.50181,-0.0743 -0.50034,-0.1875 z m 9.89757,0.1295 c 0,-0.0419 0.64125,-1.88083 1.425,-4.08659 0.78375,-2.20576 1.425,-4.03184 1.425,-4.05794 0,-0.0261 0.29556,-0.0475 0.6568,-0.0475 0.57658,0 0.67692,0.0504 0.82151,0.4125 0.37402,0.93673 2.72169,7.59658 2.72169,7.72087 0,0.0741 -0.24576,0.11379 -0.54614,0.0882 -0.5382,-0.0459 -0.55267,-0.0646 -0.99452,-1.28406 l -0.44838,-1.2375 -1.54308,0 -1.54307,0 -0.2378,0.6375 c -0.1308,0.35063 -0.32838,0.9075 -0.43908,1.2375 -0.18045,0.53792 -0.25801,0.60482 -0.7496,0.64656 -0.30158,0.0256 -0.54833,0.0123 -0.54833,-0.0296 z m 4.72327,-3.6545 c -0.0599,-0.14437 -0.35884,-0.99587 -0.66442,-1.89221 l -0.55559,-1.62972 -0.57123,1.70472 c -0.31417,0.93759 -0.60337,1.78909 -0.64267,1.89221 -0.0538,0.14112 0.25185,0.1875 1.23564,0.1875 1.18631,0 1.29704,-0.0242 1.19827,-0.2625 z m 3.67673,-0.4125 0,-4.125 0.59735,0 0.59735,0 1.3825,2.0625 c 0.76038,1.13438 1.73413,2.65606 2.1639,3.38152 l 0.78139,1.31902 -0.0238,-3.34402 -0.0237,-3.34402 0.4875,-0.047 0.4875,-0.047 0,4.13451 0,4.1345 -0.52204,0 c -0.50056,0 -0.57274,-0.0756 -1.75458,-1.8375 -0.6779,-1.01062 -1.65798,-2.53805 -2.17796,-3.39428 l -0.94542,-1.55679 0,3.39429 0,3.39428 -0.525,0 -0.525,0 0,-4.125 z m 15.9,-0.004 0,-4.12891 2.2875,0.0414 2.2875,0.0414 0.0475,0.4125 0.0475,0.4125 -1.81581,0 -1.8158,0 0.0433,1.3125 0.0433,1.3125 1.6125,0.0426 c 1.60259,0.0423 1.6125,0.0448 1.6125,0.4125 l 0,0.36993 -1.65,0 -1.65,0 0,1.5 0,1.5 1.875,0 1.875,0 0,0.45 0,0.45 -2.4,0 -2.4,0 0,-4.12891 z m 27.46211,3.26641 c 0.007,-0.47437 0.12478,-2.31375 0.26249,-4.0875 l 0.2504,-3.225 0.68851,-0.0447 0.68852,-0.0447 0.92397,2.51974 c 0.50818,1.38586 1.02982,2.88078 1.15918,3.32204 0.12938,0.44126 0.25985,0.77768 0.28992,0.74759 0.0301,-0.0301 0.32156,-0.79611 0.6477,-1.70229 0.32615,-0.90618 0.87569,-2.37322 1.22121,-3.2601 l 0.6282,-1.6125 0.65711,0 c 0.79645,0 0.74426,-0.20578 0.97031,3.825 0.0879,1.5675 0.19922,3.20438 0.24737,3.6375 l 0.0876,0.7875 -0.52189,0 c -0.50359,0 -0.52508,-0.0233 -0.61295,-0.66433 -0.0501,-0.36538 -0.13737,-1.95451 -0.194,-3.53139 -0.0566,-1.57689 -0.15145,-2.81357 -0.21076,-2.74817 -0.0593,0.0654 -0.25115,0.55764 -0.4263,1.09389 -0.17517,0.53625 -0.71652,2.02125 -1.203,3.3 -0.8547,2.24659 -0.89977,2.32655 -1.33644,2.37099 -0.52931,0.0539 -0.51574,0.083 -1.92334,-4.12976 -0.47483,-1.42108 -0.87808,-2.56858 -0.89611,-2.55 -0.018,0.0186 -0.10828,1.35002 -0.20059,2.95877 -0.22601,3.93876 -0.2184,3.9 -0.76598,3.9 -0.44095,0 -0.44314,-0.004 -0.43109,-0.8625 z m 10.48789,-3.17 0,-4.03251 0.3375,-0.0904 c 0.54356,-0.14567 2.53916,-0.1063 3.14534,0.062 1.22422,0.34 1.88767,1.36694 1.69841,2.62894 -0.20174,1.34536 -1.37082,2.15548 -3.11875,2.16117 l -1.0125,0.003 0,1.65 0,1.65 -0.525,0 -0.525,0 0,-4.0325 z m 3.06814,-0.22997 c 0.6569,-0.27446 1.02277,-0.84522 1.02277,-1.5955 0,-0.95068 -0.86262,-1.64203 -2.04882,-1.64203 -0.97736,0 -0.99209,0.0255 -0.99209,1.71605 0,0.84367 0.045,1.57895 0.1,1.63395 0.17758,0.17758 1.39478,0.10621 1.91815,-0.11247 z m 13.58186,0.58747 0,-3.675 -1.275,0 -1.275,0 0,-0.45 0,-0.45 3.15,0 3.15,0 0,0.45 0,0.45 -1.35,0 -1.35,0 0,3.675 0,3.675 -0.525,0 -0.525,0 0,-3.675 z m 4.68508,-0.4125 0.0399,-4.0875 0.5625,-0.0465 0.5625,-0.0466 0,4.13406 0,4.13405 -0.60242,0 -0.6024,0 0.0399,-4.0875 z m 3.11492,-0.0375 0,-4.125 0.58301,0 0.58298,0 1.79786,2.7375 c 0.98883,1.50563 1.94284,3.02438 2.12006,3.375 0.17721,0.35063 0.33769,0.63756 0.35663,0.63762 0.019,6e-5 0.012,-1.51869 -0.0155,-3.375 l -0.05,-3.37512 0.53746,0 0.53748,0 0,4.125 0,4.125 -0.5625,-0.002 -0.5625,-0.002 -1.74305,-2.66026 c -0.95868,-1.46314 -1.92697,-2.98089 -2.15176,-3.37276 -0.22478,-0.39188 -0.42549,-0.7125 -0.44602,-0.7125 -0.0205,0 -0.005,1.51875 0.0348,3.375 l 0.0722,3.375 -0.5456,0 -0.54559,0 0,-4.125 z m 10.64902,3.99276 c -1.77607,-0.57761 -2.69244,-1.91101 -2.69244,-3.91776 0,-1.80435 0.66066,-2.93637 2.16842,-3.71556 0.87756,-0.45351 2.87913,-0.63046 3.92853,-0.3473 0.61435,0.16577 0.62502,0.17961 0.47358,0.61406 -0.13871,0.39789 -0.18885,0.42618 -0.47853,0.27 -0.17798,-0.096 -0.83346,-0.17491 -1.45664,-0.17546 -0.88119,-7.5e-4 -1.29344,0.0766 -1.85452,0.34825 -2.22725,1.07819 -2.28502,4.73488 -0.0925,5.85342 0.74274,0.37892 1.6148,0.51519 2.47317,0.38647 l 0.6819,-0.10226 0,-1.26581 0,-1.26581 -0.825,0 c -0.81892,0 -0.825,-0.003 -0.825,-0.45563 l 0,-0.45562 1.3875,0.0431 1.3875,0.0431 0.042,1.91451 0.042,1.9145 -0.417,0.17233 c -0.50386,0.20824 -3.41633,0.31269 -3.94298,0.14142 z"
       style="fill:#0d4bb4" />
  </g>
</svg>
