<?xml version="1.0" encoding="UTF-8" standalone="no"?>
<!-- Created with Inkscape (http://www.inkscape.org/) -->

<svg
   xmlns:dc="http://purl.org/dc/elements/1.1/"
   xmlns:cc="http://creativecommons.org/ns#"
   xmlns:rdf="http://www.w3.org/1999/02/22-rdf-syntax-ns#"
   xmlns:svg="http://www.w3.org/2000/svg"
   xmlns="http://www.w3.org/2000/svg"
   xmlns:sodipodi="http://sodipodi.sourceforge.net/DTD/sodipodi-0.dtd"
   xmlns:inkscape="http://www.inkscape.org/namespaces/inkscape"
   width="110.51285"
   height="53.729065"
   viewBox="0 0 110.51285 53.729066"
   id="svg2"
   version="1.1"
   inkscape:version="0.91 r13725"
   sodipodi:docname="NAG_Logo.svg">
  <defs
     id="defs4" />
  <sodipodi:namedview
     id="base"
     pagecolor="#ffffff"
     bordercolor="#666666"
     borderopacity="1.0"
     inkscape:pageopacity="0.0"
     inkscape:pageshadow="2"
     inkscape:zoom="5.6"
     inkscape:cx="40.927019"
     inkscape:cy="21.520939"
     inkscape:document-units="px"
     inkscape:current-layer="layer1"
     showgrid="false"
     fit-margin-top="10"
     fit-margin-left="10"
     fit-margin-right="10"
     fit-margin-bottom="0"
     inkscape:window-width="944"
     inkscape:window-height="1122"
     inkscape:window-x="1920"
     inkscape:window-y="0"
     inkscape:window-maximized="0"
     units="px" />
  <metadata
     id="metadata7">
    <rdf:RDF>
      <cc:Work
         rdf:about="">
        <dc:format>image/svg+xml</dc:format>
        <dc:type
           rdf:resource="http://purl.org/dc/dcmitype/StillImage" />
        <dc:title></dc:title>
      </cc:Work>
    </rdf:RDF>
  </metadata>
  <g
     inkscape:label="Layer 1"
     inkscape:groupmode="layer"
     id="layer1"
     transform="translate(-236.15234,-294.34652)">
    <path
       inkscape:connector-curvature="0"
       id="path3401"
       d="m 307.33713,347.65687 c -2.51379,-0.45608 -5.29134,-1.65137 -6.50034,-2.79734 -1.79742,-1.70374 -2.5078,-4.42659 -1.87403,-7.18304 0.19678,-0.85581 0.34425,-0.975 1.20634,-0.975 0.54018,0 1.81163,-0.0867 2.82543,-0.19266 l 1.84327,-0.19266 -0.33594,0.96369 c -0.41819,1.1996 -0.19825,2.98309 0.49912,4.0474 0.29147,0.44484 1.08307,1.10477 1.75911,1.46651 1.07706,0.57632 1.69325,0.65772 4.97918,0.65772 3.39519,0 3.86729,-0.0672 4.98963,-0.71037 2.19511,-1.25789 3.16444,-4.20459 2.0757,-6.30998 -0.97272,-1.88103 -2.75924,-2.42766 -8.96818,-2.74404 -5.31145,-0.27064 -6.81864,-0.56903 -7.91345,-1.56668 -1.43538,-1.30799 -1.59668,-3.85874 -0.34467,-5.45041 0.34279,-0.43579 1.57168,-1.26996 2.73086,-1.85372 l 2.10761,-1.06137 -1.50562,-0.69756 c -1.99983,-0.92654 -3.68262,-2.48964 -4.54999,-4.22637 -0.95851,-1.91923 -1.16765,-4.92631 -0.49188,-7.07241 1.96238,-6.23212 8.63681,-8.71635 17.25385,-6.42191 3.62992,0.96654 5.31159,0.90989 7.38461,-0.24873 l 1.31618,-0.73564 1.5201,1.75467 1.52009,1.75467 -1.43742,0.84492 c -1.24231,0.73024 -1.75301,0.84493 -3.76242,0.84493 -1.27875,0 -2.28478,0.0675 -2.23562,0.15 0.0492,0.0825 0.47095,0.9413 0.93731,1.90845 0.75179,1.55909 0.83199,2.00124 0.70746,3.9 -0.21167,3.2272 -1.73893,5.78344 -4.45741,7.46053 -1.13946,0.70296 -3.80551,1.43102 -5.2402,1.43102 -1.79748,0 -5.58481,1.95339 -5.97111,3.07971 -0.22365,0.65208 -0.17337,0.94111 0.23483,1.35 0.43482,0.43556 1.33609,0.55007 5.53457,0.70319 6.03453,0.22007 7.75854,0.72833 9.95574,2.93508 1.61948,1.62653 2.10943,3.00708 2.10943,5.94391 0,1.73334 -0.15739,2.40723 -0.91741,3.92817 -1.06845,2.13817 -2.14308,3.13438 -4.63259,4.2946 -3.09493,1.44236 -7.85855,1.836 -12.35214,1.02072 z m 7.30689,-27.92425 c 2.88721,-2.10501 2.9226,-8.26786 0.0575,-10.01024 -1.98718,-1.20848 -5.52183,-1.07561 -7.235,0.27197 -2.499,1.96571 -2.42222,7.97092 0.12283,9.60714 1.2827,0.82465 1.58609,0.88818 3.9047,0.81757 1.77365,-0.054 2.49952,-0.21219 3.15,-0.68644 z m -19.94527,17.26272 c -0.54478,-0.33215 -1.40771,-1.27503 -1.91761,-2.09529 l -0.9271,-1.49138 -1.19638,1.08086 c -0.65801,0.59447 -1.95508,1.4365 -2.88239,1.87117 -1.48643,0.69676 -2.05961,0.79034 -4.84231,0.79055 -2.97288,2.2e-4 -3.27468,-0.058 -5.19324,-1.00254 -3.37556,-1.66178 -4.95293,-4.6736 -4.60724,-8.79703 0.53221,-6.34816 5.20738,-9.68254 14.12085,-10.07112 l 3.86407,-0.16846 -0.14769,-2.59019 c -0.24279,-4.25812 -1.27443,-5.42042 -4.81109,-5.42042 -2.41976,0 -4.58078,0.62957 -7.37163,2.14758 -1.21125,0.65883 -2.22865,1.15389 -2.26089,1.10014 -0.0323,-0.0537 -0.55997,-0.87189 -1.17273,-1.8181 -0.61276,-0.94622 -1.1141,-1.85446 -1.1141,-2.01832 0,-0.44744 5.28595,-2.90834 7.39987,-3.44504 6.94213,-1.76253 12.31808,-0.24812 14.3192,4.03374 0.60513,1.29481 0.6271,1.72379 0.5372,10.49348 -0.11274,10.99715 -0.0421,11.68843 1.35232,13.23187 l 1.04246,1.15388 -1.39306,1.81038 c -0.76618,0.99572 -1.48642,1.80989 -1.60053,1.80927 -0.1141,-6e-4 -0.65319,-0.27288 -1.19798,-0.60503 z m -8.34429,-4.26255 c 0.75338,-0.22496 1.84887,-0.9626 2.80981,-1.89198 l 1.575,-1.52328 0,-4.14655 0,-4.14656 -3.225,0.14222 c -3.39891,0.14988 -5.02287,0.61747 -6.33548,1.82417 -1.85944,1.70941 -2.40081,5.28894 -1.16452,7.69991 1.12301,2.19007 3.39442,2.92165 6.34019,2.04207 z m -39.17678,-10.2063 c -0.0869,-12.12941 -0.1631,-14.04337 -0.60563,-15.21329 -0.27841,-0.73605 -0.46328,-1.38121 -0.41081,-1.43368 0.0525,-0.0525 1.26892,-0.41827 2.70321,-0.81288 l 2.60779,-0.71748 0.32063,0.80116 c 0.17635,0.44065 0.3886,1.44242 0.47168,2.22617 0.0831,0.78375 0.26418,1.425 0.40245,1.425 0.13827,0 0.69484,-0.38524 1.23683,-0.8561 2.5108,-2.18126 5.38971,-3.3439 8.28008,-3.3439 3.2709,0 5.59541,1.28158 7.07377,3.9 l 0.93159,1.65 0.0896,13.125 0.0896,13.125 -2.86463,0 -2.86463,0 -0.002,-11.625 c -9.6e-4,-6.76899 -0.1261,-12.07291 -0.29955,-12.69728 -0.16383,-0.58975 -0.64682,-1.39975 -1.07331,-1.8 -0.66482,-0.62391 -1.06074,-0.72575 -2.77545,-0.7139 -2.18414,0.0151 -3.51155,0.54592 -6.12502,2.4494 l -1.425,1.03788 0,11.67445 0,11.67445 -2.83109,0 -2.83108,0 -0.0994,-13.875 z m 84.59413,-12.09264 c -1.06318,-0.57697 -1.43254,-1.30812 -1.43254,-2.83571 0,-3.242 4.47218,-4.21021 5.96489,-1.29137 1.43805,2.81198 -1.69635,5.66612 -4.53235,4.12708 z m 2.90402,-0.31871 c 0.80272,-0.30804 1.43907,-1.86644 1.22597,-3.00236 -0.37346,-1.99074 -2.95298,-2.71407 -4.26001,-1.19456 -1.89529,2.20341 0.30337,5.24477 3.03404,4.19692 z m -2.23656,-2.34594 c 0,-2.06637 0.23139,-2.32057 1.62546,-1.78561 0.53251,0.20434 0.64574,1.47668 0.15824,1.77797 -0.20909,0.12923 -0.15013,0.4491 0.17397,0.94374 0.87692,1.33835 0.0731,1.15343 -0.85006,-0.19556 l -0.50761,-0.74175 0,0.79904 c 0,0.43948 -0.135,0.88248 -0.3,0.98446 -0.18835,0.11641 -0.3,-0.54688 -0.3,-1.78229 z m 1.44699,-0.86757 c 0.0574,-0.29603 -0.0956,-0.50014 -0.375,-0.50014 -0.27828,0 -0.47199,0.2565 -0.47199,0.625 0,0.73111 0.70103,0.62777 0.84699,-0.12486 z"
       style="fill:#0a418a" />
  </g>
</svg>
