<?xml version="1.0" encoding="UTF-8" standalone="no"?>
<!-- Generator: Adobe Illustrator 18.0.0, SVG Export Plug-In . SVG Version: 6.00 Build 0)  -->

<svg
   xmlns:dc="http://purl.org/dc/elements/1.1/"
   xmlns:cc="http://creativecommons.org/ns#"
   xmlns:rdf="http://www.w3.org/1999/02/22-rdf-syntax-ns#"
   xmlns:svg="http://www.w3.org/2000/svg"
   xmlns="http://www.w3.org/2000/svg"
   xmlns:sodipodi="http://sodipodi.sourceforge.net/DTD/sodipodi-0.dtd"
   xmlns:inkscape="http://www.inkscape.org/namespaces/inkscape"
   version="1.1"
   x="0px"
   y="0px"
   viewBox="0 0 241.09879 69.933528"
   enable-background="new 0 0 257.529 86.367"
   xml:space="preserve"
   id="svg2"
   inkscape:version="0.91 r13725"
   sodipodi:docname="CUHK_Logo.svg"
   width="241.09879"
   height="69.933525"><metadata
     id="metadata333"><rdf:RDF><cc:Work
         rdf:about=""><dc:format>image/svg+xml</dc:format><dc:type
           rdf:resource="http://purl.org/dc/dcmitype/StillImage" /><dc:title></dc:title></cc:Work></rdf:RDF></metadata><defs
     id="defs331" /><sodipodi:namedview
     pagecolor="#ffffff"
     bordercolor="#666666"
     borderopacity="1"
     objecttolerance="10"
     gridtolerance="10"
     guidetolerance="10"
     inkscape:pageopacity="0"
     inkscape:pageshadow="2"
     inkscape:window-width="1858"
     inkscape:window-height="1177"
     id="namedview329"
     showgrid="false"
     fit-margin-top="0"
     fit-margin-left="0"
     fit-margin-right="0"
     fit-margin-bottom="0"
     inkscape:zoom="0.83744967"
     inkscape:cx="32.411173"
     inkscape:cy="-71.984682"
     inkscape:window-x="1974"
     inkscape:window-y="-8"
     inkscape:window-maximized="1"
     inkscape:current-layer="svg2" /><g
     id="colour__x2B__des"
     transform="translate(-8.2162091,-8.2169615)"><rect
       x="-308.08099"
       y="-166.44"
       width="841.89001"
       height="595.27502"
       id="rect5"
       style="fill:none" /></g><g
     id="logo"
     transform="translate(-8.2162091,-8.2169615)"><g
       id="g8"><g
         id="g10"><path
           d="m 91.57,38.554 6.927,0 0,1.964 -4.427,0 0,3.07 4.213,0 0,1.964 -4.213,0 0,5.463 -2.5,0 0,-12.461 z"
           id="path12"
           inkscape:connector-curvature="0"
           style="fill:#6e1e6f" /><path
           d="m 99.978,42.303 c 0.929,-0.429 2.179,-0.696 3.196,-0.696 2.803,0 3.963,1.16 3.963,3.874 l 0,1.178 c 0,0.929 0.019,1.625 0.036,2.304 0.018,0.696 0.053,1.339 0.107,2.053 l -2.107,0 c -0.089,-0.482 -0.089,-1.089 -0.107,-1.375 l -0.035,0 c -0.554,1.018 -1.75,1.589 -2.839,1.589 -1.624,0 -3.214,-0.981 -3.214,-2.731 0,-1.374 0.661,-2.178 1.572,-2.624 0.91,-0.446 2.088,-0.535 3.088,-0.535 l 1.321,0 c 0,-1.482 -0.661,-1.982 -2.071,-1.982 -1.018,0 -2.035,0.393 -2.838,1 l -0.072,-2.055 z m 2.802,7.177 c 0.732,0 1.304,-0.321 1.679,-0.821 0.393,-0.518 0.5,-1.179 0.5,-1.893 l -1.036,0 c -1.07,0 -2.66,0.179 -2.66,1.589 0,0.785 0.661,1.125 1.517,1.125 z"
           id="path14"
           inkscape:connector-curvature="0"
           style="fill:#6e1e6f" /><path
           d="m 115.221,43.802 c -0.429,-0.196 -0.893,-0.339 -1.624,-0.339 -1.482,0 -2.428,1.179 -2.428,2.91 0,1.696 0.803,2.999 2.48,2.999 0.679,0 1.429,-0.25 1.84,-0.429 l 0.106,1.982 c -0.696,0.214 -1.41,0.303 -2.392,0.303 -3.018,0 -4.535,-2.053 -4.535,-4.855 0,-2.66 1.571,-4.767 4.445,-4.767 0.964,0 1.66,0.106 2.321,0.304 l -0.213,1.892 z"
           id="path16"
           inkscape:connector-curvature="0"
           style="fill:#6e1e6f" /><path
           d="m 125.296,51.015 -2.268,0 0,-1.25 -0.035,0 c -0.732,0.893 -1.768,1.464 -3.018,1.464 -2.178,0 -3.124,-1.535 -3.124,-3.605 l 0,-5.804 2.392,0 0,4.909 c 0,1.125 0.018,2.643 1.554,2.643 1.731,0 2.106,-1.874 2.106,-3.053 l 0,-4.499 2.393,0 0,9.195 z"
           id="path18"
           inkscape:connector-curvature="0"
           style="fill:#6e1e6f" /><path
           d="m 127.48,37.625 2.392,0 0,13.39 -2.392,0 0,-13.39 z"
           id="path20"
           inkscape:connector-curvature="0"
           style="fill:#6e1e6f" /><path
           d="m 132.808,43.57 -1.767,0 0,-1.75 1.767,0 0,-1.839 2.393,-0.768 0,2.606 2.124,0 0,1.75 -2.125,0 0,4.284 c 0,0.786 0.214,1.518 1.124,1.518 0.429,0 0.839,-0.089 1.089,-0.25 l 0.072,1.893 c -0.5,0.143 -1.054,0.214 -1.768,0.214 -1.875,0 -2.91,-1.16 -2.91,-2.981 l 0,-4.677 z"
           id="path22"
           inkscape:connector-curvature="0"
           style="fill:#6e1e6f" /><path
           d="m 142.898,48.533 0.036,0 2.213,-6.713 2.429,0 -3.446,9.123 c -0.768,2.035 -1.32,4.034 -3.82,4.034 -0.571,0 -1.143,-0.089 -1.695,-0.25 l 0.16,-1.767 c 0.304,0.106 0.643,0.16 1.232,0.16 0.964,0 1.553,-0.66 1.553,-1.643 l -3.518,-9.658 2.643,0 2.213,6.714 z"
           id="path24"
           inkscape:connector-curvature="0"
           style="fill:#6e1e6f" /><path
           d="m 157.821,41.607 c 2.731,0 4.82,1.839 4.82,4.874 0,2.642 -1.768,4.748 -4.82,4.748 -3.035,0 -4.803,-2.106 -4.803,-4.748 0.001,-3.036 2.089,-4.874 4.803,-4.874 z m 0,7.765 c 1.839,0 2.32,-1.643 2.32,-3.178 0,-1.41 -0.75,-2.731 -2.32,-2.731 -1.554,0 -2.303,1.356 -2.303,2.731 0.001,1.518 0.482,3.178 2.303,3.178 z"
           id="path26"
           inkscape:connector-curvature="0"
           style="fill:#6e1e6f" /><path
           d="m 165.015,43.57 -1.768,0 0,-1.75 1.768,0 0,-1.285 c 0,-1.839 1.035,-3.124 2.928,-3.124 0.606,0 1.285,0.089 1.749,0.196 l -0.196,1.981 c -0.214,-0.125 -0.517,-0.321 -1.035,-0.321 -0.804,0 -1.054,0.696 -1.054,1.41 l 0,1.143 2.089,0 0,1.75 -2.089,0 0,7.444 -2.392,0 0,-7.444 z"
           id="path28"
           inkscape:connector-curvature="0"
           style="fill:#6e1e6f" /><path
           d="m 175.902,38.554 3.999,0 2.964,9.443 0.036,0 2.963,-9.443 3.999,0 0,12.461 -2.392,0 0,-10.283 -0.036,0 -3.357,10.283 -2.393,0 -3.355,-10.283 -0.036,0.036 0,10.247 -2.393,0 0,-12.461 z"
           id="path30"
           inkscape:connector-curvature="0"
           style="fill:#6e1e6f" /><path
           d="m 199.765,50.497 c -0.874,0.481 -1.874,0.731 -3.159,0.731 -3.035,0 -4.803,-1.749 -4.803,-4.767 0,-2.66 1.41,-4.855 4.267,-4.855 3.41,0 4.374,2.339 4.374,5.552 l -6.355,0 c 0.107,1.482 1.143,2.321 2.624,2.321 1.161,0 2.16,-0.429 3.053,-0.929 l 0,1.947 z m -1.607,-4.981 c -0.071,-1.16 -0.606,-2.16 -1.946,-2.16 -1.338,0 -2.017,0.929 -2.124,2.16 l 4.07,0 z"
           id="path32"
           inkscape:connector-curvature="0"
           style="fill:#6e1e6f" /><path
           d="m 208.301,49.98 -0.036,0 c -0.714,0.893 -1.695,1.249 -2.82,1.249 -2.82,0 -3.855,-2.32 -3.855,-4.838 0,-2.535 1.035,-4.784 3.855,-4.784 1.196,0 2.035,0.41 2.75,1.285 l 0.035,0 0,-5.267 2.393,0 0,13.39 -2.321,0 0,-1.035 z m -2.196,-0.608 c 1.59,0 2.107,-1.678 2.107,-2.981 0,-1.285 -0.607,-2.928 -2.143,-2.928 -1.553,0 -1.981,1.696 -1.981,2.928 0,1.267 0.446,2.981 2.017,2.981 z"
           id="path34"
           inkscape:connector-curvature="0"
           style="fill:#6e1e6f" /><path
           d="m 212.809,37.857 2.393,0 0,2.285 -2.393,0 0,-2.285 z m 0,3.963 2.393,0 0,9.194 -2.393,0 0,-9.194 z"
           id="path36"
           inkscape:connector-curvature="0"
           style="fill:#6e1e6f" /><path
           d="m 223.423,43.802 c -0.428,-0.196 -0.893,-0.339 -1.624,-0.339 -1.481,0 -2.428,1.179 -2.428,2.91 0,1.696 0.804,2.999 2.482,2.999 0.678,0 1.428,-0.25 1.839,-0.429 l 0.107,1.982 c -0.695,0.214 -1.41,0.303 -2.392,0.303 -3.018,0 -4.534,-2.053 -4.534,-4.855 0,-2.66 1.57,-4.767 4.445,-4.767 0.963,0 1.66,0.106 2.32,0.304 l -0.215,1.892 z"
           id="path38"
           inkscape:connector-curvature="0"
           style="fill:#6e1e6f" /><path
           d="m 225.224,37.857 2.392,0 0,2.285 -2.392,0 0,-2.285 z m 0,3.963 2.392,0 0,9.194 -2.392,0 0,-9.194 z"
           id="path40"
           inkscape:connector-curvature="0"
           style="fill:#6e1e6f" /><path
           d="m 229.786,41.82 2.268,0 0,1.25 0.035,0 c 0.75,-1.054 1.768,-1.464 3.018,-1.464 2.178,0 3.124,1.535 3.124,3.606 l 0,5.802 -2.393,0 0,-4.909 c 0,-1.125 -0.018,-2.643 -1.554,-2.643 -1.732,0 -2.107,1.875 -2.107,3.053 l 0,4.499 -2.392,0 0,-9.194 z"
           id="path42"
           inkscape:connector-curvature="0"
           style="fill:#6e1e6f" /><path
           d="m 247.806,50.497 c -0.874,0.481 -1.874,0.731 -3.159,0.731 -3.035,0 -4.803,-1.749 -4.803,-4.767 0,-2.66 1.41,-4.855 4.267,-4.855 3.41,0 4.374,2.339 4.374,5.552 l -6.355,0 c 0.107,1.482 1.143,2.321 2.624,2.321 1.161,0 2.16,-0.429 3.053,-0.929 l 0,1.947 z m -1.607,-4.981 c -0.071,-1.16 -0.606,-2.16 -1.946,-2.16 -1.338,0 -2.017,0.929 -2.124,2.16 l 4.07,0 z"
           id="path44"
           inkscape:connector-curvature="0"
           style="fill:#6e1e6f" /><path
           d="m 92.239,56.779 -2.013,0 0,-0.816 4.954,0 0,0.816 -2.014,0 0,5.659 -0.928,0 0,-5.659 z"
           id="path46"
           inkscape:connector-curvature="0"
           style="fill:#6e1e6f" /><path
           d="m 96.076,55.481 0.872,0 0,2.903 0.018,0 c 0.315,-0.5 0.862,-0.788 1.522,-0.788 1.225,0 1.771,0.761 1.771,2.032 l 0,2.811 -0.872,0 0,-2.449 c 0,-1.104 -0.241,-1.643 -1.002,-1.689 -0.992,0 -1.438,0.798 -1.438,1.948 l 0,2.19 -0.872,0 0,-6.958 z"
           id="path48"
           inkscape:connector-curvature="0"
           style="fill:#6e1e6f" /><path
           d="m 105.363,62.243 c -0.334,0.121 -0.714,0.307 -1.493,0.307 -1.68,0 -2.449,-1.021 -2.449,-2.56 0,-1.4 0.881,-2.394 2.217,-2.394 1.577,0 2.088,1.15 2.088,2.672 l -3.377,0 c 0,0.937 0.732,1.577 1.559,1.577 0.574,0 1.242,-0.297 1.456,-0.473 l 0,0.871 z m -0.565,-2.625 c 0,-0.724 -0.428,-1.317 -1.179,-1.317 -0.854,0 -1.206,0.705 -1.271,1.317 l 2.45,0 z"
           id="path50"
           inkscape:connector-curvature="0"
           style="fill:#6e1e6f" /><path
           d="m 113.847,57.03 c -0.408,-0.242 -0.863,-0.362 -1.336,-0.362 -1.494,0 -2.486,1.076 -2.486,2.532 0,1.521 1.095,2.533 2.439,2.533 0.465,0 1.086,-0.121 1.41,-0.315 l 0.057,0.899 c -0.492,0.205 -1.096,0.232 -1.476,0.232 -2.05,0 -3.414,-1.317 -3.414,-3.377 0,-1.994 1.447,-3.321 3.423,-3.321 0.502,0 0.993,0.074 1.457,0.278 l -0.074,0.901 z"
           id="path52"
           inkscape:connector-curvature="0"
           style="fill:#6e1e6f" /><path
           d="m 114.927,55.481 0.871,0 0,2.903 0.02,0 c 0.314,-0.5 0.862,-0.788 1.521,-0.788 1.225,0 1.771,0.761 1.771,2.032 l 0,2.811 -0.872,0 0,-2.449 c 0,-1.104 -0.241,-1.643 -1.002,-1.689 -0.993,0 -1.438,0.798 -1.438,1.948 l 0,2.19 -0.871,0 0,-6.958 z"
           id="path54"
           inkscape:connector-curvature="0"
           style="fill:#6e1e6f" /><path
           d="m 121.532,56.649 -0.984,0 0,-0.983 0.984,0 0,0.983 z m -0.927,1.058 0.871,0 0,4.732 -0.871,0 0,-4.732 z"
           id="path56"
           inkscape:connector-curvature="0"
           style="fill:#6e1e6f" /><path
           d="m 122.981,57.707 0.844,0 0,0.751 0.019,0 c 0.26,-0.537 0.891,-0.862 1.55,-0.862 1.225,0 1.771,0.761 1.771,2.032 l 0,2.811 -0.872,0 0,-2.449 c 0,-1.104 -0.241,-1.643 -1.002,-1.689 -0.992,0 -1.438,0.798 -1.438,1.948 l 0,2.19 -0.872,0 0,-4.732 z"
           id="path58"
           inkscape:connector-curvature="0"
           style="fill:#6e1e6f" /><path
           d="m 132.268,62.243 c -0.334,0.121 -0.714,0.307 -1.493,0.307 -1.68,0 -2.449,-1.021 -2.449,-2.56 0,-1.4 0.881,-2.394 2.217,-2.394 1.577,0 2.088,1.15 2.088,2.672 l -3.377,0 c 0,0.937 0.732,1.577 1.559,1.577 0.574,0 1.242,-0.297 1.456,-0.473 l 0,0.871 z m -0.566,-2.625 c 0,-0.724 -0.428,-1.317 -1.179,-1.317 -0.854,0 -1.206,0.705 -1.27,1.317 l 2.449,0 z"
           id="path60"
           inkscape:connector-curvature="0"
           style="fill:#6e1e6f" /><path
           d="m 133.514,61.511 c 0.343,0.223 0.835,0.334 1.085,0.334 0.4,0 0.891,-0.167 0.891,-0.678 0,-0.862 -2.05,-0.788 -2.05,-2.115 0,-0.983 0.732,-1.456 1.67,-1.456 0.408,0 0.742,0.083 1.085,0.186 l -0.074,0.761 c -0.194,-0.121 -0.714,-0.241 -0.918,-0.241 -0.445,0 -0.835,0.186 -0.835,0.575 0,0.965 2.05,0.687 2.05,2.199 0,1.011 -0.807,1.475 -1.651,1.475 -0.445,0 -0.899,-0.047 -1.299,-0.26 l 0.046,-0.78 z"
           id="path62"
           inkscape:connector-curvature="0"
           style="fill:#6e1e6f" /><path
           d="m 141.135,62.243 c -0.334,0.121 -0.714,0.307 -1.493,0.307 -1.68,0 -2.449,-1.021 -2.449,-2.56 0,-1.4 0.881,-2.394 2.217,-2.394 1.577,0 2.088,1.15 2.088,2.672 l -3.377,0 c 0,0.937 0.733,1.577 1.559,1.577 0.574,0 1.242,-0.297 1.456,-0.473 l 0,0.871 z m -0.566,-2.625 c 0,-0.724 -0.428,-1.317 -1.179,-1.317 -0.854,0 -1.206,0.705 -1.271,1.317 l 2.45,0 z"
           id="path64"
           inkscape:connector-curvature="0"
           style="fill:#6e1e6f" /><path
           d="m 150.184,59.757 c 0,1.818 -0.918,2.793 -2.514,2.793 -1.596,0 -2.515,-0.975 -2.515,-2.793 l 0,-3.794 0.928,0 0,3.674 c 0,1.243 0.39,2.097 1.587,2.097 1.196,0 1.586,-0.854 1.586,-2.097 l 0,-3.674 0.928,0 0,3.794 z"
           id="path66"
           inkscape:connector-curvature="0"
           style="fill:#6e1e6f" /><path
           d="m 151.721,57.707 0.844,0 0,0.751 0.018,0 c 0.26,-0.537 0.891,-0.862 1.55,-0.862 1.225,0 1.771,0.761 1.771,2.032 l 0,2.811 -0.872,0 0,-2.449 c 0,-1.104 -0.241,-1.643 -1.002,-1.689 -0.992,0 -1.438,0.798 -1.438,1.948 l 0,2.19 -0.872,0 0,-4.732 z"
           id="path68"
           inkscape:connector-curvature="0"
           style="fill:#6e1e6f" /><path
           d="m 158.326,56.649 -0.983,0 0,-0.983 0.983,0 0,0.983 z m -0.928,1.058 0.872,0 0,4.732 -0.872,0 0,-4.732 z"
           id="path70"
           inkscape:connector-curvature="0"
           style="fill:#6e1e6f" /><path
           d="m 161.919,62.439 -1.039,0 -1.698,-4.732 0.956,0 1.279,3.859 0.02,0 1.308,-3.859 0.872,0 -1.698,4.732 z"
           id="path72"
           inkscape:connector-curvature="0"
           style="fill:#6e1e6f" /><path
           d="m 167.997,62.243 c -0.334,0.121 -0.715,0.307 -1.494,0.307 -1.679,0 -2.449,-1.021 -2.449,-2.56 0,-1.4 0.882,-2.394 2.218,-2.394 1.577,0 2.087,1.15 2.087,2.672 l -3.377,0 c 0,0.937 0.733,1.577 1.559,1.577 0.576,0 1.244,-0.297 1.457,-0.473 l 0,0.871 z m -0.566,-2.625 c 0,-0.724 -0.426,-1.317 -1.178,-1.317 -0.854,0 -1.206,0.705 -1.271,1.317 l 2.449,0 z"
           id="path74"
           inkscape:connector-curvature="0"
           style="fill:#6e1e6f" /><path
           d="m 169.53,57.707 0.816,0 0,0.733 0.018,0 c 0.232,-0.492 0.733,-0.845 1.234,-0.845 0.26,0 0.39,0.028 0.575,0.065 l 0,0.779 c -0.158,-0.065 -0.334,-0.084 -0.482,-0.084 -0.779,0 -1.29,0.742 -1.29,1.93 l 0,2.152 -0.872,0 0,-4.73 z"
           id="path76"
           inkscape:connector-curvature="0"
           style="fill:#6e1e6f" /><path
           d="m 172.917,61.511 c 0.343,0.223 0.835,0.334 1.085,0.334 0.399,0 0.891,-0.167 0.891,-0.678 0,-0.862 -2.05,-0.788 -2.05,-2.115 0,-0.983 0.732,-1.456 1.67,-1.456 0.408,0 0.742,0.083 1.085,0.186 l -0.074,0.761 c -0.194,-0.121 -0.714,-0.241 -0.918,-0.241 -0.445,0 -0.835,0.186 -0.835,0.575 0,0.965 2.05,0.687 2.05,2.199 0,1.011 -0.807,1.475 -1.651,1.475 -0.445,0 -0.9,-0.047 -1.299,-0.26 l 0.046,-0.78 z"
           id="path78"
           inkscape:connector-curvature="0"
           style="fill:#6e1e6f" /><path
           d="m 177.862,56.649 -0.983,0 0,-0.983 0.983,0 0,0.983 z m -0.927,1.058 0.872,0 0,4.732 -0.872,0 0,-4.732 z"
           id="path80"
           inkscape:connector-curvature="0"
           style="fill:#6e1e6f" /><path
           d="m 181.89,58.412 -1.252,0 0,2.589 c 0,0.547 0.334,0.844 0.732,0.844 0.27,0 0.464,-0.084 0.594,-0.167 l 0,0.742 c -0.194,0.056 -0.464,0.13 -0.742,0.13 -0.899,0 -1.456,-0.427 -1.456,-1.373 l 0,-2.765 -1.067,0 0,-0.705 1.067,0 0,-1.095 0.872,-0.278 0,1.373 1.252,0 0,0.705 z"
           id="path82"
           inkscape:connector-curvature="0"
           style="fill:#6e1e6f" /><path
           d="m 182.851,63.719 c 0.111,0.037 0.26,0.074 0.408,0.074 0.779,0 1.039,-1.076 1.039,-1.169 0,-0.101 -0.111,-0.344 -0.168,-0.501 l -1.605,-4.416 0.956,0 1.271,3.915 0.018,0 1.299,-3.915 0.881,0 -1.744,4.833 c -0.324,0.91 -0.668,1.958 -1.818,1.958 -0.277,0 -0.436,-0.037 -0.594,-0.065 l 0.057,-0.714 z"
           id="path84"
           inkscape:connector-curvature="0"
           style="fill:#6e1e6f" /><path
           d="m 192.335,57.596 c 1.438,0 2.402,1.039 2.402,2.478 0,1.354 -0.983,2.476 -2.402,2.476 -1.429,0 -2.412,-1.123 -2.412,-2.476 0,-1.439 0.965,-2.478 2.412,-2.478 z m 0,4.249 c 1.021,0 1.475,-0.928 1.475,-1.771 0,-0.9 -0.547,-1.773 -1.475,-1.773 -0.938,0 -1.484,0.872 -1.484,1.773 0,0.843 0.454,1.771 1.484,1.771 z"
           id="path86"
           inkscape:connector-curvature="0"
           style="fill:#6e1e6f" /><path
           d="m 196.39,58.412 -1.113,0 0,-0.705 1.113,0 0,-0.436 c 0,-1.15 0.297,-1.901 1.587,-1.901 0.223,0 0.408,0.028 0.584,0.056 l -0.037,0.705 c -0.102,-0.037 -0.268,-0.056 -0.417,-0.056 -0.752,0 -0.845,0.482 -0.845,1.122 l 0,0.511 1.253,0 0,0.705 -1.253,0 0,4.026 -0.872,0 0,-4.027 z"
           id="path88"
           inkscape:connector-curvature="0"
           style="fill:#6e1e6f" /><path
           d="m 201.959,55.963 0.928,0 0,2.709 3.099,0 0,-2.709 0.928,0 0,6.476 -0.928,0 0,-2.95 -3.099,0 0,2.95 -0.928,0 0,-6.476 z"
           id="path90"
           inkscape:connector-curvature="0"
           style="fill:#6e1e6f" /><path
           d="m 210.639,57.596 c 1.438,0 2.402,1.039 2.402,2.478 0,1.354 -0.983,2.476 -2.402,2.476 -1.429,0 -2.412,-1.123 -2.412,-2.476 0,-1.439 0.964,-2.478 2.412,-2.478 z m 0,4.249 c 1.021,0 1.475,-0.928 1.475,-1.771 0,-0.9 -0.547,-1.773 -1.475,-1.773 -0.938,0 -1.484,0.872 -1.484,1.773 -0.001,0.843 0.453,1.771 1.484,1.771 z"
           id="path92"
           inkscape:connector-curvature="0"
           style="fill:#6e1e6f" /><path
           d="m 214.206,57.707 0.845,0 0,0.751 0.018,0 c 0.26,-0.537 0.891,-0.862 1.549,-0.862 1.225,0 1.772,0.761 1.772,2.032 l 0,2.811 -0.872,0 0,-2.449 c 0,-1.104 -0.241,-1.643 -1.002,-1.689 -0.993,0 -1.438,0.798 -1.438,1.948 l 0,2.19 -0.872,0 0,-4.732 z"
           id="path94"
           inkscape:connector-curvature="0"
           style="fill:#6e1e6f" /><path
           d="m 224.056,62.234 c 0,1.438 -0.742,2.264 -2.441,2.264 -0.501,0 -0.936,-0.065 -1.698,-0.325 l 0.094,-0.807 c 0.668,0.307 1.066,0.427 1.707,0.427 0.918,0 1.465,-0.622 1.465,-1.624 l 0,-0.463 -0.017,0 c -0.371,0.491 -0.984,0.732 -1.587,0.732 -1.355,0 -2.022,-1.104 -2.022,-2.328 0,-1.216 0.686,-2.515 2.115,-2.515 0.835,0 1.299,0.306 1.559,0.816 l 0.019,0 0,-0.705 0.808,0 0,4.528 z m -0.873,-2.106 c 0,-0.982 -0.454,-1.827 -1.382,-1.827 -0.882,0 -1.317,0.956 -1.317,1.763 0,0.891 0.501,1.67 1.317,1.67 0.816,-0.001 1.382,-0.724 1.382,-1.606 z"
           id="path96"
           inkscape:connector-curvature="0"
           style="fill:#6e1e6f" /><path
           d="m 228.066,55.963 0.928,0 0,2.849 2.765,-2.849 1.234,0 -3.043,3.062 3.284,3.414 -1.354,0 -2.886,-3.173 0,3.173 -0.928,0 0,-6.476 z"
           id="path98"
           inkscape:connector-curvature="0"
           style="fill:#6e1e6f" /><path
           d="m 235.896,57.596 c 1.439,0 2.403,1.039 2.403,2.478 0,1.354 -0.983,2.476 -2.403,2.476 -1.429,0 -2.412,-1.123 -2.412,-2.476 -0.001,-1.439 0.964,-2.478 2.412,-2.478 z m 0,4.249 c 1.021,0 1.476,-0.928 1.476,-1.771 0,-0.9 -0.548,-1.773 -1.476,-1.773 -0.936,0 -1.484,0.872 -1.484,1.773 -0.001,0.843 0.454,1.771 1.484,1.771 z"
           id="path100"
           inkscape:connector-curvature="0"
           style="fill:#6e1e6f" /><path
           d="m 239.464,57.707 0.844,0 0,0.751 0.02,0 c 0.26,-0.537 0.891,-0.862 1.549,-0.862 1.225,0 1.771,0.761 1.771,2.032 l 0,2.811 -0.871,0 0,-2.449 c 0,-1.104 -0.242,-1.643 -1.002,-1.689 -0.993,0 -1.439,0.798 -1.439,1.948 l 0,2.19 -0.872,0 0,-4.732 z"
           id="path102"
           inkscape:connector-curvature="0"
           style="fill:#6e1e6f" /><path
           d="m 249.313,62.234 c 0,1.438 -0.742,2.264 -2.44,2.264 -0.5,0 -0.936,-0.065 -1.697,-0.325 l 0.093,-0.807 c 0.668,0.307 1.067,0.427 1.707,0.427 0.919,0 1.466,-0.622 1.466,-1.624 l 0,-0.463 -0.019,0 c -0.371,0.491 -0.983,0.732 -1.587,0.732 -1.354,0 -2.021,-1.104 -2.021,-2.328 0,-1.216 0.686,-2.515 2.115,-2.515 0.834,0 1.299,0.306 1.559,0.816 l 0.018,0 0,-0.705 0.808,0 0,4.528 z m -0.873,-2.106 c 0,-0.982 -0.455,-1.827 -1.383,-1.827 -0.881,0 -1.316,0.956 -1.316,1.763 0,0.891 0.5,1.67 1.316,1.67 0.817,-0.001 1.383,-0.724 1.383,-1.606 z"
           id="path104"
           inkscape:connector-curvature="0"
           style="fill:#6e1e6f" /></g><g
         id="g106"><path
           d="m 96.526,33.909 0,-0.502 -3.822,0 0.009,0.502 -0.575,0 0,-3.869 c -0.39,0.213 -0.807,0.381 -1.225,0.529 l -0.427,-0.482 c 1.159,-0.354 2.31,-0.965 3.126,-1.986 l -2.681,0 0,-0.547 3.396,-0.01 0.01,-0.854 c -0.928,0.057 -1.865,0.148 -2.82,0.148 l -0.399,-0.547 1.985,-0.056 c 0.658,-0.018 1.309,-0.083 1.948,-0.177 l 1.493,-0.213 c 0.307,-0.047 0.613,-0.13 0.91,-0.213 l 0.436,0.426 c -0.928,0.288 -1.967,0.436 -2.979,0.557 l 0,0.938 3.434,0 0.009,0.547 -3.442,0 0,1.847 2.189,0 0.01,3.962 -0.585,0 z m -2.189,-5.826 c -0.511,0.779 -1.262,1.41 -2.041,1.846 l 2.041,0.019 0,-1.865 z m 2.189,2.421 -3.813,0 0,0.854 3.813,-0.009 0,-0.845 z m 0,2.347 0,-0.945 -3.805,0 -0.009,0.945 3.814,0 z m 1.772,-2.44 c -0.909,-0.816 -1.967,-1.4 -3.107,-1.688 0.129,-0.157 0.269,-0.297 0.417,-0.454 1.142,0.306 2.161,0.891 3.071,1.697 l -0.381,0.445 z"
           id="path108"
           inkscape:connector-curvature="0"
           style="fill:#6e1e6f" /><path
           d="m 103.726,29.446 c -0.27,-0.492 -0.798,-0.938 -1.346,-1.132 l 0.344,-0.408 c 0.566,0.177 1.197,0.649 1.447,1.159 l -0.445,0.381 z m -1.272,4.11 c 0.742,-0.77 1.179,-2.198 1.355,-3.303 l 0.52,0.177 c -0.177,1.225 -0.594,2.431 -1.318,3.423 l -0.557,-0.297 z m 1.67,-6.198 c -0.231,-0.51 -0.974,-0.965 -1.391,-1.085 l 0.436,-0.38 c 0.538,0.194 1.058,0.537 1.392,1.048 l -0.437,0.417 z m 2.366,6.18 c -0.445,0 -0.724,-0.214 -0.724,-0.576 l 0,-2.736 c -0.334,0.25 -0.604,0.482 -0.955,0.668 l -0.371,-0.455 c 0.714,-0.324 1.336,-0.881 1.679,-1.596 l -1.53,0 0,-0.537 1.447,0 0,-1.15 -1.086,0 0,-0.539 1.086,0 0,-1.077 0.574,0 0,1.076 1.744,0 0,-1.076 0.576,0 0,1.076 1.085,0 0,0.539 -1.085,0 0,1.15 1.465,0 0,0.537 -1.484,0 c 0.232,0.557 1.049,1.271 1.902,1.661 l -0.398,0.454 c -0.418,-0.194 -0.836,-0.5 -1.16,-0.844 l 0,1.818 -2.922,0 0,0.798 c 0,0.167 0.083,0.278 0.324,0.278 l 2.551,0 c 0.52,0 0.437,-0.547 0.455,-0.918 l 0.575,0 c -0.046,0.603 -0.046,1.447 -0.862,1.447 l -2.886,0 z m 0.232,-4.695 c -0.111,0.362 -0.343,0.668 -0.594,0.975 l 2.84,0 c -0.27,-0.307 -0.482,-0.631 -0.688,-0.975 l -1.558,0 z m -0.389,2.56 2.355,0 0,-1.057 -2.355,0 0,1.057 z m 0.277,-4.248 0,1.15 1.744,0 0,-1.15 -1.744,0 z"
           id="path110"
           inkscape:connector-curvature="0"
           style="fill:#6e1e6f" /><path
           d="m 114.933,31.376 0,-4.082 3.127,0 -0.01,-1.754 0.612,0 0.01,1.744 3.099,0 -0.01,4.064 -0.603,0 0,-0.658 -2.486,0 -0.01,3.22 -0.603,0 0,-3.22 -2.515,0 0,0.696 -0.611,-0.01 z m 3.117,-3.535 -2.505,0 0,2.301 2.515,0 -0.01,-2.301 z m 3.09,0 -2.478,0 0,2.301 2.478,0 0,-2.301 z"
           id="path112"
           inkscape:connector-curvature="0"
           style="fill:#6e1e6f" /><path
           d="m 125.867,33.444 c 1.309,-0.436 2.626,-0.899 3.702,-1.883 -1.002,-1.039 -1.521,-2.431 -1.791,-3.841 l -1.54,0 0.01,-0.557 7.412,0 0,0.557 -1.512,0.009 c -0.251,1.393 -0.77,2.766 -1.725,3.814 1.058,0.919 2.347,1.419 3.655,1.827 l -0.408,0.482 c -1.309,-0.417 -2.579,-0.965 -3.665,-1.883 -0.241,0.139 -0.464,0.371 -0.695,0.529 -0.938,0.621 -1.948,1.085 -3.006,1.438 l -0.437,-0.492 z m 2.505,-5.714 c 0.037,0.316 0.14,0.696 0.232,1.021 0.009,0.027 0.037,0.064 0.027,0.092 0.195,0.539 0.408,1.067 0.733,1.541 0.186,0.26 0.38,0.547 0.621,0.742 0.872,-0.938 1.336,-2.152 1.559,-3.396 l -3.172,0 z m 1.68,-0.668 c -0.334,-0.52 -0.808,-0.974 -1.346,-1.242 l 0.418,-0.362 c 0.204,0.066 0.38,0.214 0.557,0.343 0.324,0.232 0.621,0.604 0.862,0.9 l -0.491,0.361 z"
           id="path114"
           inkscape:connector-curvature="0"
           style="fill:#6e1e6f" /><path
           d="m 141.426,27.841 c 0.074,-0.751 0.083,-1.586 0.065,-2.384 0.213,0.037 0.408,0.046 0.621,0.083 0.027,0.779 0.019,1.55 -0.047,2.292 l 3.424,0 0.01,0.603 -2.811,0 c 0.204,1.504 0.808,2.894 2.013,3.934 0.381,0.325 0.789,0.585 1.197,0.826 l -0.427,0.492 c -1.262,-0.733 -2.44,-1.986 -2.913,-3.359 -0.204,-0.594 -0.361,-1.233 -0.445,-1.901 -0.084,0.018 -0.027,0.009 -0.064,0.009 -0.047,0.214 -0.066,0.288 -0.121,0.502 -0.232,0.825 -0.51,1.65 -0.946,2.375 -0.454,0.751 -1.085,1.391 -1.81,1.893 -0.231,0.157 -0.463,0.324 -0.714,0.426 -0.157,-0.166 -0.306,-0.352 -0.445,-0.537 1.317,-0.585 2.468,-1.818 2.941,-3.164 0.177,-0.492 0.371,-1.049 0.391,-1.503 l -2.904,0 0.01,-0.585 2.975,0 z"
           id="path116"
           inkscape:connector-curvature="0"
           style="fill:#6e1e6f" /><path
           d="m 153.985,33.25 c 0,0.371 -0.129,0.548 -0.482,0.622 -0.436,0.046 -0.797,0.046 -1.252,0.037 l -0.436,-0.576 1.205,0 c 0.344,-0.055 0.371,-0.129 0.371,-0.334 l 0,-0.677 -3.896,0 0,-0.511 3.925,0 0,-0.38 c 0.464,-0.148 0.909,-0.325 1.364,-0.474 l -3.776,-0.009 0,-0.518 5.001,0 0,0.501 c -0.65,0.315 -1.336,0.547 -2.032,0.779 l 0,0.101 3.711,0 0,0.511 -3.702,0 0,0.928 z m 0.948,-4.593 0.009,-0.482 1.355,-0.009 0.074,-0.64 -1.447,0 0,-0.511 1.503,0.009 0.056,-0.547 -1.771,0 0,-0.52 2.375,0.01 -0.362,3.46 0.631,0 0.009,1.29 -0.557,0 0,-0.752 -6.494,0 0,0.807 -0.557,0 0,-1.345 0.641,0.009 -0.324,-3.182 c 0.677,-0.084 1.299,-0.315 1.846,-0.724 l 0.324,0.427 c -0.463,0.353 -1.002,0.566 -1.576,0.678 l 0.037,0.436 1.502,0.01 0,0.482 -1.447,0 0.074,0.648 1.373,0 0,0.492 -1.316,0 0.074,0.724 5.195,0 0.092,-0.771 -1.319,0 z m -0.502,0.659 c -0.223,-0.26 -0.51,-0.491 -0.797,-0.687 l -0.047,0.01 c -0.315,0.24 -0.678,0.445 -1.029,0.621 l -0.399,-0.353 c 0.297,-0.186 0.668,-0.325 0.965,-0.557 -0.251,-0.157 -0.557,-0.223 -0.835,-0.306 l 0.324,-0.381 c 0.195,0.01 0.381,0.121 0.566,0.176 l 0.39,0.177 c 0.194,-0.157 0.362,-0.353 0.548,-0.528 l 0.352,0.306 c -0.148,0.157 -0.277,0.343 -0.454,0.491 0.26,0.195 0.548,0.381 0.788,0.631 l -0.372,0.4 z m -2.087,-2.282 c 0.268,-0.139 0.557,-0.307 0.808,-0.492 -0.214,-0.12 -0.474,-0.157 -0.705,-0.231 l -0.168,-0.037 0.223,-0.417 c 0.381,0.083 0.742,0.194 1.086,0.334 l 0.047,-0.01 c 0.213,-0.195 0.408,-0.427 0.574,-0.658 l 0.371,0.297 c -0.129,0.223 -0.306,0.408 -0.5,0.603 0.232,0.167 0.463,0.334 0.677,0.548 l -0.343,0.426 c -0.214,-0.24 -0.465,-0.454 -0.752,-0.611 -0.315,0.213 -0.584,0.417 -0.918,0.594 l -0.4,-0.346 z"
           id="path118"
           inkscape:connector-curvature="0"
           style="fill:#6e1e6f" /><path
           d="m 161.337,30.281 0,-0.528 8.395,0 0,0.528 -3.107,0 0,0.437 2.319,0 -0.01,3.182 -0.575,0 0,-0.408 -5.585,0 0.01,0.473 -0.575,0 -0.01,-3.246 2.292,0 -0.01,-0.437 -3.144,0 z m 3.089,-2.152 c 0.464,0.083 0.77,0.194 1.15,0.408 l -0.157,0.371 c -0.111,-0.019 -0.204,-0.111 -0.315,-0.157 -0.334,-0.131 -0.678,-0.26 -1.067,-0.251 -0.352,0.269 -0.779,0.362 -1.233,0.399 l -0.111,-0.492 c 0.445,0.01 1.085,-0.093 1.345,-0.455 l -1.28,0 -0.009,-0.343 1.317,0 0,-0.445 -0.585,0 c -0.12,0.148 -0.26,0.268 -0.408,0.371 l -0.324,-0.316 c 0.26,-0.158 0.584,-0.501 0.695,-0.779 l -0.974,-0.01 0.009,2.552 3.247,0.009 0,0.418 -3.794,0.01 0,-3.442 3.859,0 0,0.445 -2.004,0 c -0.028,0.14 -0.065,0.231 -0.111,0.353 l 1.642,0.01 -0.009,0.38 -0.779,-0.009 0,0.454 1.132,0 0,0.343 -1.16,0.01 -0.076,0.166 z m -1.485,3.581 0.381,-0.019 c 0.371,-0.083 0.816,-0.111 1.002,-0.491 l -1.54,-0.01 0,1.818 5.575,0.01 0,-1.828 -1.716,0 c 0.009,0.093 -0.019,0.148 0.009,0.223 0.028,0.102 0.103,0.158 0.232,0.176 l 1.141,-0.009 0,0.436 -1.233,0 c -0.186,0 -0.344,-0.047 -0.464,-0.158 -0.204,-0.167 -0.251,-0.418 -0.232,-0.658 l -1.141,-0.01 c -0.204,0.538 -1.021,1.039 -1.773,1.049 l -0.241,-0.529 z m 0.641,0.584 3.952,0 0,0.428 -3.952,0 0,-0.428 z m 1.438,-1.576 1.067,0 0.009,-0.437 -1.076,0 0,0.437 z m 3.535,-4.77 0,0.789 c 0,0.158 0.056,0.158 0.231,0.158 l 0.733,0 0,0.463 -0.993,-0.009 c -0.334,0 -0.454,-0.093 -0.482,-0.362 l 0,-0.574 -1.159,0 c 0,0.473 -0.13,0.945 -0.538,1.225 l 2.402,0.018 0,0.428 c -0.176,0.24 -0.464,0.584 -0.714,0.779 0.473,0.213 1.011,0.269 1.577,0.269 l -0.251,0.482 c -0.649,-0.028 -1.262,-0.167 -1.8,-0.445 -0.464,0.241 -0.974,0.39 -1.512,0.474 l -0.26,-0.436 c 0.473,-0.056 0.918,-0.167 1.336,-0.334 -0.241,-0.231 -0.482,-0.464 -0.631,-0.761 l -0.251,0 0,-0.399 -0.343,0.129 -0.278,-0.445 c 0.52,-0.074 0.742,-0.426 0.742,-0.965 l 0,-0.482 2.191,0 z m -1.54,2.153 c 0.167,0.205 0.334,0.408 0.575,0.519 0.157,-0.092 0.297,-0.213 0.427,-0.334 0.074,-0.046 0.12,-0.129 0.176,-0.176 l -1.178,-0.009 z"
           id="path120"
           inkscape:connector-curvature="0"
           style="fill:#6e1e6f" /><path
           d="m 177.951,33.25 c 0,0.371 -0.13,0.548 -0.482,0.622 -0.437,0.046 -0.798,0.046 -1.253,0.037 l -0.436,-0.576 1.206,0 c 0.343,-0.055 0.371,-0.129 0.371,-0.334 l 0,-0.677 -3.896,0 0,-0.511 3.924,0 0,-0.38 c 0.464,-0.148 0.909,-0.325 1.364,-0.474 l -3.776,-0.009 0,-0.518 5.001,0 0,0.501 c -0.649,0.315 -1.336,0.547 -2.032,0.779 l 0,0.101 3.711,0 0,0.511 -3.701,0 0,0.928 z m 0.947,-4.593 0.009,-0.482 1.354,-0.009 0.074,-0.64 -1.447,0 0,-0.511 1.503,0.009 0.056,-0.547 -1.771,0 0,-0.52 2.375,0.01 -0.362,3.46 0.631,0 0.01,1.29 -0.557,0 0,-0.752 -6.494,0 0,0.807 -0.557,0 0,-1.345 0.64,0.009 -0.324,-3.182 c 0.677,-0.084 1.299,-0.315 1.846,-0.724 l 0.325,0.427 c -0.464,0.353 -1.002,0.566 -1.577,0.678 l 0.037,0.436 1.503,0.01 0,0.482 -1.447,0 0.074,0.648 1.373,0 0,0.492 -1.317,0 0.074,0.724 5.195,0 0.093,-0.771 -1.319,0 z m -0.501,0.659 c -0.223,-0.26 -0.511,-0.491 -0.798,-0.687 l -0.047,0.01 c -0.315,0.24 -0.677,0.445 -1.029,0.621 l -0.399,-0.353 c 0.297,-0.186 0.668,-0.325 0.965,-0.557 -0.25,-0.157 -0.557,-0.223 -0.835,-0.306 l 0.325,-0.381 c 0.194,0.01 0.38,0.121 0.566,0.176 l 0.39,0.177 c 0.195,-0.157 0.362,-0.353 0.548,-0.528 l 0.352,0.306 c -0.148,0.157 -0.278,0.343 -0.455,0.491 0.26,0.195 0.548,0.381 0.789,0.631 l -0.372,0.4 z m -2.088,-2.282 c 0.27,-0.139 0.557,-0.307 0.808,-0.492 -0.214,-0.12 -0.474,-0.157 -0.705,-0.231 l -0.167,-0.037 0.223,-0.417 c 0.38,0.083 0.742,0.194 1.085,0.334 l 0.047,-0.01 c 0.213,-0.195 0.408,-0.427 0.575,-0.658 l 0.371,0.297 c -0.13,0.223 -0.307,0.408 -0.501,0.603 0.231,0.167 0.464,0.334 0.677,0.548 l -0.343,0.426 c -0.214,-0.24 -0.464,-0.454 -0.752,-0.611 -0.315,0.213 -0.584,0.417 -0.918,0.594 l -0.4,-0.346 z"
           id="path122"
           inkscape:connector-curvature="0"
           style="fill:#6e1e6f" /><path
           d="m 187.19,28.63 c 0.204,0.287 0.474,0.566 0.612,0.891 0.278,0.51 0.297,1.289 -0.037,1.781 -0.269,0.324 -0.714,0.436 -1.113,0.315 l -0.223,-0.065 -0.12,-0.648 c 0.315,0.064 0.761,0.371 1.02,0.009 0.287,-0.594 0.046,-1.345 -0.418,-1.79 l -0.371,-0.362 0.826,-2.227 -1.15,-0.009 0,7.468 -0.575,0 -0.01,-8.016 2.329,0 0,0.538 -0.77,2.115 z m 4.36,4.88 c -0.38,0 -0.528,-0.316 -0.557,-0.491 l 0,-2.663 -0.854,0 c -0.027,1.039 -0.232,2.181 -1.122,2.866 -0.455,0.354 -0.956,0.631 -1.494,0.779 l -0.417,-0.5 c 0.473,-0.103 0.899,-0.279 1.299,-0.529 0.732,-0.464 1.095,-1.215 1.132,-2.051 0.009,-0.166 0.027,-0.38 0.037,-0.565 l -1.225,0 0,-0.548 4.546,0 0,0.548 -1.317,0 -0.01,2.301 c 0,0.13 0.065,0.241 0.223,0.297 l 0.733,0 c 0.278,-0.056 0.315,-0.371 0.353,-0.594 l 0.111,-0.724 0.557,0.26 c -0.214,0.872 -0.241,1.596 -1.086,1.606 l -0.909,0.008 z m 0.937,-5.558 -0.01,-0.834 -3.748,0 0,0.899 -0.584,-0.009 0,-1.438 2.273,0 c -0.278,-0.362 -0.724,-0.585 -1.15,-0.705 l 0.344,-0.408 c 0.538,0.103 1.029,0.417 1.382,0.882 l -0.287,0.213 2.356,0.019 0.009,1.382 -0.585,0 z m -0.158,0.251 0,0.548 -3.451,0 0,-0.548 3.451,0 z"
           id="path124"
           inkscape:connector-curvature="0"
           style="fill:#6e1e6f" /></g></g><g
       id="g126"><g
         id="g128"><linearGradient
           id="SVGID_1_"
           gradientUnits="userSpaceOnUse"
           x1="19.2244"
           y1="43.267799"
           x2="79.105103"
           y2="43.267799"><stop
             offset="0"
             style="stop-color:#CBDB2A"
             id="stop131" /><stop
             offset="0.6"
             style="stop-color:#9BBA3C"
             id="stop133" /><stop
             offset="1"
             style="stop-color:#55903E"
             id="stop135" /></linearGradient><path
           d="M 75.378,8.683 C 71.236,7.548 41.686,10.921 26.332,32.847 16.336,47.124 16.214,63.261 30.27,73.105 44.326,82.947 59.45,77.312 69.446,63.035 84.798,41.108 77.86,12.185 75.378,8.683 Z"
           id="path137"
           inkscape:connector-curvature="0"
           style="fill:url(#SVGID_1_)" /><linearGradient
           id="SVGID_2_"
           gradientUnits="userSpaceOnUse"
           x1="45.074001"
           y1="43.363899"
           x2="79.973602"
           y2="43.363899"><stop
             offset="0"
             style="stop-color:#CBDB2A"
             id="stop140" /><stop
             offset="0.6"
             style="stop-color:#9BBA3C"
             id="stop142" /><stop
             offset="1"
             style="stop-color:#55903E"
             id="stop144" /></linearGradient><path
           d="m 75.379,8.683 c 2.482,3.506 9.418,32.43 -5.934,54.352 C 59.449,77.312 44.325,82.947 30.269,73.105 29.931,72.867 29.603,72.625 29.281,72.38 33.246,62.493 39.396,51.22 47.311,39.915 56.482,26.819 66.423,15.964 75.379,8.683 Z"
           id="path146"
           inkscape:connector-curvature="0"
           style="fill:url(#SVGID_2_)" /></g><g
         id="g148"><linearGradient
           id="SVGID_3_"
           gradientUnits="userSpaceOnUse"
           x1="2973.7993"
           y1="4426.7764"
           x2="3026.4253"
           y2="4426.7764"
           gradientTransform="matrix(0.8269,-0.5625,0.5625,0.8269,-4936.5005,-1932.0452)"><stop
             offset="0"
             style="stop-color:#87518B"
             id="stop151" /><stop
             offset="0.3583"
             style="stop-color:#7B3C7E"
             id="stop153" /><stop
             offset="0.7555"
             style="stop-color:#712773"
             id="stop155" /><stop
             offset="1"
             style="stop-color:#6E1E6F"
             id="stop157" /></linearGradient><path
           d="m 12.234,8.382 c 4.156,-1.08 33.66,2.691 48.716,24.822 9.804,14.41 9.708,30.549 -4.479,40.201 C 42.283,83.055 27.238,77.219 17.434,62.807 2.379,40.679 9.705,11.851 12.234,8.382 Z"
           id="path159"
           inkscape:connector-curvature="0"
           style="fill:url(#SVGID_3_)" /><linearGradient
           id="SVGID_4_"
           gradientUnits="userSpaceOnUse"
           x1="2973.7993"
           y1="4425.2969"
           x2="3003.9551"
           y2="4425.2969"
           gradientTransform="matrix(0.8269,-0.5625,0.5625,0.8269,-4936.5005,-1932.0452)"><stop
             offset="0"
             style="stop-color:#87518B"
             id="stop162" /><stop
             offset="0.3583"
             style="stop-color:#7B3C7E"
             id="stop164" /><stop
             offset="0.7555"
             style="stop-color:#712773"
             id="stop166" /><stop
             offset="1"
             style="stop-color:#6E1E6F"
             id="stop168" /></linearGradient><path
           d="m 12.246,8.378 c -0.004,0.002 -0.008,0.002 -0.012,0.004 -2.529,3.469 -9.856,32.297 5.2,54.426 7.042,10.352 16.79,16.279 26.98,15.221 5.849,-7.73 3.78,-23.623 -9.851,-43.658 C 27.957,24.657 19.955,15.366 12.246,8.378 Z"
           id="path170"
           inkscape:connector-curvature="0"
           style="fill:url(#SVGID_4_)" /><linearGradient
           id="SVGID_5_"
           gradientUnits="userSpaceOnUse"
           x1="3003.7336"
           y1="4455.292"
           x2="3017.1382"
           y2="4441.8872"
           gradientTransform="matrix(0.8269,-0.5625,0.5625,0.8269,-4936.5005,-1932.0452)"><stop
             offset="0"
             style="stop-color:#87518B"
             id="stop173" /><stop
             offset="0.3583"
             style="stop-color:#7B3C7E"
             id="stop175" /><stop
             offset="0.7555"
             style="stop-color:#712773"
             id="stop177" /><stop
             offset="1"
             style="stop-color:#6E1E6F"
             id="stop179" /></linearGradient><path
           d="m 42.883,49.013 c 0.505,1.053 1.095,2.084 1.774,3.082 5.12,7.525 13.759,11.061 21.551,9.564 2.151,-5.523 2.054,-11.701 0.021,-17.922 -9.442,-1.197 -17.262,1.178 -23.346,5.276 z"
           id="path181"
           inkscape:connector-curvature="0"
           style="fill:url(#SVGID_5_)" /><linearGradient
           id="SVGID_6_"
           gradientUnits="userSpaceOnUse"
           x1="2981.3423"
           y1="4417.9434"
           x2="3004.3923"
           y2="4413.8794"
           gradientTransform="matrix(0.8269,-0.5625,0.5625,0.8269,-4936.5005,-1932.0452)"><stop
             offset="0"
             style="stop-color:#87518B"
             id="stop184" /><stop
             offset="0.3583"
             style="stop-color:#7B3C7E"
             id="stop186" /><stop
             offset="0.7555"
             style="stop-color:#712773"
             id="stop188" /><stop
             offset="1"
             style="stop-color:#6E1E6F"
             id="stop190" /></linearGradient><path
           d="M 26.544,23.614 C 25.385,23.139 19.538,21.253 14.422,24.12 7.256,28.138 7.565,36.376 9.726,39.554 c 4.021,5.91 9.508,6.205 15.944,4.188 4.102,-1.285 9.927,-5.678 12.711,-3.365 -1.154,-1.957 -2.424,-3.959 -3.816,-6.006 -2.504,-3.681 -5.208,-7.3 -8.021,-10.757 z"
           id="path192"
           inkscape:connector-curvature="0"
           style="fill:url(#SVGID_6_)" /><linearGradient
           id="SVGID_7_"
           gradientUnits="userSpaceOnUse"
           x1="3001.0947"
           y1="4412.0283"
           x2="3016.9045"
           y2="4421.1562"
           gradientTransform="matrix(0.8269,-0.5625,0.5625,0.8269,-4936.5005,-1932.0452)"><stop
             offset="0"
             style="stop-color:#87518B"
             id="stop195" /><stop
             offset="0.3583"
             style="stop-color:#7B3C7E"
             id="stop197" /><stop
             offset="0.7555"
             style="stop-color:#712773"
             id="stop199" /><stop
             offset="1"
             style="stop-color:#6E1E6F"
             id="stop201" /></linearGradient><path
           d="m 29.18,16.993 c -2.308,2.074 -2.857,5.008 -2.635,6.621 l 10e-4,0.002 c 2.812,3.455 5.515,7.074 8.019,10.754 1.39,2.043 2.656,4.041 3.811,5.994 0.003,0.004 0.006,0.01 0.009,0.014 1.667,-2.592 2.585,-4.373 4.04,-7.799 1.842,-4.334 4.166,-9.184 0.425,-14.68 -3.233,-4.746 -9.962,-4.24 -13.67,-0.906 z"
           id="path203"
           inkscape:connector-curvature="0"
           style="fill:url(#SVGID_7_)" /><linearGradient
           id="SVGID_8_"
           gradientUnits="userSpaceOnUse"
           x1="2974.0188"
           y1="4450.7124"
           x2="3000.354"
           y2="4450.7124"
           gradientTransform="matrix(0.8269,-0.5625,0.5625,0.8269,-4936.5005,-1932.0452)"><stop
             offset="0"
             style="stop-color:#87518B"
             id="stop206" /><stop
             offset="0.3583"
             style="stop-color:#7B3C7E"
             id="stop208" /><stop
             offset="0.7555"
             style="stop-color:#712773"
             id="stop210" /><stop
             offset="1"
             style="stop-color:#6E1E6F"
             id="stop212" /></linearGradient><path
           d="m 27.549,73.302 c 5.178,3.6 10.948,5.342 16.869,4.727 C 48.752,72.297 48.733,62.08 42.881,49.015 33.56,55.29 28.314,65.605 27.549,73.302 Z"
           id="path214"
           inkscape:connector-curvature="0"
           style="fill:url(#SVGID_8_)" /><g
           id="g216"><linearGradient
             id="SVGID_9_"
             gradientUnits="userSpaceOnUse"
             x1="3003.3733"
             y1="4397.7769"
             x2="2982.165"
             y2="4397.7769"
             gradientTransform="matrix(0.8269,-0.5625,0.5625,0.8269,-4936.5005,-1932.0452)"><stop
               offset="0"
               style="stop-color:#87518B"
               id="stop219" /><stop
               offset="0.3583"
               style="stop-color:#7B3C7E"
               id="stop221" /><stop
               offset="0.7555"
               style="stop-color:#712773"
               id="stop223" /><stop
               offset="1"
               style="stop-color:#6E1E6F"
               id="stop225" /></linearGradient><path
             d="M 14.422,24.12 C 19.535,21.255 25.38,23.138 26.543,23.612 21.934,17.946 17.033,12.717 12.246,8.378 12.242,8.38 12.238,8.38 12.234,8.382 10.737,10.435 7.557,21.38 8.338,34.562 c 0.012,0 0.023,0.002 0.035,0.002 -0.055,-3.592 1.473,-7.877 6.049,-10.444 z"
             id="path227"
             inkscape:connector-curvature="0"
             style="fill:url(#SVGID_9_)" /></g><linearGradient
           id="SVGID_10_"
           gradientUnits="userSpaceOnUse"
           x1="3001.1572"
           y1="4438.4282"
           x2="3001.1572"
           y2="4466.0952"
           gradientTransform="matrix(0.8269,-0.5625,0.5625,0.8269,-4936.5005,-1932.0452)"><stop
             offset="0"
             style="stop-color:#87518B"
             id="stop230" /><stop
             offset="0.3583"
             style="stop-color:#7B3C7E"
             id="stop232" /><stop
             offset="0.7555"
             style="stop-color:#712773"
             id="stop234" /><stop
             offset="1"
             style="stop-color:#6E1E6F"
             id="stop236" /></linearGradient><path
           d="m 44.657,52.095 c -0.651,-0.957 -1.225,-1.941 -1.717,-2.949 5.794,13.004 5.796,23.172 1.475,28.883 3.996,-0.416 8.061,-1.904 12.057,-4.623 4.814,-3.275 8.003,-7.299 9.736,-11.746 -7.792,1.495 -16.431,-2.04 -21.551,-9.565 z"
           id="path238"
           inkscape:connector-curvature="0"
           style="fill:url(#SVGID_10_)" /><g
           id="g240"><linearGradient
             id="SVGID_11_"
             gradientUnits="userSpaceOnUse"
             x1="3002.5945"
             y1="4427.937"
             x2="3026.4253"
             y2="4427.937"
             gradientTransform="matrix(0.8269,-0.5625,0.5625,0.8269,-4936.5005,-1932.0452)"><stop
               offset="0"
               style="stop-color:#87518B"
               id="stop243" /><stop
               offset="0.3583"
               style="stop-color:#7B3C7E"
               id="stop245" /><stop
               offset="0.7555"
               style="stop-color:#712773"
               id="stop247" /><stop
               offset="1"
               style="stop-color:#6E1E6F"
               id="stop249" /></linearGradient><path
             d="m 40,15.333 c -0.006,0.004 -0.012,0.008 -0.018,0.012 1.099,0.568 2.085,1.408 2.866,2.555 3.741,5.496 1.417,10.346 -0.425,14.68 -1.455,3.426 -2.373,5.207 -4.04,7.799 -0.003,-0.004 -0.006,-0.01 -0.009,-0.014 1.771,3 3.27,5.889 4.506,8.65 C 48.964,44.919 56.788,42.54 66.229,43.738 65.074,40.201 63.296,36.654 60.95,33.205 55.301,24.899 47.616,19.181 40,15.333 Z"
             id="path251"
             inkscape:connector-curvature="0"
             style="fill:url(#SVGID_11_)" /></g><linearGradient
           id="SVGID_12_"
           gradientUnits="userSpaceOnUse"
           x1="3001.5156"
           y1="4406.2554"
           x2="3010.9749"
           y2="4396.7959"
           gradientTransform="matrix(0.8269,-0.5625,0.5625,0.8269,-4936.5005,-1932.0452)"><stop
             offset="0"
             style="stop-color:#87518B"
             id="stop254" /><stop
             offset="0.3583"
             style="stop-color:#7B3C7E"
             id="stop256" /><stop
             offset="0.7555"
             style="stop-color:#712773"
             id="stop258" /><stop
             offset="1"
             style="stop-color:#6E1E6F"
             id="stop260" /></linearGradient><path
           d="m 26.546,23.616 -10e-4,-0.002 c -0.223,-1.613 0.327,-4.547 2.635,-6.621 2.797,-2.516 7.312,-3.42 10.75,-1.674 0.002,-0.004 0.051,0.027 0.053,0.025 0.004,-0.002 0.014,-0.01 0.018,-0.012 C 27.339,8.95 14.828,7.708 12.234,8.382 12.238,8.38 12.242,8.38 12.246,8.378 c 4.791,4.344 9.695,9.576 14.307,15.248 -0.002,-0.004 -0.004,-0.008 -0.007,-0.01 z"
           id="path262"
           inkscape:connector-curvature="0"
           style="fill:url(#SVGID_12_)" /><linearGradient
           id="SVGID_13_"
           gradientUnits="userSpaceOnUse"
           x1="3000.1887"
           y1="4409.0659"
           x2="2980.1663"
           y2="4443.7461"
           gradientTransform="matrix(0.8269,-0.5625,0.5625,0.8269,-4936.5005,-1932.0452)"><stop
             offset="0"
             style="stop-color:#87518B"
             id="stop265" /><stop
             offset="0.3583"
             style="stop-color:#7B3C7E"
             id="stop267" /><stop
             offset="0.7555"
             style="stop-color:#712773"
             id="stop269" /><stop
             offset="1"
             style="stop-color:#6E1E6F"
             id="stop271" /></linearGradient><path
           d="M 25.67,43.741 C 19.233,45.759 13.746,45.464 9.726,39.553 8.945,38.405 8.407,36.596 8.374,34.563 c -0.012,0 -0.023,0 -0.035,0 0.538,9.078 2.955,19.219 9.096,28.244 2.952,4.34 6.379,7.898 10.114,10.494 0.766,-7.697 6.011,-18.012 15.332,-24.287 -0.125,-0.314 -2.395,-5.309 -4.5,-8.639 -2.784,-2.311 -8.609,2.081 -12.711,3.366 z"
           id="path273"
           inkscape:connector-curvature="0"
           style="fill:url(#SVGID_13_)" /></g><g
         id="g275"><g
           id="g277"><g
             id="g279"><path
               d="m 32.861,58.948 0.379,0 0,1.492 1.939,0 0,-1.492 0.38,0 0,3.359 -0.38,0 0,-1.512 -1.939,0 0,1.512 -0.379,0 0,-3.359 z"
               id="path281"
               inkscape:connector-curvature="0"
               style="fill:#ffffff" /><path
               d="m 36.449,60.638 0,-0.01 c 0,-0.928 0.697,-1.738 1.719,-1.738 1.023,0 1.71,0.801 1.71,1.729 l 0,0.01 c 0,0.926 -0.696,1.738 -1.719,1.738 -1.022,-10e-4 -1.71,-0.803 -1.71,-1.729 z m 3.035,0 0,-0.01 c 0,-0.764 -0.557,-1.389 -1.325,-1.389 -0.769,0 -1.315,0.615 -1.315,1.379 l 0,0.01 c 0,0.764 0.557,1.387 1.324,1.387 0.77,0 1.316,-0.614 1.316,-1.377 z"
               id="path283"
               inkscape:connector-curvature="0"
               style="fill:#ffffff" /><path
               d="m 40.772,58.948 0.355,0 2.117,2.693 0,-2.693 0.369,0 0,3.359 -0.302,0 -2.171,-2.756 0,2.756 -0.369,0 0,-3.359 z"
               id="path285"
               inkscape:connector-curvature="0"
               style="fill:#ffffff" /><path
               d="m 44.504,60.638 0,-0.01 c 0,-0.922 0.678,-1.738 1.686,-1.738 0.566,0 0.917,0.162 1.254,0.447 l -0.246,0.287 c -0.259,-0.225 -0.547,-0.385 -1.021,-0.385 -0.745,0 -1.277,0.629 -1.277,1.379 l 0,0.01 c 0,0.801 0.514,1.396 1.33,1.396 0.384,0 0.738,-0.148 0.969,-0.336 l 0,-0.836 -1.021,0 0,-0.34 1.387,0 0,1.34 c -0.312,0.277 -0.782,0.514 -1.35,0.514 -1.058,0 -1.711,-0.767 -1.711,-1.728 z"
               id="path287"
               inkscape:connector-curvature="0"
               style="fill:#ffffff" /><path
               d="m 50.098,58.948 0.38,0 0,2.006 1.931,-2.006 0.489,0 -1.44,1.469 1.503,1.891 -0.476,0 -1.291,-1.627 -0.716,0.725 0,0.902 -0.38,0 0,-3.36 z"
               id="path289"
               inkscape:connector-curvature="0"
               style="fill:#ffffff" /><path
               d="m 53.269,60.638 0,-0.01 c 0,-0.928 0.696,-1.738 1.719,-1.738 1.022,0 1.71,0.801 1.71,1.729 l 0,0.01 c 0,0.926 -0.697,1.738 -1.72,1.738 -1.023,-10e-4 -1.709,-0.803 -1.709,-1.729 z m 3.034,0 0,-0.01 c 0,-0.764 -0.557,-1.389 -1.325,-1.389 -0.769,0 -1.315,0.615 -1.315,1.379 l 0,0.01 c 0,0.764 0.557,1.387 1.325,1.387 0.768,0 1.315,-0.614 1.315,-1.377 z"
               id="path291"
               inkscape:connector-curvature="0"
               style="fill:#ffffff" /><path
               d="m 57.59,58.948 0.355,0 2.117,2.693 0,-2.693 0.37,0 0,3.359 -0.302,0 -2.17,-2.756 0,2.756 -0.37,0 0,-3.359 z"
               id="path293"
               inkscape:connector-curvature="0"
               style="fill:#ffffff" /><path
               d="m 61.322,60.638 0,-0.01 c 0,-0.922 0.678,-1.738 1.686,-1.738 0.567,0 0.918,0.162 1.254,0.447 l -0.245,0.287 c -0.259,-0.225 -0.548,-0.385 -1.022,-0.385 -0.744,0 -1.277,0.629 -1.277,1.379 l 0,0.01 c 0,0.801 0.514,1.396 1.33,1.396 0.384,0 0.739,-0.148 0.97,-0.336 l 0,-0.836 -1.022,0 0,-0.34 1.388,0 0,1.34 c -0.313,0.277 -0.783,0.514 -1.35,0.514 -1.058,0 -1.712,-0.767 -1.712,-1.728 z"
               id="path295"
               inkscape:connector-curvature="0"
               style="fill:#ffffff" /></g></g><g
           id="g297"><path
             d="m 16.175,36.353 0,-0.051 c 0,-5.098 3.842,-9.272 9.349,-9.272 3.38,0 5.403,1.127 7.068,2.766 l -2.51,2.895 c -1.384,-1.256 -2.792,-2.023 -4.585,-2.023 -3.021,0 -5.198,2.51 -5.198,5.582 l 0,0.053 c 0,3.072 2.125,5.635 5.198,5.635 2.049,0 3.304,-0.82 4.713,-2.1 l 2.51,2.535 c -1.845,1.971 -3.893,3.201 -7.351,3.201 -5.275,-10e-4 -9.194,-4.073 -9.194,-9.221 z"
             id="path299"
             inkscape:connector-curvature="0"
             style="fill:#ffffff" /><path
             d="m 45.947,27.337 0,10.271 c 0,2.842 -1.461,4.301 -3.868,4.301 -2.407,0 -3.867,-1.51 -3.867,-4.43 l 0,-10.142 -6.122,0 c 1.203,0 2.178,0.975 2.178,2.178 l 0,8.068 c 0,5.275 2.945,7.965 7.761,7.965 4.815,0 7.862,-2.664 7.862,-8.094 l 0,-10.117 -3.944,0 z"
             id="path301"
             inkscape:connector-curvature="0"
             style="fill:#ffffff" /></g><g
           id="g303"><path
             d="m 25.695,52.507 0,-0.023 c 0,-1.797 1.28,-3.275 3.111,-3.275 2.102,0 3.064,1.631 3.064,3.416 0,0.141 -0.013,0.305 -0.023,0.469 l -4.379,0 c 0.176,0.81 0.739,1.232 1.537,1.232 0.6,0 1.033,-0.188 1.526,-0.645 l 1.022,0.902 c -0.587,0.728 -1.433,1.174 -2.571,1.174 -1.889,0 -3.287,-1.326 -3.287,-3.25 z m 4.438,-0.529 c -0.105,-0.799 -0.575,-1.338 -1.326,-1.338 -0.739,0 -1.221,0.527 -1.361,1.338 l 2.687,0 z"
             id="path305"
             inkscape:connector-curvature="0"
             style="fill:#ffffff" /><path
             d="m 32.385,52.483 0,-0.025 c 0,-2.1 1.374,-3.25 2.865,-3.25 0.95,0 1.537,0.434 1.96,0.938 l 0,-3.098 1.784,0 0,8.568 -1.784,0 0,-0.904 c -0.435,0.588 -1.033,1.021 -1.96,1.021 -1.468,0 -2.865,-1.15 -2.865,-3.25 z m 4.848,0 0,-0.025 c 0,-1.043 -0.692,-1.736 -1.526,-1.736 -0.833,0 -1.537,0.682 -1.537,1.736 l 0,0.025 c 0,1.045 0.704,1.736 1.537,1.736 0.834,10e-4 1.526,-0.691 1.526,-1.736 z"
             id="path307"
             inkscape:connector-curvature="0"
             style="fill:#ffffff" /><path
             d="m 42.762,52.507 0,-0.023 c 0,-1.797 1.373,-3.275 3.298,-3.275 1.186,0 1.925,0.398 2.513,1.057 l -1.092,1.174 c -0.399,-0.424 -0.799,-0.693 -1.433,-0.693 -0.892,0 -1.526,0.787 -1.526,1.713 l 0,0.025 c 0,0.963 0.623,1.736 1.597,1.736 0.599,0 1.01,-0.258 1.444,-0.67 l 1.045,1.057 c -0.611,0.672 -1.314,1.15 -2.571,1.15 -1.89,-0.001 -3.275,-1.456 -3.275,-3.251 z"
             id="path309"
             inkscape:connector-curvature="0"
             style="fill:#ffffff" /><path
             d="m 52.14,49.325 1.784,0 0,0.893 c 0.411,-0.529 0.939,-1.01 1.843,-1.01 1.351,0 2.137,0.891 2.137,2.336 l 0,4.072 -1.784,0 0,-3.51 c 0,-0.844 -0.4,-1.279 -1.08,-1.279 -0.681,0 -1.115,0.436 -1.115,1.279 l 0,3.51 -1.785,0 0,-6.291 z"
             id="path311"
             inkscape:connector-curvature="0"
             style="fill:#ffffff" /><path
             d="m 58.664,52.507 0,-0.023 c 0,-1.797 1.279,-3.275 3.111,-3.275 2.101,0 3.063,1.631 3.063,3.416 0,0.141 -0.012,0.305 -0.023,0.469 l -4.379,0 c 0.177,0.81 0.739,1.232 1.538,1.232 0.599,0 1.033,-0.188 1.525,-0.645 l 1.021,0.902 c -0.586,0.728 -1.432,1.174 -2.57,1.174 -1.888,0 -3.286,-1.326 -3.286,-3.25 z m 4.438,-0.529 c -0.105,-0.799 -0.575,-1.338 -1.326,-1.338 -0.74,0 -1.221,0.527 -1.361,1.338 l 2.687,0 z"
             id="path313"
             inkscape:connector-curvature="0"
             style="fill:#ffffff" /><path
             d="m 22.737,47.399 -2.16,3.475 -2.159,-3.475 -2.947,0 c 0.551,0 0.998,0.447 0.998,0.998 l 0,7.219 1.772,0 0,-5.328 2.289,3.475 0.047,0 2.313,-3.51 0,5.363 1.796,0 0,-8.217 -1.949,0 z"
             id="path315"
             inkscape:connector-curvature="0"
             style="fill:#ffffff" /><g
             id="g317"><path
               d="m 41.002,47.048 -0.881,0 0,0.588 c 0,0.543 0.437,0.986 0.979,0.996 l 0.9,0 0,-0.586 c 0,-0.551 -0.447,-0.998 -0.998,-0.998 z"
               id="path319"
               inkscape:connector-curvature="0"
               style="fill:#ffffff" /><rect
               x="40.167999"
               y="49.325001"
               width="1.785"
               height="6.2909999"
               id="rect321"
               style="fill:#ffffff" /></g><g
             id="g323"><path
               d="m 50.032,47.048 -0.88,0 0,0.588 c 0,0.543 0.436,0.986 0.978,0.996 l 0.901,0 0,-0.586 c 0,-0.551 -0.447,-0.998 -0.999,-0.998 z"
               id="path325"
               inkscape:connector-curvature="0"
               style="fill:#ffffff" /><rect
               x="49.199001"
               y="49.325001"
               width="1.784"
               height="6.2909999"
               id="rect327"
               style="fill:#ffffff" /></g></g></g></g></g></svg>